M48
; DRILL file {KiCad 6.0.0-d3dd2cf0fa~116~ubuntu20.04.1} date 2022年01月15日 15時11分57秒
; FORMAT={-:-/ absolute / inch / decimal}
; #@! TF.CreationDate,2022-01-15T15:11:57+09:00
; #@! TF.GenerationSoftware,Kicad,Pcbnew,6.0.0-d3dd2cf0fa~116~ubuntu20.04.1
; #@! TF.FileFunction,MixedPlating,1,2
FMAT,2
INCH
; #@! TA.AperFunction,Plated,PTH,ViaDrill
T1C0.0157
; #@! TA.AperFunction,Plated,PTH,ComponentDrill
T2C0.0300
; #@! TA.AperFunction,Plated,PTH,ComponentDrill
T3C0.0315
; #@! TA.AperFunction,Plated,PTH,ComponentDrill
T4C0.0394
; #@! TA.AperFunction,Plated,PTH,ComponentDrill
T5C0.0433
; #@! TA.AperFunction,Plated,PTH,ComponentDrill
T6C0.0866
%
G90
G05
T1
X3.64Y-3.3
X4.34Y-3.3
T2
X1.8692Y-3.1395
X1.8692Y-3.4395
X1.8692Y-3.5395
X1.9692Y-3.1395
X2.0692Y-3.1395
X2.1692Y-3.1395
X2.2692Y-3.1395
X2.3692Y-3.1395
X2.4692Y-3.1395
X2.4692Y-3.4395
X2.4692Y-3.5395
T3
X1.83Y-2.93
X2.13Y-2.93
X2.23Y-2.93
X2.53Y-2.93
X2.7Y-1.71
X2.7Y-1.86
X2.7Y-2.01
X2.7Y-2.16
X2.7Y-2.31
X3.0Y-1.71
X3.0Y-1.86
X3.0Y-2.01
X3.0Y-2.16
X3.0Y-2.31
T4
X1.83Y-1.61
X1.83Y-1.71
X1.83Y-1.81
X1.83Y-1.91
X1.83Y-2.01
X1.83Y-2.11
X1.83Y-2.21
X1.83Y-2.31
X1.83Y-2.41
X1.83Y-2.51
X1.83Y-2.61
X1.83Y-2.71
X2.53Y-1.61
X2.53Y-1.71
X2.53Y-1.81
X2.53Y-1.91
X2.53Y-2.01
X2.53Y-2.11
X2.53Y-2.21
X2.53Y-2.31
X2.53Y-2.41
X2.53Y-2.51
X2.53Y-2.61
X2.53Y-2.71
X2.7798Y-3.13
X2.8798Y-3.13
X3.1646Y-1.8
X3.1646Y-1.9
X3.1646Y-2.0
X3.1646Y-2.1
X3.1646Y-2.2
X3.1646Y-2.3
X3.1646Y-2.4
X3.1646Y-2.5
X3.1646Y-2.6
X3.1646Y-2.7
X3.1646Y-2.8
X3.1646Y-2.9
X3.1646Y-3.0
X3.1646Y-3.1
X3.1646Y-3.2
X3.1646Y-3.3
X3.54Y-3.54
X3.64Y-3.54
X3.74Y-3.54
X3.84Y-3.54
X3.94Y-3.54
X4.04Y-3.54
X4.14Y-3.54
X4.24Y-3.54
X4.34Y-3.54
X4.44Y-3.54
X4.54Y-3.54
X4.64Y-3.54
T5
X2.71Y-3.3514
X2.71Y-3.5286
X2.9659Y-3.3514
X2.9659Y-3.5286
T6
X1.6929Y-1.6177
X1.6929Y-3.5469
X4.8791Y-1.7594
X5.0Y-3.5469
T0
M30
