G04 #@! TF.GenerationSoftware,KiCad,Pcbnew,6.0.3-a3aad9c10e~116~ubuntu20.04.1*
G04 #@! TF.CreationDate,2022-03-24T13:24:43+09:00*
G04 #@! TF.ProjectId,fg06-c3dev-revb,66673036-2d63-4336-9465-762d72657662,rev?*
G04 #@! TF.SameCoordinates,Original*
G04 #@! TF.FileFunction,Copper,L2,Bot*
G04 #@! TF.FilePolarity,Positive*
%FSLAX46Y46*%
G04 Gerber Fmt 4.6, Leading zero omitted, Abs format (unit mm)*
G04 Created by KiCad (PCBNEW 6.0.3-a3aad9c10e~116~ubuntu20.04.1) date 2022-03-24 13:24:43*
%MOMM*%
%LPD*%
G01*
G04 APERTURE LIST*
G04 #@! TA.AperFunction,ComponentPad*
%ADD10C,1.600000*%
G04 #@! TD*
G04 #@! TA.AperFunction,ComponentPad*
%ADD11O,1.600000X1.600000*%
G04 #@! TD*
G04 #@! TA.AperFunction,ComponentPad*
%ADD12C,2.000000*%
G04 #@! TD*
G04 #@! TA.AperFunction,ComponentPad*
%ADD13R,1.700000X1.700000*%
G04 #@! TD*
G04 #@! TA.AperFunction,ComponentPad*
%ADD14O,1.700000X1.700000*%
G04 #@! TD*
G04 #@! TA.AperFunction,ComponentPad*
%ADD15C,3.500000*%
G04 #@! TD*
G04 #@! TA.AperFunction,ComponentPad*
%ADD16C,1.700000*%
G04 #@! TD*
G04 #@! TA.AperFunction,ComponentPad*
%ADD17R,1.524000X1.524000*%
G04 #@! TD*
G04 #@! TA.AperFunction,ComponentPad*
%ADD18C,1.524000*%
G04 #@! TD*
G04 #@! TA.AperFunction,ViaPad*
%ADD19C,0.800000*%
G04 #@! TD*
G04 #@! TA.AperFunction,Conductor*
%ADD20C,0.250000*%
G04 #@! TD*
G04 #@! TA.AperFunction,Conductor*
%ADD21C,0.600000*%
G04 #@! TD*
G04 APERTURE END LIST*
D10*
G04 #@! TO.P,R5,1*
G04 #@! TO.N,SCLK*
X68580000Y-51054000D03*
D11*
G04 #@! TO.P,R5,2*
G04 #@! TO.N,Vcc*
X76200000Y-51054000D03*
G04 #@! TD*
D12*
G04 #@! TO.P,SW1,1,1*
G04 #@! TO.N,GND*
X75334000Y-85126000D03*
X68834000Y-85126000D03*
G04 #@! TO.P,SW1,2,2*
G04 #@! TO.N,BOOT_SW*
X75334000Y-89626000D03*
X68834000Y-89626000D03*
G04 #@! TD*
D13*
G04 #@! TO.P,J1,1,Pin_1*
G04 #@! TO.N,GPIO19(D+)*
X117856000Y-89916000D03*
D14*
G04 #@! TO.P,J1,2,Pin_2*
G04 #@! TO.N,GPIO18(D-)*
X115316000Y-89916000D03*
G04 #@! TO.P,J1,3,Pin_3*
G04 #@! TO.N,Vcc_USB_5V*
X112776000Y-89916000D03*
G04 #@! TO.P,J1,4,Pin_4*
G04 #@! TO.N,GND*
X110236000Y-89916000D03*
G04 #@! TO.P,J1,5,Pin_5*
G04 #@! TO.N,GPIO0*
X107696000Y-89916000D03*
G04 #@! TO.P,J1,6,Pin_6*
G04 #@! TO.N,MISO*
X105156000Y-89916000D03*
G04 #@! TO.P,J1,7,Pin_7*
G04 #@! TO.N,MOSI*
X102616000Y-89916000D03*
G04 #@! TO.P,J1,8,Pin_8*
G04 #@! TO.N,SCLK*
X100076000Y-89916000D03*
G04 #@! TO.P,J1,9,Pin_9*
G04 #@! TO.N,GPIO21(TX0)*
X97536000Y-89916000D03*
G04 #@! TO.P,J1,10,Pin_10*
G04 #@! TO.N,GPIO20(RX0)*
X94996000Y-89916000D03*
G04 #@! TO.P,J1,11,Pin_11*
G04 #@! TO.N,GND*
X92456000Y-89916000D03*
G04 #@! TO.P,J1,12,Pin_12*
G04 #@! TO.N,Vcc*
X89916000Y-89916000D03*
G04 #@! TD*
D13*
G04 #@! TO.P,JP1,1*
G04 #@! TO.N,Net-(JP1-Pad1)*
X70607000Y-79502000D03*
D14*
G04 #@! TO.P,JP1,2*
G04 #@! TO.N,Vcc_USB_5V*
X73147000Y-79502000D03*
G04 #@! TD*
D10*
G04 #@! TO.P,R4,1*
G04 #@! TO.N,MISO*
X68580000Y-47244000D03*
D11*
G04 #@! TO.P,R4,2*
G04 #@! TO.N,Vcc*
X76200000Y-47244000D03*
G04 #@! TD*
D15*
G04 #@! TO.P,REF4,1*
G04 #@! TO.N,N/C*
X127000000Y-90090000D03*
G04 #@! TD*
D10*
G04 #@! TO.P,R7,1*
G04 #@! TO.N,SD_CS*
X68580000Y-58674000D03*
D11*
G04 #@! TO.P,R7,2*
G04 #@! TO.N,Vcc*
X76200000Y-58674000D03*
G04 #@! TD*
D10*
G04 #@! TO.P,R6,1*
G04 #@! TO.N,LCD_CS*
X68580000Y-54864000D03*
D11*
G04 #@! TO.P,R6,2*
G04 #@! TO.N,Vcc*
X76200000Y-54864000D03*
G04 #@! TD*
D15*
G04 #@! TO.P,REF2,1*
G04 #@! TO.N,N/C*
X43000000Y-90090000D03*
G04 #@! TD*
G04 #@! TO.P,REF1,1*
G04 #@! TO.N,N/C*
X43000000Y-41090000D03*
G04 #@! TD*
D16*
G04 #@! TO.P,U2,1,GND*
G04 #@! TO.N,GND*
X64262000Y-68834000D03*
G04 #@! TO.P,U2,2,G4*
G04 #@! TO.N,SCLK*
X64262000Y-66294000D03*
G04 #@! TO.P,U2,3,G5*
G04 #@! TO.N,MOSI*
X64262000Y-63754000D03*
G04 #@! TO.P,U2,4,G6*
G04 #@! TO.N,MISO*
X64262000Y-61214000D03*
G04 #@! TO.P,U2,5,G7*
G04 #@! TO.N,LCD_CS*
X64262000Y-58674000D03*
G04 #@! TO.P,U2,6,G8*
G04 #@! TO.N,LCD_RST*
X64262000Y-56134000D03*
G04 #@! TO.P,U2,7,G10*
G04 #@! TO.N,LCD_DC*
X64262000Y-53594000D03*
G04 #@! TO.P,U2,8,5V*
G04 #@! TO.N,unconnected-(U2-Pad8)*
X64262000Y-51054000D03*
G04 #@! TO.P,U2,9,GND*
G04 #@! TO.N,GND*
X64262000Y-48514000D03*
G04 #@! TO.P,U2,10,5V*
G04 #@! TO.N,unconnected-(U2-Pad10)*
X64262000Y-45974000D03*
G04 #@! TO.P,U2,11,G1*
G04 #@! TO.N,SD_CS*
X64262000Y-43434000D03*
G04 #@! TO.P,U2,12,G0*
G04 #@! TO.N,GPIO0*
X64262000Y-40894000D03*
G04 #@! TO.P,U2,13,GND*
G04 #@! TO.N,GND*
X46482000Y-40894000D03*
G04 #@! TO.P,U2,14,5V*
G04 #@! TO.N,Vcc_USB_5V*
X46482000Y-43434000D03*
G04 #@! TO.P,U2,15,G19*
G04 #@! TO.N,GPIO19(D+)*
X46482000Y-45974000D03*
G04 #@! TO.P,U2,16,G18*
G04 #@! TO.N,GPIO18(D-)*
X46482000Y-48514000D03*
G04 #@! TO.P,U2,17,GND*
G04 #@! TO.N,GND*
X46482000Y-51054000D03*
G04 #@! TO.P,U2,18,G9*
G04 #@! TO.N,BOOT_SW*
X46482000Y-53594000D03*
G04 #@! TO.P,U2,19,EN*
G04 #@! TO.N,unconnected-(U2-Pad19)*
X46482000Y-56134000D03*
G04 #@! TO.P,U2,20,G20*
G04 #@! TO.N,GPIO20(RX0)*
X46482000Y-58674000D03*
G04 #@! TO.P,U2,21,G21*
G04 #@! TO.N,GPIO21(TX0)*
X46482000Y-61214000D03*
G04 #@! TO.P,U2,22,3V3*
G04 #@! TO.N,Vcc*
X46482000Y-63754000D03*
G04 #@! TO.P,U2,23,NC(DUMMY)*
G04 #@! TO.N,unconnected-(U2-Pad23)*
X46482000Y-66294000D03*
G04 #@! TO.P,U2,24,NC(DUMMY)*
G04 #@! TO.N,unconnected-(U2-Pad24)*
X46482000Y-68834000D03*
G04 #@! TD*
D15*
G04 #@! TO.P,REF3,1*
G04 #@! TO.N,N/C*
X124000000Y-44690000D03*
G04 #@! TD*
D10*
G04 #@! TO.P,R1,1*
G04 #@! TO.N,Net-(R1-Pad1)*
X46482000Y-74422000D03*
D11*
G04 #@! TO.P,R1,2*
G04 #@! TO.N,GND*
X54102000Y-74422000D03*
G04 #@! TD*
D10*
G04 #@! TO.P,R2,1*
G04 #@! TO.N,Net-(R2-Pad1)*
X56642000Y-74422000D03*
D11*
G04 #@! TO.P,R2,2*
G04 #@! TO.N,GND*
X64262000Y-74422000D03*
G04 #@! TD*
D17*
G04 #@! TO.P,U1,*
G04 #@! TO.N,*
X47478000Y-87364000D03*
D18*
X62718000Y-87364000D03*
X62718000Y-89904000D03*
D17*
X47478000Y-89904000D03*
G04 #@! TO.P,U1,1,VBus*
G04 #@! TO.N,Net-(JP1-Pad1)*
X62718000Y-79744000D03*
D18*
G04 #@! TO.P,U1,2,D-*
G04 #@! TO.N,GPIO18(D-)*
X60178000Y-79744000D03*
G04 #@! TO.P,U1,3,D+*
G04 #@! TO.N,GPIO19(D+)*
X57638000Y-79744000D03*
G04 #@! TO.P,U1,4,GND*
G04 #@! TO.N,GND*
X55098000Y-79744000D03*
G04 #@! TO.P,U1,5,CC1*
G04 #@! TO.N,Net-(R2-Pad1)*
X52558000Y-79744000D03*
G04 #@! TO.P,U1,6,CC2*
G04 #@! TO.N,Net-(R1-Pad1)*
X50018000Y-79744000D03*
G04 #@! TO.P,U1,7,GND*
G04 #@! TO.N,GND*
X47478000Y-79744000D03*
G04 #@! TD*
D16*
G04 #@! TO.P,U3,1,LED-*
G04 #@! TO.N,GND*
X80380000Y-45720000D03*
G04 #@! TO.P,U3,2,LED+*
G04 #@! TO.N,Vcc*
X80380000Y-48260000D03*
G04 #@! TO.P,U3,3,SD_CS(SD_CS)*
G04 #@! TO.N,SD_CS*
X80380000Y-50800000D03*
G04 #@! TO.P,U3,4,MOSI(SD_MOSI)*
G04 #@! TO.N,MOSI*
X80380000Y-53340000D03*
G04 #@! TO.P,U3,5,MISO(SD_MISO)*
G04 #@! TO.N,MISO*
X80380000Y-55880000D03*
G04 #@! TO.P,U3,6,SCK(SD_CLOCK)*
G04 #@! TO.N,SCLK*
X80380000Y-58420000D03*
G04 #@! TO.P,U3,7,CS(LCD_CS)*
G04 #@! TO.N,LCD_CS*
X80380000Y-60960000D03*
G04 #@! TO.P,U3,8,SCL(LDC_CLOCK)*
G04 #@! TO.N,SCLK*
X80380000Y-63500000D03*
G04 #@! TO.P,U3,9,SDA(LCD_MOSI)*
G04 #@! TO.N,MOSI*
X80380000Y-66040000D03*
G04 #@! TO.P,U3,10,A0(LCD_DC)*
G04 #@! TO.N,LCD_DC*
X80380000Y-68580000D03*
G04 #@! TO.P,U3,11,RESET(LCD_RST)*
G04 #@! TO.N,LCD_RST*
X80380000Y-71120000D03*
G04 #@! TO.P,U3,12,NC*
G04 #@! TO.N,unconnected-(U3-Pad12)*
X80380000Y-73660000D03*
G04 #@! TO.P,U3,13,NC*
G04 #@! TO.N,unconnected-(U3-Pad13)*
X80380000Y-76200000D03*
G04 #@! TO.P,U3,14,NC*
G04 #@! TO.N,unconnected-(U3-Pad14)*
X80380000Y-78740000D03*
G04 #@! TO.P,U3,15,VCC*
G04 #@! TO.N,Vcc*
X80380000Y-81280000D03*
G04 #@! TO.P,U3,16,GND*
G04 #@! TO.N,GND*
X80380000Y-83820000D03*
G04 #@! TD*
D10*
G04 #@! TO.P,R3,1*
G04 #@! TO.N,MOSI*
X68580000Y-43434000D03*
D11*
G04 #@! TO.P,R3,2*
G04 #@! TO.N,Vcc*
X76200000Y-43434000D03*
G04 #@! TD*
D19*
G04 #@! TO.N,GND*
X92456000Y-83820000D03*
X110236000Y-83820000D03*
G04 #@! TD*
D20*
G04 #@! TO.N,GPIO19(D+)*
X46878400Y-54864000D02*
X58263300Y-66248900D01*
X46482000Y-45974000D02*
X45281800Y-47174200D01*
X58263300Y-79118700D02*
X57638000Y-79744000D01*
X45281800Y-47174200D02*
X45281800Y-54151600D01*
X58263300Y-66248900D02*
X58263300Y-79118700D01*
X45994200Y-54864000D02*
X46878400Y-54864000D01*
X45281800Y-54151600D02*
X45994200Y-54864000D01*
G04 #@! TO.N,GPIO18(D-)*
X60178000Y-79744000D02*
X60178000Y-62210000D01*
X60178000Y-62210000D02*
X46482000Y-48514000D01*
D21*
G04 #@! TO.N,Vcc_USB_5V*
X60960000Y-57912000D02*
X46482000Y-43434000D01*
X73021502Y-79502000D02*
X60960000Y-67440498D01*
X73147000Y-79502000D02*
X73021502Y-79502000D01*
X60960000Y-67440498D02*
X60960000Y-57912000D01*
D20*
G04 #@! TO.N,GPIO0*
X68252300Y-40894000D02*
X64262000Y-40894000D01*
X75759300Y-48401000D02*
X68252300Y-40894000D01*
X107696000Y-78938100D02*
X80827900Y-52070000D01*
X76078000Y-48401000D02*
X75759300Y-48401000D01*
X79747000Y-52070000D02*
X76078000Y-48401000D01*
X107696000Y-89916000D02*
X107696000Y-78938100D01*
X80827900Y-52070000D02*
X79747000Y-52070000D01*
G04 #@! TO.N,MISO*
X75704800Y-55995700D02*
X80264300Y-55995700D01*
X105156000Y-89916000D02*
X105156000Y-80656000D01*
X65126900Y-52324000D02*
X63850400Y-52324000D01*
X68580000Y-48870900D02*
X65126900Y-52324000D01*
X63076100Y-53098300D02*
X63076100Y-60028100D01*
X68580000Y-48870900D02*
X75704800Y-55995700D01*
X68580000Y-47244000D02*
X68580000Y-48870900D01*
X105156000Y-80656000D02*
X80380000Y-55880000D01*
X80264300Y-55995700D02*
X80380000Y-55880000D01*
X63850400Y-52324000D02*
X63076100Y-53098300D01*
X63076100Y-60028100D02*
X64262000Y-61214000D01*
G04 #@! TO.N,MOSI*
X98806000Y-90314000D02*
X99583300Y-91091300D01*
X102616000Y-89916000D02*
X101440700Y-89916000D01*
X99583300Y-91091300D02*
X100632800Y-91091300D01*
X80380000Y-66040000D02*
X98806000Y-84466000D01*
X98806000Y-84466000D02*
X98806000Y-90314000D01*
X74447600Y-49301600D02*
X76341600Y-49301600D01*
X100632800Y-91091300D02*
X101440700Y-90283400D01*
X68580000Y-43434000D02*
X74447600Y-49301600D01*
X101440700Y-90283400D02*
X101440700Y-89916000D01*
X76341600Y-49301600D02*
X80380000Y-53340000D01*
G04 #@! TO.N,SCLK*
X74169000Y-56643000D02*
X68580000Y-51054000D01*
X80380000Y-58420000D02*
X78603000Y-56643000D01*
X78603000Y-56643000D02*
X74169000Y-56643000D01*
X100076000Y-83196000D02*
X100076000Y-89916000D01*
X81574600Y-59614600D02*
X80380000Y-58420000D01*
X80380000Y-63500000D02*
X81574600Y-62305400D01*
X80380000Y-63500000D02*
X100076000Y-83196000D01*
X81574600Y-62305400D02*
X81574600Y-59614600D01*
G04 #@! TO.N,GPIO20(RX0)*
X61195300Y-84861600D02*
X56388000Y-80054300D01*
X93820700Y-90283400D02*
X93012800Y-91091300D01*
X57812900Y-70004900D02*
X46482000Y-58674000D01*
X67989600Y-91091300D02*
X61759900Y-84861600D01*
X94996000Y-89916000D02*
X93820700Y-89916000D01*
X93820700Y-89916000D02*
X93820700Y-90283400D01*
X56388000Y-80054300D02*
X56388000Y-77517100D01*
X56388000Y-77517100D02*
X57812900Y-76092200D01*
X61759900Y-84861600D02*
X61195300Y-84861600D01*
X57812900Y-76092200D02*
X57812900Y-70004900D01*
X93012800Y-91091300D02*
X67989600Y-91091300D01*
D21*
G04 #@! TO.N,Vcc*
X76200000Y-43434000D02*
X76200000Y-47244000D01*
X76200000Y-77100000D02*
X80380000Y-81280000D01*
X89465700Y-89465700D02*
X89916000Y-89916000D01*
X88565700Y-89465700D02*
X89465700Y-89465700D01*
X80380000Y-81280000D02*
X88565700Y-89465700D01*
X76200000Y-54864000D02*
X76200000Y-51054000D01*
X76200000Y-58674000D02*
X76200000Y-77100000D01*
D20*
G04 #@! TO.N,Net-(R1-Pad1)*
X50018000Y-77958000D02*
X46482000Y-74422000D01*
X50018000Y-79744000D02*
X50018000Y-77958000D01*
G04 #@! TO.N,Net-(R2-Pad1)*
X52558000Y-78506000D02*
X56642000Y-74422000D01*
X52558000Y-79744000D02*
X52558000Y-78506000D01*
G04 #@! TO.N,BOOT_SW*
X46482000Y-53594000D02*
X59016600Y-66128600D01*
X59016600Y-66128600D02*
X59016600Y-80120600D01*
X59016600Y-80120600D02*
X68522000Y-89626000D01*
X68522000Y-89626000D02*
X68834000Y-89626000D01*
G04 #@! TO.N,LCD_RST*
X80380000Y-71120000D02*
X78035900Y-68775900D01*
X65671800Y-57543800D02*
X64262000Y-56134000D01*
X78035900Y-58880400D02*
X76699300Y-57543800D01*
X76699300Y-57543800D02*
X65671800Y-57543800D01*
X78035900Y-68775900D02*
X78035900Y-58880400D01*
G04 #@! TO.N,LCD_DC*
X67761400Y-57093400D02*
X64262000Y-53594000D01*
X79004800Y-67204800D02*
X79004800Y-59210400D01*
X76887800Y-57093400D02*
X67761400Y-57093400D01*
X79004800Y-59210400D02*
X76887800Y-57093400D01*
X80380000Y-68580000D02*
X79004800Y-67204800D01*
G04 #@! TD*
G04 #@! TA.AperFunction,Conductor*
G04 #@! TO.N,GND*
G36*
X128974121Y-39136002D02*
G01*
X129020614Y-39189658D01*
X129032000Y-39242000D01*
X129032000Y-88650544D01*
X129011998Y-88718665D01*
X128958342Y-88765158D01*
X128888068Y-88775262D01*
X128823488Y-88745768D01*
X128801235Y-88720546D01*
X128797926Y-88715593D01*
X128797922Y-88715588D01*
X128795633Y-88712162D01*
X128792919Y-88709068D01*
X128792915Y-88709062D01*
X128603136Y-88492662D01*
X128600427Y-88489573D01*
X128572784Y-88465331D01*
X128380938Y-88297085D01*
X128380932Y-88297081D01*
X128377838Y-88294367D01*
X128374412Y-88292078D01*
X128374407Y-88292074D01*
X128135106Y-88132179D01*
X128131673Y-88129885D01*
X128127974Y-88128061D01*
X128127969Y-88128058D01*
X127880834Y-88006185D01*
X127866145Y-87998941D01*
X127859511Y-87996689D01*
X127589710Y-87905104D01*
X127589706Y-87905103D01*
X127585797Y-87903776D01*
X127581753Y-87902972D01*
X127581747Y-87902970D01*
X127299465Y-87846820D01*
X127299459Y-87846819D01*
X127295426Y-87846017D01*
X127291321Y-87845748D01*
X127291314Y-87845747D01*
X127004119Y-87826924D01*
X127000000Y-87826654D01*
X126995881Y-87826924D01*
X126708686Y-87845747D01*
X126708679Y-87845748D01*
X126704574Y-87846017D01*
X126700541Y-87846819D01*
X126700535Y-87846820D01*
X126418253Y-87902970D01*
X126418247Y-87902972D01*
X126414203Y-87903776D01*
X126410294Y-87905103D01*
X126410290Y-87905104D01*
X126140489Y-87996689D01*
X126133855Y-87998941D01*
X126119166Y-88006185D01*
X125872031Y-88128058D01*
X125872026Y-88128061D01*
X125868327Y-88129885D01*
X125864894Y-88132179D01*
X125625593Y-88292074D01*
X125625588Y-88292078D01*
X125622162Y-88294367D01*
X125619068Y-88297081D01*
X125619062Y-88297085D01*
X125427216Y-88465331D01*
X125399573Y-88489573D01*
X125396864Y-88492662D01*
X125207085Y-88709062D01*
X125207081Y-88709068D01*
X125204367Y-88712162D01*
X125202078Y-88715588D01*
X125202074Y-88715593D01*
X125132783Y-88819295D01*
X125039885Y-88958327D01*
X125038061Y-88962026D01*
X125038058Y-88962031D01*
X124992351Y-89054717D01*
X124908941Y-89223855D01*
X124907616Y-89227760D01*
X124907615Y-89227761D01*
X124816273Y-89496848D01*
X124813776Y-89504203D01*
X124812972Y-89508247D01*
X124812970Y-89508253D01*
X124776150Y-89693361D01*
X124756017Y-89794574D01*
X124755748Y-89798679D01*
X124755747Y-89798686D01*
X124743694Y-89982590D01*
X124736654Y-90090000D01*
X124736924Y-90094119D01*
X124753969Y-90354172D01*
X124756017Y-90385426D01*
X124756819Y-90389459D01*
X124756820Y-90389465D01*
X124812970Y-90671747D01*
X124813776Y-90675797D01*
X124815103Y-90679706D01*
X124815104Y-90679710D01*
X124887588Y-90893240D01*
X124908941Y-90956145D01*
X124947745Y-91034831D01*
X125037391Y-91216615D01*
X125039885Y-91221673D01*
X125071239Y-91268598D01*
X125182906Y-91435719D01*
X125204367Y-91467838D01*
X125207081Y-91470932D01*
X125207085Y-91470938D01*
X125371546Y-91658468D01*
X125399573Y-91690427D01*
X125402662Y-91693136D01*
X125619062Y-91882915D01*
X125619068Y-91882919D01*
X125622162Y-91885633D01*
X125750275Y-91971235D01*
X125795803Y-92025712D01*
X125804651Y-92096155D01*
X125774010Y-92160199D01*
X125713608Y-92197510D01*
X125680273Y-92202000D01*
X44319727Y-92202000D01*
X44251606Y-92181998D01*
X44205113Y-92128342D01*
X44195009Y-92058068D01*
X44224503Y-91993488D01*
X44249725Y-91971235D01*
X44377838Y-91885633D01*
X44380932Y-91882919D01*
X44380938Y-91882915D01*
X44597338Y-91693136D01*
X44600427Y-91690427D01*
X44628454Y-91658468D01*
X44792915Y-91470938D01*
X44792919Y-91470932D01*
X44795633Y-91467838D01*
X44817095Y-91435719D01*
X44928761Y-91268598D01*
X44960115Y-91221673D01*
X44962610Y-91216615D01*
X45052255Y-91034831D01*
X45091059Y-90956145D01*
X45112412Y-90893240D01*
X45173211Y-90714134D01*
X46207500Y-90714134D01*
X46214255Y-90776316D01*
X46265385Y-90912705D01*
X46352739Y-91029261D01*
X46469295Y-91116615D01*
X46605684Y-91167745D01*
X46667866Y-91174500D01*
X48288134Y-91174500D01*
X48350316Y-91167745D01*
X48486705Y-91116615D01*
X48603261Y-91029261D01*
X48690615Y-90912705D01*
X48741745Y-90776316D01*
X48748500Y-90714134D01*
X48748500Y-89093866D01*
X48741745Y-89031684D01*
X48690615Y-88895295D01*
X48603261Y-88778739D01*
X48544668Y-88734826D01*
X48502153Y-88677967D01*
X48497127Y-88607148D01*
X48531187Y-88544855D01*
X48544668Y-88533174D01*
X48596081Y-88494642D01*
X48603261Y-88489261D01*
X48690615Y-88372705D01*
X48741745Y-88236316D01*
X48748500Y-88174134D01*
X48748500Y-86553866D01*
X48741745Y-86491684D01*
X48690615Y-86355295D01*
X48603261Y-86238739D01*
X48486705Y-86151385D01*
X48350316Y-86100255D01*
X48288134Y-86093500D01*
X46667866Y-86093500D01*
X46605684Y-86100255D01*
X46469295Y-86151385D01*
X46352739Y-86238739D01*
X46265385Y-86355295D01*
X46214255Y-86491684D01*
X46207500Y-86553866D01*
X46207500Y-88174134D01*
X46214255Y-88236316D01*
X46265385Y-88372705D01*
X46352739Y-88489261D01*
X46359919Y-88494642D01*
X46411332Y-88533174D01*
X46453847Y-88590033D01*
X46458873Y-88660852D01*
X46424813Y-88723145D01*
X46411333Y-88734825D01*
X46352739Y-88778739D01*
X46265385Y-88895295D01*
X46214255Y-89031684D01*
X46207500Y-89093866D01*
X46207500Y-90714134D01*
X45173211Y-90714134D01*
X45184896Y-90679710D01*
X45184897Y-90679706D01*
X45186224Y-90675797D01*
X45187030Y-90671747D01*
X45243180Y-90389465D01*
X45243181Y-90389459D01*
X45243983Y-90385426D01*
X45246032Y-90354172D01*
X45263076Y-90094119D01*
X45263346Y-90090000D01*
X45256306Y-89982590D01*
X45244253Y-89798686D01*
X45244252Y-89798679D01*
X45243983Y-89794574D01*
X45223851Y-89693361D01*
X45187030Y-89508253D01*
X45187028Y-89508247D01*
X45186224Y-89504203D01*
X45183728Y-89496848D01*
X45092385Y-89227761D01*
X45092384Y-89227760D01*
X45091059Y-89223855D01*
X45007649Y-89054717D01*
X44961942Y-88962031D01*
X44961939Y-88962026D01*
X44960115Y-88958327D01*
X44867217Y-88819295D01*
X44797926Y-88715593D01*
X44797922Y-88715588D01*
X44795633Y-88712162D01*
X44792919Y-88709068D01*
X44792915Y-88709062D01*
X44603136Y-88492662D01*
X44600427Y-88489573D01*
X44572784Y-88465331D01*
X44380938Y-88297085D01*
X44380932Y-88297081D01*
X44377838Y-88294367D01*
X44374412Y-88292078D01*
X44374407Y-88292074D01*
X44135106Y-88132179D01*
X44131673Y-88129885D01*
X44127974Y-88128061D01*
X44127969Y-88128058D01*
X43880834Y-88006185D01*
X43866145Y-87998941D01*
X43859511Y-87996689D01*
X43589710Y-87905104D01*
X43589706Y-87905103D01*
X43585797Y-87903776D01*
X43581753Y-87902972D01*
X43581747Y-87902970D01*
X43299465Y-87846820D01*
X43299459Y-87846819D01*
X43295426Y-87846017D01*
X43291321Y-87845748D01*
X43291314Y-87845747D01*
X43004119Y-87826924D01*
X43000000Y-87826654D01*
X42995881Y-87826924D01*
X42708686Y-87845747D01*
X42708679Y-87845748D01*
X42704574Y-87846017D01*
X42700541Y-87846819D01*
X42700535Y-87846820D01*
X42418253Y-87902970D01*
X42418247Y-87902972D01*
X42414203Y-87903776D01*
X42410294Y-87905103D01*
X42410290Y-87905104D01*
X42140489Y-87996689D01*
X42133855Y-87998941D01*
X42119166Y-88006185D01*
X41872031Y-88128058D01*
X41872026Y-88128061D01*
X41868327Y-88129885D01*
X41864894Y-88132179D01*
X41625593Y-88292074D01*
X41625588Y-88292078D01*
X41622162Y-88294367D01*
X41619068Y-88297081D01*
X41619062Y-88297085D01*
X41427216Y-88465331D01*
X41399573Y-88489573D01*
X41396864Y-88492662D01*
X41207085Y-88709062D01*
X41207081Y-88709068D01*
X41204367Y-88712162D01*
X41202078Y-88715588D01*
X41202074Y-88715593D01*
X41124765Y-88831295D01*
X41070288Y-88876823D01*
X40999845Y-88885671D01*
X40935801Y-88855030D01*
X40898490Y-88794628D01*
X40894000Y-88761293D01*
X40894000Y-80802777D01*
X46783777Y-80802777D01*
X46793074Y-80814793D01*
X46836069Y-80844898D01*
X46845555Y-80850376D01*
X47036993Y-80939645D01*
X47047285Y-80943391D01*
X47251309Y-80998059D01*
X47262104Y-80999962D01*
X47472525Y-81018372D01*
X47483475Y-81018372D01*
X47693896Y-80999962D01*
X47704691Y-80998059D01*
X47908715Y-80943391D01*
X47919007Y-80939645D01*
X48110445Y-80850376D01*
X48119931Y-80844898D01*
X48163764Y-80814207D01*
X48172139Y-80803729D01*
X48165071Y-80790281D01*
X47490812Y-80116022D01*
X47476868Y-80108408D01*
X47475035Y-80108539D01*
X47468420Y-80112790D01*
X46790207Y-80791003D01*
X46783777Y-80802777D01*
X40894000Y-80802777D01*
X40894000Y-79749475D01*
X46203628Y-79749475D01*
X46222038Y-79959896D01*
X46223941Y-79970691D01*
X46278609Y-80174715D01*
X46282355Y-80185007D01*
X46371623Y-80376441D01*
X46377103Y-80385932D01*
X46407794Y-80429765D01*
X46418271Y-80438140D01*
X46431718Y-80431072D01*
X47105978Y-79756812D01*
X47113592Y-79742868D01*
X47113461Y-79741035D01*
X47109210Y-79734420D01*
X46430997Y-79056207D01*
X46419223Y-79049777D01*
X46407207Y-79059074D01*
X46377103Y-79102068D01*
X46371623Y-79111559D01*
X46282355Y-79302993D01*
X46278609Y-79313285D01*
X46223941Y-79517309D01*
X46222038Y-79528104D01*
X46203628Y-79738525D01*
X46203628Y-79749475D01*
X40894000Y-79749475D01*
X40894000Y-78684271D01*
X46783860Y-78684271D01*
X46790928Y-78697718D01*
X47465188Y-79371978D01*
X47479132Y-79379592D01*
X47480965Y-79379461D01*
X47487580Y-79375210D01*
X48165793Y-78696997D01*
X48172223Y-78685223D01*
X48162926Y-78673207D01*
X48119931Y-78643102D01*
X48110445Y-78637624D01*
X47919007Y-78548355D01*
X47908715Y-78544609D01*
X47704691Y-78489941D01*
X47693896Y-78488038D01*
X47483475Y-78469628D01*
X47472525Y-78469628D01*
X47262104Y-78488038D01*
X47251309Y-78489941D01*
X47047285Y-78544609D01*
X47036993Y-78548355D01*
X46845559Y-78637623D01*
X46836068Y-78643103D01*
X46792235Y-78673794D01*
X46783860Y-78684271D01*
X40894000Y-78684271D01*
X40894000Y-47154143D01*
X44643580Y-47154143D01*
X44644326Y-47162035D01*
X44647741Y-47198161D01*
X44648300Y-47210019D01*
X44648300Y-54072833D01*
X44647773Y-54084016D01*
X44646098Y-54091509D01*
X44646347Y-54099435D01*
X44646347Y-54099436D01*
X44648238Y-54159586D01*
X44648300Y-54163545D01*
X44648300Y-54191456D01*
X44648797Y-54195390D01*
X44648797Y-54195391D01*
X44648805Y-54195456D01*
X44649738Y-54207293D01*
X44651127Y-54251489D01*
X44655953Y-54268099D01*
X44656778Y-54270939D01*
X44660787Y-54290300D01*
X44663326Y-54310397D01*
X44666245Y-54317768D01*
X44666245Y-54317770D01*
X44679604Y-54351512D01*
X44683449Y-54362742D01*
X44688804Y-54381173D01*
X44695782Y-54405193D01*
X44699815Y-54412012D01*
X44699817Y-54412017D01*
X44706093Y-54422628D01*
X44714788Y-54440376D01*
X44722248Y-54459217D01*
X44726910Y-54465633D01*
X44726910Y-54465634D01*
X44748236Y-54494987D01*
X44754752Y-54504907D01*
X44777258Y-54542962D01*
X44791579Y-54557283D01*
X44804419Y-54572316D01*
X44816328Y-54588707D01*
X44844239Y-54611797D01*
X44850393Y-54616888D01*
X44859174Y-54624878D01*
X45384399Y-55150104D01*
X45418424Y-55212416D01*
X45413359Y-55283232D01*
X45399394Y-55310200D01*
X45296743Y-55460680D01*
X45202688Y-55663305D01*
X45142989Y-55878570D01*
X45119251Y-56100695D01*
X45119548Y-56105848D01*
X45119548Y-56105851D01*
X45125011Y-56200590D01*
X45132110Y-56323715D01*
X45133247Y-56328761D01*
X45133248Y-56328767D01*
X45153119Y-56416939D01*
X45181222Y-56541639D01*
X45265266Y-56748616D01*
X45270721Y-56757517D01*
X45352089Y-56890298D01*
X45381987Y-56939088D01*
X45528250Y-57107938D01*
X45700126Y-57250632D01*
X45743807Y-57276157D01*
X45773445Y-57293476D01*
X45822169Y-57345114D01*
X45835240Y-57414897D01*
X45808509Y-57480669D01*
X45768055Y-57514027D01*
X45755607Y-57520507D01*
X45751474Y-57523610D01*
X45751471Y-57523612D01*
X45693556Y-57567096D01*
X45576965Y-57654635D01*
X45422629Y-57816138D01*
X45419715Y-57820410D01*
X45419714Y-57820411D01*
X45407404Y-57838457D01*
X45296743Y-58000680D01*
X45202688Y-58203305D01*
X45142989Y-58418570D01*
X45119251Y-58640695D01*
X45119548Y-58645848D01*
X45119548Y-58645851D01*
X45125011Y-58740590D01*
X45132110Y-58863715D01*
X45133247Y-58868761D01*
X45133248Y-58868767D01*
X45141955Y-58907402D01*
X45181222Y-59081639D01*
X45265266Y-59288616D01*
X45267965Y-59293020D01*
X45372538Y-59463668D01*
X45381987Y-59479088D01*
X45528250Y-59647938D01*
X45700126Y-59790632D01*
X45746961Y-59818000D01*
X45773445Y-59833476D01*
X45822169Y-59885114D01*
X45835240Y-59954897D01*
X45808509Y-60020669D01*
X45768055Y-60054027D01*
X45755607Y-60060507D01*
X45751474Y-60063610D01*
X45751471Y-60063612D01*
X45587271Y-60186897D01*
X45576965Y-60194635D01*
X45573393Y-60198373D01*
X45436012Y-60342134D01*
X45422629Y-60356138D01*
X45419715Y-60360410D01*
X45419714Y-60360411D01*
X45359408Y-60448817D01*
X45296743Y-60540680D01*
X45202688Y-60743305D01*
X45142989Y-60958570D01*
X45119251Y-61180695D01*
X45119548Y-61185848D01*
X45119548Y-61185851D01*
X45125011Y-61280590D01*
X45132110Y-61403715D01*
X45133247Y-61408761D01*
X45133248Y-61408767D01*
X45153119Y-61496939D01*
X45181222Y-61621639D01*
X45265266Y-61828616D01*
X45381987Y-62019088D01*
X45528250Y-62187938D01*
X45700126Y-62330632D01*
X45704668Y-62333286D01*
X45773445Y-62373476D01*
X45822169Y-62425114D01*
X45835240Y-62494897D01*
X45808509Y-62560669D01*
X45768055Y-62594027D01*
X45755607Y-62600507D01*
X45751474Y-62603610D01*
X45751471Y-62603612D01*
X45585839Y-62727972D01*
X45576965Y-62734635D01*
X45422629Y-62896138D01*
X45296743Y-63080680D01*
X45202688Y-63283305D01*
X45142989Y-63498570D01*
X45119251Y-63720695D01*
X45119548Y-63725848D01*
X45119548Y-63725851D01*
X45125011Y-63820590D01*
X45132110Y-63943715D01*
X45133247Y-63948761D01*
X45133248Y-63948767D01*
X45153119Y-64036939D01*
X45181222Y-64161639D01*
X45265266Y-64368616D01*
X45381987Y-64559088D01*
X45528250Y-64727938D01*
X45700126Y-64870632D01*
X45727293Y-64886507D01*
X45773445Y-64913476D01*
X45822169Y-64965114D01*
X45835240Y-65034897D01*
X45808509Y-65100669D01*
X45768055Y-65134027D01*
X45755607Y-65140507D01*
X45751474Y-65143610D01*
X45751471Y-65143612D01*
X45727247Y-65161800D01*
X45576965Y-65274635D01*
X45422629Y-65436138D01*
X45296743Y-65620680D01*
X45202688Y-65823305D01*
X45142989Y-66038570D01*
X45119251Y-66260695D01*
X45119548Y-66265848D01*
X45119548Y-66265851D01*
X45125011Y-66360590D01*
X45132110Y-66483715D01*
X45133247Y-66488761D01*
X45133248Y-66488767D01*
X45150089Y-66563495D01*
X45181222Y-66701639D01*
X45265266Y-66908616D01*
X45381987Y-67099088D01*
X45528250Y-67267938D01*
X45700126Y-67410632D01*
X45770595Y-67451811D01*
X45773445Y-67453476D01*
X45822169Y-67505114D01*
X45835240Y-67574897D01*
X45808509Y-67640669D01*
X45768055Y-67674027D01*
X45755607Y-67680507D01*
X45751474Y-67683610D01*
X45751471Y-67683612D01*
X45581100Y-67811530D01*
X45576965Y-67814635D01*
X45422629Y-67976138D01*
X45296743Y-68160680D01*
X45202688Y-68363305D01*
X45142989Y-68578570D01*
X45119251Y-68800695D01*
X45119548Y-68805848D01*
X45119548Y-68805851D01*
X45126470Y-68925895D01*
X45132110Y-69023715D01*
X45133247Y-69028761D01*
X45133248Y-69028767D01*
X45153119Y-69116939D01*
X45181222Y-69241639D01*
X45265266Y-69448616D01*
X45267965Y-69453020D01*
X45371009Y-69621173D01*
X45381987Y-69639088D01*
X45528250Y-69807938D01*
X45700126Y-69950632D01*
X45893000Y-70063338D01*
X46101692Y-70143030D01*
X46106760Y-70144061D01*
X46106763Y-70144062D01*
X46199685Y-70162967D01*
X46320597Y-70187567D01*
X46325772Y-70187757D01*
X46325774Y-70187757D01*
X46538673Y-70195564D01*
X46538677Y-70195564D01*
X46543837Y-70195753D01*
X46548957Y-70195097D01*
X46548959Y-70195097D01*
X46760288Y-70168025D01*
X46760289Y-70168025D01*
X46765416Y-70167368D01*
X46770366Y-70165883D01*
X46974429Y-70104661D01*
X46974434Y-70104659D01*
X46979384Y-70103174D01*
X47179994Y-70004896D01*
X47361860Y-69875173D01*
X47395229Y-69841921D01*
X47516435Y-69721137D01*
X47520096Y-69717489D01*
X47579594Y-69634689D01*
X47647435Y-69540277D01*
X47650453Y-69536077D01*
X47652874Y-69531180D01*
X47747136Y-69340453D01*
X47747137Y-69340451D01*
X47749430Y-69335811D01*
X47800639Y-69167262D01*
X47812865Y-69127023D01*
X47812865Y-69127021D01*
X47814370Y-69122069D01*
X47843529Y-68900590D01*
X47844324Y-68868069D01*
X47845074Y-68837365D01*
X47845074Y-68837361D01*
X47845156Y-68834000D01*
X47826852Y-68611361D01*
X47772431Y-68394702D01*
X47683354Y-68189840D01*
X47562014Y-68002277D01*
X47411670Y-67837051D01*
X47407619Y-67833852D01*
X47407615Y-67833848D01*
X47240414Y-67701800D01*
X47240410Y-67701798D01*
X47236359Y-67698598D01*
X47195053Y-67675796D01*
X47145084Y-67625364D01*
X47130312Y-67555921D01*
X47155428Y-67489516D01*
X47182780Y-67462909D01*
X47226603Y-67431650D01*
X47361860Y-67335173D01*
X47520096Y-67177489D01*
X47579594Y-67094689D01*
X47647435Y-67000277D01*
X47650453Y-66996077D01*
X47749430Y-66795811D01*
X47814370Y-66582069D01*
X47843529Y-66360590D01*
X47845156Y-66294000D01*
X47826852Y-66071361D01*
X47772431Y-65854702D01*
X47683354Y-65649840D01*
X47632362Y-65571019D01*
X47564822Y-65466617D01*
X47564820Y-65466614D01*
X47562014Y-65462277D01*
X47411670Y-65297051D01*
X47407619Y-65293852D01*
X47407615Y-65293848D01*
X47240414Y-65161800D01*
X47240410Y-65161798D01*
X47236359Y-65158598D01*
X47195053Y-65135796D01*
X47145084Y-65085364D01*
X47130312Y-65015921D01*
X47155428Y-64949516D01*
X47182780Y-64922909D01*
X47233814Y-64886507D01*
X47361860Y-64795173D01*
X47373718Y-64783357D01*
X47516435Y-64641137D01*
X47520096Y-64637489D01*
X47579594Y-64554689D01*
X47647435Y-64460277D01*
X47650453Y-64456077D01*
X47749430Y-64255811D01*
X47814370Y-64042069D01*
X47843529Y-63820590D01*
X47845156Y-63754000D01*
X47826852Y-63531361D01*
X47772431Y-63314702D01*
X47683354Y-63109840D01*
X47562014Y-62922277D01*
X47411670Y-62757051D01*
X47407619Y-62753852D01*
X47407615Y-62753848D01*
X47240414Y-62621800D01*
X47240410Y-62621798D01*
X47236359Y-62618598D01*
X47195053Y-62595796D01*
X47145084Y-62545364D01*
X47130312Y-62475921D01*
X47155428Y-62409516D01*
X47182780Y-62382909D01*
X47233814Y-62346507D01*
X47361860Y-62255173D01*
X47373718Y-62243357D01*
X47516435Y-62101137D01*
X47520096Y-62097489D01*
X47579594Y-62014689D01*
X47647435Y-61920277D01*
X47650453Y-61916077D01*
X47749430Y-61715811D01*
X47814370Y-61502069D01*
X47843529Y-61280590D01*
X47844676Y-61233654D01*
X47866336Y-61166042D01*
X47921111Y-61120874D01*
X47991611Y-61112490D01*
X48059733Y-61147637D01*
X57142495Y-70230399D01*
X57176521Y-70292711D01*
X57179400Y-70319494D01*
X57179400Y-73047131D01*
X57159398Y-73115252D01*
X57105742Y-73161745D01*
X57035468Y-73171849D01*
X57020796Y-73168840D01*
X56870087Y-73128457D01*
X56642000Y-73108502D01*
X56413913Y-73128457D01*
X56408600Y-73129881D01*
X56408598Y-73129881D01*
X56198067Y-73186293D01*
X56198065Y-73186294D01*
X56192757Y-73187716D01*
X56187776Y-73190039D01*
X56187775Y-73190039D01*
X55990238Y-73282151D01*
X55990233Y-73282154D01*
X55985251Y-73284477D01*
X55880389Y-73357902D01*
X55802211Y-73412643D01*
X55802208Y-73412645D01*
X55797700Y-73415802D01*
X55635802Y-73577700D01*
X55504477Y-73765251D01*
X55502154Y-73770233D01*
X55502151Y-73770238D01*
X55485919Y-73805049D01*
X55439002Y-73858334D01*
X55370725Y-73877795D01*
X55302765Y-73857253D01*
X55257529Y-73805049D01*
X55241414Y-73770489D01*
X55235931Y-73760993D01*
X55110972Y-73582533D01*
X55103916Y-73574125D01*
X54949875Y-73420084D01*
X54941467Y-73413028D01*
X54763007Y-73288069D01*
X54753511Y-73282586D01*
X54556053Y-73190510D01*
X54545761Y-73186764D01*
X54373497Y-73140606D01*
X54359401Y-73140942D01*
X54356000Y-73148884D01*
X54356000Y-75689965D01*
X54362659Y-75712643D01*
X54362659Y-75783639D01*
X54330858Y-75837237D01*
X52165747Y-78002348D01*
X52157461Y-78009888D01*
X52150982Y-78014000D01*
X52145557Y-78019777D01*
X52104357Y-78063651D01*
X52101602Y-78066493D01*
X52081865Y-78086230D01*
X52079385Y-78089427D01*
X52071682Y-78098447D01*
X52041414Y-78130679D01*
X52037595Y-78137625D01*
X52037593Y-78137628D01*
X52031652Y-78148434D01*
X52020801Y-78164953D01*
X52008386Y-78180959D01*
X52005241Y-78188228D01*
X52005238Y-78188232D01*
X51990826Y-78221537D01*
X51985609Y-78232187D01*
X51964305Y-78270940D01*
X51962334Y-78278615D01*
X51962334Y-78278616D01*
X51959267Y-78290562D01*
X51952863Y-78309266D01*
X51944819Y-78327855D01*
X51943580Y-78335678D01*
X51943577Y-78335688D01*
X51937901Y-78371524D01*
X51935495Y-78383144D01*
X51926472Y-78418289D01*
X51924500Y-78425970D01*
X51924500Y-78446224D01*
X51922949Y-78465934D01*
X51919780Y-78485943D01*
X51920526Y-78493835D01*
X51923941Y-78529961D01*
X51924500Y-78541819D01*
X51924500Y-78570996D01*
X51904498Y-78639117D01*
X51870771Y-78674209D01*
X51742730Y-78763864D01*
X51742727Y-78763866D01*
X51738219Y-78767023D01*
X51581023Y-78924219D01*
X51577866Y-78928727D01*
X51577864Y-78928730D01*
X51456669Y-79101815D01*
X51453512Y-79106324D01*
X51451189Y-79111306D01*
X51451186Y-79111311D01*
X51402195Y-79216373D01*
X51355277Y-79269658D01*
X51287000Y-79289119D01*
X51219040Y-79268577D01*
X51173805Y-79216373D01*
X51124814Y-79111311D01*
X51124811Y-79111306D01*
X51122488Y-79106324D01*
X51119331Y-79101815D01*
X50998136Y-78928730D01*
X50998134Y-78928727D01*
X50994977Y-78924219D01*
X50837781Y-78767023D01*
X50833273Y-78763866D01*
X50833270Y-78763864D01*
X50751624Y-78706695D01*
X50705229Y-78674209D01*
X50660901Y-78618752D01*
X50651500Y-78570996D01*
X50651500Y-78036767D01*
X50652027Y-78025584D01*
X50653702Y-78018091D01*
X50653404Y-78008593D01*
X50651562Y-77950014D01*
X50651500Y-77946055D01*
X50651500Y-77918144D01*
X50650995Y-77914144D01*
X50650062Y-77902301D01*
X50648922Y-77866029D01*
X50648673Y-77858110D01*
X50643022Y-77838658D01*
X50639014Y-77819306D01*
X50637467Y-77807063D01*
X50636474Y-77799203D01*
X50622368Y-77763574D01*
X50620200Y-77758097D01*
X50616355Y-77746870D01*
X50612894Y-77734959D01*
X50604018Y-77704407D01*
X50599984Y-77697585D01*
X50599981Y-77697579D01*
X50593706Y-77686968D01*
X50585010Y-77669218D01*
X50580472Y-77657756D01*
X50580469Y-77657751D01*
X50577552Y-77650383D01*
X50551573Y-77614625D01*
X50545057Y-77604707D01*
X50532880Y-77584118D01*
X50522542Y-77566637D01*
X50508218Y-77552313D01*
X50495376Y-77537278D01*
X50483472Y-77520893D01*
X50449406Y-77492711D01*
X50440627Y-77484722D01*
X47791152Y-74835247D01*
X47757126Y-74772935D01*
X47758540Y-74713541D01*
X47761854Y-74701173D01*
X47765244Y-74688522D01*
X52819273Y-74688522D01*
X52866764Y-74865761D01*
X52870510Y-74876053D01*
X52962586Y-75073511D01*
X52968069Y-75083007D01*
X53093028Y-75261467D01*
X53100084Y-75269875D01*
X53254125Y-75423916D01*
X53262533Y-75430972D01*
X53440993Y-75555931D01*
X53450489Y-75561414D01*
X53647947Y-75653490D01*
X53658239Y-75657236D01*
X53830503Y-75703394D01*
X53844599Y-75703058D01*
X53848000Y-75695116D01*
X53848000Y-74694115D01*
X53843525Y-74678876D01*
X53842135Y-74677671D01*
X53834452Y-74676000D01*
X52834033Y-74676000D01*
X52820502Y-74679973D01*
X52819273Y-74688522D01*
X47765244Y-74688522D01*
X47775543Y-74650087D01*
X47795498Y-74422000D01*
X47775543Y-74193913D01*
X47765244Y-74155478D01*
X47763911Y-74150503D01*
X52820606Y-74150503D01*
X52820942Y-74164599D01*
X52828884Y-74168000D01*
X53829885Y-74168000D01*
X53845124Y-74163525D01*
X53846329Y-74162135D01*
X53848000Y-74154452D01*
X53848000Y-73154033D01*
X53844027Y-73140502D01*
X53835478Y-73139273D01*
X53658239Y-73186764D01*
X53647947Y-73190510D01*
X53450489Y-73282586D01*
X53440993Y-73288069D01*
X53262533Y-73413028D01*
X53254125Y-73420084D01*
X53100084Y-73574125D01*
X53093028Y-73582533D01*
X52968069Y-73760993D01*
X52962586Y-73770489D01*
X52870510Y-73967947D01*
X52866764Y-73978239D01*
X52820606Y-74150503D01*
X47763911Y-74150503D01*
X47717707Y-73978067D01*
X47717706Y-73978065D01*
X47716284Y-73972757D01*
X47621966Y-73770489D01*
X47621849Y-73770238D01*
X47621846Y-73770233D01*
X47619523Y-73765251D01*
X47488198Y-73577700D01*
X47326300Y-73415802D01*
X47321792Y-73412645D01*
X47321789Y-73412643D01*
X47243611Y-73357902D01*
X47138749Y-73284477D01*
X47133767Y-73282154D01*
X47133762Y-73282151D01*
X46936225Y-73190039D01*
X46936224Y-73190039D01*
X46931243Y-73187716D01*
X46925935Y-73186294D01*
X46925933Y-73186293D01*
X46715402Y-73129881D01*
X46715400Y-73129881D01*
X46710087Y-73128457D01*
X46482000Y-73108502D01*
X46253913Y-73128457D01*
X46248600Y-73129881D01*
X46248598Y-73129881D01*
X46038067Y-73186293D01*
X46038065Y-73186294D01*
X46032757Y-73187716D01*
X46027776Y-73190039D01*
X46027775Y-73190039D01*
X45830238Y-73282151D01*
X45830233Y-73282154D01*
X45825251Y-73284477D01*
X45720389Y-73357902D01*
X45642211Y-73412643D01*
X45642208Y-73412645D01*
X45637700Y-73415802D01*
X45475802Y-73577700D01*
X45344477Y-73765251D01*
X45342154Y-73770233D01*
X45342151Y-73770238D01*
X45342034Y-73770489D01*
X45247716Y-73972757D01*
X45246294Y-73978065D01*
X45246293Y-73978067D01*
X45198756Y-74155478D01*
X45188457Y-74193913D01*
X45168502Y-74422000D01*
X45188457Y-74650087D01*
X45189880Y-74655398D01*
X45189881Y-74655402D01*
X45236373Y-74828909D01*
X45247716Y-74871243D01*
X45250039Y-74876224D01*
X45250039Y-74876225D01*
X45342151Y-75073762D01*
X45342154Y-75073767D01*
X45344477Y-75078749D01*
X45347634Y-75083257D01*
X45434189Y-75206870D01*
X45475802Y-75266300D01*
X45637700Y-75428198D01*
X45642208Y-75431355D01*
X45642211Y-75431357D01*
X45720389Y-75486098D01*
X45825251Y-75559523D01*
X45830233Y-75561846D01*
X45830238Y-75561849D01*
X46026765Y-75653490D01*
X46032757Y-75656284D01*
X46038065Y-75657706D01*
X46038067Y-75657707D01*
X46248598Y-75714119D01*
X46248600Y-75714119D01*
X46253913Y-75715543D01*
X46482000Y-75735498D01*
X46710087Y-75715543D01*
X46715398Y-75714120D01*
X46715409Y-75714118D01*
X46773541Y-75698541D01*
X46844517Y-75700230D01*
X46895248Y-75731152D01*
X49347595Y-78183499D01*
X49381621Y-78245811D01*
X49384500Y-78272594D01*
X49384500Y-78570996D01*
X49364498Y-78639117D01*
X49330771Y-78674209D01*
X49202730Y-78763864D01*
X49202727Y-78763866D01*
X49198219Y-78767023D01*
X49041023Y-78924219D01*
X49037866Y-78928727D01*
X49037864Y-78928730D01*
X48916669Y-79101815D01*
X48913512Y-79106324D01*
X48911189Y-79111306D01*
X48911186Y-79111311D01*
X48861919Y-79216965D01*
X48815001Y-79270250D01*
X48746724Y-79289711D01*
X48678764Y-79269169D01*
X48633529Y-79216965D01*
X48584377Y-79111559D01*
X48578897Y-79102068D01*
X48548206Y-79058235D01*
X48537729Y-79049860D01*
X48524282Y-79056928D01*
X47850022Y-79731188D01*
X47842408Y-79745132D01*
X47842539Y-79746965D01*
X47846790Y-79753580D01*
X48525003Y-80431793D01*
X48536777Y-80438223D01*
X48548793Y-80428926D01*
X48578897Y-80385932D01*
X48584377Y-80376441D01*
X48633529Y-80271035D01*
X48680447Y-80217750D01*
X48748724Y-80198289D01*
X48816684Y-80218831D01*
X48861919Y-80271035D01*
X48911186Y-80376689D01*
X48911189Y-80376694D01*
X48913512Y-80381676D01*
X48916668Y-80386183D01*
X48916669Y-80386185D01*
X49036647Y-80557531D01*
X49041023Y-80563781D01*
X49198219Y-80720977D01*
X49202727Y-80724134D01*
X49202730Y-80724136D01*
X49272031Y-80772661D01*
X49380323Y-80848488D01*
X49385305Y-80850811D01*
X49385310Y-80850814D01*
X49575810Y-80939645D01*
X49581804Y-80942440D01*
X49587112Y-80943862D01*
X49587114Y-80943863D01*
X49634705Y-80956615D01*
X49796537Y-80999978D01*
X50018000Y-81019353D01*
X50239463Y-80999978D01*
X50401295Y-80956615D01*
X50448886Y-80943863D01*
X50448888Y-80943862D01*
X50454196Y-80942440D01*
X50460190Y-80939645D01*
X50650690Y-80850814D01*
X50650695Y-80850811D01*
X50655677Y-80848488D01*
X50763969Y-80772661D01*
X50833270Y-80724136D01*
X50833273Y-80724134D01*
X50837781Y-80720977D01*
X50994977Y-80563781D01*
X50999354Y-80557531D01*
X51119331Y-80386185D01*
X51119332Y-80386183D01*
X51122488Y-80381676D01*
X51124811Y-80376694D01*
X51124814Y-80376689D01*
X51173805Y-80271627D01*
X51220723Y-80218342D01*
X51289000Y-80198881D01*
X51356960Y-80219423D01*
X51402195Y-80271627D01*
X51451186Y-80376689D01*
X51451189Y-80376694D01*
X51453512Y-80381676D01*
X51456668Y-80386183D01*
X51456669Y-80386185D01*
X51576647Y-80557531D01*
X51581023Y-80563781D01*
X51738219Y-80720977D01*
X51742727Y-80724134D01*
X51742730Y-80724136D01*
X51812031Y-80772661D01*
X51920323Y-80848488D01*
X51925305Y-80850811D01*
X51925310Y-80850814D01*
X52115810Y-80939645D01*
X52121804Y-80942440D01*
X52127112Y-80943862D01*
X52127114Y-80943863D01*
X52174705Y-80956615D01*
X52336537Y-80999978D01*
X52558000Y-81019353D01*
X52779463Y-80999978D01*
X52941295Y-80956615D01*
X52988886Y-80943863D01*
X52988888Y-80943862D01*
X52994196Y-80942440D01*
X53000190Y-80939645D01*
X53190690Y-80850814D01*
X53190695Y-80850811D01*
X53195677Y-80848488D01*
X53260959Y-80802777D01*
X54403777Y-80802777D01*
X54413074Y-80814793D01*
X54456069Y-80844898D01*
X54465555Y-80850376D01*
X54656993Y-80939645D01*
X54667285Y-80943391D01*
X54871309Y-80998059D01*
X54882104Y-80999962D01*
X55092525Y-81018372D01*
X55103475Y-81018372D01*
X55313896Y-80999962D01*
X55324691Y-80998059D01*
X55528715Y-80943391D01*
X55539007Y-80939645D01*
X55730445Y-80850376D01*
X55739931Y-80844898D01*
X55783764Y-80814207D01*
X55792139Y-80803729D01*
X55785071Y-80790281D01*
X55110812Y-80116022D01*
X55096868Y-80108408D01*
X55095035Y-80108539D01*
X55088420Y-80112790D01*
X54410207Y-80791003D01*
X54403777Y-80802777D01*
X53260959Y-80802777D01*
X53303969Y-80772661D01*
X53373270Y-80724136D01*
X53373273Y-80724134D01*
X53377781Y-80720977D01*
X53534977Y-80563781D01*
X53539354Y-80557531D01*
X53659331Y-80386185D01*
X53659332Y-80386183D01*
X53662488Y-80381676D01*
X53664811Y-80376694D01*
X53664814Y-80376689D01*
X53714081Y-80271035D01*
X53760999Y-80217750D01*
X53829276Y-80198289D01*
X53897236Y-80218831D01*
X53942471Y-80271035D01*
X53991623Y-80376441D01*
X53997103Y-80385932D01*
X54027794Y-80429765D01*
X54038271Y-80438140D01*
X54051718Y-80431072D01*
X54725978Y-79756812D01*
X54733592Y-79742868D01*
X54733461Y-79741035D01*
X54729210Y-79734420D01*
X54050997Y-79056207D01*
X54039223Y-79049777D01*
X54027207Y-79059074D01*
X53997103Y-79102068D01*
X53991623Y-79111559D01*
X53942471Y-79216965D01*
X53895553Y-79270250D01*
X53827276Y-79289711D01*
X53759316Y-79269169D01*
X53714081Y-79216965D01*
X53664814Y-79111311D01*
X53664811Y-79111306D01*
X53662488Y-79106324D01*
X53659331Y-79101815D01*
X53538136Y-78928730D01*
X53538134Y-78928727D01*
X53534977Y-78924219D01*
X53377781Y-78767023D01*
X53378710Y-78766094D01*
X53342905Y-78712259D01*
X53341789Y-78641271D01*
X53374133Y-78585771D01*
X56228752Y-75731152D01*
X56291064Y-75697126D01*
X56350459Y-75698541D01*
X56408591Y-75714118D01*
X56408602Y-75714120D01*
X56413913Y-75715543D01*
X56642000Y-75735498D01*
X56870087Y-75715543D01*
X56994475Y-75682213D01*
X57065451Y-75683903D01*
X57124247Y-75723697D01*
X57152195Y-75788961D01*
X57140422Y-75858975D01*
X57116181Y-75893015D01*
X55995747Y-77013448D01*
X55987461Y-77020988D01*
X55980982Y-77025100D01*
X55975557Y-77030877D01*
X55934357Y-77074751D01*
X55931602Y-77077593D01*
X55911865Y-77097330D01*
X55909385Y-77100527D01*
X55901682Y-77109547D01*
X55871414Y-77141779D01*
X55867595Y-77148725D01*
X55867593Y-77148728D01*
X55861652Y-77159534D01*
X55850801Y-77176053D01*
X55838386Y-77192059D01*
X55835241Y-77199328D01*
X55835238Y-77199332D01*
X55820826Y-77232637D01*
X55815609Y-77243287D01*
X55794305Y-77282040D01*
X55792334Y-77289715D01*
X55792334Y-77289716D01*
X55789267Y-77301662D01*
X55782863Y-77320366D01*
X55774819Y-77338955D01*
X55773580Y-77346778D01*
X55773577Y-77346788D01*
X55767901Y-77382624D01*
X55765495Y-77394244D01*
X55762841Y-77404582D01*
X55754500Y-77437070D01*
X55754500Y-77457324D01*
X55752949Y-77477034D01*
X55749780Y-77497043D01*
X55750526Y-77504935D01*
X55753941Y-77541061D01*
X55754500Y-77552919D01*
X55754500Y-78451061D01*
X55734498Y-78519182D01*
X55680842Y-78565675D01*
X55610568Y-78575779D01*
X55575249Y-78565255D01*
X55539012Y-78548357D01*
X55528715Y-78544609D01*
X55324691Y-78489941D01*
X55313896Y-78488038D01*
X55103475Y-78469628D01*
X55092525Y-78469628D01*
X54882104Y-78488038D01*
X54871309Y-78489941D01*
X54667285Y-78544609D01*
X54656993Y-78548355D01*
X54465559Y-78637623D01*
X54456068Y-78643103D01*
X54412235Y-78673794D01*
X54403860Y-78684271D01*
X54410928Y-78697718D01*
X55717595Y-80004385D01*
X55751621Y-80066697D01*
X55753726Y-80086281D01*
X55754252Y-80086248D01*
X55754500Y-80090190D01*
X55754500Y-80094156D01*
X55754997Y-80098090D01*
X55754997Y-80098091D01*
X55755005Y-80098156D01*
X55755938Y-80109993D01*
X55757327Y-80154189D01*
X55762978Y-80173639D01*
X55766987Y-80193000D01*
X55769526Y-80213097D01*
X55772445Y-80220468D01*
X55772445Y-80220470D01*
X55785804Y-80254212D01*
X55789649Y-80265442D01*
X55791446Y-80271627D01*
X55801982Y-80307893D01*
X55806015Y-80314712D01*
X55806017Y-80314717D01*
X55812293Y-80325328D01*
X55820988Y-80343076D01*
X55828448Y-80361917D01*
X55833110Y-80368333D01*
X55833110Y-80368334D01*
X55854436Y-80397687D01*
X55860952Y-80407607D01*
X55879059Y-80438223D01*
X55883458Y-80445662D01*
X55897779Y-80459983D01*
X55910619Y-80475016D01*
X55922528Y-80491407D01*
X55939035Y-80505063D01*
X55956605Y-80519598D01*
X55965384Y-80527588D01*
X60691648Y-85253853D01*
X60699188Y-85262139D01*
X60703300Y-85268618D01*
X60709077Y-85274043D01*
X60752951Y-85315243D01*
X60755793Y-85317998D01*
X60775530Y-85337735D01*
X60778727Y-85340215D01*
X60787747Y-85347918D01*
X60819979Y-85378186D01*
X60826925Y-85382005D01*
X60826928Y-85382007D01*
X60837734Y-85387948D01*
X60854253Y-85398799D01*
X60870259Y-85411214D01*
X60877528Y-85414359D01*
X60877532Y-85414362D01*
X60910837Y-85428774D01*
X60921487Y-85433991D01*
X60960240Y-85455295D01*
X60967915Y-85457266D01*
X60967916Y-85457266D01*
X60979862Y-85460333D01*
X60998567Y-85466737D01*
X61017155Y-85474781D01*
X61024978Y-85476020D01*
X61024988Y-85476023D01*
X61060824Y-85481699D01*
X61072444Y-85484105D01*
X61097505Y-85490539D01*
X61115270Y-85495100D01*
X61135524Y-85495100D01*
X61155234Y-85496651D01*
X61175243Y-85499820D01*
X61183135Y-85499074D01*
X61219261Y-85495659D01*
X61231119Y-85495100D01*
X61445306Y-85495100D01*
X61513427Y-85515102D01*
X61534401Y-85532005D01*
X62080945Y-86078549D01*
X62114971Y-86140861D01*
X62109906Y-86211676D01*
X62064121Y-86270857D01*
X61902730Y-86383864D01*
X61902727Y-86383866D01*
X61898219Y-86387023D01*
X61741023Y-86544219D01*
X61737866Y-86548727D01*
X61737864Y-86548730D01*
X61688741Y-86618885D01*
X61613512Y-86726324D01*
X61611189Y-86731306D01*
X61611186Y-86731311D01*
X61521883Y-86922822D01*
X61519560Y-86927804D01*
X61462022Y-87142537D01*
X61442647Y-87364000D01*
X61462022Y-87585463D01*
X61519560Y-87800196D01*
X61521882Y-87805177D01*
X61521883Y-87805178D01*
X61611186Y-87996689D01*
X61611189Y-87996694D01*
X61613512Y-88001676D01*
X61616668Y-88006183D01*
X61616669Y-88006185D01*
X61736647Y-88177531D01*
X61741023Y-88183781D01*
X61898219Y-88340977D01*
X61902727Y-88344134D01*
X61902730Y-88344136D01*
X61931523Y-88364297D01*
X62080323Y-88468488D01*
X62085305Y-88470811D01*
X62085310Y-88470814D01*
X62190373Y-88519805D01*
X62243658Y-88566722D01*
X62263119Y-88634999D01*
X62242577Y-88702959D01*
X62190373Y-88748195D01*
X62085311Y-88797186D01*
X62085306Y-88797189D01*
X62080324Y-88799512D01*
X62075817Y-88802668D01*
X62075815Y-88802669D01*
X61902730Y-88923864D01*
X61902727Y-88923866D01*
X61898219Y-88927023D01*
X61741023Y-89084219D01*
X61737866Y-89088727D01*
X61737864Y-89088730D01*
X61616669Y-89261815D01*
X61613512Y-89266324D01*
X61611189Y-89271306D01*
X61611186Y-89271311D01*
X61539986Y-89424000D01*
X61519560Y-89467804D01*
X61462022Y-89682537D01*
X61442647Y-89904000D01*
X61462022Y-90125463D01*
X61499683Y-90266015D01*
X61515124Y-90323639D01*
X61519560Y-90340196D01*
X61521882Y-90345177D01*
X61521883Y-90345178D01*
X61611186Y-90536689D01*
X61611189Y-90536694D01*
X61613512Y-90541676D01*
X61616668Y-90546183D01*
X61616669Y-90546185D01*
X61736647Y-90717531D01*
X61741023Y-90723781D01*
X61898219Y-90880977D01*
X61902727Y-90884134D01*
X61902730Y-90884136D01*
X61922460Y-90897951D01*
X62080323Y-91008488D01*
X62085305Y-91010811D01*
X62085310Y-91010814D01*
X62276822Y-91100117D01*
X62281804Y-91102440D01*
X62287112Y-91103862D01*
X62287114Y-91103863D01*
X62334705Y-91116615D01*
X62496537Y-91159978D01*
X62718000Y-91179353D01*
X62939463Y-91159978D01*
X63101295Y-91116615D01*
X63148886Y-91103863D01*
X63148888Y-91103862D01*
X63154196Y-91102440D01*
X63159178Y-91100117D01*
X63350690Y-91010814D01*
X63350695Y-91010811D01*
X63355677Y-91008488D01*
X63513540Y-90897951D01*
X63533270Y-90884136D01*
X63533273Y-90884134D01*
X63537781Y-90880977D01*
X63694977Y-90723781D01*
X63699354Y-90717531D01*
X63819331Y-90546185D01*
X63819332Y-90546183D01*
X63822488Y-90541676D01*
X63824811Y-90536694D01*
X63824814Y-90536689D01*
X63914117Y-90345178D01*
X63914118Y-90345177D01*
X63916440Y-90340196D01*
X63920877Y-90323639D01*
X63936317Y-90266015D01*
X63973978Y-90125463D01*
X63993353Y-89904000D01*
X63973978Y-89682537D01*
X63916440Y-89467804D01*
X63896014Y-89424000D01*
X63824814Y-89271311D01*
X63824811Y-89271306D01*
X63822488Y-89266324D01*
X63819331Y-89261815D01*
X63698136Y-89088730D01*
X63698134Y-89088727D01*
X63694977Y-89084219D01*
X63537781Y-88927023D01*
X63533273Y-88923866D01*
X63533270Y-88923864D01*
X63434965Y-88855030D01*
X63355677Y-88799512D01*
X63350695Y-88797189D01*
X63350690Y-88797186D01*
X63245627Y-88748195D01*
X63192342Y-88701278D01*
X63172881Y-88633001D01*
X63193423Y-88565041D01*
X63245627Y-88519805D01*
X63350690Y-88470814D01*
X63350695Y-88470811D01*
X63355677Y-88468488D01*
X63504477Y-88364297D01*
X63533270Y-88344136D01*
X63533273Y-88344134D01*
X63537781Y-88340977D01*
X63694977Y-88183781D01*
X63698136Y-88179270D01*
X63811143Y-88017879D01*
X63866600Y-87973551D01*
X63937219Y-87966242D01*
X64003451Y-88001055D01*
X67485943Y-91483547D01*
X67493487Y-91491837D01*
X67497600Y-91498318D01*
X67503377Y-91503743D01*
X67547267Y-91544958D01*
X67550109Y-91547713D01*
X67569830Y-91567434D01*
X67573025Y-91569912D01*
X67582047Y-91577618D01*
X67614279Y-91607886D01*
X67621228Y-91611706D01*
X67632032Y-91617646D01*
X67648556Y-91628499D01*
X67664559Y-91640913D01*
X67705143Y-91658476D01*
X67715773Y-91663683D01*
X67754540Y-91684995D01*
X67762217Y-91686966D01*
X67762222Y-91686968D01*
X67774158Y-91690032D01*
X67792866Y-91696437D01*
X67811455Y-91704481D01*
X67819283Y-91705721D01*
X67819290Y-91705723D01*
X67855124Y-91711399D01*
X67866744Y-91713805D01*
X67898559Y-91721973D01*
X67909570Y-91724800D01*
X67929824Y-91724800D01*
X67949534Y-91726351D01*
X67969543Y-91729520D01*
X67977435Y-91728774D01*
X67996180Y-91727002D01*
X68013562Y-91725359D01*
X68025419Y-91724800D01*
X92934033Y-91724800D01*
X92945216Y-91725327D01*
X92952709Y-91727002D01*
X92960635Y-91726753D01*
X92960636Y-91726753D01*
X93020786Y-91724862D01*
X93024745Y-91724800D01*
X93052656Y-91724800D01*
X93056591Y-91724303D01*
X93056656Y-91724295D01*
X93068493Y-91723362D01*
X93100751Y-91722348D01*
X93104770Y-91722222D01*
X93112689Y-91721973D01*
X93132143Y-91716321D01*
X93151500Y-91712313D01*
X93163730Y-91710768D01*
X93163731Y-91710768D01*
X93171597Y-91709774D01*
X93178968Y-91706855D01*
X93178970Y-91706855D01*
X93212712Y-91693496D01*
X93223942Y-91689651D01*
X93258783Y-91679529D01*
X93258784Y-91679529D01*
X93266393Y-91677318D01*
X93273212Y-91673285D01*
X93273217Y-91673283D01*
X93283828Y-91667007D01*
X93301576Y-91658312D01*
X93320417Y-91650852D01*
X93340787Y-91636053D01*
X93356187Y-91624864D01*
X93366107Y-91618348D01*
X93397335Y-91599880D01*
X93397338Y-91599878D01*
X93404162Y-91595842D01*
X93418483Y-91581521D01*
X93433517Y-91568680D01*
X93435232Y-91567434D01*
X93449907Y-91556772D01*
X93478098Y-91522695D01*
X93486088Y-91513916D01*
X93998091Y-91001913D01*
X94060403Y-90967887D01*
X94131218Y-90972952D01*
X94167671Y-90994064D01*
X94214126Y-91032632D01*
X94407000Y-91145338D01*
X94411825Y-91147180D01*
X94411826Y-91147181D01*
X94465678Y-91167745D01*
X94615692Y-91225030D01*
X94620760Y-91226061D01*
X94620763Y-91226062D01*
X94715862Y-91245410D01*
X94834597Y-91269567D01*
X94839772Y-91269757D01*
X94839774Y-91269757D01*
X95052673Y-91277564D01*
X95052677Y-91277564D01*
X95057837Y-91277753D01*
X95062957Y-91277097D01*
X95062959Y-91277097D01*
X95274288Y-91250025D01*
X95274289Y-91250025D01*
X95279416Y-91249368D01*
X95284366Y-91247883D01*
X95488429Y-91186661D01*
X95488434Y-91186659D01*
X95493384Y-91185174D01*
X95693994Y-91086896D01*
X95875860Y-90957173D01*
X95880812Y-90952239D01*
X95970124Y-90863238D01*
X96034096Y-90799489D01*
X96050748Y-90776316D01*
X96164453Y-90618077D01*
X96165776Y-90619028D01*
X96212645Y-90575857D01*
X96282580Y-90563625D01*
X96348026Y-90591144D01*
X96375875Y-90622994D01*
X96435987Y-90721088D01*
X96582250Y-90889938D01*
X96754126Y-91032632D01*
X96947000Y-91145338D01*
X96951825Y-91147180D01*
X96951826Y-91147181D01*
X97005678Y-91167745D01*
X97155692Y-91225030D01*
X97160760Y-91226061D01*
X97160763Y-91226062D01*
X97255862Y-91245410D01*
X97374597Y-91269567D01*
X97379772Y-91269757D01*
X97379774Y-91269757D01*
X97592673Y-91277564D01*
X97592677Y-91277564D01*
X97597837Y-91277753D01*
X97602957Y-91277097D01*
X97602959Y-91277097D01*
X97814288Y-91250025D01*
X97814289Y-91250025D01*
X97819416Y-91249368D01*
X97824366Y-91247883D01*
X98028429Y-91186661D01*
X98028434Y-91186659D01*
X98033384Y-91185174D01*
X98233994Y-91086896D01*
X98314796Y-91029261D01*
X98409224Y-90961907D01*
X98476297Y-90938633D01*
X98545306Y-90955317D01*
X98571487Y-90975391D01*
X99079643Y-91483547D01*
X99087187Y-91491837D01*
X99091300Y-91498318D01*
X99097077Y-91503743D01*
X99140967Y-91544958D01*
X99143809Y-91547713D01*
X99163530Y-91567434D01*
X99166725Y-91569912D01*
X99175747Y-91577618D01*
X99207979Y-91607886D01*
X99214928Y-91611706D01*
X99225732Y-91617646D01*
X99242256Y-91628499D01*
X99258259Y-91640913D01*
X99298843Y-91658476D01*
X99309473Y-91663683D01*
X99348240Y-91684995D01*
X99355917Y-91686966D01*
X99355922Y-91686968D01*
X99367858Y-91690032D01*
X99386566Y-91696437D01*
X99405155Y-91704481D01*
X99412983Y-91705721D01*
X99412990Y-91705723D01*
X99448824Y-91711399D01*
X99460444Y-91713805D01*
X99492259Y-91721973D01*
X99503270Y-91724800D01*
X99523524Y-91724800D01*
X99543234Y-91726351D01*
X99563243Y-91729520D01*
X99571135Y-91728774D01*
X99589880Y-91727002D01*
X99607262Y-91725359D01*
X99619119Y-91724800D01*
X100554033Y-91724800D01*
X100565216Y-91725327D01*
X100572709Y-91727002D01*
X100580635Y-91726753D01*
X100580636Y-91726753D01*
X100640786Y-91724862D01*
X100644745Y-91724800D01*
X100672656Y-91724800D01*
X100676591Y-91724303D01*
X100676656Y-91724295D01*
X100688493Y-91723362D01*
X100720751Y-91722348D01*
X100724770Y-91722222D01*
X100732689Y-91721973D01*
X100752143Y-91716321D01*
X100771500Y-91712313D01*
X100783730Y-91710768D01*
X100783731Y-91710768D01*
X100791597Y-91709774D01*
X100798968Y-91706855D01*
X100798970Y-91706855D01*
X100832712Y-91693496D01*
X100843942Y-91689651D01*
X100878783Y-91679529D01*
X100878784Y-91679529D01*
X100886393Y-91677318D01*
X100893212Y-91673285D01*
X100893217Y-91673283D01*
X100903828Y-91667007D01*
X100921576Y-91658312D01*
X100940417Y-91650852D01*
X100960787Y-91636053D01*
X100976187Y-91624864D01*
X100986107Y-91618348D01*
X101017335Y-91599880D01*
X101017338Y-91599878D01*
X101024162Y-91595842D01*
X101038483Y-91581521D01*
X101053517Y-91568680D01*
X101055232Y-91567434D01*
X101069907Y-91556772D01*
X101098098Y-91522695D01*
X101106088Y-91513916D01*
X101618091Y-91001913D01*
X101680403Y-90967887D01*
X101751218Y-90972952D01*
X101787671Y-90994064D01*
X101834126Y-91032632D01*
X102027000Y-91145338D01*
X102031825Y-91147180D01*
X102031826Y-91147181D01*
X102085678Y-91167745D01*
X102235692Y-91225030D01*
X102240760Y-91226061D01*
X102240763Y-91226062D01*
X102335862Y-91245410D01*
X102454597Y-91269567D01*
X102459772Y-91269757D01*
X102459774Y-91269757D01*
X102672673Y-91277564D01*
X102672677Y-91277564D01*
X102677837Y-91277753D01*
X102682957Y-91277097D01*
X102682959Y-91277097D01*
X102894288Y-91250025D01*
X102894289Y-91250025D01*
X102899416Y-91249368D01*
X102904366Y-91247883D01*
X103108429Y-91186661D01*
X103108434Y-91186659D01*
X103113384Y-91185174D01*
X103313994Y-91086896D01*
X103495860Y-90957173D01*
X103500812Y-90952239D01*
X103590124Y-90863238D01*
X103654096Y-90799489D01*
X103670748Y-90776316D01*
X103784453Y-90618077D01*
X103785776Y-90619028D01*
X103832645Y-90575857D01*
X103902580Y-90563625D01*
X103968026Y-90591144D01*
X103995875Y-90622994D01*
X104055987Y-90721088D01*
X104202250Y-90889938D01*
X104374126Y-91032632D01*
X104567000Y-91145338D01*
X104571825Y-91147180D01*
X104571826Y-91147181D01*
X104625678Y-91167745D01*
X104775692Y-91225030D01*
X104780760Y-91226061D01*
X104780763Y-91226062D01*
X104875862Y-91245410D01*
X104994597Y-91269567D01*
X104999772Y-91269757D01*
X104999774Y-91269757D01*
X105212673Y-91277564D01*
X105212677Y-91277564D01*
X105217837Y-91277753D01*
X105222957Y-91277097D01*
X105222959Y-91277097D01*
X105434288Y-91250025D01*
X105434289Y-91250025D01*
X105439416Y-91249368D01*
X105444366Y-91247883D01*
X105648429Y-91186661D01*
X105648434Y-91186659D01*
X105653384Y-91185174D01*
X105853994Y-91086896D01*
X106035860Y-90957173D01*
X106040812Y-90952239D01*
X106130124Y-90863238D01*
X106194096Y-90799489D01*
X106210748Y-90776316D01*
X106324453Y-90618077D01*
X106325776Y-90619028D01*
X106372645Y-90575857D01*
X106442580Y-90563625D01*
X106508026Y-90591144D01*
X106535875Y-90622994D01*
X106595987Y-90721088D01*
X106742250Y-90889938D01*
X106914126Y-91032632D01*
X107107000Y-91145338D01*
X107111825Y-91147180D01*
X107111826Y-91147181D01*
X107165678Y-91167745D01*
X107315692Y-91225030D01*
X107320760Y-91226061D01*
X107320763Y-91226062D01*
X107415862Y-91245410D01*
X107534597Y-91269567D01*
X107539772Y-91269757D01*
X107539774Y-91269757D01*
X107752673Y-91277564D01*
X107752677Y-91277564D01*
X107757837Y-91277753D01*
X107762957Y-91277097D01*
X107762959Y-91277097D01*
X107974288Y-91250025D01*
X107974289Y-91250025D01*
X107979416Y-91249368D01*
X107984366Y-91247883D01*
X108188429Y-91186661D01*
X108188434Y-91186659D01*
X108193384Y-91185174D01*
X108393994Y-91086896D01*
X108575860Y-90957173D01*
X108580812Y-90952239D01*
X108670124Y-90863238D01*
X108734096Y-90799489D01*
X108750748Y-90776316D01*
X108864453Y-90618077D01*
X108865640Y-90618930D01*
X108912960Y-90575362D01*
X108982897Y-90563145D01*
X109048338Y-90590678D01*
X109076166Y-90622511D01*
X109133694Y-90716388D01*
X109139777Y-90724699D01*
X109279213Y-90885667D01*
X109286580Y-90892883D01*
X109450434Y-91028916D01*
X109458881Y-91034831D01*
X109642756Y-91142279D01*
X109652042Y-91146729D01*
X109851001Y-91222703D01*
X109860899Y-91225579D01*
X109964250Y-91246606D01*
X109978299Y-91245410D01*
X109982000Y-91235065D01*
X109982000Y-91234517D01*
X110490000Y-91234517D01*
X110494064Y-91248359D01*
X110507478Y-91250393D01*
X110514184Y-91249534D01*
X110524262Y-91247392D01*
X110728255Y-91186191D01*
X110737842Y-91182433D01*
X110929095Y-91088739D01*
X110937945Y-91083464D01*
X111111328Y-90959792D01*
X111119200Y-90953139D01*
X111270052Y-90802812D01*
X111276730Y-90794965D01*
X111404022Y-90617819D01*
X111405279Y-90618722D01*
X111452373Y-90575362D01*
X111522311Y-90563145D01*
X111587751Y-90590678D01*
X111615579Y-90622511D01*
X111675987Y-90721088D01*
X111822250Y-90889938D01*
X111994126Y-91032632D01*
X112187000Y-91145338D01*
X112191825Y-91147180D01*
X112191826Y-91147181D01*
X112245678Y-91167745D01*
X112395692Y-91225030D01*
X112400760Y-91226061D01*
X112400763Y-91226062D01*
X112495862Y-91245410D01*
X112614597Y-91269567D01*
X112619772Y-91269757D01*
X112619774Y-91269757D01*
X112832673Y-91277564D01*
X112832677Y-91277564D01*
X112837837Y-91277753D01*
X112842957Y-91277097D01*
X112842959Y-91277097D01*
X113054288Y-91250025D01*
X113054289Y-91250025D01*
X113059416Y-91249368D01*
X113064366Y-91247883D01*
X113268429Y-91186661D01*
X113268434Y-91186659D01*
X113273384Y-91185174D01*
X113473994Y-91086896D01*
X113655860Y-90957173D01*
X113660812Y-90952239D01*
X113750124Y-90863238D01*
X113814096Y-90799489D01*
X113830748Y-90776316D01*
X113944453Y-90618077D01*
X113945776Y-90619028D01*
X113992645Y-90575857D01*
X114062580Y-90563625D01*
X114128026Y-90591144D01*
X114155875Y-90622994D01*
X114215987Y-90721088D01*
X114362250Y-90889938D01*
X114534126Y-91032632D01*
X114727000Y-91145338D01*
X114731825Y-91147180D01*
X114731826Y-91147181D01*
X114785678Y-91167745D01*
X114935692Y-91225030D01*
X114940760Y-91226061D01*
X114940763Y-91226062D01*
X115035862Y-91245410D01*
X115154597Y-91269567D01*
X115159772Y-91269757D01*
X115159774Y-91269757D01*
X115372673Y-91277564D01*
X115372677Y-91277564D01*
X115377837Y-91277753D01*
X115382957Y-91277097D01*
X115382959Y-91277097D01*
X115594288Y-91250025D01*
X115594289Y-91250025D01*
X115599416Y-91249368D01*
X115604366Y-91247883D01*
X115808429Y-91186661D01*
X115808434Y-91186659D01*
X115813384Y-91185174D01*
X116013994Y-91086896D01*
X116195860Y-90957173D01*
X116304091Y-90849319D01*
X116366462Y-90815404D01*
X116437268Y-90820592D01*
X116494030Y-90863238D01*
X116511012Y-90894341D01*
X116534567Y-90957173D01*
X116555385Y-91012705D01*
X116642739Y-91129261D01*
X116759295Y-91216615D01*
X116895684Y-91267745D01*
X116957866Y-91274500D01*
X118754134Y-91274500D01*
X118816316Y-91267745D01*
X118952705Y-91216615D01*
X119069261Y-91129261D01*
X119156615Y-91012705D01*
X119207745Y-90876316D01*
X119214500Y-90814134D01*
X119214500Y-89017866D01*
X119207745Y-88955684D01*
X119156615Y-88819295D01*
X119069261Y-88702739D01*
X118952705Y-88615385D01*
X118816316Y-88564255D01*
X118754134Y-88557500D01*
X116957866Y-88557500D01*
X116895684Y-88564255D01*
X116759295Y-88615385D01*
X116642739Y-88702739D01*
X116555385Y-88819295D01*
X116552233Y-88827703D01*
X116510919Y-88937907D01*
X116468277Y-88994671D01*
X116401716Y-89019371D01*
X116332367Y-89004163D01*
X116299743Y-88978476D01*
X116249151Y-88922875D01*
X116249142Y-88922866D01*
X116245670Y-88919051D01*
X116241619Y-88915852D01*
X116241615Y-88915848D01*
X116074414Y-88783800D01*
X116074410Y-88783798D01*
X116070359Y-88780598D01*
X116065831Y-88778098D01*
X115983818Y-88732825D01*
X115874789Y-88672638D01*
X115869920Y-88670914D01*
X115869916Y-88670912D01*
X115669087Y-88599795D01*
X115669083Y-88599794D01*
X115664212Y-88598069D01*
X115659119Y-88597162D01*
X115659116Y-88597161D01*
X115449373Y-88559800D01*
X115449367Y-88559799D01*
X115444284Y-88558894D01*
X115370452Y-88557992D01*
X115226081Y-88556228D01*
X115226079Y-88556228D01*
X115220911Y-88556165D01*
X115000091Y-88589955D01*
X114787756Y-88659357D01*
X114752007Y-88677967D01*
X114613975Y-88749822D01*
X114589607Y-88762507D01*
X114585474Y-88765610D01*
X114585471Y-88765612D01*
X114415100Y-88893530D01*
X114410965Y-88896635D01*
X114374477Y-88934817D01*
X114317280Y-88994671D01*
X114256629Y-89058138D01*
X114149201Y-89215621D01*
X114094293Y-89260621D01*
X114023768Y-89268792D01*
X113960021Y-89237538D01*
X113939324Y-89213054D01*
X113858822Y-89088617D01*
X113858820Y-89088614D01*
X113856014Y-89084277D01*
X113705670Y-88919051D01*
X113701619Y-88915852D01*
X113701615Y-88915848D01*
X113534414Y-88783800D01*
X113534410Y-88783798D01*
X113530359Y-88780598D01*
X113525831Y-88778098D01*
X113443818Y-88732825D01*
X113334789Y-88672638D01*
X113329920Y-88670914D01*
X113329916Y-88670912D01*
X113129087Y-88599795D01*
X113129083Y-88599794D01*
X113124212Y-88598069D01*
X113119119Y-88597162D01*
X113119116Y-88597161D01*
X112909373Y-88559800D01*
X112909367Y-88559799D01*
X112904284Y-88558894D01*
X112830452Y-88557992D01*
X112686081Y-88556228D01*
X112686079Y-88556228D01*
X112680911Y-88556165D01*
X112460091Y-88589955D01*
X112247756Y-88659357D01*
X112212007Y-88677967D01*
X112073975Y-88749822D01*
X112049607Y-88762507D01*
X112045474Y-88765610D01*
X112045471Y-88765612D01*
X111875100Y-88893530D01*
X111870965Y-88896635D01*
X111834477Y-88934817D01*
X111777280Y-88994671D01*
X111716629Y-89058138D01*
X111713720Y-89062403D01*
X111713714Y-89062411D01*
X111695627Y-89088926D01*
X111609204Y-89215618D01*
X111608898Y-89216066D01*
X111553987Y-89261069D01*
X111483462Y-89269240D01*
X111419715Y-89237986D01*
X111399018Y-89213502D01*
X111318426Y-89088926D01*
X111312136Y-89080757D01*
X111168806Y-88923240D01*
X111161273Y-88916215D01*
X110994139Y-88784222D01*
X110985552Y-88778517D01*
X110799117Y-88675599D01*
X110789705Y-88671369D01*
X110588959Y-88600280D01*
X110578988Y-88597646D01*
X110507837Y-88584972D01*
X110494540Y-88586432D01*
X110490000Y-88600989D01*
X110490000Y-91234517D01*
X109982000Y-91234517D01*
X109982000Y-88599102D01*
X109978082Y-88585758D01*
X109963806Y-88583771D01*
X109925324Y-88589660D01*
X109915288Y-88592051D01*
X109712868Y-88658212D01*
X109703359Y-88662209D01*
X109514463Y-88760542D01*
X109505738Y-88766036D01*
X109335433Y-88893905D01*
X109327726Y-88900748D01*
X109180590Y-89054717D01*
X109174109Y-89062722D01*
X109069498Y-89216074D01*
X109014587Y-89261076D01*
X108944062Y-89269247D01*
X108880315Y-89237993D01*
X108859618Y-89213509D01*
X108778822Y-89088617D01*
X108778820Y-89088614D01*
X108776014Y-89084277D01*
X108625670Y-88919051D01*
X108621619Y-88915852D01*
X108621615Y-88915848D01*
X108454414Y-88783800D01*
X108454410Y-88783798D01*
X108450359Y-88780598D01*
X108445835Y-88778101D01*
X108445831Y-88778098D01*
X108394608Y-88749822D01*
X108344636Y-88699390D01*
X108329500Y-88639513D01*
X108329500Y-79016863D01*
X108330027Y-79005679D01*
X108331701Y-78998191D01*
X108329562Y-78930132D01*
X108329500Y-78926175D01*
X108329500Y-78898244D01*
X108328994Y-78894238D01*
X108328061Y-78882392D01*
X108327972Y-78879540D01*
X108326673Y-78838210D01*
X108321022Y-78818758D01*
X108317014Y-78799406D01*
X108315468Y-78787168D01*
X108315467Y-78787166D01*
X108314474Y-78779303D01*
X108298194Y-78738186D01*
X108294359Y-78726985D01*
X108282018Y-78684506D01*
X108277985Y-78677687D01*
X108277983Y-78677682D01*
X108271707Y-78667071D01*
X108263010Y-78649321D01*
X108255552Y-78630483D01*
X108247020Y-78618739D01*
X108237316Y-78605384D01*
X108229571Y-78594723D01*
X108223053Y-78584801D01*
X108204578Y-78553560D01*
X108204574Y-78553555D01*
X108200542Y-78546737D01*
X108186218Y-78532413D01*
X108173376Y-78517378D01*
X108173364Y-78517361D01*
X108161472Y-78500993D01*
X108127406Y-78472811D01*
X108118627Y-78464822D01*
X81460003Y-51806198D01*
X81425977Y-51743886D01*
X81431042Y-51673071D01*
X81446774Y-51643580D01*
X81548453Y-51502077D01*
X81565422Y-51467744D01*
X81645136Y-51306453D01*
X81645137Y-51306451D01*
X81647430Y-51301811D01*
X81712370Y-51088069D01*
X81741529Y-50866590D01*
X81742653Y-50820598D01*
X81743074Y-50803365D01*
X81743074Y-50803361D01*
X81743156Y-50800000D01*
X81724852Y-50577361D01*
X81670431Y-50360702D01*
X81581354Y-50155840D01*
X81500934Y-50031530D01*
X81462822Y-49972617D01*
X81462820Y-49972614D01*
X81460014Y-49968277D01*
X81309670Y-49803051D01*
X81305619Y-49799852D01*
X81305615Y-49799848D01*
X81138414Y-49667800D01*
X81138410Y-49667798D01*
X81134359Y-49664598D01*
X81093053Y-49641796D01*
X81043084Y-49591364D01*
X81028312Y-49521921D01*
X81053428Y-49455516D01*
X81080780Y-49428909D01*
X81124603Y-49397650D01*
X81259860Y-49301173D01*
X81418096Y-49143489D01*
X81432386Y-49123603D01*
X81545435Y-48966277D01*
X81548453Y-48962077D01*
X81566148Y-48926275D01*
X81645136Y-48766453D01*
X81645137Y-48766451D01*
X81647430Y-48761811D01*
X81703516Y-48577212D01*
X81710865Y-48553023D01*
X81710865Y-48553021D01*
X81712370Y-48548069D01*
X81741529Y-48326590D01*
X81742390Y-48291361D01*
X81743074Y-48263365D01*
X81743074Y-48263361D01*
X81743156Y-48260000D01*
X81724852Y-48037361D01*
X81670431Y-47820702D01*
X81581354Y-47615840D01*
X81515372Y-47513848D01*
X81462822Y-47432617D01*
X81462820Y-47432614D01*
X81460014Y-47428277D01*
X81309670Y-47263051D01*
X81305619Y-47259852D01*
X81305615Y-47259848D01*
X81138414Y-47127800D01*
X81138410Y-47127798D01*
X81134359Y-47124598D01*
X81092569Y-47101529D01*
X81042598Y-47051097D01*
X81027826Y-46981654D01*
X81052942Y-46915248D01*
X81080293Y-46888642D01*
X81129247Y-46853723D01*
X81137648Y-46843023D01*
X81130660Y-46829870D01*
X80392812Y-46092022D01*
X80378868Y-46084408D01*
X80377035Y-46084539D01*
X80370420Y-46088790D01*
X79626737Y-46832473D01*
X79619977Y-46844853D01*
X79625258Y-46851907D01*
X79671969Y-46879203D01*
X79720693Y-46930841D01*
X79733764Y-47000624D01*
X79707033Y-47066396D01*
X79666584Y-47099752D01*
X79653607Y-47106507D01*
X79649474Y-47109610D01*
X79649471Y-47109612D01*
X79479100Y-47237530D01*
X79474965Y-47240635D01*
X79434451Y-47283030D01*
X79342646Y-47379099D01*
X79320629Y-47402138D01*
X79194743Y-47586680D01*
X79179003Y-47620590D01*
X79111879Y-47765197D01*
X79100688Y-47789305D01*
X79040989Y-48004570D01*
X79017251Y-48226695D01*
X79017548Y-48231848D01*
X79017548Y-48231851D01*
X79026178Y-48381523D01*
X79030110Y-48449715D01*
X79031247Y-48454761D01*
X79031248Y-48454767D01*
X79045356Y-48517365D01*
X79079222Y-48667639D01*
X79163266Y-48874616D01*
X79279987Y-49065088D01*
X79426250Y-49233938D01*
X79598126Y-49376632D01*
X79668595Y-49417811D01*
X79671445Y-49419476D01*
X79720169Y-49471114D01*
X79733240Y-49540897D01*
X79706509Y-49606669D01*
X79666055Y-49640027D01*
X79653607Y-49646507D01*
X79649474Y-49649610D01*
X79649471Y-49649612D01*
X79481599Y-49775654D01*
X79474965Y-49780635D01*
X79445167Y-49811817D01*
X79325873Y-49936651D01*
X79320629Y-49942138D01*
X79317715Y-49946410D01*
X79317714Y-49946411D01*
X79305404Y-49964457D01*
X79194743Y-50126680D01*
X79156207Y-50209700D01*
X79113670Y-50301338D01*
X79066846Y-50354705D01*
X78998603Y-50374286D01*
X78930607Y-50353863D01*
X78910287Y-50337383D01*
X77020380Y-48447475D01*
X76986354Y-48385163D01*
X76991419Y-48314347D01*
X77035728Y-48257073D01*
X77035576Y-48256892D01*
X77036408Y-48256193D01*
X77037201Y-48255169D01*
X77038243Y-48254439D01*
X77044300Y-48250198D01*
X77206198Y-48088300D01*
X77212098Y-48079875D01*
X77334366Y-47905257D01*
X77337523Y-47900749D01*
X77339846Y-47895767D01*
X77339849Y-47895762D01*
X77431961Y-47698225D01*
X77431961Y-47698224D01*
X77434284Y-47693243D01*
X77436060Y-47686617D01*
X77492119Y-47477402D01*
X77492119Y-47477400D01*
X77493543Y-47472087D01*
X77513498Y-47244000D01*
X77493543Y-47015913D01*
X77475329Y-46947938D01*
X77435707Y-46800067D01*
X77435706Y-46800065D01*
X77434284Y-46794757D01*
X77427046Y-46779235D01*
X77339849Y-46592238D01*
X77339846Y-46592233D01*
X77337523Y-46587251D01*
X77206198Y-46399700D01*
X77045405Y-46238907D01*
X77011379Y-46176595D01*
X77008500Y-46149812D01*
X77008500Y-45691863D01*
X79018050Y-45691863D01*
X79030309Y-45904477D01*
X79031745Y-45914697D01*
X79078565Y-46122446D01*
X79081645Y-46132275D01*
X79161770Y-46329603D01*
X79166413Y-46338794D01*
X79246460Y-46469420D01*
X79256916Y-46478880D01*
X79265694Y-46475096D01*
X80007978Y-45732812D01*
X80014356Y-45721132D01*
X80744408Y-45721132D01*
X80744539Y-45722965D01*
X80748790Y-45729580D01*
X81490474Y-46471264D01*
X81502484Y-46477823D01*
X81514223Y-46468855D01*
X81545004Y-46426019D01*
X81550315Y-46417180D01*
X81644670Y-46226267D01*
X81648469Y-46216672D01*
X81710376Y-46012915D01*
X81712555Y-46002834D01*
X81740590Y-45789887D01*
X81741109Y-45783212D01*
X81742572Y-45723364D01*
X81742378Y-45716646D01*
X81724781Y-45502604D01*
X81723096Y-45492424D01*
X81671214Y-45285875D01*
X81667894Y-45276124D01*
X81582972Y-45080814D01*
X81578105Y-45071739D01*
X81513063Y-44971197D01*
X81502377Y-44961995D01*
X81492812Y-44966398D01*
X80752022Y-45707188D01*
X80744408Y-45721132D01*
X80014356Y-45721132D01*
X80015592Y-45718868D01*
X80015461Y-45717035D01*
X80011210Y-45710420D01*
X79269849Y-44969059D01*
X79258313Y-44962759D01*
X79246031Y-44972382D01*
X79198089Y-45042662D01*
X79193004Y-45051613D01*
X79103338Y-45244783D01*
X79099775Y-45254470D01*
X79042864Y-45459681D01*
X79040933Y-45469800D01*
X79018302Y-45681574D01*
X79018050Y-45691863D01*
X77008500Y-45691863D01*
X77008500Y-44596427D01*
X79621223Y-44596427D01*
X79627968Y-44608758D01*
X80367188Y-45347978D01*
X80381132Y-45355592D01*
X80382965Y-45355461D01*
X80389580Y-45351210D01*
X81050790Y-44690000D01*
X121736654Y-44690000D01*
X121737517Y-44703174D01*
X121754770Y-44966398D01*
X121756017Y-44985426D01*
X121756819Y-44989459D01*
X121756820Y-44989465D01*
X121812970Y-45271747D01*
X121813776Y-45275797D01*
X121815103Y-45279706D01*
X121815104Y-45279710D01*
X121890766Y-45502604D01*
X121908941Y-45556145D01*
X121910765Y-45559843D01*
X121996064Y-45732812D01*
X122039885Y-45821673D01*
X122042179Y-45825106D01*
X122188378Y-46043908D01*
X122204367Y-46067838D01*
X122207081Y-46070932D01*
X122207085Y-46070938D01*
X122370204Y-46256938D01*
X122399573Y-46290427D01*
X122402662Y-46293136D01*
X122619062Y-46482915D01*
X122619068Y-46482919D01*
X122622162Y-46485633D01*
X122625588Y-46487922D01*
X122625593Y-46487926D01*
X122774244Y-46587251D01*
X122868327Y-46650115D01*
X122872026Y-46651939D01*
X122872031Y-46651942D01*
X122945103Y-46687977D01*
X123133855Y-46781059D01*
X123137760Y-46782384D01*
X123137761Y-46782385D01*
X123410290Y-46874896D01*
X123410294Y-46874897D01*
X123414203Y-46876224D01*
X123418247Y-46877028D01*
X123418253Y-46877030D01*
X123700535Y-46933180D01*
X123700541Y-46933181D01*
X123704574Y-46933983D01*
X123708679Y-46934252D01*
X123708686Y-46934253D01*
X123995881Y-46953076D01*
X124000000Y-46953346D01*
X124004119Y-46953076D01*
X124291314Y-46934253D01*
X124291321Y-46934252D01*
X124295426Y-46933983D01*
X124299459Y-46933181D01*
X124299465Y-46933180D01*
X124581747Y-46877030D01*
X124581753Y-46877028D01*
X124585797Y-46876224D01*
X124589706Y-46874897D01*
X124589710Y-46874896D01*
X124862239Y-46782385D01*
X124862240Y-46782384D01*
X124866145Y-46781059D01*
X125054897Y-46687977D01*
X125127969Y-46651942D01*
X125127974Y-46651939D01*
X125131673Y-46650115D01*
X125225756Y-46587251D01*
X125374407Y-46487926D01*
X125374412Y-46487922D01*
X125377838Y-46485633D01*
X125380932Y-46482919D01*
X125380938Y-46482915D01*
X125597338Y-46293136D01*
X125600427Y-46290427D01*
X125629796Y-46256938D01*
X125792915Y-46070938D01*
X125792919Y-46070932D01*
X125795633Y-46067838D01*
X125811623Y-46043908D01*
X125957821Y-45825106D01*
X125960115Y-45821673D01*
X126003937Y-45732812D01*
X126089235Y-45559843D01*
X126091059Y-45556145D01*
X126109234Y-45502604D01*
X126184896Y-45279710D01*
X126184897Y-45279706D01*
X126186224Y-45275797D01*
X126187030Y-45271747D01*
X126243180Y-44989465D01*
X126243181Y-44989459D01*
X126243983Y-44985426D01*
X126245231Y-44966398D01*
X126262483Y-44703174D01*
X126263346Y-44690000D01*
X126256471Y-44585099D01*
X126244253Y-44398686D01*
X126244252Y-44398679D01*
X126243983Y-44394574D01*
X126237962Y-44364301D01*
X126187030Y-44108253D01*
X126187028Y-44108247D01*
X126186224Y-44104203D01*
X126183188Y-44095257D01*
X126092385Y-43827761D01*
X126092384Y-43827760D01*
X126091059Y-43823855D01*
X126019350Y-43678444D01*
X125961942Y-43562031D01*
X125961939Y-43562026D01*
X125960115Y-43558327D01*
X125879291Y-43437365D01*
X125797926Y-43315593D01*
X125797922Y-43315588D01*
X125795633Y-43312162D01*
X125792919Y-43309068D01*
X125792915Y-43309062D01*
X125603136Y-43092662D01*
X125600427Y-43089573D01*
X125462139Y-42968297D01*
X125380938Y-42897085D01*
X125380932Y-42897081D01*
X125377838Y-42894367D01*
X125374412Y-42892078D01*
X125374407Y-42892074D01*
X125135106Y-42732179D01*
X125131673Y-42729885D01*
X125127974Y-42728061D01*
X125127969Y-42728058D01*
X124881710Y-42606617D01*
X124866145Y-42598941D01*
X124827442Y-42585803D01*
X124589710Y-42505104D01*
X124589706Y-42505103D01*
X124585797Y-42503776D01*
X124581753Y-42502972D01*
X124581747Y-42502970D01*
X124299465Y-42446820D01*
X124299459Y-42446819D01*
X124295426Y-42446017D01*
X124291321Y-42445748D01*
X124291314Y-42445747D01*
X124004119Y-42426924D01*
X124000000Y-42426654D01*
X123995881Y-42426924D01*
X123708686Y-42445747D01*
X123708679Y-42445748D01*
X123704574Y-42446017D01*
X123700541Y-42446819D01*
X123700535Y-42446820D01*
X123418253Y-42502970D01*
X123418247Y-42502972D01*
X123414203Y-42503776D01*
X123410294Y-42505103D01*
X123410290Y-42505104D01*
X123172558Y-42585803D01*
X123133855Y-42598941D01*
X123118290Y-42606617D01*
X122872031Y-42728058D01*
X122872026Y-42728061D01*
X122868327Y-42729885D01*
X122864894Y-42732179D01*
X122625593Y-42892074D01*
X122625588Y-42892078D01*
X122622162Y-42894367D01*
X122619068Y-42897081D01*
X122619062Y-42897085D01*
X122537861Y-42968297D01*
X122399573Y-43089573D01*
X122396864Y-43092662D01*
X122207085Y-43309062D01*
X122207081Y-43309068D01*
X122204367Y-43312162D01*
X122202078Y-43315588D01*
X122202074Y-43315593D01*
X122120709Y-43437365D01*
X122039885Y-43558327D01*
X122038061Y-43562026D01*
X122038058Y-43562031D01*
X121980650Y-43678444D01*
X121908941Y-43823855D01*
X121907616Y-43827760D01*
X121907615Y-43827761D01*
X121816813Y-44095257D01*
X121813776Y-44104203D01*
X121812972Y-44108247D01*
X121812970Y-44108253D01*
X121762039Y-44364301D01*
X121756017Y-44394574D01*
X121755748Y-44398679D01*
X121755747Y-44398686D01*
X121743529Y-44585099D01*
X121736654Y-44690000D01*
X81050790Y-44690000D01*
X81133389Y-44607401D01*
X81140410Y-44594544D01*
X81133611Y-44585213D01*
X81129554Y-44582518D01*
X80943117Y-44479599D01*
X80933705Y-44475369D01*
X80732959Y-44404280D01*
X80722989Y-44401646D01*
X80513327Y-44364301D01*
X80503073Y-44363331D01*
X80290116Y-44360728D01*
X80279832Y-44361448D01*
X80069321Y-44393661D01*
X80059293Y-44396050D01*
X79856868Y-44462212D01*
X79847359Y-44466209D01*
X79658466Y-44564540D01*
X79649734Y-44570039D01*
X79629677Y-44585099D01*
X79621223Y-44596427D01*
X77008500Y-44596427D01*
X77008500Y-44528188D01*
X77028502Y-44460067D01*
X77045405Y-44439093D01*
X77206198Y-44278300D01*
X77230923Y-44242990D01*
X77309032Y-44131438D01*
X77337523Y-44090749D01*
X77339846Y-44085767D01*
X77339849Y-44085762D01*
X77431961Y-43888225D01*
X77431961Y-43888224D01*
X77434284Y-43883243D01*
X77444150Y-43846425D01*
X77492119Y-43667402D01*
X77492119Y-43667400D01*
X77493543Y-43662087D01*
X77513498Y-43434000D01*
X77493543Y-43205913D01*
X77487239Y-43182385D01*
X77435707Y-42990067D01*
X77435706Y-42990065D01*
X77434284Y-42984757D01*
X77392135Y-42894367D01*
X77339849Y-42782238D01*
X77339846Y-42782233D01*
X77337523Y-42777251D01*
X77264098Y-42672389D01*
X77209357Y-42594211D01*
X77209355Y-42594208D01*
X77206198Y-42589700D01*
X77044300Y-42427802D01*
X77039792Y-42424645D01*
X77039789Y-42424643D01*
X76895317Y-42323483D01*
X76856749Y-42296477D01*
X76851767Y-42294154D01*
X76851762Y-42294151D01*
X76654225Y-42202039D01*
X76654224Y-42202039D01*
X76649243Y-42199716D01*
X76643935Y-42198294D01*
X76643933Y-42198293D01*
X76433402Y-42141881D01*
X76433400Y-42141881D01*
X76428087Y-42140457D01*
X76200000Y-42120502D01*
X75971913Y-42140457D01*
X75966600Y-42141881D01*
X75966598Y-42141881D01*
X75756067Y-42198293D01*
X75756065Y-42198294D01*
X75750757Y-42199716D01*
X75745776Y-42202039D01*
X75745775Y-42202039D01*
X75548238Y-42294151D01*
X75548233Y-42294154D01*
X75543251Y-42296477D01*
X75504683Y-42323483D01*
X75360211Y-42424643D01*
X75360208Y-42424645D01*
X75355700Y-42427802D01*
X75193802Y-42589700D01*
X75190645Y-42594208D01*
X75190643Y-42594211D01*
X75135902Y-42672389D01*
X75062477Y-42777251D01*
X75060154Y-42782233D01*
X75060151Y-42782238D01*
X75007865Y-42894367D01*
X74965716Y-42984757D01*
X74964294Y-42990065D01*
X74964293Y-42990067D01*
X74912761Y-43182385D01*
X74906457Y-43205913D01*
X74886502Y-43434000D01*
X74906457Y-43662087D01*
X74907881Y-43667400D01*
X74907881Y-43667402D01*
X74955851Y-43846425D01*
X74965716Y-43883243D01*
X74968039Y-43888224D01*
X74968039Y-43888225D01*
X75060151Y-44085762D01*
X75060154Y-44085767D01*
X75062477Y-44090749D01*
X75090968Y-44131438D01*
X75169078Y-44242990D01*
X75193802Y-44278300D01*
X75354595Y-44439093D01*
X75388621Y-44501405D01*
X75391500Y-44528188D01*
X75391500Y-46149812D01*
X75371498Y-46217933D01*
X75354595Y-46238907D01*
X75193802Y-46399700D01*
X75062477Y-46587251D01*
X75062326Y-46587145D01*
X75012643Y-46634513D01*
X74942929Y-46647946D01*
X74877019Y-46621556D01*
X74865817Y-46611612D01*
X68755952Y-40501747D01*
X68748412Y-40493461D01*
X68744300Y-40486982D01*
X68694648Y-40440356D01*
X68691807Y-40437602D01*
X68672070Y-40417865D01*
X68668873Y-40415385D01*
X68659851Y-40407680D01*
X68633400Y-40382841D01*
X68627621Y-40377414D01*
X68620675Y-40373595D01*
X68620672Y-40373593D01*
X68609866Y-40367652D01*
X68593347Y-40356801D01*
X68592883Y-40356441D01*
X68577341Y-40344386D01*
X68570072Y-40341241D01*
X68570068Y-40341238D01*
X68536763Y-40326826D01*
X68526113Y-40321609D01*
X68487360Y-40300305D01*
X68467737Y-40295267D01*
X68449034Y-40288863D01*
X68437720Y-40283967D01*
X68437719Y-40283967D01*
X68430445Y-40280819D01*
X68422622Y-40279580D01*
X68422612Y-40279577D01*
X68386776Y-40273901D01*
X68375156Y-40271495D01*
X68340011Y-40262472D01*
X68340010Y-40262472D01*
X68332330Y-40260500D01*
X68312076Y-40260500D01*
X68292365Y-40258949D01*
X68280186Y-40257020D01*
X68272357Y-40255780D01*
X68264465Y-40256526D01*
X68228339Y-40259941D01*
X68216481Y-40260500D01*
X65538805Y-40260500D01*
X65470684Y-40240498D01*
X65433013Y-40202940D01*
X65344822Y-40066617D01*
X65344820Y-40066614D01*
X65342014Y-40062277D01*
X65191670Y-39897051D01*
X65187619Y-39893852D01*
X65187615Y-39893848D01*
X65020414Y-39761800D01*
X65020410Y-39761798D01*
X65016359Y-39758598D01*
X64820789Y-39650638D01*
X64815920Y-39648914D01*
X64815916Y-39648912D01*
X64615087Y-39577795D01*
X64615083Y-39577794D01*
X64610212Y-39576069D01*
X64605119Y-39575162D01*
X64605116Y-39575161D01*
X64395373Y-39537800D01*
X64395367Y-39537799D01*
X64390284Y-39536894D01*
X64316452Y-39535992D01*
X64172081Y-39534228D01*
X64172079Y-39534228D01*
X64166911Y-39534165D01*
X63946091Y-39567955D01*
X63733756Y-39637357D01*
X63535607Y-39740507D01*
X63531474Y-39743610D01*
X63531471Y-39743612D01*
X63383076Y-39855030D01*
X63356965Y-39874635D01*
X63353393Y-39878373D01*
X63254709Y-39981640D01*
X63202629Y-40036138D01*
X63076743Y-40220680D01*
X63038011Y-40304121D01*
X62995705Y-40395263D01*
X62982688Y-40423305D01*
X62922989Y-40638570D01*
X62899251Y-40860695D01*
X62899548Y-40865848D01*
X62899548Y-40865851D01*
X62901910Y-40906812D01*
X62912110Y-41083715D01*
X62913247Y-41088761D01*
X62913248Y-41088767D01*
X62935367Y-41186915D01*
X62961222Y-41301639D01*
X63045266Y-41508616D01*
X63094285Y-41588608D01*
X63130981Y-41648490D01*
X63161987Y-41699088D01*
X63308250Y-41867938D01*
X63480126Y-42010632D01*
X63491063Y-42017023D01*
X63553445Y-42053476D01*
X63602169Y-42105114D01*
X63615240Y-42174897D01*
X63588509Y-42240669D01*
X63548055Y-42274027D01*
X63535607Y-42280507D01*
X63531474Y-42283610D01*
X63531471Y-42283612D01*
X63442270Y-42350586D01*
X63356965Y-42414635D01*
X63202629Y-42576138D01*
X63199715Y-42580410D01*
X63199714Y-42580411D01*
X63124666Y-42690427D01*
X63076743Y-42760680D01*
X62982688Y-42963305D01*
X62922989Y-43178570D01*
X62899251Y-43400695D01*
X62899548Y-43405848D01*
X62899548Y-43405851D01*
X62905011Y-43500590D01*
X62912110Y-43623715D01*
X62913247Y-43628761D01*
X62913248Y-43628767D01*
X62921955Y-43667402D01*
X62961222Y-43841639D01*
X63045266Y-44048616D01*
X63161987Y-44239088D01*
X63308250Y-44407938D01*
X63480126Y-44550632D01*
X63539305Y-44585213D01*
X63553445Y-44593476D01*
X63602169Y-44645114D01*
X63615240Y-44714897D01*
X63588509Y-44780669D01*
X63548055Y-44814027D01*
X63535607Y-44820507D01*
X63531474Y-44823610D01*
X63531471Y-44823612D01*
X63507247Y-44841800D01*
X63356965Y-44954635D01*
X63202629Y-45116138D01*
X63076743Y-45300680D01*
X63061003Y-45334590D01*
X62987739Y-45492424D01*
X62982688Y-45503305D01*
X62922989Y-45718570D01*
X62899251Y-45940695D01*
X62899548Y-45945848D01*
X62899548Y-45945851D01*
X62907537Y-46084408D01*
X62912110Y-46163715D01*
X62913247Y-46168761D01*
X62913248Y-46168767D01*
X62928806Y-46237802D01*
X62961222Y-46381639D01*
X63045266Y-46588616D01*
X63047965Y-46593020D01*
X63151712Y-46762320D01*
X63161987Y-46779088D01*
X63308250Y-46947938D01*
X63480126Y-47090632D01*
X63533979Y-47122101D01*
X63553955Y-47133774D01*
X63602679Y-47185412D01*
X63615750Y-47255195D01*
X63589019Y-47320967D01*
X63548562Y-47354327D01*
X63540460Y-47358544D01*
X63531734Y-47364039D01*
X63511677Y-47379099D01*
X63503223Y-47390427D01*
X63509968Y-47402758D01*
X64249188Y-48141978D01*
X64263132Y-48149592D01*
X64264965Y-48149461D01*
X64271580Y-48145210D01*
X65015389Y-47401401D01*
X65022410Y-47388544D01*
X65015611Y-47379213D01*
X65011559Y-47376521D01*
X64974602Y-47356120D01*
X64924631Y-47305687D01*
X64909859Y-47236245D01*
X64934975Y-47169839D01*
X64962327Y-47143232D01*
X65002714Y-47114424D01*
X65141860Y-47015173D01*
X65153718Y-47003357D01*
X65257037Y-46900398D01*
X65300096Y-46857489D01*
X65359594Y-46774689D01*
X65427435Y-46680277D01*
X65430453Y-46676077D01*
X65462314Y-46611612D01*
X65527136Y-46480453D01*
X65527137Y-46480451D01*
X65529430Y-46475811D01*
X65594370Y-46262069D01*
X65623529Y-46040590D01*
X65624227Y-46012039D01*
X65625074Y-45977365D01*
X65625074Y-45977361D01*
X65625156Y-45974000D01*
X65606852Y-45751361D01*
X65552431Y-45534702D01*
X65463354Y-45329840D01*
X65342014Y-45142277D01*
X65191670Y-44977051D01*
X65187619Y-44973852D01*
X65187615Y-44973848D01*
X65020414Y-44841800D01*
X65020410Y-44841798D01*
X65016359Y-44838598D01*
X64975053Y-44815796D01*
X64925084Y-44765364D01*
X64910312Y-44695921D01*
X64935428Y-44629516D01*
X64962780Y-44602909D01*
X65016571Y-44564540D01*
X65141860Y-44475173D01*
X65150856Y-44466209D01*
X65253120Y-44364301D01*
X65300096Y-44317489D01*
X65331498Y-44273789D01*
X65427435Y-44140277D01*
X65430453Y-44136077D01*
X65444205Y-44108253D01*
X65527136Y-43940453D01*
X65527137Y-43940451D01*
X65529430Y-43935811D01*
X65563445Y-43823855D01*
X65592865Y-43727023D01*
X65592865Y-43727021D01*
X65594370Y-43722069D01*
X65623529Y-43500590D01*
X65625156Y-43434000D01*
X65606852Y-43211361D01*
X65552431Y-42994702D01*
X65463354Y-42789840D01*
X65399041Y-42690427D01*
X65344822Y-42606617D01*
X65344820Y-42606614D01*
X65342014Y-42602277D01*
X65191670Y-42437051D01*
X65187619Y-42433852D01*
X65187615Y-42433848D01*
X65020414Y-42301800D01*
X65020410Y-42301798D01*
X65016359Y-42298598D01*
X64975053Y-42275796D01*
X64925084Y-42225364D01*
X64910312Y-42155921D01*
X64935428Y-42089516D01*
X64962780Y-42062909D01*
X65027110Y-42017023D01*
X65141860Y-41935173D01*
X65300096Y-41777489D01*
X65359594Y-41694689D01*
X65427435Y-41600277D01*
X65430453Y-41596077D01*
X65432746Y-41591437D01*
X65434446Y-41588608D01*
X65486674Y-41540518D01*
X65542451Y-41527500D01*
X67937706Y-41527500D01*
X68005827Y-41547502D01*
X68026801Y-41564405D01*
X68395505Y-41933109D01*
X68429531Y-41995421D01*
X68424466Y-42066236D01*
X68381919Y-42123072D01*
X68339022Y-42143911D01*
X68224401Y-42174624D01*
X68130757Y-42199716D01*
X68125776Y-42202039D01*
X68125775Y-42202039D01*
X67928238Y-42294151D01*
X67928233Y-42294154D01*
X67923251Y-42296477D01*
X67884683Y-42323483D01*
X67740211Y-42424643D01*
X67740208Y-42424645D01*
X67735700Y-42427802D01*
X67573802Y-42589700D01*
X67570645Y-42594208D01*
X67570643Y-42594211D01*
X67515902Y-42672389D01*
X67442477Y-42777251D01*
X67440154Y-42782233D01*
X67440151Y-42782238D01*
X67387865Y-42894367D01*
X67345716Y-42984757D01*
X67344294Y-42990065D01*
X67344293Y-42990067D01*
X67292761Y-43182385D01*
X67286457Y-43205913D01*
X67266502Y-43434000D01*
X67286457Y-43662087D01*
X67287881Y-43667400D01*
X67287881Y-43667402D01*
X67335851Y-43846425D01*
X67345716Y-43883243D01*
X67348039Y-43888224D01*
X67348039Y-43888225D01*
X67440151Y-44085762D01*
X67440154Y-44085767D01*
X67442477Y-44090749D01*
X67470968Y-44131438D01*
X67549078Y-44242990D01*
X67573802Y-44278300D01*
X67735700Y-44440198D01*
X67740208Y-44443355D01*
X67740211Y-44443357D01*
X67772847Y-44466209D01*
X67923251Y-44571523D01*
X67928233Y-44573846D01*
X67928238Y-44573849D01*
X68047618Y-44629516D01*
X68130757Y-44668284D01*
X68136065Y-44669706D01*
X68136067Y-44669707D01*
X68346598Y-44726119D01*
X68346600Y-44726119D01*
X68351913Y-44727543D01*
X68580000Y-44747498D01*
X68808087Y-44727543D01*
X68813398Y-44726120D01*
X68813409Y-44726118D01*
X68871541Y-44710541D01*
X68942517Y-44712230D01*
X68993248Y-44743152D01*
X73943943Y-49693847D01*
X73951487Y-49702137D01*
X73955600Y-49708618D01*
X73961377Y-49714043D01*
X74005267Y-49755258D01*
X74008109Y-49758013D01*
X74027830Y-49777734D01*
X74031025Y-49780212D01*
X74040047Y-49787918D01*
X74072279Y-49818186D01*
X74083458Y-49824332D01*
X74090032Y-49827946D01*
X74106556Y-49838799D01*
X74122559Y-49851213D01*
X74163143Y-49868776D01*
X74173773Y-49873983D01*
X74212540Y-49895295D01*
X74220217Y-49897266D01*
X74220222Y-49897268D01*
X74232158Y-49900332D01*
X74250866Y-49906737D01*
X74269455Y-49914781D01*
X74277280Y-49916020D01*
X74277282Y-49916021D01*
X74313119Y-49921697D01*
X74324740Y-49924104D01*
X74359889Y-49933128D01*
X74367570Y-49935100D01*
X74387831Y-49935100D01*
X74407540Y-49936651D01*
X74427543Y-49939819D01*
X74435435Y-49939073D01*
X74440662Y-49938579D01*
X74471554Y-49935659D01*
X74483411Y-49935100D01*
X75164212Y-49935100D01*
X75232333Y-49955102D01*
X75278826Y-50008758D01*
X75288930Y-50079032D01*
X75259436Y-50143612D01*
X75253307Y-50150195D01*
X75193802Y-50209700D01*
X75190645Y-50214208D01*
X75190643Y-50214211D01*
X75135902Y-50292389D01*
X75062477Y-50397251D01*
X75060154Y-50402233D01*
X75060151Y-50402238D01*
X75021703Y-50484691D01*
X74965716Y-50604757D01*
X74964294Y-50610065D01*
X74964293Y-50610067D01*
X74913400Y-50800000D01*
X74906457Y-50825913D01*
X74886502Y-51054000D01*
X74906457Y-51282087D01*
X74907881Y-51287400D01*
X74907881Y-51287402D01*
X74964161Y-51497438D01*
X74965716Y-51503243D01*
X74968039Y-51508224D01*
X74968039Y-51508225D01*
X75060151Y-51705762D01*
X75060154Y-51705767D01*
X75062477Y-51710749D01*
X75126971Y-51802855D01*
X75169078Y-51862990D01*
X75193802Y-51898300D01*
X75354595Y-52059093D01*
X75388621Y-52121405D01*
X75391500Y-52148188D01*
X75391500Y-53769812D01*
X75371498Y-53837933D01*
X75354595Y-53858907D01*
X75193802Y-54019700D01*
X75190645Y-54024208D01*
X75190643Y-54024211D01*
X75156598Y-54072833D01*
X75062477Y-54207251D01*
X75060154Y-54212234D01*
X75060147Y-54212245D01*
X75058949Y-54214815D01*
X75058120Y-54215756D01*
X75057401Y-54217002D01*
X75057151Y-54216857D01*
X75012031Y-54268099D01*
X74943753Y-54287558D01*
X74875794Y-54267014D01*
X74855661Y-54250657D01*
X72090189Y-51485184D01*
X69250405Y-48645400D01*
X69216379Y-48583088D01*
X69213500Y-48556305D01*
X69213500Y-48463394D01*
X69233502Y-48395273D01*
X69267229Y-48360181D01*
X69419789Y-48253357D01*
X69419792Y-48253355D01*
X69424300Y-48250198D01*
X69586198Y-48088300D01*
X69592098Y-48079875D01*
X69714366Y-47905257D01*
X69717523Y-47900749D01*
X69719846Y-47895767D01*
X69719849Y-47895762D01*
X69811961Y-47698225D01*
X69811961Y-47698224D01*
X69814284Y-47693243D01*
X69816060Y-47686617D01*
X69872119Y-47477402D01*
X69872119Y-47477400D01*
X69873543Y-47472087D01*
X69893498Y-47244000D01*
X69873543Y-47015913D01*
X69855329Y-46947938D01*
X69815707Y-46800067D01*
X69815706Y-46800065D01*
X69814284Y-46794757D01*
X69807046Y-46779235D01*
X69719849Y-46592238D01*
X69719846Y-46592233D01*
X69717523Y-46587251D01*
X69586198Y-46399700D01*
X69424300Y-46237802D01*
X69419792Y-46234645D01*
X69419789Y-46234643D01*
X69311112Y-46158547D01*
X69236749Y-46106477D01*
X69231767Y-46104154D01*
X69231762Y-46104151D01*
X69034225Y-46012039D01*
X69034224Y-46012039D01*
X69029243Y-46009716D01*
X69023935Y-46008294D01*
X69023933Y-46008293D01*
X68813402Y-45951881D01*
X68813400Y-45951881D01*
X68808087Y-45950457D01*
X68580000Y-45930502D01*
X68351913Y-45950457D01*
X68346600Y-45951881D01*
X68346598Y-45951881D01*
X68136067Y-46008293D01*
X68136065Y-46008294D01*
X68130757Y-46009716D01*
X68125776Y-46012039D01*
X68125775Y-46012039D01*
X67928238Y-46104151D01*
X67928233Y-46104154D01*
X67923251Y-46106477D01*
X67848888Y-46158547D01*
X67740211Y-46234643D01*
X67740208Y-46234645D01*
X67735700Y-46237802D01*
X67573802Y-46399700D01*
X67442477Y-46587251D01*
X67440154Y-46592233D01*
X67440151Y-46592238D01*
X67352954Y-46779235D01*
X67345716Y-46794757D01*
X67344294Y-46800065D01*
X67344293Y-46800067D01*
X67304671Y-46947938D01*
X67286457Y-47015913D01*
X67266502Y-47244000D01*
X67286457Y-47472087D01*
X67287881Y-47477400D01*
X67287881Y-47477402D01*
X67343941Y-47686617D01*
X67345716Y-47693243D01*
X67348039Y-47698224D01*
X67348039Y-47698225D01*
X67440151Y-47895762D01*
X67440154Y-47895767D01*
X67442477Y-47900749D01*
X67445634Y-47905257D01*
X67567903Y-48079875D01*
X67573802Y-48088300D01*
X67735700Y-48250198D01*
X67740208Y-48253355D01*
X67740211Y-48253357D01*
X67892771Y-48360181D01*
X67937099Y-48415638D01*
X67946500Y-48463394D01*
X67946500Y-48556306D01*
X67926498Y-48624427D01*
X67909595Y-48645401D01*
X65787452Y-50767544D01*
X65725140Y-50801570D01*
X65654325Y-50796505D01*
X65597489Y-50753958D01*
X65576153Y-50709144D01*
X65553692Y-50619722D01*
X65553692Y-50619721D01*
X65552431Y-50614702D01*
X65463354Y-50409840D01*
X65342014Y-50222277D01*
X65191670Y-50057051D01*
X65187619Y-50053852D01*
X65187615Y-50053848D01*
X65020414Y-49921800D01*
X65020410Y-49921798D01*
X65016359Y-49918598D01*
X65009445Y-49914781D01*
X64979270Y-49898124D01*
X64974569Y-49895529D01*
X64924598Y-49845097D01*
X64909826Y-49775654D01*
X64934942Y-49709248D01*
X64962293Y-49682642D01*
X65011247Y-49647723D01*
X65019648Y-49637023D01*
X65012660Y-49623870D01*
X64274812Y-48886022D01*
X64260868Y-48878408D01*
X64259035Y-48878539D01*
X64252420Y-48882790D01*
X63508737Y-49626473D01*
X63501977Y-49638853D01*
X63507258Y-49645907D01*
X63553969Y-49673203D01*
X63602693Y-49724841D01*
X63615764Y-49794624D01*
X63589033Y-49860396D01*
X63548584Y-49893752D01*
X63535607Y-49900507D01*
X63531474Y-49903610D01*
X63531471Y-49903612D01*
X63361100Y-50031530D01*
X63356965Y-50034635D01*
X63202629Y-50196138D01*
X63199715Y-50200410D01*
X63199714Y-50200411D01*
X63190300Y-50214211D01*
X63076743Y-50380680D01*
X62982688Y-50583305D01*
X62922989Y-50798570D01*
X62899251Y-51020695D01*
X62899548Y-51025848D01*
X62899548Y-51025851D01*
X62911175Y-51227498D01*
X62912110Y-51243715D01*
X62913247Y-51248761D01*
X62913248Y-51248767D01*
X62935058Y-51345541D01*
X62961222Y-51461639D01*
X63045266Y-51668616D01*
X63161987Y-51859088D01*
X63165367Y-51862990D01*
X63204675Y-51908368D01*
X63234158Y-51972954D01*
X63224044Y-52043226D01*
X63198533Y-52079961D01*
X62683842Y-52594652D01*
X62675562Y-52602187D01*
X62669082Y-52606300D01*
X62622457Y-52655951D01*
X62619702Y-52658793D01*
X62599965Y-52678530D01*
X62597485Y-52681727D01*
X62589782Y-52690747D01*
X62559514Y-52722979D01*
X62555695Y-52729925D01*
X62555693Y-52729928D01*
X62549752Y-52740734D01*
X62538901Y-52757253D01*
X62526486Y-52773259D01*
X62523341Y-52780528D01*
X62523338Y-52780532D01*
X62508926Y-52813837D01*
X62503709Y-52824487D01*
X62482405Y-52863240D01*
X62480434Y-52870915D01*
X62480434Y-52870916D01*
X62477367Y-52882862D01*
X62470963Y-52901566D01*
X62462919Y-52920155D01*
X62461680Y-52927978D01*
X62461677Y-52927988D01*
X62456001Y-52963824D01*
X62453595Y-52975444D01*
X62444572Y-53010589D01*
X62442600Y-53018270D01*
X62442600Y-53038524D01*
X62441049Y-53058234D01*
X62437880Y-53078243D01*
X62438626Y-53086135D01*
X62442041Y-53122261D01*
X62442600Y-53134119D01*
X62442600Y-59949333D01*
X62442073Y-59960516D01*
X62440398Y-59968009D01*
X62440647Y-59975935D01*
X62440647Y-59975936D01*
X62442538Y-60036086D01*
X62442600Y-60040045D01*
X62442600Y-60067956D01*
X62443097Y-60071890D01*
X62443097Y-60071891D01*
X62443105Y-60071956D01*
X62444038Y-60083793D01*
X62445427Y-60127989D01*
X62451078Y-60147439D01*
X62455087Y-60166800D01*
X62457626Y-60186897D01*
X62460545Y-60194268D01*
X62460545Y-60194270D01*
X62473904Y-60228012D01*
X62477749Y-60239242D01*
X62490082Y-60281693D01*
X62494115Y-60288512D01*
X62494117Y-60288517D01*
X62500393Y-60299128D01*
X62509088Y-60316876D01*
X62516548Y-60335717D01*
X62521210Y-60342133D01*
X62521210Y-60342134D01*
X62542536Y-60371487D01*
X62549052Y-60381407D01*
X62571558Y-60419462D01*
X62585879Y-60433783D01*
X62598719Y-60448816D01*
X62610628Y-60465207D01*
X62616734Y-60470258D01*
X62644705Y-60493398D01*
X62653484Y-60501388D01*
X62911778Y-60759682D01*
X62945804Y-60821994D01*
X62944100Y-60882448D01*
X62922989Y-60958570D01*
X62922441Y-60963700D01*
X62922440Y-60963704D01*
X62918933Y-60996522D01*
X62899251Y-61180695D01*
X62899548Y-61185848D01*
X62899548Y-61185851D01*
X62905011Y-61280590D01*
X62912110Y-61403715D01*
X62913247Y-61408761D01*
X62913248Y-61408767D01*
X62933119Y-61496939D01*
X62961222Y-61621639D01*
X63045266Y-61828616D01*
X63161987Y-62019088D01*
X63308250Y-62187938D01*
X63480126Y-62330632D01*
X63484668Y-62333286D01*
X63553445Y-62373476D01*
X63602169Y-62425114D01*
X63615240Y-62494897D01*
X63588509Y-62560669D01*
X63548055Y-62594027D01*
X63535607Y-62600507D01*
X63531474Y-62603610D01*
X63531471Y-62603612D01*
X63365839Y-62727972D01*
X63356965Y-62734635D01*
X63202629Y-62896138D01*
X63076743Y-63080680D01*
X62982688Y-63283305D01*
X62922989Y-63498570D01*
X62899251Y-63720695D01*
X62899548Y-63725848D01*
X62899548Y-63725851D01*
X62905011Y-63820590D01*
X62912110Y-63943715D01*
X62913247Y-63948761D01*
X62913248Y-63948767D01*
X62933119Y-64036939D01*
X62961222Y-64161639D01*
X63045266Y-64368616D01*
X63161987Y-64559088D01*
X63308250Y-64727938D01*
X63480126Y-64870632D01*
X63507293Y-64886507D01*
X63553445Y-64913476D01*
X63602169Y-64965114D01*
X63615240Y-65034897D01*
X63588509Y-65100669D01*
X63548055Y-65134027D01*
X63535607Y-65140507D01*
X63531474Y-65143610D01*
X63531471Y-65143612D01*
X63507247Y-65161800D01*
X63356965Y-65274635D01*
X63202629Y-65436138D01*
X63076743Y-65620680D01*
X62982688Y-65823305D01*
X62922989Y-66038570D01*
X62899251Y-66260695D01*
X62899548Y-66265848D01*
X62899548Y-66265851D01*
X62905011Y-66360590D01*
X62912110Y-66483715D01*
X62913247Y-66488761D01*
X62913248Y-66488767D01*
X62930089Y-66563495D01*
X62961222Y-66701639D01*
X63045266Y-66908616D01*
X63161987Y-67099088D01*
X63308250Y-67267938D01*
X63480126Y-67410632D01*
X63553445Y-67453476D01*
X63553955Y-67453774D01*
X63602679Y-67505412D01*
X63615750Y-67575195D01*
X63589019Y-67640967D01*
X63548562Y-67674327D01*
X63540460Y-67678544D01*
X63531734Y-67684039D01*
X63511677Y-67699099D01*
X63503223Y-67710427D01*
X63509968Y-67722758D01*
X64249188Y-68461978D01*
X64263132Y-68469592D01*
X64264965Y-68469461D01*
X64271580Y-68465210D01*
X65015389Y-67721401D01*
X65022410Y-67708544D01*
X65015611Y-67699213D01*
X65011559Y-67696521D01*
X64974602Y-67676120D01*
X64924631Y-67625687D01*
X64909859Y-67556245D01*
X64934975Y-67489839D01*
X64962327Y-67463232D01*
X64985797Y-67446491D01*
X65141860Y-67335173D01*
X65300096Y-67177489D01*
X65359594Y-67094689D01*
X65427435Y-67000277D01*
X65430453Y-66996077D01*
X65529430Y-66795811D01*
X65594370Y-66582069D01*
X65623529Y-66360590D01*
X65625156Y-66294000D01*
X65606852Y-66071361D01*
X65552431Y-65854702D01*
X65463354Y-65649840D01*
X65412362Y-65571019D01*
X65344822Y-65466617D01*
X65344820Y-65466614D01*
X65342014Y-65462277D01*
X65191670Y-65297051D01*
X65187619Y-65293852D01*
X65187615Y-65293848D01*
X65020414Y-65161800D01*
X65020410Y-65161798D01*
X65016359Y-65158598D01*
X64975053Y-65135796D01*
X64925084Y-65085364D01*
X64910312Y-65015921D01*
X64935428Y-64949516D01*
X64962780Y-64922909D01*
X65013814Y-64886507D01*
X65141860Y-64795173D01*
X65153718Y-64783357D01*
X65296435Y-64641137D01*
X65300096Y-64637489D01*
X65359594Y-64554689D01*
X65427435Y-64460277D01*
X65430453Y-64456077D01*
X65529430Y-64255811D01*
X65594370Y-64042069D01*
X65623529Y-63820590D01*
X65625156Y-63754000D01*
X65606852Y-63531361D01*
X65552431Y-63314702D01*
X65463354Y-63109840D01*
X65342014Y-62922277D01*
X65191670Y-62757051D01*
X65187619Y-62753852D01*
X65187615Y-62753848D01*
X65020414Y-62621800D01*
X65020410Y-62621798D01*
X65016359Y-62618598D01*
X64975053Y-62595796D01*
X64925084Y-62545364D01*
X64910312Y-62475921D01*
X64935428Y-62409516D01*
X64962780Y-62382909D01*
X65013814Y-62346507D01*
X65141860Y-62255173D01*
X65153718Y-62243357D01*
X65296435Y-62101137D01*
X65300096Y-62097489D01*
X65359594Y-62014689D01*
X65427435Y-61920277D01*
X65430453Y-61916077D01*
X65529430Y-61715811D01*
X65594370Y-61502069D01*
X65623529Y-61280590D01*
X65625156Y-61214000D01*
X65606852Y-60991361D01*
X65552431Y-60774702D01*
X65463354Y-60569840D01*
X65413901Y-60493398D01*
X65344822Y-60386617D01*
X65344820Y-60386614D01*
X65342014Y-60382277D01*
X65191670Y-60217051D01*
X65187619Y-60213852D01*
X65187615Y-60213848D01*
X65020414Y-60081800D01*
X65020410Y-60081798D01*
X65016359Y-60078598D01*
X64975053Y-60055796D01*
X64925084Y-60005364D01*
X64910312Y-59935921D01*
X64935428Y-59869516D01*
X64962780Y-59842909D01*
X65013814Y-59806507D01*
X65141860Y-59715173D01*
X65153718Y-59703357D01*
X65278801Y-59578710D01*
X65300096Y-59557489D01*
X65331498Y-59513789D01*
X65427435Y-59380277D01*
X65430453Y-59376077D01*
X65450628Y-59335257D01*
X65527136Y-59180453D01*
X65527137Y-59180451D01*
X65529430Y-59175811D01*
X65594370Y-58962069D01*
X65623529Y-58740590D01*
X65625156Y-58674000D01*
X65606852Y-58451361D01*
X65577558Y-58334737D01*
X65580362Y-58263798D01*
X65621075Y-58205634D01*
X65687900Y-58178603D01*
X65695757Y-58177860D01*
X65707619Y-58177300D01*
X67194225Y-58177300D01*
X67262346Y-58197302D01*
X67308839Y-58250958D01*
X67318943Y-58321232D01*
X67315932Y-58335911D01*
X67293784Y-58418570D01*
X67286457Y-58445913D01*
X67266502Y-58674000D01*
X67286457Y-58902087D01*
X67287881Y-58907400D01*
X67287881Y-58907402D01*
X67335851Y-59086425D01*
X67345716Y-59123243D01*
X67348039Y-59128224D01*
X67348039Y-59128225D01*
X67440151Y-59325762D01*
X67440154Y-59325767D01*
X67442477Y-59330749D01*
X67501259Y-59414698D01*
X67565955Y-59507093D01*
X67573802Y-59518300D01*
X67735700Y-59680198D01*
X67740208Y-59683355D01*
X67740211Y-59683357D01*
X67780445Y-59711529D01*
X67923251Y-59811523D01*
X67928233Y-59813846D01*
X67928238Y-59813849D01*
X68047618Y-59869516D01*
X68130757Y-59908284D01*
X68136065Y-59909706D01*
X68136067Y-59909707D01*
X68346598Y-59966119D01*
X68346600Y-59966119D01*
X68351913Y-59967543D01*
X68580000Y-59987498D01*
X68808087Y-59967543D01*
X68813400Y-59966119D01*
X68813402Y-59966119D01*
X69023933Y-59909707D01*
X69023935Y-59909706D01*
X69029243Y-59908284D01*
X69112382Y-59869516D01*
X69231762Y-59813849D01*
X69231767Y-59813846D01*
X69236749Y-59811523D01*
X69379555Y-59711529D01*
X69419789Y-59683357D01*
X69419792Y-59683355D01*
X69424300Y-59680198D01*
X69586198Y-59518300D01*
X69594046Y-59507093D01*
X69658741Y-59414698D01*
X69717523Y-59330749D01*
X69719846Y-59325767D01*
X69719849Y-59325762D01*
X69811961Y-59128225D01*
X69811961Y-59128224D01*
X69814284Y-59123243D01*
X69824150Y-59086425D01*
X69872119Y-58907402D01*
X69872119Y-58907400D01*
X69873543Y-58902087D01*
X69893498Y-58674000D01*
X69873543Y-58445913D01*
X69866217Y-58418570D01*
X69844068Y-58335911D01*
X69845758Y-58264935D01*
X69885552Y-58206139D01*
X69950816Y-58178191D01*
X69965775Y-58177300D01*
X74814225Y-58177300D01*
X74882346Y-58197302D01*
X74928839Y-58250958D01*
X74938943Y-58321232D01*
X74935932Y-58335911D01*
X74913784Y-58418570D01*
X74906457Y-58445913D01*
X74886502Y-58674000D01*
X74906457Y-58902087D01*
X74907881Y-58907400D01*
X74907881Y-58907402D01*
X74955851Y-59086425D01*
X74965716Y-59123243D01*
X74968039Y-59128224D01*
X74968039Y-59128225D01*
X75060151Y-59325762D01*
X75060154Y-59325767D01*
X75062477Y-59330749D01*
X75121259Y-59414698D01*
X75185955Y-59507093D01*
X75193802Y-59518300D01*
X75354595Y-59679093D01*
X75388621Y-59741405D01*
X75391500Y-59768188D01*
X75391500Y-77090786D01*
X75391493Y-77092106D01*
X75390549Y-77182221D01*
X75399711Y-77224597D01*
X75401769Y-77237163D01*
X75406603Y-77280255D01*
X75408919Y-77286906D01*
X75408920Y-77286910D01*
X75417633Y-77311930D01*
X75421796Y-77326742D01*
X75428881Y-77359510D01*
X75447208Y-77398813D01*
X75451990Y-77410589D01*
X75466255Y-77451552D01*
X75469989Y-77457527D01*
X75469990Y-77457530D01*
X75484027Y-77479995D01*
X75491366Y-77493512D01*
X75502559Y-77517514D01*
X75505538Y-77523902D01*
X75509855Y-77529467D01*
X75509856Y-77529469D01*
X75532106Y-77558153D01*
X75539402Y-77568612D01*
X75550584Y-77586507D01*
X75562374Y-77605376D01*
X75567334Y-77610371D01*
X75567335Y-77610372D01*
X75590976Y-77634179D01*
X75591561Y-77634804D01*
X75592078Y-77635470D01*
X75618067Y-77661459D01*
X75690185Y-77734082D01*
X75691222Y-77734740D01*
X75692451Y-77735843D01*
X78992622Y-81036014D01*
X79026648Y-81098326D01*
X79028814Y-81138495D01*
X79017251Y-81246695D01*
X79017548Y-81251848D01*
X79017548Y-81251851D01*
X79023011Y-81346590D01*
X79030110Y-81469715D01*
X79031247Y-81474761D01*
X79031248Y-81474767D01*
X79042444Y-81524444D01*
X79079222Y-81687639D01*
X79163266Y-81894616D01*
X79279987Y-82085088D01*
X79426250Y-82253938D01*
X79598126Y-82396632D01*
X79671955Y-82439774D01*
X79720679Y-82491412D01*
X79733750Y-82561195D01*
X79707019Y-82626967D01*
X79666562Y-82660327D01*
X79658460Y-82664544D01*
X79649734Y-82670039D01*
X79629677Y-82685099D01*
X79621223Y-82696427D01*
X79627968Y-82708758D01*
X81490474Y-84571264D01*
X81502484Y-84577823D01*
X81514223Y-84568855D01*
X81545004Y-84526019D01*
X81550315Y-84517180D01*
X81644670Y-84326267D01*
X81648469Y-84316672D01*
X81710376Y-84112915D01*
X81712555Y-84102834D01*
X81719561Y-84049619D01*
X81748283Y-83984692D01*
X81807548Y-83945600D01*
X81878540Y-83944755D01*
X81933578Y-83976970D01*
X87987466Y-90030858D01*
X87988394Y-90031795D01*
X88045393Y-90090000D01*
X88051471Y-90096207D01*
X88087921Y-90119698D01*
X88098246Y-90127117D01*
X88132143Y-90154176D01*
X88138484Y-90157241D01*
X88138485Y-90157242D01*
X88162337Y-90168772D01*
X88175754Y-90176301D01*
X88203938Y-90194465D01*
X88210555Y-90196873D01*
X88210560Y-90196876D01*
X88244673Y-90209292D01*
X88256416Y-90214252D01*
X88264912Y-90218359D01*
X88317537Y-90266015D01*
X88336044Y-90334557D01*
X88314556Y-90402224D01*
X88259896Y-90447532D01*
X88210074Y-90457800D01*
X76810819Y-90457800D01*
X76742698Y-90437798D01*
X76696205Y-90384142D01*
X76686101Y-90313868D01*
X76694410Y-90283582D01*
X76771211Y-90098167D01*
X76771212Y-90098165D01*
X76773105Y-90093594D01*
X76810962Y-89935909D01*
X76827380Y-89867524D01*
X76827381Y-89867518D01*
X76828535Y-89862711D01*
X76847165Y-89626000D01*
X76828535Y-89389289D01*
X76818871Y-89349033D01*
X76774260Y-89163218D01*
X76773105Y-89158406D01*
X76744326Y-89088926D01*
X76684135Y-88943611D01*
X76684133Y-88943607D01*
X76682240Y-88939037D01*
X76630760Y-88855030D01*
X76560759Y-88740798D01*
X76560755Y-88740792D01*
X76558176Y-88736584D01*
X76403969Y-88556031D01*
X76223416Y-88401824D01*
X76219208Y-88399245D01*
X76219202Y-88399241D01*
X76025183Y-88280346D01*
X76020963Y-88277760D01*
X76016393Y-88275867D01*
X76016389Y-88275865D01*
X75806167Y-88188789D01*
X75806165Y-88188788D01*
X75801594Y-88186895D01*
X75721391Y-88167640D01*
X75575524Y-88132620D01*
X75575518Y-88132619D01*
X75570711Y-88131465D01*
X75334000Y-88112835D01*
X75097289Y-88131465D01*
X75092482Y-88132619D01*
X75092476Y-88132620D01*
X74946609Y-88167640D01*
X74866406Y-88186895D01*
X74861835Y-88188788D01*
X74861833Y-88188789D01*
X74651611Y-88275865D01*
X74651607Y-88275867D01*
X74647037Y-88277760D01*
X74642817Y-88280346D01*
X74448798Y-88399241D01*
X74448792Y-88399245D01*
X74444584Y-88401824D01*
X74264031Y-88556031D01*
X74109824Y-88736584D01*
X74107245Y-88740792D01*
X74107241Y-88740798D01*
X74037240Y-88855030D01*
X73985760Y-88939037D01*
X73983867Y-88943607D01*
X73983865Y-88943611D01*
X73923674Y-89088926D01*
X73894895Y-89158406D01*
X73893740Y-89163218D01*
X73849130Y-89349033D01*
X73839465Y-89389289D01*
X73820835Y-89626000D01*
X73839465Y-89862711D01*
X73840619Y-89867518D01*
X73840620Y-89867524D01*
X73857038Y-89935909D01*
X73894895Y-90093594D01*
X73896788Y-90098165D01*
X73896789Y-90098167D01*
X73973590Y-90283582D01*
X73981179Y-90354172D01*
X73949399Y-90417659D01*
X73888341Y-90453886D01*
X73857181Y-90457800D01*
X70310819Y-90457800D01*
X70242698Y-90437798D01*
X70196205Y-90384142D01*
X70186101Y-90313868D01*
X70194410Y-90283582D01*
X70271211Y-90098167D01*
X70271212Y-90098165D01*
X70273105Y-90093594D01*
X70310962Y-89935909D01*
X70327380Y-89867524D01*
X70327381Y-89867518D01*
X70328535Y-89862711D01*
X70347165Y-89626000D01*
X70328535Y-89389289D01*
X70318871Y-89349033D01*
X70274260Y-89163218D01*
X70273105Y-89158406D01*
X70244326Y-89088926D01*
X70184135Y-88943611D01*
X70184133Y-88943607D01*
X70182240Y-88939037D01*
X70130760Y-88855030D01*
X70060759Y-88740798D01*
X70060755Y-88740792D01*
X70058176Y-88736584D01*
X69903969Y-88556031D01*
X69723416Y-88401824D01*
X69719208Y-88399245D01*
X69719202Y-88399241D01*
X69525183Y-88280346D01*
X69520963Y-88277760D01*
X69516393Y-88275867D01*
X69516389Y-88275865D01*
X69306167Y-88188789D01*
X69306165Y-88188788D01*
X69301594Y-88186895D01*
X69221391Y-88167640D01*
X69075524Y-88132620D01*
X69075518Y-88132619D01*
X69070711Y-88131465D01*
X68834000Y-88112835D01*
X68597289Y-88131465D01*
X68592482Y-88132619D01*
X68592476Y-88132620D01*
X68446609Y-88167640D01*
X68366406Y-88186895D01*
X68361835Y-88188788D01*
X68361833Y-88188789D01*
X68170107Y-88268204D01*
X68099517Y-88275793D01*
X68032794Y-88240890D01*
X66150574Y-86358670D01*
X67966160Y-86358670D01*
X67971887Y-86366320D01*
X68143042Y-86471205D01*
X68151837Y-86475687D01*
X68361988Y-86562734D01*
X68371373Y-86565783D01*
X68592554Y-86618885D01*
X68602301Y-86620428D01*
X68829070Y-86638275D01*
X68838930Y-86638275D01*
X69065699Y-86620428D01*
X69075446Y-86618885D01*
X69296627Y-86565783D01*
X69306012Y-86562734D01*
X69516163Y-86475687D01*
X69524958Y-86471205D01*
X69692445Y-86368568D01*
X69701400Y-86358670D01*
X74466160Y-86358670D01*
X74471887Y-86366320D01*
X74643042Y-86471205D01*
X74651837Y-86475687D01*
X74861988Y-86562734D01*
X74871373Y-86565783D01*
X75092554Y-86618885D01*
X75102301Y-86620428D01*
X75329070Y-86638275D01*
X75338930Y-86638275D01*
X75565699Y-86620428D01*
X75575446Y-86618885D01*
X75796627Y-86565783D01*
X75806012Y-86562734D01*
X76016163Y-86475687D01*
X76024958Y-86471205D01*
X76192445Y-86368568D01*
X76201907Y-86358110D01*
X76198124Y-86349334D01*
X75346812Y-85498022D01*
X75332868Y-85490408D01*
X75331035Y-85490539D01*
X75324420Y-85494790D01*
X74472920Y-86346290D01*
X74466160Y-86358670D01*
X69701400Y-86358670D01*
X69701907Y-86358110D01*
X69698124Y-86349334D01*
X68846812Y-85498022D01*
X68832868Y-85490408D01*
X68831035Y-85490539D01*
X68824420Y-85494790D01*
X67972920Y-86346290D01*
X67966160Y-86358670D01*
X66150574Y-86358670D01*
X64922834Y-85130930D01*
X67321725Y-85130930D01*
X67339572Y-85357699D01*
X67341115Y-85367446D01*
X67394217Y-85588627D01*
X67397266Y-85598012D01*
X67484313Y-85808163D01*
X67488795Y-85816958D01*
X67591432Y-85984445D01*
X67601890Y-85993907D01*
X67610666Y-85990124D01*
X68461978Y-85138812D01*
X68468356Y-85127132D01*
X69198408Y-85127132D01*
X69198539Y-85128965D01*
X69202790Y-85135580D01*
X70054290Y-85987080D01*
X70066670Y-85993840D01*
X70074320Y-85988113D01*
X70179205Y-85816958D01*
X70183687Y-85808163D01*
X70270734Y-85598012D01*
X70273783Y-85588627D01*
X70326885Y-85367446D01*
X70328428Y-85357699D01*
X70346275Y-85130930D01*
X73821725Y-85130930D01*
X73839572Y-85357699D01*
X73841115Y-85367446D01*
X73894217Y-85588627D01*
X73897266Y-85598012D01*
X73984313Y-85808163D01*
X73988795Y-85816958D01*
X74091432Y-85984445D01*
X74101890Y-85993907D01*
X74110666Y-85990124D01*
X74961978Y-85138812D01*
X74968356Y-85127132D01*
X75698408Y-85127132D01*
X75698539Y-85128965D01*
X75702790Y-85135580D01*
X76554290Y-85987080D01*
X76566670Y-85993840D01*
X76574320Y-85988113D01*
X76679205Y-85816958D01*
X76683687Y-85808163D01*
X76770734Y-85598012D01*
X76773783Y-85588627D01*
X76826885Y-85367446D01*
X76828428Y-85357699D01*
X76846275Y-85130930D01*
X76846275Y-85121070D01*
X76832407Y-84944853D01*
X79619977Y-84944853D01*
X79625258Y-84951907D01*
X79786756Y-85046279D01*
X79796042Y-85050729D01*
X79995001Y-85126703D01*
X80004899Y-85129579D01*
X80213595Y-85172038D01*
X80223823Y-85173257D01*
X80436650Y-85181062D01*
X80446936Y-85180595D01*
X80658185Y-85153534D01*
X80668262Y-85151392D01*
X80872255Y-85090191D01*
X80881842Y-85086433D01*
X81073098Y-84992738D01*
X81081944Y-84987465D01*
X81129247Y-84953723D01*
X81137648Y-84943023D01*
X81130660Y-84929870D01*
X80392812Y-84192022D01*
X80378868Y-84184408D01*
X80377035Y-84184539D01*
X80370420Y-84188790D01*
X79626737Y-84932473D01*
X79619977Y-84944853D01*
X76832407Y-84944853D01*
X76828428Y-84894301D01*
X76826885Y-84884554D01*
X76773783Y-84663373D01*
X76770734Y-84653988D01*
X76683687Y-84443837D01*
X76679205Y-84435042D01*
X76576568Y-84267555D01*
X76566110Y-84258093D01*
X76557334Y-84261876D01*
X75706022Y-85113188D01*
X75698408Y-85127132D01*
X74968356Y-85127132D01*
X74969592Y-85124868D01*
X74969461Y-85123035D01*
X74965210Y-85116420D01*
X74113710Y-84264920D01*
X74101330Y-84258160D01*
X74093680Y-84263887D01*
X73988795Y-84435042D01*
X73984313Y-84443837D01*
X73897266Y-84653988D01*
X73894217Y-84663373D01*
X73841115Y-84884554D01*
X73839572Y-84894301D01*
X73821725Y-85121070D01*
X73821725Y-85130930D01*
X70346275Y-85130930D01*
X70346275Y-85121070D01*
X70328428Y-84894301D01*
X70326885Y-84884554D01*
X70273783Y-84663373D01*
X70270734Y-84653988D01*
X70183687Y-84443837D01*
X70179205Y-84435042D01*
X70076568Y-84267555D01*
X70066110Y-84258093D01*
X70057334Y-84261876D01*
X69206022Y-85113188D01*
X69198408Y-85127132D01*
X68468356Y-85127132D01*
X68469592Y-85124868D01*
X68469461Y-85123035D01*
X68465210Y-85116420D01*
X67613710Y-84264920D01*
X67601330Y-84258160D01*
X67593680Y-84263887D01*
X67488795Y-84435042D01*
X67484313Y-84443837D01*
X67397266Y-84653988D01*
X67394217Y-84663373D01*
X67341115Y-84884554D01*
X67339572Y-84894301D01*
X67321725Y-85121070D01*
X67321725Y-85130930D01*
X64922834Y-85130930D01*
X63685794Y-83893890D01*
X67966093Y-83893890D01*
X67969876Y-83902666D01*
X68821188Y-84753978D01*
X68835132Y-84761592D01*
X68836965Y-84761461D01*
X68843580Y-84757210D01*
X69695080Y-83905710D01*
X69701534Y-83893890D01*
X74466093Y-83893890D01*
X74469876Y-83902666D01*
X75321188Y-84753978D01*
X75335132Y-84761592D01*
X75336965Y-84761461D01*
X75343580Y-84757210D01*
X76195080Y-83905710D01*
X76201840Y-83893330D01*
X76196113Y-83885680D01*
X76043019Y-83791863D01*
X79018050Y-83791863D01*
X79030309Y-84004477D01*
X79031745Y-84014697D01*
X79078565Y-84222446D01*
X79081645Y-84232275D01*
X79161770Y-84429603D01*
X79166413Y-84438794D01*
X79246460Y-84569420D01*
X79256916Y-84578880D01*
X79265694Y-84575096D01*
X80007978Y-83832812D01*
X80015592Y-83818868D01*
X80015461Y-83817035D01*
X80011210Y-83810420D01*
X79269849Y-83069059D01*
X79258313Y-83062759D01*
X79246031Y-83072382D01*
X79198089Y-83142662D01*
X79193004Y-83151613D01*
X79103338Y-83344783D01*
X79099775Y-83354470D01*
X79042864Y-83559681D01*
X79040933Y-83569800D01*
X79018302Y-83781574D01*
X79018050Y-83791863D01*
X76043019Y-83791863D01*
X76024958Y-83780795D01*
X76016163Y-83776313D01*
X75806012Y-83689266D01*
X75796627Y-83686217D01*
X75575446Y-83633115D01*
X75565699Y-83631572D01*
X75338930Y-83613725D01*
X75329070Y-83613725D01*
X75102301Y-83631572D01*
X75092554Y-83633115D01*
X74871373Y-83686217D01*
X74861988Y-83689266D01*
X74651837Y-83776313D01*
X74643042Y-83780795D01*
X74475555Y-83883432D01*
X74466093Y-83893890D01*
X69701534Y-83893890D01*
X69701840Y-83893330D01*
X69696113Y-83885680D01*
X69524958Y-83780795D01*
X69516163Y-83776313D01*
X69306012Y-83689266D01*
X69296627Y-83686217D01*
X69075446Y-83633115D01*
X69065699Y-83631572D01*
X68838930Y-83613725D01*
X68829070Y-83613725D01*
X68602301Y-83631572D01*
X68592554Y-83633115D01*
X68371373Y-83686217D01*
X68361988Y-83689266D01*
X68151837Y-83776313D01*
X68143042Y-83780795D01*
X67975555Y-83883432D01*
X67966093Y-83893890D01*
X63685794Y-83893890D01*
X60818761Y-81026856D01*
X60784735Y-80964544D01*
X60789800Y-80893729D01*
X60835585Y-80834548D01*
X60867699Y-80812062D01*
X60923969Y-80772661D01*
X60993270Y-80724136D01*
X60993273Y-80724134D01*
X60997781Y-80720977D01*
X61154977Y-80563781D01*
X61159354Y-80557531D01*
X61218287Y-80473365D01*
X61273744Y-80429037D01*
X61344363Y-80421728D01*
X61407724Y-80453759D01*
X61443709Y-80514960D01*
X61447500Y-80545636D01*
X61447500Y-80554134D01*
X61454255Y-80616316D01*
X61505385Y-80752705D01*
X61592739Y-80869261D01*
X61709295Y-80956615D01*
X61845684Y-81007745D01*
X61907866Y-81014500D01*
X63528134Y-81014500D01*
X63590316Y-81007745D01*
X63726705Y-80956615D01*
X63843261Y-80869261D01*
X63930615Y-80752705D01*
X63981745Y-80616316D01*
X63988500Y-80554134D01*
X63988500Y-78933866D01*
X63981745Y-78871684D01*
X63930615Y-78735295D01*
X63843261Y-78618739D01*
X63726705Y-78531385D01*
X63590316Y-78480255D01*
X63528134Y-78473500D01*
X61907866Y-78473500D01*
X61845684Y-78480255D01*
X61709295Y-78531385D01*
X61592739Y-78618739D01*
X61505385Y-78735295D01*
X61454255Y-78871684D01*
X61447500Y-78933866D01*
X61447500Y-78942364D01*
X61427498Y-79010485D01*
X61373842Y-79056978D01*
X61303568Y-79067082D01*
X61238988Y-79037588D01*
X61218287Y-79014635D01*
X61158136Y-78928730D01*
X61158134Y-78928727D01*
X61154977Y-78924219D01*
X60997781Y-78767023D01*
X60993273Y-78763866D01*
X60993270Y-78763864D01*
X60911624Y-78706695D01*
X60865229Y-78674209D01*
X60820901Y-78618752D01*
X60811500Y-78570996D01*
X60811500Y-74688522D01*
X62979273Y-74688522D01*
X63026764Y-74865761D01*
X63030510Y-74876053D01*
X63122586Y-75073511D01*
X63128069Y-75083007D01*
X63253028Y-75261467D01*
X63260084Y-75269875D01*
X63414125Y-75423916D01*
X63422533Y-75430972D01*
X63600993Y-75555931D01*
X63610489Y-75561414D01*
X63807947Y-75653490D01*
X63818239Y-75657236D01*
X63990503Y-75703394D01*
X64004599Y-75703058D01*
X64008000Y-75695116D01*
X64008000Y-75689967D01*
X64516000Y-75689967D01*
X64519973Y-75703498D01*
X64528522Y-75704727D01*
X64705761Y-75657236D01*
X64716053Y-75653490D01*
X64913511Y-75561414D01*
X64923007Y-75555931D01*
X65101467Y-75430972D01*
X65109875Y-75423916D01*
X65263916Y-75269875D01*
X65270972Y-75261467D01*
X65395931Y-75083007D01*
X65401414Y-75073511D01*
X65493490Y-74876053D01*
X65497236Y-74865761D01*
X65543394Y-74693497D01*
X65543058Y-74679401D01*
X65535116Y-74676000D01*
X64534115Y-74676000D01*
X64518876Y-74680475D01*
X64517671Y-74681865D01*
X64516000Y-74689548D01*
X64516000Y-75689967D01*
X64008000Y-75689967D01*
X64008000Y-74694115D01*
X64003525Y-74678876D01*
X64002135Y-74677671D01*
X63994452Y-74676000D01*
X62994033Y-74676000D01*
X62980502Y-74679973D01*
X62979273Y-74688522D01*
X60811500Y-74688522D01*
X60811500Y-74150503D01*
X62980606Y-74150503D01*
X62980942Y-74164599D01*
X62988884Y-74168000D01*
X63989885Y-74168000D01*
X64005124Y-74163525D01*
X64006329Y-74162135D01*
X64008000Y-74154452D01*
X64008000Y-74149885D01*
X64516000Y-74149885D01*
X64520475Y-74165124D01*
X64521865Y-74166329D01*
X64529548Y-74168000D01*
X65529967Y-74168000D01*
X65543498Y-74164027D01*
X65544727Y-74155478D01*
X65497236Y-73978239D01*
X65493490Y-73967947D01*
X65401414Y-73770489D01*
X65395931Y-73760993D01*
X65270972Y-73582533D01*
X65263916Y-73574125D01*
X65109875Y-73420084D01*
X65101467Y-73413028D01*
X64923007Y-73288069D01*
X64913511Y-73282586D01*
X64716053Y-73190510D01*
X64705761Y-73186764D01*
X64533497Y-73140606D01*
X64519401Y-73140942D01*
X64516000Y-73148884D01*
X64516000Y-74149885D01*
X64008000Y-74149885D01*
X64008000Y-73154033D01*
X64004027Y-73140502D01*
X63995478Y-73139273D01*
X63818239Y-73186764D01*
X63807947Y-73190510D01*
X63610489Y-73282586D01*
X63600993Y-73288069D01*
X63422533Y-73413028D01*
X63414125Y-73420084D01*
X63260084Y-73574125D01*
X63253028Y-73582533D01*
X63128069Y-73760993D01*
X63122586Y-73770489D01*
X63030510Y-73967947D01*
X63026764Y-73978239D01*
X62980606Y-74150503D01*
X60811500Y-74150503D01*
X60811500Y-68739580D01*
X60831502Y-68671459D01*
X60885158Y-68624966D01*
X60955432Y-68614862D01*
X61020012Y-68644356D01*
X61026595Y-68650485D01*
X70304516Y-77928405D01*
X70338542Y-77990717D01*
X70333477Y-78061532D01*
X70290930Y-78118368D01*
X70224410Y-78143179D01*
X70215421Y-78143500D01*
X69708866Y-78143500D01*
X69646684Y-78150255D01*
X69510295Y-78201385D01*
X69393739Y-78288739D01*
X69306385Y-78405295D01*
X69255255Y-78541684D01*
X69248500Y-78603866D01*
X69248500Y-80400134D01*
X69255255Y-80462316D01*
X69306385Y-80598705D01*
X69393739Y-80715261D01*
X69510295Y-80802615D01*
X69646684Y-80853745D01*
X69708866Y-80860500D01*
X71505134Y-80860500D01*
X71567316Y-80853745D01*
X71703705Y-80802615D01*
X71820261Y-80715261D01*
X71907615Y-80598705D01*
X71919247Y-80567678D01*
X71951598Y-80481382D01*
X71994240Y-80424618D01*
X72060802Y-80399918D01*
X72130150Y-80415126D01*
X72164817Y-80443114D01*
X72193250Y-80475938D01*
X72365126Y-80618632D01*
X72558000Y-80731338D01*
X72562825Y-80733180D01*
X72562826Y-80733181D01*
X72591936Y-80744297D01*
X72766692Y-80811030D01*
X72771760Y-80812061D01*
X72771763Y-80812062D01*
X72879017Y-80833883D01*
X72985597Y-80855567D01*
X72990772Y-80855757D01*
X72990774Y-80855757D01*
X73203673Y-80863564D01*
X73203677Y-80863564D01*
X73208837Y-80863753D01*
X73213957Y-80863097D01*
X73213959Y-80863097D01*
X73425288Y-80836025D01*
X73425289Y-80836025D01*
X73430416Y-80835368D01*
X73435366Y-80833883D01*
X73639429Y-80772661D01*
X73639434Y-80772659D01*
X73644384Y-80771174D01*
X73844994Y-80672896D01*
X74026860Y-80543173D01*
X74065104Y-80505063D01*
X74140665Y-80429765D01*
X74185096Y-80385489D01*
X74191420Y-80376689D01*
X74312435Y-80208277D01*
X74315453Y-80204077D01*
X74322059Y-80190712D01*
X74412136Y-80008453D01*
X74412137Y-80008451D01*
X74414430Y-80003811D01*
X74446900Y-79896940D01*
X74477865Y-79795023D01*
X74477865Y-79795021D01*
X74479370Y-79790069D01*
X74508529Y-79568590D01*
X74510156Y-79502000D01*
X74491852Y-79279361D01*
X74437431Y-79062702D01*
X74348354Y-78857840D01*
X74287558Y-78763864D01*
X74229822Y-78674617D01*
X74229820Y-78674614D01*
X74227014Y-78670277D01*
X74076670Y-78505051D01*
X74072619Y-78501852D01*
X74072615Y-78501848D01*
X73905414Y-78369800D01*
X73905410Y-78369798D01*
X73901359Y-78366598D01*
X73878368Y-78353906D01*
X73817997Y-78320580D01*
X73705789Y-78258638D01*
X73700920Y-78256914D01*
X73700916Y-78256912D01*
X73500087Y-78185795D01*
X73500083Y-78185794D01*
X73495212Y-78184069D01*
X73490119Y-78183162D01*
X73490116Y-78183161D01*
X73280373Y-78145800D01*
X73280367Y-78145799D01*
X73275284Y-78144894D01*
X73204770Y-78144033D01*
X73057082Y-78142228D01*
X73057080Y-78142228D01*
X73051911Y-78142165D01*
X73004616Y-78149402D01*
X72900869Y-78165277D01*
X72830507Y-78155809D01*
X72792716Y-78129822D01*
X64888173Y-70225279D01*
X64854147Y-70162967D01*
X64859212Y-70092152D01*
X64901759Y-70035316D01*
X64921836Y-70023033D01*
X64955093Y-70006740D01*
X64963944Y-70001465D01*
X65011247Y-69967723D01*
X65019648Y-69957023D01*
X65012660Y-69943870D01*
X63903922Y-68835132D01*
X64626408Y-68835132D01*
X64626539Y-68836965D01*
X64630790Y-68843580D01*
X65372474Y-69585264D01*
X65384484Y-69591823D01*
X65396223Y-69582855D01*
X65427004Y-69540019D01*
X65432315Y-69531180D01*
X65526670Y-69340267D01*
X65530469Y-69330672D01*
X65592376Y-69126915D01*
X65594555Y-69116834D01*
X65622590Y-68903887D01*
X65623109Y-68897212D01*
X65624572Y-68837364D01*
X65624378Y-68830646D01*
X65606781Y-68616604D01*
X65605096Y-68606424D01*
X65553214Y-68399875D01*
X65549894Y-68390124D01*
X65464972Y-68194814D01*
X65460105Y-68185739D01*
X65395063Y-68085197D01*
X65384377Y-68075995D01*
X65374812Y-68080398D01*
X64634022Y-68821188D01*
X64626408Y-68835132D01*
X63903922Y-68835132D01*
X63151849Y-68083059D01*
X63140313Y-68076759D01*
X63128031Y-68086382D01*
X63080089Y-68156662D01*
X63075006Y-68165610D01*
X63072762Y-68170444D01*
X63025937Y-68223810D01*
X62957693Y-68243389D01*
X62889698Y-68222964D01*
X62869380Y-68206486D01*
X61805405Y-67142511D01*
X61771379Y-67080199D01*
X61768500Y-67053416D01*
X61768500Y-57921214D01*
X61768507Y-57919894D01*
X61768518Y-57918819D01*
X61769451Y-57829779D01*
X61760289Y-57787403D01*
X61758230Y-57774832D01*
X61754182Y-57738744D01*
X61753397Y-57731745D01*
X61742367Y-57700070D01*
X61738204Y-57685258D01*
X61732609Y-57659381D01*
X61731119Y-57652490D01*
X61712792Y-57613187D01*
X61708010Y-57601411D01*
X61693745Y-57560448D01*
X61682093Y-57541800D01*
X61675973Y-57532005D01*
X61668634Y-57518488D01*
X61657441Y-57494486D01*
X61657440Y-57494485D01*
X61654462Y-57488098D01*
X61648700Y-57480669D01*
X61627894Y-57453847D01*
X61620598Y-57443388D01*
X61601358Y-57412596D01*
X61601356Y-57412593D01*
X61597626Y-57406624D01*
X61569024Y-57377821D01*
X61568439Y-57377196D01*
X61567922Y-57376530D01*
X61541932Y-57350540D01*
X61469815Y-57277918D01*
X61468778Y-57277260D01*
X61467549Y-57276157D01*
X52677255Y-48485863D01*
X62900050Y-48485863D01*
X62912309Y-48698477D01*
X62913745Y-48708697D01*
X62960565Y-48916446D01*
X62963645Y-48926275D01*
X63043770Y-49123603D01*
X63048413Y-49132794D01*
X63128460Y-49263420D01*
X63138916Y-49272880D01*
X63147694Y-49269096D01*
X63889978Y-48526812D01*
X63896356Y-48515132D01*
X64626408Y-48515132D01*
X64626539Y-48516965D01*
X64630790Y-48523580D01*
X65372474Y-49265264D01*
X65384484Y-49271823D01*
X65396223Y-49262855D01*
X65427004Y-49220019D01*
X65432315Y-49211180D01*
X65526670Y-49020267D01*
X65530469Y-49010672D01*
X65592376Y-48806915D01*
X65594555Y-48796834D01*
X65622590Y-48583887D01*
X65623109Y-48577212D01*
X65624572Y-48517364D01*
X65624378Y-48510646D01*
X65606781Y-48296604D01*
X65605096Y-48286424D01*
X65553214Y-48079875D01*
X65549894Y-48070124D01*
X65464972Y-47874814D01*
X65460105Y-47865739D01*
X65395063Y-47765197D01*
X65384377Y-47755995D01*
X65374812Y-47760398D01*
X64634022Y-48501188D01*
X64626408Y-48515132D01*
X63896356Y-48515132D01*
X63897592Y-48512868D01*
X63897461Y-48511035D01*
X63893210Y-48504420D01*
X63151849Y-47763059D01*
X63140313Y-47756759D01*
X63128031Y-47766382D01*
X63080089Y-47836662D01*
X63075004Y-47845613D01*
X62985338Y-48038783D01*
X62981775Y-48048470D01*
X62924864Y-48253681D01*
X62922933Y-48263800D01*
X62900302Y-48475574D01*
X62900050Y-48485863D01*
X52677255Y-48485863D01*
X47869836Y-43678444D01*
X47835810Y-43616132D01*
X47834009Y-43572903D01*
X47843092Y-43503911D01*
X47843092Y-43503907D01*
X47843529Y-43500590D01*
X47845156Y-43434000D01*
X47826852Y-43211361D01*
X47772431Y-42994702D01*
X47683354Y-42789840D01*
X47619041Y-42690427D01*
X47564822Y-42606617D01*
X47564820Y-42606614D01*
X47562014Y-42602277D01*
X47411670Y-42437051D01*
X47407619Y-42433852D01*
X47407615Y-42433848D01*
X47240414Y-42301800D01*
X47240410Y-42301798D01*
X47236359Y-42298598D01*
X47194569Y-42275529D01*
X47144598Y-42225097D01*
X47129826Y-42155654D01*
X47154942Y-42089248D01*
X47182293Y-42062642D01*
X47231247Y-42027723D01*
X47239648Y-42017023D01*
X47232660Y-42003870D01*
X46494812Y-41266022D01*
X46480868Y-41258408D01*
X46479035Y-41258539D01*
X46472420Y-41262790D01*
X45728737Y-42006473D01*
X45721977Y-42018853D01*
X45727258Y-42025907D01*
X45773969Y-42053203D01*
X45822693Y-42104841D01*
X45835764Y-42174624D01*
X45809033Y-42240396D01*
X45768584Y-42273752D01*
X45755607Y-42280507D01*
X45751474Y-42283610D01*
X45751471Y-42283612D01*
X45662270Y-42350586D01*
X45576965Y-42414635D01*
X45422629Y-42576138D01*
X45419715Y-42580410D01*
X45419714Y-42580411D01*
X45344666Y-42690427D01*
X45296743Y-42760680D01*
X45202688Y-42963305D01*
X45142989Y-43178570D01*
X45119251Y-43400695D01*
X45119548Y-43405848D01*
X45119548Y-43405851D01*
X45125011Y-43500590D01*
X45132110Y-43623715D01*
X45133247Y-43628761D01*
X45133248Y-43628767D01*
X45141955Y-43667402D01*
X45181222Y-43841639D01*
X45265266Y-44048616D01*
X45381987Y-44239088D01*
X45528250Y-44407938D01*
X45700126Y-44550632D01*
X45759305Y-44585213D01*
X45773445Y-44593476D01*
X45822169Y-44645114D01*
X45835240Y-44714897D01*
X45808509Y-44780669D01*
X45768055Y-44814027D01*
X45755607Y-44820507D01*
X45751474Y-44823610D01*
X45751471Y-44823612D01*
X45727247Y-44841800D01*
X45576965Y-44954635D01*
X45422629Y-45116138D01*
X45296743Y-45300680D01*
X45281003Y-45334590D01*
X45207739Y-45492424D01*
X45202688Y-45503305D01*
X45142989Y-45718570D01*
X45119251Y-45940695D01*
X45119548Y-45945848D01*
X45119548Y-45945851D01*
X45127537Y-46084408D01*
X45132110Y-46163715D01*
X45133247Y-46168761D01*
X45133248Y-46168767D01*
X45153119Y-46256938D01*
X45161277Y-46293136D01*
X45165453Y-46311668D01*
X45160917Y-46382520D01*
X45131631Y-46428464D01*
X44889547Y-46670548D01*
X44881261Y-46678088D01*
X44874782Y-46682200D01*
X44869357Y-46687977D01*
X44828157Y-46731851D01*
X44825402Y-46734693D01*
X44805665Y-46754430D01*
X44803185Y-46757627D01*
X44795482Y-46766647D01*
X44765214Y-46798879D01*
X44761395Y-46805825D01*
X44761393Y-46805828D01*
X44755452Y-46816634D01*
X44744601Y-46833153D01*
X44732186Y-46849159D01*
X44729041Y-46856428D01*
X44729038Y-46856432D01*
X44714626Y-46889737D01*
X44709409Y-46900387D01*
X44688105Y-46939140D01*
X44686134Y-46946815D01*
X44686134Y-46946816D01*
X44683067Y-46958762D01*
X44676663Y-46977466D01*
X44668619Y-46996055D01*
X44667380Y-47003878D01*
X44667377Y-47003888D01*
X44661701Y-47039724D01*
X44659295Y-47051344D01*
X44648300Y-47094170D01*
X44648300Y-47114424D01*
X44646749Y-47134134D01*
X44643580Y-47154143D01*
X40894000Y-47154143D01*
X40894000Y-42418707D01*
X40914002Y-42350586D01*
X40967658Y-42304093D01*
X41037932Y-42293989D01*
X41102512Y-42323483D01*
X41124765Y-42348705D01*
X41189787Y-42446017D01*
X41204367Y-42467838D01*
X41207081Y-42470932D01*
X41207085Y-42470938D01*
X41320941Y-42600765D01*
X41399573Y-42690427D01*
X41402662Y-42693136D01*
X41619062Y-42882915D01*
X41619068Y-42882919D01*
X41622162Y-42885633D01*
X41625588Y-42887922D01*
X41625593Y-42887926D01*
X41778459Y-42990067D01*
X41868327Y-43050115D01*
X41872026Y-43051939D01*
X41872031Y-43051942D01*
X42008313Y-43119148D01*
X42133855Y-43181059D01*
X42137760Y-43182384D01*
X42137761Y-43182385D01*
X42410290Y-43274896D01*
X42410294Y-43274897D01*
X42414203Y-43276224D01*
X42418247Y-43277028D01*
X42418253Y-43277030D01*
X42700535Y-43333180D01*
X42700541Y-43333181D01*
X42704574Y-43333983D01*
X42708679Y-43334252D01*
X42708686Y-43334253D01*
X42995881Y-43353076D01*
X43000000Y-43353346D01*
X43004119Y-43353076D01*
X43291314Y-43334253D01*
X43291321Y-43334252D01*
X43295426Y-43333983D01*
X43299459Y-43333181D01*
X43299465Y-43333180D01*
X43581747Y-43277030D01*
X43581753Y-43277028D01*
X43585797Y-43276224D01*
X43589706Y-43274897D01*
X43589710Y-43274896D01*
X43862239Y-43182385D01*
X43862240Y-43182384D01*
X43866145Y-43181059D01*
X43991687Y-43119148D01*
X44127969Y-43051942D01*
X44127974Y-43051939D01*
X44131673Y-43050115D01*
X44221541Y-42990067D01*
X44374407Y-42887926D01*
X44374412Y-42887922D01*
X44377838Y-42885633D01*
X44380932Y-42882919D01*
X44380938Y-42882915D01*
X44597338Y-42693136D01*
X44600427Y-42690427D01*
X44679059Y-42600765D01*
X44792915Y-42470938D01*
X44792919Y-42470932D01*
X44795633Y-42467838D01*
X44810214Y-42446017D01*
X44957821Y-42225106D01*
X44960115Y-42221673D01*
X44969798Y-42202039D01*
X45043195Y-42053203D01*
X45091059Y-41956145D01*
X45171109Y-41720324D01*
X45211946Y-41662248D01*
X45277699Y-41635469D01*
X45347491Y-41648490D01*
X45354137Y-41653063D01*
X45357281Y-41653584D01*
X45367694Y-41649096D01*
X46109978Y-40906812D01*
X46116356Y-40895132D01*
X46846408Y-40895132D01*
X46846539Y-40896965D01*
X46850790Y-40903580D01*
X47592474Y-41645264D01*
X47604484Y-41651823D01*
X47616223Y-41642855D01*
X47647004Y-41600019D01*
X47652315Y-41591180D01*
X47746670Y-41400267D01*
X47750469Y-41390672D01*
X47812376Y-41186915D01*
X47814555Y-41176834D01*
X47842590Y-40963887D01*
X47843109Y-40957212D01*
X47844572Y-40897364D01*
X47844378Y-40890646D01*
X47826781Y-40676604D01*
X47825096Y-40666424D01*
X47773214Y-40459875D01*
X47769894Y-40450124D01*
X47684972Y-40254814D01*
X47680105Y-40245739D01*
X47615063Y-40145197D01*
X47604377Y-40135995D01*
X47594812Y-40140398D01*
X46854022Y-40881188D01*
X46846408Y-40895132D01*
X46116356Y-40895132D01*
X46117592Y-40892868D01*
X46117461Y-40891035D01*
X46113210Y-40884420D01*
X45371849Y-40143059D01*
X45360313Y-40136759D01*
X45348031Y-40146382D01*
X45298339Y-40219228D01*
X45243428Y-40264231D01*
X45172903Y-40272402D01*
X45109156Y-40241148D01*
X45081244Y-40203952D01*
X44961942Y-39962031D01*
X44961939Y-39962026D01*
X44960115Y-39958327D01*
X44841467Y-39780757D01*
X44834565Y-39770427D01*
X45723223Y-39770427D01*
X45729968Y-39782758D01*
X46469188Y-40521978D01*
X46483132Y-40529592D01*
X46484965Y-40529461D01*
X46491580Y-40525210D01*
X47235389Y-39781401D01*
X47242410Y-39768544D01*
X47235611Y-39759213D01*
X47231554Y-39756518D01*
X47045117Y-39653599D01*
X47035705Y-39649369D01*
X46834959Y-39578280D01*
X46824989Y-39575646D01*
X46615327Y-39538301D01*
X46605073Y-39537331D01*
X46392116Y-39534728D01*
X46381832Y-39535448D01*
X46171321Y-39567661D01*
X46161293Y-39570050D01*
X45958868Y-39636212D01*
X45949359Y-39640209D01*
X45760466Y-39738540D01*
X45751734Y-39744039D01*
X45731677Y-39759099D01*
X45723223Y-39770427D01*
X44834565Y-39770427D01*
X44797926Y-39715593D01*
X44797922Y-39715588D01*
X44795633Y-39712162D01*
X44792919Y-39709068D01*
X44792915Y-39709062D01*
X44603136Y-39492662D01*
X44600427Y-39489573D01*
X44426146Y-39336732D01*
X44388119Y-39276778D01*
X44388541Y-39205783D01*
X44427280Y-39146286D01*
X44492035Y-39117178D01*
X44509224Y-39116000D01*
X128906000Y-39116000D01*
X128974121Y-39136002D01*
G37*
G04 #@! TD.AperFunction*
G04 #@! TA.AperFunction,Conductor*
G36*
X81957733Y-68513637D02*
G01*
X90046691Y-76602596D01*
X98135595Y-84691500D01*
X98169621Y-84753812D01*
X98172500Y-84780595D01*
X98172500Y-88521871D01*
X98152498Y-88589992D01*
X98098842Y-88636485D01*
X98028568Y-88646589D01*
X98004440Y-88640644D01*
X98001247Y-88639513D01*
X97948321Y-88620771D01*
X97889087Y-88599795D01*
X97889083Y-88599794D01*
X97884212Y-88598069D01*
X97879119Y-88597162D01*
X97879116Y-88597161D01*
X97669373Y-88559800D01*
X97669367Y-88559799D01*
X97664284Y-88558894D01*
X97590452Y-88557992D01*
X97446081Y-88556228D01*
X97446079Y-88556228D01*
X97440911Y-88556165D01*
X97220091Y-88589955D01*
X97007756Y-88659357D01*
X96972007Y-88677967D01*
X96833975Y-88749822D01*
X96809607Y-88762507D01*
X96805474Y-88765610D01*
X96805471Y-88765612D01*
X96635100Y-88893530D01*
X96630965Y-88896635D01*
X96594477Y-88934817D01*
X96537280Y-88994671D01*
X96476629Y-89058138D01*
X96369201Y-89215621D01*
X96314293Y-89260621D01*
X96243768Y-89268792D01*
X96180021Y-89237538D01*
X96159324Y-89213054D01*
X96078822Y-89088617D01*
X96078820Y-89088614D01*
X96076014Y-89084277D01*
X95925670Y-88919051D01*
X95921619Y-88915852D01*
X95921615Y-88915848D01*
X95754414Y-88783800D01*
X95754410Y-88783798D01*
X95750359Y-88780598D01*
X95745831Y-88778098D01*
X95663818Y-88732825D01*
X95554789Y-88672638D01*
X95549920Y-88670914D01*
X95549916Y-88670912D01*
X95349087Y-88599795D01*
X95349083Y-88599794D01*
X95344212Y-88598069D01*
X95339119Y-88597162D01*
X95339116Y-88597161D01*
X95129373Y-88559800D01*
X95129367Y-88559799D01*
X95124284Y-88558894D01*
X95050452Y-88557992D01*
X94906081Y-88556228D01*
X94906079Y-88556228D01*
X94900911Y-88556165D01*
X94680091Y-88589955D01*
X94467756Y-88659357D01*
X94432007Y-88677967D01*
X94293975Y-88749822D01*
X94269607Y-88762507D01*
X94265474Y-88765610D01*
X94265471Y-88765612D01*
X94095100Y-88893530D01*
X94090965Y-88896635D01*
X94054477Y-88934817D01*
X93997280Y-88994671D01*
X93936629Y-89058138D01*
X93933720Y-89062403D01*
X93933714Y-89062411D01*
X93915627Y-89088926D01*
X93829204Y-89215618D01*
X93828898Y-89216066D01*
X93773987Y-89261069D01*
X93703462Y-89269240D01*
X93639715Y-89237986D01*
X93619018Y-89213502D01*
X93538426Y-89088926D01*
X93532136Y-89080757D01*
X93388806Y-88923240D01*
X93381273Y-88916215D01*
X93214139Y-88784222D01*
X93205552Y-88778517D01*
X93019117Y-88675599D01*
X93009705Y-88671369D01*
X92808959Y-88600280D01*
X92798988Y-88597646D01*
X92727837Y-88584972D01*
X92714540Y-88586432D01*
X92710000Y-88600989D01*
X92710000Y-90044000D01*
X92689998Y-90112121D01*
X92636342Y-90158614D01*
X92584000Y-90170000D01*
X92328000Y-90170000D01*
X92259879Y-90149998D01*
X92213386Y-90096342D01*
X92202000Y-90044000D01*
X92202000Y-88599102D01*
X92198082Y-88585758D01*
X92183806Y-88583771D01*
X92145324Y-88589660D01*
X92135288Y-88592051D01*
X91932868Y-88658212D01*
X91923359Y-88662209D01*
X91734463Y-88760542D01*
X91725738Y-88766036D01*
X91555433Y-88893905D01*
X91547726Y-88900748D01*
X91400590Y-89054717D01*
X91394109Y-89062722D01*
X91289498Y-89216074D01*
X91234587Y-89261076D01*
X91164062Y-89269247D01*
X91100315Y-89237993D01*
X91079618Y-89213509D01*
X90998822Y-89088617D01*
X90998820Y-89088614D01*
X90996014Y-89084277D01*
X90845670Y-88919051D01*
X90841619Y-88915852D01*
X90841615Y-88915848D01*
X90674414Y-88783800D01*
X90674410Y-88783798D01*
X90670359Y-88780598D01*
X90665831Y-88778098D01*
X90583818Y-88732825D01*
X90474789Y-88672638D01*
X90469920Y-88670914D01*
X90469916Y-88670912D01*
X90269087Y-88599795D01*
X90269083Y-88599794D01*
X90264212Y-88598069D01*
X90259119Y-88597162D01*
X90259116Y-88597161D01*
X90049373Y-88559800D01*
X90049367Y-88559799D01*
X90044284Y-88558894D01*
X89970452Y-88557992D01*
X89826081Y-88556228D01*
X89826079Y-88556228D01*
X89820911Y-88556165D01*
X89600091Y-88589955D01*
X89445008Y-88640644D01*
X89413431Y-88650965D01*
X89374286Y-88657200D01*
X88952782Y-88657200D01*
X88884661Y-88637198D01*
X88863687Y-88620295D01*
X81767836Y-81524444D01*
X81733810Y-81462132D01*
X81732009Y-81418903D01*
X81741092Y-81349911D01*
X81741092Y-81349907D01*
X81741529Y-81346590D01*
X81743156Y-81280000D01*
X81724852Y-81057361D01*
X81670431Y-80840702D01*
X81581354Y-80635840D01*
X81528496Y-80554134D01*
X81462822Y-80452617D01*
X81462820Y-80452614D01*
X81460014Y-80448277D01*
X81309670Y-80283051D01*
X81305619Y-80279852D01*
X81305615Y-80279848D01*
X81138414Y-80147800D01*
X81138410Y-80147798D01*
X81134359Y-80144598D01*
X81093053Y-80121796D01*
X81043084Y-80071364D01*
X81028312Y-80001921D01*
X81053428Y-79935516D01*
X81080780Y-79908909D01*
X81226193Y-79805187D01*
X81259860Y-79781173D01*
X81418096Y-79623489D01*
X81455161Y-79571908D01*
X81545435Y-79446277D01*
X81548453Y-79442077D01*
X81614815Y-79307804D01*
X81645136Y-79246453D01*
X81645137Y-79246451D01*
X81647430Y-79241811D01*
X81712370Y-79028069D01*
X81741529Y-78806590D01*
X81742496Y-78767023D01*
X81743074Y-78743365D01*
X81743074Y-78743361D01*
X81743156Y-78740000D01*
X81724852Y-78517361D01*
X81670431Y-78300702D01*
X81581354Y-78095840D01*
X81484454Y-77946055D01*
X81462822Y-77912617D01*
X81462820Y-77912614D01*
X81460014Y-77908277D01*
X81309670Y-77743051D01*
X81305619Y-77739852D01*
X81305615Y-77739848D01*
X81138414Y-77607800D01*
X81138410Y-77607798D01*
X81134359Y-77604598D01*
X81093053Y-77581796D01*
X81043084Y-77531364D01*
X81028312Y-77461921D01*
X81053428Y-77395516D01*
X81080780Y-77368909D01*
X81148835Y-77320366D01*
X81259860Y-77241173D01*
X81301848Y-77199332D01*
X81401006Y-77100519D01*
X81418096Y-77083489D01*
X81477594Y-77000689D01*
X81545435Y-76906277D01*
X81548453Y-76902077D01*
X81597908Y-76802013D01*
X81645136Y-76706453D01*
X81645137Y-76706451D01*
X81647430Y-76701811D01*
X81712370Y-76488069D01*
X81741529Y-76266590D01*
X81743156Y-76200000D01*
X81724852Y-75977361D01*
X81670431Y-75760702D01*
X81581354Y-75555840D01*
X81496258Y-75424301D01*
X81462822Y-75372617D01*
X81462820Y-75372614D01*
X81460014Y-75368277D01*
X81309670Y-75203051D01*
X81305619Y-75199852D01*
X81305615Y-75199848D01*
X81138414Y-75067800D01*
X81138410Y-75067798D01*
X81134359Y-75064598D01*
X81093053Y-75041796D01*
X81043084Y-74991364D01*
X81028312Y-74921921D01*
X81053428Y-74855516D01*
X81080780Y-74828909D01*
X81144011Y-74783807D01*
X81259860Y-74701173D01*
X81272556Y-74688522D01*
X81414435Y-74547137D01*
X81418096Y-74543489D01*
X81477594Y-74460689D01*
X81545435Y-74366277D01*
X81548453Y-74362077D01*
X81631565Y-74193913D01*
X81645136Y-74166453D01*
X81645137Y-74166451D01*
X81647430Y-74161811D01*
X81712370Y-73948069D01*
X81741529Y-73726590D01*
X81743156Y-73660000D01*
X81724852Y-73437361D01*
X81670431Y-73220702D01*
X81581354Y-73015840D01*
X81460014Y-72828277D01*
X81309670Y-72663051D01*
X81305619Y-72659852D01*
X81305615Y-72659848D01*
X81138414Y-72527800D01*
X81138410Y-72527798D01*
X81134359Y-72524598D01*
X81093053Y-72501796D01*
X81043084Y-72451364D01*
X81028312Y-72381921D01*
X81053428Y-72315516D01*
X81080780Y-72288909D01*
X81124603Y-72257650D01*
X81259860Y-72161173D01*
X81418096Y-72003489D01*
X81477594Y-71920689D01*
X81545435Y-71826277D01*
X81548453Y-71822077D01*
X81647430Y-71621811D01*
X81712370Y-71408069D01*
X81741529Y-71186590D01*
X81743156Y-71120000D01*
X81724852Y-70897361D01*
X81670431Y-70680702D01*
X81581354Y-70475840D01*
X81480209Y-70319494D01*
X81462822Y-70292617D01*
X81462820Y-70292614D01*
X81460014Y-70288277D01*
X81309670Y-70123051D01*
X81305619Y-70119852D01*
X81305615Y-70119848D01*
X81138414Y-69987800D01*
X81138410Y-69987798D01*
X81134359Y-69984598D01*
X81093053Y-69961796D01*
X81043084Y-69911364D01*
X81028312Y-69841921D01*
X81053428Y-69775516D01*
X81080780Y-69748909D01*
X81130713Y-69713292D01*
X81259860Y-69621173D01*
X81418096Y-69463489D01*
X81506640Y-69340267D01*
X81545435Y-69286277D01*
X81548453Y-69282077D01*
X81582590Y-69213007D01*
X81645136Y-69086453D01*
X81645137Y-69086451D01*
X81647430Y-69081811D01*
X81707713Y-68883397D01*
X81710865Y-68873023D01*
X81710865Y-68873021D01*
X81712370Y-68868069D01*
X81741529Y-68646590D01*
X81741611Y-68643240D01*
X81742676Y-68599654D01*
X81764336Y-68532042D01*
X81819111Y-68486874D01*
X81889611Y-68478490D01*
X81957733Y-68513637D01*
G37*
G04 #@! TD.AperFunction*
G04 #@! TA.AperFunction,Conductor*
G36*
X46526032Y-50754924D02*
G01*
X46571095Y-50783885D01*
X47592474Y-51805264D01*
X47604484Y-51811823D01*
X47616223Y-51802855D01*
X47647004Y-51760019D01*
X47652315Y-51751180D01*
X47746670Y-51560267D01*
X47750469Y-51550672D01*
X47812376Y-51346915D01*
X47814555Y-51336834D01*
X47842590Y-51123887D01*
X47843109Y-51117212D01*
X47844186Y-51073162D01*
X47865847Y-51005551D01*
X47920623Y-50960383D01*
X47991123Y-50952000D01*
X48059243Y-50987147D01*
X53792015Y-56719920D01*
X59507595Y-62435500D01*
X59541621Y-62497812D01*
X59544500Y-62524595D01*
X59544500Y-65456405D01*
X59524498Y-65524526D01*
X59470842Y-65571019D01*
X59400568Y-65581123D01*
X59335988Y-65551629D01*
X59329405Y-65545500D01*
X47833218Y-54049313D01*
X47799192Y-53987001D01*
X47801755Y-53923589D01*
X47812865Y-53887022D01*
X47814370Y-53882069D01*
X47843529Y-53660590D01*
X47844227Y-53632039D01*
X47845074Y-53597365D01*
X47845074Y-53597361D01*
X47845156Y-53594000D01*
X47826852Y-53371361D01*
X47772431Y-53154702D01*
X47683354Y-52949840D01*
X47587311Y-52801380D01*
X47564822Y-52766617D01*
X47564820Y-52766614D01*
X47562014Y-52762277D01*
X47411670Y-52597051D01*
X47407619Y-52593852D01*
X47407615Y-52593848D01*
X47240414Y-52461800D01*
X47240410Y-52461798D01*
X47236359Y-52458598D01*
X47194569Y-52435529D01*
X47144598Y-52385097D01*
X47129826Y-52315654D01*
X47154942Y-52249248D01*
X47182293Y-52222642D01*
X47231247Y-52187723D01*
X47239648Y-52177023D01*
X47232660Y-52163870D01*
X46211885Y-51143095D01*
X46177859Y-51080783D01*
X46182924Y-51009968D01*
X46211885Y-50964905D01*
X46392905Y-50783885D01*
X46455217Y-50749859D01*
X46526032Y-50754924D01*
G37*
G04 #@! TD.AperFunction*
G04 #@! TD*
M02*
