G04 #@! TF.GenerationSoftware,KiCad,Pcbnew,6.0.3-a3aad9c10e~116~ubuntu20.04.1*
G04 #@! TF.CreationDate,2022-03-24T13:24:43+09:00*
G04 #@! TF.ProjectId,fg06-c3dev-revb,66673036-2d63-4336-9465-762d72657662,rev?*
G04 #@! TF.SameCoordinates,Original*
G04 #@! TF.FileFunction,Copper,L1,Top*
G04 #@! TF.FilePolarity,Positive*
%FSLAX46Y46*%
G04 Gerber Fmt 4.6, Leading zero omitted, Abs format (unit mm)*
G04 Created by KiCad (PCBNEW 6.0.3-a3aad9c10e~116~ubuntu20.04.1) date 2022-03-24 13:24:43*
%MOMM*%
%LPD*%
G01*
G04 APERTURE LIST*
G04 #@! TA.AperFunction,ComponentPad*
%ADD10C,1.600000*%
G04 #@! TD*
G04 #@! TA.AperFunction,ComponentPad*
%ADD11O,1.600000X1.600000*%
G04 #@! TD*
G04 #@! TA.AperFunction,ComponentPad*
%ADD12C,2.000000*%
G04 #@! TD*
G04 #@! TA.AperFunction,ComponentPad*
%ADD13R,1.700000X1.700000*%
G04 #@! TD*
G04 #@! TA.AperFunction,ComponentPad*
%ADD14O,1.700000X1.700000*%
G04 #@! TD*
G04 #@! TA.AperFunction,ComponentPad*
%ADD15C,3.500000*%
G04 #@! TD*
G04 #@! TA.AperFunction,ComponentPad*
%ADD16C,1.700000*%
G04 #@! TD*
G04 #@! TA.AperFunction,ComponentPad*
%ADD17R,1.524000X1.524000*%
G04 #@! TD*
G04 #@! TA.AperFunction,ComponentPad*
%ADD18C,1.524000*%
G04 #@! TD*
G04 #@! TA.AperFunction,ViaPad*
%ADD19C,0.800000*%
G04 #@! TD*
G04 #@! TA.AperFunction,Conductor*
%ADD20C,0.250000*%
G04 #@! TD*
G04 #@! TA.AperFunction,Conductor*
%ADD21C,0.600000*%
G04 #@! TD*
G04 APERTURE END LIST*
D10*
G04 #@! TO.P,R5,1*
G04 #@! TO.N,SCLK*
X68580000Y-51054000D03*
D11*
G04 #@! TO.P,R5,2*
G04 #@! TO.N,Vcc*
X76200000Y-51054000D03*
G04 #@! TD*
D12*
G04 #@! TO.P,SW1,1,1*
G04 #@! TO.N,GND*
X75334000Y-85126000D03*
X68834000Y-85126000D03*
G04 #@! TO.P,SW1,2,2*
G04 #@! TO.N,BOOT_SW*
X75334000Y-89626000D03*
X68834000Y-89626000D03*
G04 #@! TD*
D13*
G04 #@! TO.P,J1,1,Pin_1*
G04 #@! TO.N,GPIO19(D+)*
X117856000Y-89916000D03*
D14*
G04 #@! TO.P,J1,2,Pin_2*
G04 #@! TO.N,GPIO18(D-)*
X115316000Y-89916000D03*
G04 #@! TO.P,J1,3,Pin_3*
G04 #@! TO.N,Vcc_USB_5V*
X112776000Y-89916000D03*
G04 #@! TO.P,J1,4,Pin_4*
G04 #@! TO.N,GND*
X110236000Y-89916000D03*
G04 #@! TO.P,J1,5,Pin_5*
G04 #@! TO.N,GPIO0*
X107696000Y-89916000D03*
G04 #@! TO.P,J1,6,Pin_6*
G04 #@! TO.N,MISO*
X105156000Y-89916000D03*
G04 #@! TO.P,J1,7,Pin_7*
G04 #@! TO.N,MOSI*
X102616000Y-89916000D03*
G04 #@! TO.P,J1,8,Pin_8*
G04 #@! TO.N,SCLK*
X100076000Y-89916000D03*
G04 #@! TO.P,J1,9,Pin_9*
G04 #@! TO.N,GPIO21(TX0)*
X97536000Y-89916000D03*
G04 #@! TO.P,J1,10,Pin_10*
G04 #@! TO.N,GPIO20(RX0)*
X94996000Y-89916000D03*
G04 #@! TO.P,J1,11,Pin_11*
G04 #@! TO.N,GND*
X92456000Y-89916000D03*
G04 #@! TO.P,J1,12,Pin_12*
G04 #@! TO.N,Vcc*
X89916000Y-89916000D03*
G04 #@! TD*
D13*
G04 #@! TO.P,JP1,1*
G04 #@! TO.N,Net-(JP1-Pad1)*
X70607000Y-79502000D03*
D14*
G04 #@! TO.P,JP1,2*
G04 #@! TO.N,Vcc_USB_5V*
X73147000Y-79502000D03*
G04 #@! TD*
D10*
G04 #@! TO.P,R4,1*
G04 #@! TO.N,MISO*
X68580000Y-47244000D03*
D11*
G04 #@! TO.P,R4,2*
G04 #@! TO.N,Vcc*
X76200000Y-47244000D03*
G04 #@! TD*
D15*
G04 #@! TO.P,REF4,1*
G04 #@! TO.N,N/C*
X127000000Y-90090000D03*
G04 #@! TD*
D10*
G04 #@! TO.P,R7,1*
G04 #@! TO.N,SD_CS*
X68580000Y-58674000D03*
D11*
G04 #@! TO.P,R7,2*
G04 #@! TO.N,Vcc*
X76200000Y-58674000D03*
G04 #@! TD*
D10*
G04 #@! TO.P,R6,1*
G04 #@! TO.N,LCD_CS*
X68580000Y-54864000D03*
D11*
G04 #@! TO.P,R6,2*
G04 #@! TO.N,Vcc*
X76200000Y-54864000D03*
G04 #@! TD*
D15*
G04 #@! TO.P,REF2,1*
G04 #@! TO.N,N/C*
X43000000Y-90090000D03*
G04 #@! TD*
G04 #@! TO.P,REF1,1*
G04 #@! TO.N,N/C*
X43000000Y-41090000D03*
G04 #@! TD*
D16*
G04 #@! TO.P,U2,1,GND*
G04 #@! TO.N,GND*
X64262000Y-68834000D03*
G04 #@! TO.P,U2,2,G4*
G04 #@! TO.N,SCLK*
X64262000Y-66294000D03*
G04 #@! TO.P,U2,3,G5*
G04 #@! TO.N,MOSI*
X64262000Y-63754000D03*
G04 #@! TO.P,U2,4,G6*
G04 #@! TO.N,MISO*
X64262000Y-61214000D03*
G04 #@! TO.P,U2,5,G7*
G04 #@! TO.N,LCD_CS*
X64262000Y-58674000D03*
G04 #@! TO.P,U2,6,G8*
G04 #@! TO.N,LCD_RST*
X64262000Y-56134000D03*
G04 #@! TO.P,U2,7,G10*
G04 #@! TO.N,LCD_DC*
X64262000Y-53594000D03*
G04 #@! TO.P,U2,8,5V*
G04 #@! TO.N,unconnected-(U2-Pad8)*
X64262000Y-51054000D03*
G04 #@! TO.P,U2,9,GND*
G04 #@! TO.N,GND*
X64262000Y-48514000D03*
G04 #@! TO.P,U2,10,5V*
G04 #@! TO.N,unconnected-(U2-Pad10)*
X64262000Y-45974000D03*
G04 #@! TO.P,U2,11,G1*
G04 #@! TO.N,SD_CS*
X64262000Y-43434000D03*
G04 #@! TO.P,U2,12,G0*
G04 #@! TO.N,GPIO0*
X64262000Y-40894000D03*
G04 #@! TO.P,U2,13,GND*
G04 #@! TO.N,GND*
X46482000Y-40894000D03*
G04 #@! TO.P,U2,14,5V*
G04 #@! TO.N,Vcc_USB_5V*
X46482000Y-43434000D03*
G04 #@! TO.P,U2,15,G19*
G04 #@! TO.N,GPIO19(D+)*
X46482000Y-45974000D03*
G04 #@! TO.P,U2,16,G18*
G04 #@! TO.N,GPIO18(D-)*
X46482000Y-48514000D03*
G04 #@! TO.P,U2,17,GND*
G04 #@! TO.N,GND*
X46482000Y-51054000D03*
G04 #@! TO.P,U2,18,G9*
G04 #@! TO.N,BOOT_SW*
X46482000Y-53594000D03*
G04 #@! TO.P,U2,19,EN*
G04 #@! TO.N,unconnected-(U2-Pad19)*
X46482000Y-56134000D03*
G04 #@! TO.P,U2,20,G20*
G04 #@! TO.N,GPIO20(RX0)*
X46482000Y-58674000D03*
G04 #@! TO.P,U2,21,G21*
G04 #@! TO.N,GPIO21(TX0)*
X46482000Y-61214000D03*
G04 #@! TO.P,U2,22,3V3*
G04 #@! TO.N,Vcc*
X46482000Y-63754000D03*
G04 #@! TO.P,U2,23,NC(DUMMY)*
G04 #@! TO.N,unconnected-(U2-Pad23)*
X46482000Y-66294000D03*
G04 #@! TO.P,U2,24,NC(DUMMY)*
G04 #@! TO.N,unconnected-(U2-Pad24)*
X46482000Y-68834000D03*
G04 #@! TD*
D15*
G04 #@! TO.P,REF3,1*
G04 #@! TO.N,N/C*
X124000000Y-44690000D03*
G04 #@! TD*
D10*
G04 #@! TO.P,R1,1*
G04 #@! TO.N,Net-(R1-Pad1)*
X46482000Y-74422000D03*
D11*
G04 #@! TO.P,R1,2*
G04 #@! TO.N,GND*
X54102000Y-74422000D03*
G04 #@! TD*
D10*
G04 #@! TO.P,R2,1*
G04 #@! TO.N,Net-(R2-Pad1)*
X56642000Y-74422000D03*
D11*
G04 #@! TO.P,R2,2*
G04 #@! TO.N,GND*
X64262000Y-74422000D03*
G04 #@! TD*
D17*
G04 #@! TO.P,U1,*
G04 #@! TO.N,*
X47478000Y-87364000D03*
D18*
X62718000Y-87364000D03*
X62718000Y-89904000D03*
D17*
X47478000Y-89904000D03*
G04 #@! TO.P,U1,1,VBus*
G04 #@! TO.N,Net-(JP1-Pad1)*
X62718000Y-79744000D03*
D18*
G04 #@! TO.P,U1,2,D-*
G04 #@! TO.N,GPIO18(D-)*
X60178000Y-79744000D03*
G04 #@! TO.P,U1,3,D+*
G04 #@! TO.N,GPIO19(D+)*
X57638000Y-79744000D03*
G04 #@! TO.P,U1,4,GND*
G04 #@! TO.N,GND*
X55098000Y-79744000D03*
G04 #@! TO.P,U1,5,CC1*
G04 #@! TO.N,Net-(R2-Pad1)*
X52558000Y-79744000D03*
G04 #@! TO.P,U1,6,CC2*
G04 #@! TO.N,Net-(R1-Pad1)*
X50018000Y-79744000D03*
G04 #@! TO.P,U1,7,GND*
G04 #@! TO.N,GND*
X47478000Y-79744000D03*
G04 #@! TD*
D16*
G04 #@! TO.P,U3,1,LED-*
G04 #@! TO.N,GND*
X80380000Y-45720000D03*
G04 #@! TO.P,U3,2,LED+*
G04 #@! TO.N,Vcc*
X80380000Y-48260000D03*
G04 #@! TO.P,U3,3,SD_CS(SD_CS)*
G04 #@! TO.N,SD_CS*
X80380000Y-50800000D03*
G04 #@! TO.P,U3,4,MOSI(SD_MOSI)*
G04 #@! TO.N,MOSI*
X80380000Y-53340000D03*
G04 #@! TO.P,U3,5,MISO(SD_MISO)*
G04 #@! TO.N,MISO*
X80380000Y-55880000D03*
G04 #@! TO.P,U3,6,SCK(SD_CLOCK)*
G04 #@! TO.N,SCLK*
X80380000Y-58420000D03*
G04 #@! TO.P,U3,7,CS(LCD_CS)*
G04 #@! TO.N,LCD_CS*
X80380000Y-60960000D03*
G04 #@! TO.P,U3,8,SCL(LDC_CLOCK)*
G04 #@! TO.N,SCLK*
X80380000Y-63500000D03*
G04 #@! TO.P,U3,9,SDA(LCD_MOSI)*
G04 #@! TO.N,MOSI*
X80380000Y-66040000D03*
G04 #@! TO.P,U3,10,A0(LCD_DC)*
G04 #@! TO.N,LCD_DC*
X80380000Y-68580000D03*
G04 #@! TO.P,U3,11,RESET(LCD_RST)*
G04 #@! TO.N,LCD_RST*
X80380000Y-71120000D03*
G04 #@! TO.P,U3,12,NC*
G04 #@! TO.N,unconnected-(U3-Pad12)*
X80380000Y-73660000D03*
G04 #@! TO.P,U3,13,NC*
G04 #@! TO.N,unconnected-(U3-Pad13)*
X80380000Y-76200000D03*
G04 #@! TO.P,U3,14,NC*
G04 #@! TO.N,unconnected-(U3-Pad14)*
X80380000Y-78740000D03*
G04 #@! TO.P,U3,15,VCC*
G04 #@! TO.N,Vcc*
X80380000Y-81280000D03*
G04 #@! TO.P,U3,16,GND*
G04 #@! TO.N,GND*
X80380000Y-83820000D03*
G04 #@! TD*
D10*
G04 #@! TO.P,R3,1*
G04 #@! TO.N,MOSI*
X68580000Y-43434000D03*
D11*
G04 #@! TO.P,R3,2*
G04 #@! TO.N,Vcc*
X76200000Y-43434000D03*
G04 #@! TD*
D19*
G04 #@! TO.N,GND*
X92456000Y-83820000D03*
X110236000Y-83820000D03*
G04 #@! TD*
D20*
G04 #@! TO.N,GPIO19(D+)*
X117856000Y-89916000D02*
X116680700Y-89916000D01*
X115404600Y-91559400D02*
X116680700Y-90283300D01*
X116680700Y-90283300D02*
X116680700Y-89916000D01*
X65944800Y-88050800D02*
X82451900Y-88050800D01*
X85960500Y-91559400D02*
X115404600Y-91559400D01*
X82451900Y-88050800D02*
X85960500Y-91559400D01*
X57638000Y-79744000D02*
X65944800Y-88050800D01*
G04 #@! TO.N,GPIO18(D-)*
X113332800Y-91091300D02*
X114140700Y-90283400D01*
X114140700Y-90283400D02*
X114140700Y-89916000D01*
X67935200Y-87501200D02*
X83963800Y-87501200D01*
X115316000Y-89916000D02*
X114140700Y-89916000D01*
X83963800Y-87501200D02*
X87553900Y-91091300D01*
X60178000Y-79744000D02*
X67935200Y-87501200D01*
X87553900Y-91091300D02*
X113332800Y-91091300D01*
D21*
G04 #@! TO.N,Vcc_USB_5V*
X74497300Y-79924000D02*
X73569000Y-79924000D01*
X73569000Y-79924000D02*
X73147000Y-79502000D01*
X109285400Y-86425400D02*
X112776000Y-89916000D01*
X80998700Y-86425400D02*
X109285400Y-86425400D01*
X74497300Y-79924000D02*
X80998700Y-86425400D01*
D20*
G04 #@! TO.N,MOSI*
X80380000Y-53340000D02*
X81555400Y-54515400D01*
X80380000Y-66040000D02*
X81572500Y-64847500D01*
X81572500Y-62946800D02*
X80935400Y-62309700D01*
X65706300Y-62309700D02*
X64262000Y-63754000D01*
X81555400Y-61689700D02*
X80935400Y-62309700D01*
X80935400Y-62309700D02*
X65706300Y-62309700D01*
X81555400Y-54515400D02*
X81555400Y-61689700D01*
X81572500Y-64847500D02*
X81572500Y-62946800D01*
G04 #@! TO.N,SCLK*
X77586000Y-66294000D02*
X64262000Y-66294000D01*
X80380000Y-63500000D02*
X77586000Y-66294000D01*
G04 #@! TO.N,GPIO21(TX0)*
X97536000Y-89916000D02*
X96360700Y-89916000D01*
X46482000Y-61214000D02*
X45280800Y-62415200D01*
X45280800Y-62415200D02*
X45280800Y-66755200D01*
X96360700Y-89548700D02*
X96360700Y-89916000D01*
X93862800Y-87050800D02*
X96360700Y-89548700D01*
X46089600Y-67564000D02*
X47198800Y-67564000D01*
X75521600Y-83548400D02*
X75663700Y-83548400D01*
X65734400Y-72454300D02*
X71782400Y-78502300D01*
X71782400Y-78502300D02*
X71782400Y-79809200D01*
X79166100Y-87050800D02*
X93862800Y-87050800D01*
X71782400Y-79809200D02*
X75521600Y-83548400D01*
X47198800Y-67564000D02*
X52089100Y-72454300D01*
X52089100Y-72454300D02*
X65734400Y-72454300D01*
X75663700Y-83548400D02*
X79166100Y-87050800D01*
X45280800Y-66755200D02*
X46089600Y-67564000D01*
D21*
G04 #@! TO.N,Vcc*
X76200000Y-54864000D02*
X76200000Y-58674000D01*
X76200000Y-47244000D02*
X77500300Y-47244000D01*
X80380000Y-81280000D02*
X69559400Y-70459400D01*
X78105000Y-47848700D02*
X77500300Y-47244000D01*
X78105000Y-47848700D02*
X76200000Y-49753700D01*
X76200000Y-51054000D02*
X76200000Y-49753700D01*
X53187400Y-70459400D02*
X46482000Y-63754000D01*
X78516300Y-48260000D02*
X78105000Y-47848700D01*
X69559400Y-70459400D02*
X53187400Y-70459400D01*
X80380000Y-48260000D02*
X78516300Y-48260000D01*
D20*
G04 #@! TO.N,LCD_CS*
X69215000Y-60960000D02*
X65849500Y-57594500D01*
X65849500Y-57594500D02*
X68580000Y-54864000D01*
X80380000Y-60960000D02*
X69215000Y-60960000D01*
X64770000Y-58674000D02*
X65849500Y-57594500D01*
X64262000Y-58674000D02*
X64770000Y-58674000D01*
G04 #@! TO.N,SD_CS*
X75060800Y-52193200D02*
X68580000Y-58674000D01*
X75060800Y-51505100D02*
X75060800Y-52193300D01*
X64262000Y-43434000D02*
X66989700Y-43434000D01*
X66989700Y-43434000D02*
X75060800Y-51505100D01*
X75060800Y-52193200D02*
X75060800Y-52193300D01*
X78986700Y-52193300D02*
X80380000Y-50800000D01*
X75060800Y-52193300D02*
X78986700Y-52193300D01*
G04 #@! TO.N,BOOT_SW*
X75334000Y-89626000D02*
X68834000Y-89626000D01*
G04 #@! TO.N,Net-(JP1-Pad1)*
X62718000Y-79744000D02*
X69189700Y-79744000D01*
X70607000Y-79502000D02*
X69431700Y-79502000D01*
X69189700Y-79744000D02*
X69431700Y-79502000D01*
G04 #@! TD*
G04 #@! TA.AperFunction,Conductor*
G04 #@! TO.N,GND*
G36*
X128974121Y-39136002D02*
G01*
X129020614Y-39189658D01*
X129032000Y-39242000D01*
X129032000Y-88650544D01*
X129011998Y-88718665D01*
X128958342Y-88765158D01*
X128888068Y-88775262D01*
X128823488Y-88745768D01*
X128801235Y-88720546D01*
X128797926Y-88715593D01*
X128797922Y-88715588D01*
X128795633Y-88712162D01*
X128792919Y-88709068D01*
X128792915Y-88709062D01*
X128603136Y-88492662D01*
X128600427Y-88489573D01*
X128572784Y-88465331D01*
X128380938Y-88297085D01*
X128380932Y-88297081D01*
X128377838Y-88294367D01*
X128374412Y-88292078D01*
X128374407Y-88292074D01*
X128135106Y-88132179D01*
X128131673Y-88129885D01*
X128127974Y-88128061D01*
X128127969Y-88128058D01*
X127880834Y-88006185D01*
X127866145Y-87998941D01*
X127859511Y-87996689D01*
X127589710Y-87905104D01*
X127589706Y-87905103D01*
X127585797Y-87903776D01*
X127581753Y-87902972D01*
X127581747Y-87902970D01*
X127299465Y-87846820D01*
X127299459Y-87846819D01*
X127295426Y-87846017D01*
X127291321Y-87845748D01*
X127291314Y-87845747D01*
X127004119Y-87826924D01*
X127000000Y-87826654D01*
X126995881Y-87826924D01*
X126708686Y-87845747D01*
X126708679Y-87845748D01*
X126704574Y-87846017D01*
X126700541Y-87846819D01*
X126700535Y-87846820D01*
X126418253Y-87902970D01*
X126418247Y-87902972D01*
X126414203Y-87903776D01*
X126410294Y-87905103D01*
X126410290Y-87905104D01*
X126140489Y-87996689D01*
X126133855Y-87998941D01*
X126119166Y-88006185D01*
X125872031Y-88128058D01*
X125872026Y-88128061D01*
X125868327Y-88129885D01*
X125864894Y-88132179D01*
X125625593Y-88292074D01*
X125625588Y-88292078D01*
X125622162Y-88294367D01*
X125619068Y-88297081D01*
X125619062Y-88297085D01*
X125427216Y-88465331D01*
X125399573Y-88489573D01*
X125396864Y-88492662D01*
X125207085Y-88709062D01*
X125207081Y-88709068D01*
X125204367Y-88712162D01*
X125202078Y-88715588D01*
X125202074Y-88715593D01*
X125124765Y-88831295D01*
X125039885Y-88958327D01*
X125038061Y-88962026D01*
X125038058Y-88962031D01*
X124992351Y-89054717D01*
X124908941Y-89223855D01*
X124907616Y-89227760D01*
X124907615Y-89227761D01*
X124826132Y-89467804D01*
X124813776Y-89504203D01*
X124812972Y-89508247D01*
X124812970Y-89508253D01*
X124771924Y-89714606D01*
X124756017Y-89794574D01*
X124755748Y-89798679D01*
X124755747Y-89798686D01*
X124748845Y-89904000D01*
X124736654Y-90090000D01*
X124736924Y-90094119D01*
X124753053Y-90340196D01*
X124756017Y-90385426D01*
X124756819Y-90389459D01*
X124756820Y-90389465D01*
X124812970Y-90671747D01*
X124813776Y-90675797D01*
X124815103Y-90679706D01*
X124815104Y-90679710D01*
X124872969Y-90850176D01*
X124908941Y-90956145D01*
X124948229Y-91035813D01*
X125037391Y-91216615D01*
X125039885Y-91221673D01*
X125042179Y-91225106D01*
X125182906Y-91435719D01*
X125204367Y-91467838D01*
X125207081Y-91470932D01*
X125207085Y-91470938D01*
X125331747Y-91613087D01*
X125399573Y-91690427D01*
X125402662Y-91693136D01*
X125619062Y-91882915D01*
X125619068Y-91882919D01*
X125622162Y-91885633D01*
X125750275Y-91971235D01*
X125795803Y-92025712D01*
X125804651Y-92096155D01*
X125774010Y-92160199D01*
X125713608Y-92197510D01*
X125680273Y-92202000D01*
X115962938Y-92202000D01*
X115894817Y-92181998D01*
X115848324Y-92128342D01*
X115838220Y-92058068D01*
X115865858Y-91995679D01*
X115869898Y-91990796D01*
X115877883Y-91982021D01*
X116618496Y-91241409D01*
X116680808Y-91207384D01*
X116751624Y-91212449D01*
X116757045Y-91214928D01*
X116759295Y-91216615D01*
X116767258Y-91219600D01*
X116767262Y-91219602D01*
X116825433Y-91241409D01*
X116895684Y-91267745D01*
X116957866Y-91274500D01*
X118754134Y-91274500D01*
X118816316Y-91267745D01*
X118952705Y-91216615D01*
X119069261Y-91129261D01*
X119156615Y-91012705D01*
X119207745Y-90876316D01*
X119214500Y-90814134D01*
X119214500Y-89017866D01*
X119207745Y-88955684D01*
X119156615Y-88819295D01*
X119069261Y-88702739D01*
X118952705Y-88615385D01*
X118816316Y-88564255D01*
X118754134Y-88557500D01*
X116957866Y-88557500D01*
X116895684Y-88564255D01*
X116759295Y-88615385D01*
X116642739Y-88702739D01*
X116555385Y-88819295D01*
X116552233Y-88827703D01*
X116510919Y-88937907D01*
X116468277Y-88994671D01*
X116401716Y-89019371D01*
X116332367Y-89004163D01*
X116299743Y-88978476D01*
X116249151Y-88922875D01*
X116249142Y-88922866D01*
X116245670Y-88919051D01*
X116241619Y-88915852D01*
X116241615Y-88915848D01*
X116074414Y-88783800D01*
X116074410Y-88783798D01*
X116070359Y-88780598D01*
X116042390Y-88765158D01*
X115987443Y-88734826D01*
X115874789Y-88672638D01*
X115869920Y-88670914D01*
X115869916Y-88670912D01*
X115669087Y-88599795D01*
X115669083Y-88599794D01*
X115664212Y-88598069D01*
X115659119Y-88597162D01*
X115659116Y-88597161D01*
X115449373Y-88559800D01*
X115449367Y-88559799D01*
X115444284Y-88558894D01*
X115370452Y-88557992D01*
X115226081Y-88556228D01*
X115226079Y-88556228D01*
X115220911Y-88556165D01*
X115000091Y-88589955D01*
X114787756Y-88659357D01*
X114752007Y-88677967D01*
X114598346Y-88757958D01*
X114589607Y-88762507D01*
X114585474Y-88765610D01*
X114585471Y-88765612D01*
X114415100Y-88893530D01*
X114410965Y-88896635D01*
X114376848Y-88932336D01*
X114317280Y-88994671D01*
X114256629Y-89058138D01*
X114149201Y-89215621D01*
X114094293Y-89260621D01*
X114023768Y-89268792D01*
X113960021Y-89237538D01*
X113939324Y-89213054D01*
X113858822Y-89088617D01*
X113858820Y-89088614D01*
X113856014Y-89084277D01*
X113705670Y-88919051D01*
X113701619Y-88915852D01*
X113701615Y-88915848D01*
X113534414Y-88783800D01*
X113534410Y-88783798D01*
X113530359Y-88780598D01*
X113502390Y-88765158D01*
X113447443Y-88734826D01*
X113334789Y-88672638D01*
X113329920Y-88670914D01*
X113329916Y-88670912D01*
X113129087Y-88599795D01*
X113129083Y-88599794D01*
X113124212Y-88598069D01*
X113119119Y-88597162D01*
X113119116Y-88597161D01*
X112909373Y-88559800D01*
X112909367Y-88559799D01*
X112904284Y-88558894D01*
X112833770Y-88558033D01*
X112686082Y-88556228D01*
X112686080Y-88556228D01*
X112680911Y-88556165D01*
X112663488Y-88558831D01*
X112638712Y-88562622D01*
X112568349Y-88553154D01*
X112530559Y-88527167D01*
X109863634Y-85860242D01*
X109862706Y-85859305D01*
X109804557Y-85799925D01*
X109804556Y-85799924D01*
X109799629Y-85794893D01*
X109763179Y-85771402D01*
X109752854Y-85763983D01*
X109718957Y-85736924D01*
X109688762Y-85722327D01*
X109675345Y-85714798D01*
X109647162Y-85696635D01*
X109640545Y-85694227D01*
X109640540Y-85694224D01*
X109606427Y-85681808D01*
X109594684Y-85676847D01*
X109561997Y-85661046D01*
X109561992Y-85661044D01*
X109555651Y-85657979D01*
X109548793Y-85656396D01*
X109548791Y-85656395D01*
X109522974Y-85650435D01*
X109508231Y-85646068D01*
X109476715Y-85634597D01*
X109469725Y-85633714D01*
X109469717Y-85633712D01*
X109433699Y-85629162D01*
X109421147Y-85626926D01*
X109385786Y-85618762D01*
X109385783Y-85618762D01*
X109378915Y-85617176D01*
X109371869Y-85617151D01*
X109371866Y-85617151D01*
X109338344Y-85617034D01*
X109337462Y-85617005D01*
X109336631Y-85616900D01*
X109299981Y-85616900D01*
X109299541Y-85616899D01*
X109201057Y-85616555D01*
X109201052Y-85616555D01*
X109197530Y-85616543D01*
X109196330Y-85616811D01*
X109194693Y-85616900D01*
X81385782Y-85616900D01*
X81317661Y-85596898D01*
X81296687Y-85579995D01*
X80953685Y-85236993D01*
X80919659Y-85174681D01*
X80924724Y-85103866D01*
X80967271Y-85047030D01*
X80987347Y-85034747D01*
X81073098Y-84992738D01*
X81081944Y-84987465D01*
X81129247Y-84953723D01*
X81137648Y-84943023D01*
X81130660Y-84929870D01*
X80021922Y-83821132D01*
X80744408Y-83821132D01*
X80744539Y-83822965D01*
X80748790Y-83829580D01*
X81490474Y-84571264D01*
X81502484Y-84577823D01*
X81514223Y-84568855D01*
X81545004Y-84526019D01*
X81550315Y-84517180D01*
X81644670Y-84326267D01*
X81648469Y-84316672D01*
X81710376Y-84112915D01*
X81712555Y-84102834D01*
X81740590Y-83889887D01*
X81741109Y-83883212D01*
X81742572Y-83823364D01*
X81742378Y-83816646D01*
X81724781Y-83602604D01*
X81723096Y-83592424D01*
X81671214Y-83385875D01*
X81667894Y-83376124D01*
X81582972Y-83180814D01*
X81578105Y-83171739D01*
X81513063Y-83071197D01*
X81502377Y-83061995D01*
X81492812Y-83066398D01*
X80752022Y-83807188D01*
X80744408Y-83821132D01*
X80021922Y-83821132D01*
X79269849Y-83069059D01*
X79258313Y-83062759D01*
X79246031Y-83072382D01*
X79198089Y-83142662D01*
X79193001Y-83151618D01*
X79165970Y-83209852D01*
X79119146Y-83263219D01*
X79050903Y-83282799D01*
X78982907Y-83262375D01*
X78962588Y-83245896D01*
X75075534Y-79358842D01*
X75074606Y-79357905D01*
X75016457Y-79298525D01*
X75016456Y-79298524D01*
X75011529Y-79293493D01*
X74975079Y-79270002D01*
X74964754Y-79262583D01*
X74930857Y-79235524D01*
X74900662Y-79220927D01*
X74887245Y-79213398D01*
X74859062Y-79195235D01*
X74852445Y-79192827D01*
X74852440Y-79192824D01*
X74818327Y-79180408D01*
X74806584Y-79175447D01*
X74773897Y-79159646D01*
X74773892Y-79159644D01*
X74767551Y-79156579D01*
X74760693Y-79154996D01*
X74760691Y-79154995D01*
X74734874Y-79149035D01*
X74720131Y-79144668D01*
X74688615Y-79133197D01*
X74681625Y-79132314D01*
X74681617Y-79132312D01*
X74645599Y-79127762D01*
X74633047Y-79125526D01*
X74597686Y-79117362D01*
X74597683Y-79117362D01*
X74590815Y-79115776D01*
X74583769Y-79115751D01*
X74583766Y-79115751D01*
X74550244Y-79115634D01*
X74549362Y-79115605D01*
X74548531Y-79115500D01*
X74542997Y-79115500D01*
X74542564Y-79115373D01*
X74540650Y-79115253D01*
X74540677Y-79114819D01*
X74474876Y-79095498D01*
X74427448Y-79039743D01*
X74350419Y-78862589D01*
X74350419Y-78862588D01*
X74348354Y-78857840D01*
X74287558Y-78763864D01*
X74229822Y-78674617D01*
X74229820Y-78674614D01*
X74227014Y-78670277D01*
X74076670Y-78505051D01*
X74072619Y-78501852D01*
X74072615Y-78501848D01*
X73905414Y-78369800D01*
X73905410Y-78369798D01*
X73901359Y-78366598D01*
X73705789Y-78258638D01*
X73700920Y-78256914D01*
X73700916Y-78256912D01*
X73500087Y-78185795D01*
X73500083Y-78185794D01*
X73495212Y-78184069D01*
X73490119Y-78183162D01*
X73490116Y-78183161D01*
X73280373Y-78145800D01*
X73280367Y-78145799D01*
X73275284Y-78144894D01*
X73201452Y-78143992D01*
X73057081Y-78142228D01*
X73057079Y-78142228D01*
X73051911Y-78142165D01*
X72831091Y-78175955D01*
X72618756Y-78245357D01*
X72531704Y-78290673D01*
X72462046Y-78304385D01*
X72396031Y-78278260D01*
X72365071Y-78243046D01*
X72358104Y-78231265D01*
X72349408Y-78213513D01*
X72344872Y-78202058D01*
X72341952Y-78194683D01*
X72315963Y-78158912D01*
X72309447Y-78148992D01*
X72307559Y-78145800D01*
X72286942Y-78110938D01*
X72272621Y-78096617D01*
X72259780Y-78081583D01*
X72252531Y-78071606D01*
X72247872Y-78065193D01*
X72213795Y-78037002D01*
X72205016Y-78029012D01*
X66238052Y-72062047D01*
X66230512Y-72053761D01*
X66226400Y-72047282D01*
X66176748Y-72000656D01*
X66173907Y-71997902D01*
X66154170Y-71978165D01*
X66150973Y-71975685D01*
X66141951Y-71967980D01*
X66115500Y-71943141D01*
X66109721Y-71937714D01*
X66102775Y-71933895D01*
X66102772Y-71933893D01*
X66091966Y-71927952D01*
X66075447Y-71917101D01*
X66074983Y-71916741D01*
X66059441Y-71904686D01*
X66052172Y-71901541D01*
X66052168Y-71901538D01*
X66018863Y-71887126D01*
X66008213Y-71881909D01*
X65969460Y-71860605D01*
X65949837Y-71855567D01*
X65931134Y-71849163D01*
X65919820Y-71844267D01*
X65919819Y-71844267D01*
X65912545Y-71841119D01*
X65904722Y-71839880D01*
X65904712Y-71839877D01*
X65868876Y-71834201D01*
X65857256Y-71831795D01*
X65822111Y-71822772D01*
X65822110Y-71822772D01*
X65814430Y-71820800D01*
X65794176Y-71820800D01*
X65774465Y-71819249D01*
X65762286Y-71817320D01*
X65754457Y-71816080D01*
X65746565Y-71816826D01*
X65710439Y-71820241D01*
X65698581Y-71820800D01*
X52403694Y-71820800D01*
X52335573Y-71800798D01*
X52314599Y-71783895D01*
X47702452Y-67171747D01*
X47694912Y-67163461D01*
X47690800Y-67156982D01*
X47676997Y-67144020D01*
X47641031Y-67082807D01*
X47643870Y-67011867D01*
X47651044Y-66996369D01*
X47650453Y-66996077D01*
X47747136Y-66800453D01*
X47747137Y-66800451D01*
X47749430Y-66795811D01*
X47790990Y-66659020D01*
X47812865Y-66587023D01*
X47812865Y-66587021D01*
X47814370Y-66582069D01*
X47819670Y-66541811D01*
X47822007Y-66524064D01*
X47850730Y-66459137D01*
X47909996Y-66420046D01*
X47980987Y-66419201D01*
X48036024Y-66451416D01*
X52609119Y-71024510D01*
X52610047Y-71025447D01*
X52673171Y-71089907D01*
X52679091Y-71093722D01*
X52679097Y-71093727D01*
X52709614Y-71113394D01*
X52719959Y-71120827D01*
X52753843Y-71147876D01*
X52760182Y-71150940D01*
X52760183Y-71150941D01*
X52784037Y-71162472D01*
X52797454Y-71170001D01*
X52825638Y-71188165D01*
X52832255Y-71190573D01*
X52832260Y-71190576D01*
X52866373Y-71202992D01*
X52878116Y-71207953D01*
X52910800Y-71223753D01*
X52910809Y-71223756D01*
X52917149Y-71226821D01*
X52924014Y-71228406D01*
X52949828Y-71234366D01*
X52964568Y-71238732D01*
X52996085Y-71250203D01*
X53003070Y-71251085D01*
X53003077Y-71251087D01*
X53039092Y-71255637D01*
X53051643Y-71257872D01*
X53093885Y-71267625D01*
X53100929Y-71267650D01*
X53100933Y-71267650D01*
X53134474Y-71267767D01*
X53135343Y-71267796D01*
X53136169Y-71267900D01*
X53172533Y-71267900D01*
X53172973Y-71267901D01*
X53271736Y-71268246D01*
X53271742Y-71268246D01*
X53275270Y-71268258D01*
X53276473Y-71267989D01*
X53278117Y-71267900D01*
X69172318Y-71267900D01*
X69240439Y-71287902D01*
X69261413Y-71304805D01*
X78992622Y-81036014D01*
X79026648Y-81098326D01*
X79028814Y-81138495D01*
X79017251Y-81246695D01*
X79017548Y-81251848D01*
X79017548Y-81251851D01*
X79023011Y-81346590D01*
X79030110Y-81469715D01*
X79031247Y-81474761D01*
X79031248Y-81474767D01*
X79051119Y-81562939D01*
X79079222Y-81687639D01*
X79163266Y-81894616D01*
X79279987Y-82085088D01*
X79426250Y-82253938D01*
X79598126Y-82396632D01*
X79671955Y-82439774D01*
X79720679Y-82491412D01*
X79733750Y-82561195D01*
X79707019Y-82626967D01*
X79666562Y-82660327D01*
X79658460Y-82664544D01*
X79649734Y-82670039D01*
X79629677Y-82685099D01*
X79621223Y-82696427D01*
X79627968Y-82708758D01*
X80367188Y-83447978D01*
X80381132Y-83455592D01*
X80382965Y-83455461D01*
X80389580Y-83451210D01*
X81133389Y-82707401D01*
X81140410Y-82694544D01*
X81133611Y-82685213D01*
X81129559Y-82682521D01*
X81092602Y-82662120D01*
X81042631Y-82611687D01*
X81027859Y-82542245D01*
X81052975Y-82475839D01*
X81080327Y-82449232D01*
X81103797Y-82432491D01*
X81259860Y-82321173D01*
X81418096Y-82163489D01*
X81477594Y-82080689D01*
X81545435Y-81986277D01*
X81548453Y-81982077D01*
X81647430Y-81781811D01*
X81712370Y-81568069D01*
X81741529Y-81346590D01*
X81743156Y-81280000D01*
X81724852Y-81057361D01*
X81670431Y-80840702D01*
X81581354Y-80635840D01*
X81528496Y-80554134D01*
X81462822Y-80452617D01*
X81462820Y-80452614D01*
X81460014Y-80448277D01*
X81309670Y-80283051D01*
X81305619Y-80279852D01*
X81305615Y-80279848D01*
X81138414Y-80147800D01*
X81138410Y-80147798D01*
X81134359Y-80144598D01*
X81093053Y-80121796D01*
X81043084Y-80071364D01*
X81028312Y-80001921D01*
X81053428Y-79935516D01*
X81080780Y-79908909D01*
X81226193Y-79805187D01*
X81259860Y-79781173D01*
X81418096Y-79623489D01*
X81548453Y-79442077D01*
X81614815Y-79307804D01*
X81645136Y-79246453D01*
X81645137Y-79246451D01*
X81647430Y-79241811D01*
X81685241Y-79117362D01*
X81710865Y-79033023D01*
X81710865Y-79033021D01*
X81712370Y-79028069D01*
X81741529Y-78806590D01*
X81743156Y-78740000D01*
X81724852Y-78517361D01*
X81670431Y-78300702D01*
X81581354Y-78095840D01*
X81513347Y-77990717D01*
X81462822Y-77912617D01*
X81462820Y-77912614D01*
X81460014Y-77908277D01*
X81309670Y-77743051D01*
X81305619Y-77739852D01*
X81305615Y-77739848D01*
X81138414Y-77607800D01*
X81138410Y-77607798D01*
X81134359Y-77604598D01*
X81093053Y-77581796D01*
X81043084Y-77531364D01*
X81028312Y-77461921D01*
X81053428Y-77395516D01*
X81080780Y-77368909D01*
X81124603Y-77337650D01*
X81259860Y-77241173D01*
X81418096Y-77083489D01*
X81477594Y-77000689D01*
X81545435Y-76906277D01*
X81548453Y-76902077D01*
X81647430Y-76701811D01*
X81712370Y-76488069D01*
X81741529Y-76266590D01*
X81743156Y-76200000D01*
X81724852Y-75977361D01*
X81670431Y-75760702D01*
X81581354Y-75555840D01*
X81496258Y-75424301D01*
X81462822Y-75372617D01*
X81462820Y-75372614D01*
X81460014Y-75368277D01*
X81309670Y-75203051D01*
X81305619Y-75199852D01*
X81305615Y-75199848D01*
X81138414Y-75067800D01*
X81138410Y-75067798D01*
X81134359Y-75064598D01*
X81093053Y-75041796D01*
X81043084Y-74991364D01*
X81028312Y-74921921D01*
X81053428Y-74855516D01*
X81080780Y-74828909D01*
X81124603Y-74797650D01*
X81259860Y-74701173D01*
X81272556Y-74688522D01*
X81414435Y-74547137D01*
X81418096Y-74543489D01*
X81477594Y-74460689D01*
X81545435Y-74366277D01*
X81548453Y-74362077D01*
X81607968Y-74241658D01*
X81645136Y-74166453D01*
X81645137Y-74166451D01*
X81647430Y-74161811D01*
X81712370Y-73948069D01*
X81741529Y-73726590D01*
X81743156Y-73660000D01*
X81724852Y-73437361D01*
X81670431Y-73220702D01*
X81581354Y-73015840D01*
X81530060Y-72936551D01*
X81462822Y-72832617D01*
X81462820Y-72832614D01*
X81460014Y-72828277D01*
X81309670Y-72663051D01*
X81305619Y-72659852D01*
X81305615Y-72659848D01*
X81138414Y-72527800D01*
X81138410Y-72527798D01*
X81134359Y-72524598D01*
X81093053Y-72501796D01*
X81043084Y-72451364D01*
X81028312Y-72381921D01*
X81053428Y-72315516D01*
X81080780Y-72288909D01*
X81124603Y-72257650D01*
X81259860Y-72161173D01*
X81418096Y-72003489D01*
X81477594Y-71920689D01*
X81545435Y-71826277D01*
X81548453Y-71822077D01*
X81647430Y-71621811D01*
X81712370Y-71408069D01*
X81741529Y-71186590D01*
X81743156Y-71120000D01*
X81724852Y-70897361D01*
X81670431Y-70680702D01*
X81581354Y-70475840D01*
X81460014Y-70288277D01*
X81309670Y-70123051D01*
X81305619Y-70119852D01*
X81305615Y-70119848D01*
X81138414Y-69987800D01*
X81138410Y-69987798D01*
X81134359Y-69984598D01*
X81093053Y-69961796D01*
X81043084Y-69911364D01*
X81028312Y-69841921D01*
X81053428Y-69775516D01*
X81080780Y-69748909D01*
X81134141Y-69710847D01*
X81259860Y-69621173D01*
X81418096Y-69463489D01*
X81421277Y-69459063D01*
X81545435Y-69286277D01*
X81548453Y-69282077D01*
X81566148Y-69246275D01*
X81645136Y-69086453D01*
X81645137Y-69086451D01*
X81647430Y-69081811D01*
X81712370Y-68868069D01*
X81741529Y-68646590D01*
X81742262Y-68616604D01*
X81743074Y-68583365D01*
X81743074Y-68583361D01*
X81743156Y-68580000D01*
X81724852Y-68357361D01*
X81670431Y-68140702D01*
X81581354Y-67935840D01*
X81541906Y-67874862D01*
X81462822Y-67752617D01*
X81462820Y-67752614D01*
X81460014Y-67748277D01*
X81309670Y-67583051D01*
X81305619Y-67579852D01*
X81305615Y-67579848D01*
X81138414Y-67447800D01*
X81138410Y-67447798D01*
X81134359Y-67444598D01*
X81093053Y-67421796D01*
X81043084Y-67371364D01*
X81028312Y-67301921D01*
X81053428Y-67235516D01*
X81080780Y-67208909D01*
X81148110Y-67160883D01*
X81259860Y-67081173D01*
X81306433Y-67034763D01*
X81414435Y-66927137D01*
X81418096Y-66923489D01*
X81423294Y-66916256D01*
X81545435Y-66746277D01*
X81548453Y-66742077D01*
X81558956Y-66720827D01*
X81645136Y-66546453D01*
X81645137Y-66546451D01*
X81647430Y-66541811D01*
X81712370Y-66328069D01*
X81741529Y-66106590D01*
X81742845Y-66052727D01*
X81743074Y-66043365D01*
X81743074Y-66043361D01*
X81743156Y-66040000D01*
X81724852Y-65817361D01*
X81696821Y-65705765D01*
X81699625Y-65634823D01*
X81729930Y-65585974D01*
X81964747Y-65351157D01*
X81973037Y-65343613D01*
X81979518Y-65339500D01*
X82026159Y-65289832D01*
X82028913Y-65286991D01*
X82048635Y-65267269D01*
X82051112Y-65264076D01*
X82058817Y-65255055D01*
X82083659Y-65228600D01*
X82089086Y-65222821D01*
X82092907Y-65215871D01*
X82098846Y-65205068D01*
X82109702Y-65188541D01*
X82117257Y-65178802D01*
X82117258Y-65178800D01*
X82122114Y-65172540D01*
X82139674Y-65131960D01*
X82144891Y-65121312D01*
X82162375Y-65089509D01*
X82162376Y-65089507D01*
X82166195Y-65082560D01*
X82171233Y-65062937D01*
X82177637Y-65044234D01*
X82182533Y-65032920D01*
X82182533Y-65032919D01*
X82185681Y-65025645D01*
X82186920Y-65017822D01*
X82186923Y-65017812D01*
X82192599Y-64981976D01*
X82195005Y-64970356D01*
X82204028Y-64935211D01*
X82204028Y-64935210D01*
X82206000Y-64927530D01*
X82206000Y-64907276D01*
X82207551Y-64887565D01*
X82209480Y-64875386D01*
X82210720Y-64867557D01*
X82206559Y-64823538D01*
X82206000Y-64811681D01*
X82206000Y-63025563D01*
X82206527Y-63014379D01*
X82208201Y-63006891D01*
X82206062Y-62938832D01*
X82206000Y-62934875D01*
X82206000Y-62906944D01*
X82205494Y-62902938D01*
X82204561Y-62891092D01*
X82203422Y-62854837D01*
X82203173Y-62846910D01*
X82197522Y-62827458D01*
X82193514Y-62808106D01*
X82191968Y-62795868D01*
X82191967Y-62795866D01*
X82190974Y-62788003D01*
X82174694Y-62746886D01*
X82170859Y-62735685D01*
X82158518Y-62693206D01*
X82154485Y-62686387D01*
X82154483Y-62686382D01*
X82148207Y-62675771D01*
X82139510Y-62658021D01*
X82132052Y-62639183D01*
X82119423Y-62621800D01*
X82106072Y-62603425D01*
X82099553Y-62593501D01*
X82081078Y-62562260D01*
X82081074Y-62562255D01*
X82077042Y-62555437D01*
X82062718Y-62541113D01*
X82049876Y-62526078D01*
X82037972Y-62509693D01*
X82003906Y-62481511D01*
X81995127Y-62473522D01*
X81920400Y-62398795D01*
X81886374Y-62336483D01*
X81891439Y-62265668D01*
X81920400Y-62220605D01*
X81947653Y-62193352D01*
X81955938Y-62185812D01*
X81962418Y-62181700D01*
X82009059Y-62132032D01*
X82011813Y-62129191D01*
X82031534Y-62109470D01*
X82034012Y-62106275D01*
X82041718Y-62097253D01*
X82066558Y-62070801D01*
X82071986Y-62065021D01*
X82081746Y-62047268D01*
X82092599Y-62030745D01*
X82100153Y-62021006D01*
X82105013Y-62014741D01*
X82122576Y-61974157D01*
X82127783Y-61963527D01*
X82149095Y-61924760D01*
X82151066Y-61917083D01*
X82151068Y-61917078D01*
X82154132Y-61905142D01*
X82160538Y-61886430D01*
X82165434Y-61875117D01*
X82168581Y-61867845D01*
X82174795Y-61828616D01*
X82175497Y-61824181D01*
X82177904Y-61812560D01*
X82186928Y-61777411D01*
X82186928Y-61777410D01*
X82188900Y-61769730D01*
X82188900Y-61749469D01*
X82190451Y-61729758D01*
X82192379Y-61717585D01*
X82193619Y-61709757D01*
X82189459Y-61665746D01*
X82188900Y-61653889D01*
X82188900Y-54594168D01*
X82189427Y-54582985D01*
X82191102Y-54575492D01*
X82188962Y-54507401D01*
X82188900Y-54503444D01*
X82188900Y-54475544D01*
X82188396Y-54471553D01*
X82187463Y-54459711D01*
X82187449Y-54459242D01*
X82186074Y-54415511D01*
X82183861Y-54407893D01*
X82180421Y-54396052D01*
X82176412Y-54376693D01*
X82176246Y-54375383D01*
X82173874Y-54356603D01*
X82170958Y-54349237D01*
X82170956Y-54349231D01*
X82157600Y-54315498D01*
X82153755Y-54304268D01*
X82143630Y-54269417D01*
X82143630Y-54269416D01*
X82141419Y-54261807D01*
X82131105Y-54244366D01*
X82122408Y-54226613D01*
X82117872Y-54215158D01*
X82114952Y-54207783D01*
X82088963Y-54172012D01*
X82082447Y-54162092D01*
X82059942Y-54124038D01*
X82045621Y-54109717D01*
X82032780Y-54094683D01*
X82025531Y-54084706D01*
X82020872Y-54078293D01*
X82014768Y-54073243D01*
X82014763Y-54073238D01*
X81986802Y-54050107D01*
X81978022Y-54042117D01*
X81731218Y-53795313D01*
X81697192Y-53733001D01*
X81699755Y-53669589D01*
X81710865Y-53633022D01*
X81712370Y-53628069D01*
X81741529Y-53406590D01*
X81742390Y-53371361D01*
X81743074Y-53343365D01*
X81743074Y-53343361D01*
X81743156Y-53340000D01*
X81724852Y-53117361D01*
X81670431Y-52900702D01*
X81581354Y-52695840D01*
X81460014Y-52508277D01*
X81309670Y-52343051D01*
X81305619Y-52339852D01*
X81305615Y-52339848D01*
X81138414Y-52207800D01*
X81138410Y-52207798D01*
X81134359Y-52204598D01*
X81093053Y-52181796D01*
X81043084Y-52131364D01*
X81028312Y-52061921D01*
X81053428Y-51995516D01*
X81080780Y-51968909D01*
X81179770Y-51898300D01*
X81259860Y-51841173D01*
X81418096Y-51683489D01*
X81432386Y-51663603D01*
X81545435Y-51506277D01*
X81548453Y-51502077D01*
X81566148Y-51466275D01*
X81645136Y-51306453D01*
X81645137Y-51306451D01*
X81647430Y-51301811D01*
X81712370Y-51088069D01*
X81741529Y-50866590D01*
X81742390Y-50831361D01*
X81743074Y-50803365D01*
X81743074Y-50803361D01*
X81743156Y-50800000D01*
X81724852Y-50577361D01*
X81670431Y-50360702D01*
X81581354Y-50155840D01*
X81511461Y-50047802D01*
X81462822Y-49972617D01*
X81462820Y-49972614D01*
X81460014Y-49968277D01*
X81309670Y-49803051D01*
X81305619Y-49799852D01*
X81305615Y-49799848D01*
X81138414Y-49667800D01*
X81138410Y-49667798D01*
X81134359Y-49664598D01*
X81093053Y-49641796D01*
X81043084Y-49591364D01*
X81028312Y-49521921D01*
X81053428Y-49455516D01*
X81080780Y-49428909D01*
X81140914Y-49386016D01*
X81259860Y-49301173D01*
X81285217Y-49275905D01*
X81414435Y-49147137D01*
X81418096Y-49143489D01*
X81432386Y-49123603D01*
X81545435Y-48966277D01*
X81548453Y-48962077D01*
X81566148Y-48926275D01*
X81645136Y-48766453D01*
X81645137Y-48766451D01*
X81647430Y-48761811D01*
X81712370Y-48548069D01*
X81741529Y-48326590D01*
X81742390Y-48291361D01*
X81743074Y-48263365D01*
X81743074Y-48263361D01*
X81743156Y-48260000D01*
X81724852Y-48037361D01*
X81670431Y-47820702D01*
X81581354Y-47615840D01*
X81492921Y-47479143D01*
X81462822Y-47432617D01*
X81462820Y-47432614D01*
X81460014Y-47428277D01*
X81309670Y-47263051D01*
X81305619Y-47259852D01*
X81305615Y-47259848D01*
X81138414Y-47127800D01*
X81138410Y-47127798D01*
X81134359Y-47124598D01*
X81092569Y-47101529D01*
X81042598Y-47051097D01*
X81027826Y-46981654D01*
X81052942Y-46915248D01*
X81080293Y-46888642D01*
X81129247Y-46853723D01*
X81137648Y-46843023D01*
X81130660Y-46829870D01*
X80392812Y-46092022D01*
X80378868Y-46084408D01*
X80377035Y-46084539D01*
X80370420Y-46088790D01*
X79626737Y-46832473D01*
X79619977Y-46844853D01*
X79625258Y-46851907D01*
X79671969Y-46879203D01*
X79720693Y-46930841D01*
X79733764Y-47000624D01*
X79707033Y-47066396D01*
X79666584Y-47099752D01*
X79653607Y-47106507D01*
X79649474Y-47109610D01*
X79649471Y-47109612D01*
X79479100Y-47237530D01*
X79474965Y-47240635D01*
X79320629Y-47402138D01*
X79318632Y-47405065D01*
X79260603Y-47445148D01*
X79221102Y-47451500D01*
X78903382Y-47451500D01*
X78835261Y-47431498D01*
X78814287Y-47414595D01*
X78716227Y-47316535D01*
X78706304Y-47305359D01*
X78688675Y-47282956D01*
X78688674Y-47282955D01*
X78684316Y-47277417D01*
X78678843Y-47272985D01*
X78678836Y-47272978D01*
X78651554Y-47250886D01*
X78641753Y-47242061D01*
X78078534Y-46678842D01*
X78077606Y-46677905D01*
X78019457Y-46618525D01*
X78019456Y-46618524D01*
X78014529Y-46613493D01*
X77978079Y-46590002D01*
X77967754Y-46582583D01*
X77933857Y-46555524D01*
X77903662Y-46540927D01*
X77890245Y-46533398D01*
X77862062Y-46515235D01*
X77855445Y-46512827D01*
X77855440Y-46512824D01*
X77821327Y-46500408D01*
X77809584Y-46495447D01*
X77776897Y-46479646D01*
X77776892Y-46479644D01*
X77770551Y-46476579D01*
X77763693Y-46474996D01*
X77763691Y-46474995D01*
X77737874Y-46469035D01*
X77723131Y-46464668D01*
X77691615Y-46453197D01*
X77684625Y-46452314D01*
X77684617Y-46452312D01*
X77648599Y-46447762D01*
X77636047Y-46445526D01*
X77600686Y-46437362D01*
X77600683Y-46437362D01*
X77593815Y-46435776D01*
X77586769Y-46435751D01*
X77586766Y-46435751D01*
X77553244Y-46435634D01*
X77552362Y-46435605D01*
X77551531Y-46435500D01*
X77514881Y-46435500D01*
X77514441Y-46435499D01*
X77415957Y-46435155D01*
X77415952Y-46435155D01*
X77412430Y-46435143D01*
X77411230Y-46435411D01*
X77409593Y-46435500D01*
X77294188Y-46435500D01*
X77226067Y-46415498D01*
X77205093Y-46398595D01*
X77044300Y-46237802D01*
X77039792Y-46234645D01*
X77039789Y-46234643D01*
X76893592Y-46132275D01*
X76856749Y-46106477D01*
X76851767Y-46104154D01*
X76851762Y-46104151D01*
X76654225Y-46012039D01*
X76654224Y-46012039D01*
X76649243Y-46009716D01*
X76643935Y-46008294D01*
X76643933Y-46008293D01*
X76433402Y-45951881D01*
X76433400Y-45951881D01*
X76428087Y-45950457D01*
X76200000Y-45930502D01*
X75971913Y-45950457D01*
X75966600Y-45951881D01*
X75966598Y-45951881D01*
X75756067Y-46008293D01*
X75756065Y-46008294D01*
X75750757Y-46009716D01*
X75745776Y-46012039D01*
X75745775Y-46012039D01*
X75548238Y-46104151D01*
X75548233Y-46104154D01*
X75543251Y-46106477D01*
X75506408Y-46132275D01*
X75360211Y-46234643D01*
X75360208Y-46234645D01*
X75355700Y-46237802D01*
X75193802Y-46399700D01*
X75190645Y-46404208D01*
X75190643Y-46404211D01*
X75156343Y-46453197D01*
X75062477Y-46587251D01*
X75060154Y-46592233D01*
X75060151Y-46592238D01*
X74972954Y-46779235D01*
X74965716Y-46794757D01*
X74964294Y-46800065D01*
X74964293Y-46800067D01*
X74925718Y-46944031D01*
X74906457Y-47015913D01*
X74886502Y-47244000D01*
X74906457Y-47472087D01*
X74907881Y-47477400D01*
X74907881Y-47477402D01*
X74963941Y-47686617D01*
X74965716Y-47693243D01*
X74968039Y-47698224D01*
X74968039Y-47698225D01*
X75060151Y-47895762D01*
X75060154Y-47895767D01*
X75062477Y-47900749D01*
X75065634Y-47905257D01*
X75187903Y-48079875D01*
X75193802Y-48088300D01*
X75355700Y-48250198D01*
X75360208Y-48253355D01*
X75360211Y-48253357D01*
X75407319Y-48286342D01*
X75543251Y-48381523D01*
X75548233Y-48383846D01*
X75548238Y-48383849D01*
X75744945Y-48475574D01*
X75750757Y-48478284D01*
X75756065Y-48479706D01*
X75756067Y-48479707D01*
X75966598Y-48536119D01*
X75966600Y-48536119D01*
X75971913Y-48537543D01*
X75977397Y-48538023D01*
X75977398Y-48538023D01*
X75979374Y-48538196D01*
X75980192Y-48538516D01*
X75982812Y-48538978D01*
X75982719Y-48539504D01*
X76045494Y-48564054D01*
X76087137Y-48621555D01*
X76091083Y-48692441D01*
X76057496Y-48752812D01*
X75634842Y-49175466D01*
X75633905Y-49176394D01*
X75589357Y-49220019D01*
X75569493Y-49239471D01*
X75546002Y-49275921D01*
X75538583Y-49286246D01*
X75511524Y-49320143D01*
X75508459Y-49326484D01*
X75508458Y-49326485D01*
X75496928Y-49350337D01*
X75489399Y-49363754D01*
X75471235Y-49391938D01*
X75468827Y-49398555D01*
X75468824Y-49398560D01*
X75456408Y-49432673D01*
X75451447Y-49444416D01*
X75435646Y-49477103D01*
X75435644Y-49477108D01*
X75432579Y-49483449D01*
X75430996Y-49490307D01*
X75430995Y-49490309D01*
X75425035Y-49516126D01*
X75420668Y-49530869D01*
X75409197Y-49562385D01*
X75408314Y-49569375D01*
X75408312Y-49569383D01*
X75403762Y-49605401D01*
X75401526Y-49617953D01*
X75397124Y-49637023D01*
X75391776Y-49660185D01*
X75391751Y-49667231D01*
X75391751Y-49667234D01*
X75391634Y-49700756D01*
X75391605Y-49701638D01*
X75391500Y-49702469D01*
X75391500Y-49739119D01*
X75391499Y-49739559D01*
X75391208Y-49823030D01*
X75391143Y-49841570D01*
X75391411Y-49842770D01*
X75391500Y-49844407D01*
X75391500Y-49959812D01*
X75371498Y-50027933D01*
X75354595Y-50048907D01*
X75193802Y-50209700D01*
X75190645Y-50214208D01*
X75190643Y-50214211D01*
X75088069Y-50360702D01*
X75062477Y-50397251D01*
X75061046Y-50396249D01*
X75015379Y-50439809D01*
X74945668Y-50453259D01*
X74879752Y-50426884D01*
X74868526Y-50416922D01*
X70143468Y-45691863D01*
X79018050Y-45691863D01*
X79030309Y-45904477D01*
X79031745Y-45914697D01*
X79078565Y-46122446D01*
X79081645Y-46132275D01*
X79161770Y-46329603D01*
X79166413Y-46338794D01*
X79246460Y-46469420D01*
X79256916Y-46478880D01*
X79265694Y-46475096D01*
X80007978Y-45732812D01*
X80014356Y-45721132D01*
X80744408Y-45721132D01*
X80744539Y-45722965D01*
X80748790Y-45729580D01*
X81490474Y-46471264D01*
X81502484Y-46477823D01*
X81514223Y-46468855D01*
X81545004Y-46426019D01*
X81550315Y-46417180D01*
X81644670Y-46226267D01*
X81648469Y-46216672D01*
X81710376Y-46012915D01*
X81712555Y-46002834D01*
X81740590Y-45789887D01*
X81741109Y-45783212D01*
X81742572Y-45723364D01*
X81742378Y-45716646D01*
X81724781Y-45502604D01*
X81723096Y-45492424D01*
X81671214Y-45285875D01*
X81667894Y-45276124D01*
X81582972Y-45080814D01*
X81578105Y-45071739D01*
X81513063Y-44971197D01*
X81502377Y-44961995D01*
X81492812Y-44966398D01*
X80752022Y-45707188D01*
X80744408Y-45721132D01*
X80014356Y-45721132D01*
X80015592Y-45718868D01*
X80015461Y-45717035D01*
X80011210Y-45710420D01*
X79269849Y-44969059D01*
X79258313Y-44962759D01*
X79246031Y-44972382D01*
X79198089Y-45042662D01*
X79193004Y-45051613D01*
X79103338Y-45244783D01*
X79099775Y-45254470D01*
X79042864Y-45459681D01*
X79040933Y-45469800D01*
X79018302Y-45681574D01*
X79018050Y-45691863D01*
X70143468Y-45691863D01*
X69217079Y-44765474D01*
X69183053Y-44703162D01*
X69188118Y-44632347D01*
X69230665Y-44575511D01*
X69236618Y-44571584D01*
X69236749Y-44571523D01*
X69392861Y-44462212D01*
X69419789Y-44443357D01*
X69419792Y-44443355D01*
X69424300Y-44440198D01*
X69586198Y-44278300D01*
X69610923Y-44242990D01*
X69689032Y-44131438D01*
X69717523Y-44090749D01*
X69719846Y-44085767D01*
X69719849Y-44085762D01*
X69811961Y-43888225D01*
X69811961Y-43888224D01*
X69814284Y-43883243D01*
X69824150Y-43846425D01*
X69872119Y-43667402D01*
X69872119Y-43667400D01*
X69873543Y-43662087D01*
X69893498Y-43434000D01*
X74886502Y-43434000D01*
X74906457Y-43662087D01*
X74907881Y-43667400D01*
X74907881Y-43667402D01*
X74955851Y-43846425D01*
X74965716Y-43883243D01*
X74968039Y-43888224D01*
X74968039Y-43888225D01*
X75060151Y-44085762D01*
X75060154Y-44085767D01*
X75062477Y-44090749D01*
X75090968Y-44131438D01*
X75169078Y-44242990D01*
X75193802Y-44278300D01*
X75355700Y-44440198D01*
X75360208Y-44443355D01*
X75360211Y-44443357D01*
X75387139Y-44462212D01*
X75543251Y-44571523D01*
X75548233Y-44573846D01*
X75548238Y-44573849D01*
X75701068Y-44645114D01*
X75750757Y-44668284D01*
X75756065Y-44669706D01*
X75756067Y-44669707D01*
X75966598Y-44726119D01*
X75966600Y-44726119D01*
X75971913Y-44727543D01*
X76200000Y-44747498D01*
X76428087Y-44727543D01*
X76433400Y-44726119D01*
X76433402Y-44726119D01*
X76643933Y-44669707D01*
X76643935Y-44669706D01*
X76649243Y-44668284D01*
X76698932Y-44645114D01*
X76803343Y-44596427D01*
X79621223Y-44596427D01*
X79627968Y-44608758D01*
X80367188Y-45347978D01*
X80381132Y-45355592D01*
X80382965Y-45355461D01*
X80389580Y-45351210D01*
X81050790Y-44690000D01*
X121736654Y-44690000D01*
X121737517Y-44703162D01*
X121754770Y-44966398D01*
X121756017Y-44985426D01*
X121756819Y-44989459D01*
X121756820Y-44989465D01*
X121812970Y-45271747D01*
X121813776Y-45275797D01*
X121815103Y-45279706D01*
X121815104Y-45279710D01*
X121890766Y-45502604D01*
X121908941Y-45556145D01*
X121910765Y-45559843D01*
X122031100Y-45803858D01*
X122039885Y-45821673D01*
X122042179Y-45825106D01*
X122188378Y-46043908D01*
X122204367Y-46067838D01*
X122207081Y-46070932D01*
X122207085Y-46070938D01*
X122370205Y-46256939D01*
X122399573Y-46290427D01*
X122402662Y-46293136D01*
X122619062Y-46482915D01*
X122619068Y-46482919D01*
X122622162Y-46485633D01*
X122625588Y-46487922D01*
X122625593Y-46487926D01*
X122769123Y-46583829D01*
X122868327Y-46650115D01*
X122872026Y-46651939D01*
X122872031Y-46651942D01*
X122929489Y-46680277D01*
X123133855Y-46781059D01*
X123137760Y-46782384D01*
X123137761Y-46782385D01*
X123410290Y-46874896D01*
X123410294Y-46874897D01*
X123414203Y-46876224D01*
X123418247Y-46877028D01*
X123418253Y-46877030D01*
X123700535Y-46933180D01*
X123700541Y-46933181D01*
X123704574Y-46933983D01*
X123708679Y-46934252D01*
X123708686Y-46934253D01*
X123995881Y-46953076D01*
X124000000Y-46953346D01*
X124004119Y-46953076D01*
X124291314Y-46934253D01*
X124291321Y-46934252D01*
X124295426Y-46933983D01*
X124299459Y-46933181D01*
X124299465Y-46933180D01*
X124581747Y-46877030D01*
X124581753Y-46877028D01*
X124585797Y-46876224D01*
X124589706Y-46874897D01*
X124589710Y-46874896D01*
X124862239Y-46782385D01*
X124862240Y-46782384D01*
X124866145Y-46781059D01*
X125070511Y-46680277D01*
X125127969Y-46651942D01*
X125127974Y-46651939D01*
X125131673Y-46650115D01*
X125230877Y-46583829D01*
X125374407Y-46487926D01*
X125374412Y-46487922D01*
X125377838Y-46485633D01*
X125380932Y-46482919D01*
X125380938Y-46482915D01*
X125597338Y-46293136D01*
X125600427Y-46290427D01*
X125629795Y-46256939D01*
X125792915Y-46070938D01*
X125792919Y-46070932D01*
X125795633Y-46067838D01*
X125811623Y-46043908D01*
X125957821Y-45825106D01*
X125960115Y-45821673D01*
X125968901Y-45803858D01*
X126089235Y-45559843D01*
X126091059Y-45556145D01*
X126109234Y-45502604D01*
X126184896Y-45279710D01*
X126184897Y-45279706D01*
X126186224Y-45275797D01*
X126187030Y-45271747D01*
X126243180Y-44989465D01*
X126243181Y-44989459D01*
X126243983Y-44985426D01*
X126245231Y-44966398D01*
X126262483Y-44703162D01*
X126263346Y-44690000D01*
X126256471Y-44585099D01*
X126244253Y-44398686D01*
X126244252Y-44398679D01*
X126243983Y-44394574D01*
X126237962Y-44364301D01*
X126187030Y-44108253D01*
X126187028Y-44108247D01*
X126186224Y-44104203D01*
X126183188Y-44095257D01*
X126092385Y-43827761D01*
X126092384Y-43827760D01*
X126091059Y-43823855D01*
X125960115Y-43558327D01*
X125879291Y-43437365D01*
X125797926Y-43315593D01*
X125797922Y-43315588D01*
X125795633Y-43312162D01*
X125792919Y-43309068D01*
X125792915Y-43309062D01*
X125603136Y-43092662D01*
X125600427Y-43089573D01*
X125462139Y-42968297D01*
X125380938Y-42897085D01*
X125380932Y-42897081D01*
X125377838Y-42894367D01*
X125374412Y-42892078D01*
X125374407Y-42892074D01*
X125135106Y-42732179D01*
X125131673Y-42729885D01*
X125127974Y-42728061D01*
X125127969Y-42728058D01*
X124881710Y-42606617D01*
X124866145Y-42598941D01*
X124827442Y-42585803D01*
X124589710Y-42505104D01*
X124589706Y-42505103D01*
X124585797Y-42503776D01*
X124581753Y-42502972D01*
X124581747Y-42502970D01*
X124299465Y-42446820D01*
X124299459Y-42446819D01*
X124295426Y-42446017D01*
X124291321Y-42445748D01*
X124291314Y-42445747D01*
X124004119Y-42426924D01*
X124000000Y-42426654D01*
X123995881Y-42426924D01*
X123708686Y-42445747D01*
X123708679Y-42445748D01*
X123704574Y-42446017D01*
X123700541Y-42446819D01*
X123700535Y-42446820D01*
X123418253Y-42502970D01*
X123418247Y-42502972D01*
X123414203Y-42503776D01*
X123410294Y-42505103D01*
X123410290Y-42505104D01*
X123172558Y-42585803D01*
X123133855Y-42598941D01*
X123118290Y-42606617D01*
X122872031Y-42728058D01*
X122872026Y-42728061D01*
X122868327Y-42729885D01*
X122864894Y-42732179D01*
X122625593Y-42892074D01*
X122625588Y-42892078D01*
X122622162Y-42894367D01*
X122619068Y-42897081D01*
X122619062Y-42897085D01*
X122537861Y-42968297D01*
X122399573Y-43089573D01*
X122396864Y-43092662D01*
X122207085Y-43309062D01*
X122207081Y-43309068D01*
X122204367Y-43312162D01*
X122202078Y-43315588D01*
X122202074Y-43315593D01*
X122120709Y-43437365D01*
X122039885Y-43558327D01*
X121908941Y-43823855D01*
X121907616Y-43827760D01*
X121907615Y-43827761D01*
X121816813Y-44095257D01*
X121813776Y-44104203D01*
X121812972Y-44108247D01*
X121812970Y-44108253D01*
X121762039Y-44364301D01*
X121756017Y-44394574D01*
X121755748Y-44398679D01*
X121755747Y-44398686D01*
X121743529Y-44585099D01*
X121736654Y-44690000D01*
X81050790Y-44690000D01*
X81133389Y-44607401D01*
X81140410Y-44594544D01*
X81133611Y-44585213D01*
X81129554Y-44582518D01*
X80943117Y-44479599D01*
X80933705Y-44475369D01*
X80732959Y-44404280D01*
X80722989Y-44401646D01*
X80513327Y-44364301D01*
X80503073Y-44363331D01*
X80290116Y-44360728D01*
X80279832Y-44361448D01*
X80069321Y-44393661D01*
X80059293Y-44396050D01*
X79856868Y-44462212D01*
X79847359Y-44466209D01*
X79658466Y-44564540D01*
X79649734Y-44570039D01*
X79629677Y-44585099D01*
X79621223Y-44596427D01*
X76803343Y-44596427D01*
X76851762Y-44573849D01*
X76851767Y-44573846D01*
X76856749Y-44571523D01*
X77012861Y-44462212D01*
X77039789Y-44443357D01*
X77039792Y-44443355D01*
X77044300Y-44440198D01*
X77206198Y-44278300D01*
X77230923Y-44242990D01*
X77309032Y-44131438D01*
X77337523Y-44090749D01*
X77339846Y-44085767D01*
X77339849Y-44085762D01*
X77431961Y-43888225D01*
X77431961Y-43888224D01*
X77434284Y-43883243D01*
X77444150Y-43846425D01*
X77492119Y-43667402D01*
X77492119Y-43667400D01*
X77493543Y-43662087D01*
X77513498Y-43434000D01*
X77493543Y-43205913D01*
X77487239Y-43182385D01*
X77435707Y-42990067D01*
X77435706Y-42990065D01*
X77434284Y-42984757D01*
X77392135Y-42894367D01*
X77339849Y-42782238D01*
X77339846Y-42782233D01*
X77337523Y-42777251D01*
X77264098Y-42672389D01*
X77209357Y-42594211D01*
X77209355Y-42594208D01*
X77206198Y-42589700D01*
X77044300Y-42427802D01*
X77039792Y-42424645D01*
X77039789Y-42424643D01*
X76895317Y-42323483D01*
X76856749Y-42296477D01*
X76851767Y-42294154D01*
X76851762Y-42294151D01*
X76654225Y-42202039D01*
X76654224Y-42202039D01*
X76649243Y-42199716D01*
X76643935Y-42198294D01*
X76643933Y-42198293D01*
X76433402Y-42141881D01*
X76433400Y-42141881D01*
X76428087Y-42140457D01*
X76200000Y-42120502D01*
X75971913Y-42140457D01*
X75966600Y-42141881D01*
X75966598Y-42141881D01*
X75756067Y-42198293D01*
X75756065Y-42198294D01*
X75750757Y-42199716D01*
X75745776Y-42202039D01*
X75745775Y-42202039D01*
X75548238Y-42294151D01*
X75548233Y-42294154D01*
X75543251Y-42296477D01*
X75504683Y-42323483D01*
X75360211Y-42424643D01*
X75360208Y-42424645D01*
X75355700Y-42427802D01*
X75193802Y-42589700D01*
X75190645Y-42594208D01*
X75190643Y-42594211D01*
X75135902Y-42672389D01*
X75062477Y-42777251D01*
X75060154Y-42782233D01*
X75060151Y-42782238D01*
X75007865Y-42894367D01*
X74965716Y-42984757D01*
X74964294Y-42990065D01*
X74964293Y-42990067D01*
X74912761Y-43182385D01*
X74906457Y-43205913D01*
X74886502Y-43434000D01*
X69893498Y-43434000D01*
X69873543Y-43205913D01*
X69867239Y-43182385D01*
X69815707Y-42990067D01*
X69815706Y-42990065D01*
X69814284Y-42984757D01*
X69772135Y-42894367D01*
X69719849Y-42782238D01*
X69719846Y-42782233D01*
X69717523Y-42777251D01*
X69644098Y-42672389D01*
X69589357Y-42594211D01*
X69589355Y-42594208D01*
X69586198Y-42589700D01*
X69424300Y-42427802D01*
X69419792Y-42424645D01*
X69419789Y-42424643D01*
X69275317Y-42323483D01*
X69236749Y-42296477D01*
X69231767Y-42294154D01*
X69231762Y-42294151D01*
X69034225Y-42202039D01*
X69034224Y-42202039D01*
X69029243Y-42199716D01*
X69023935Y-42198294D01*
X69023933Y-42198293D01*
X68813402Y-42141881D01*
X68813400Y-42141881D01*
X68808087Y-42140457D01*
X68580000Y-42120502D01*
X68351913Y-42140457D01*
X68346600Y-42141881D01*
X68346598Y-42141881D01*
X68136067Y-42198293D01*
X68136065Y-42198294D01*
X68130757Y-42199716D01*
X68125776Y-42202039D01*
X68125775Y-42202039D01*
X67928238Y-42294151D01*
X67928233Y-42294154D01*
X67923251Y-42296477D01*
X67884683Y-42323483D01*
X67740211Y-42424643D01*
X67740208Y-42424645D01*
X67735700Y-42427802D01*
X67573802Y-42589700D01*
X67570645Y-42594208D01*
X67570643Y-42594211D01*
X67515902Y-42672389D01*
X67442477Y-42777251D01*
X67440152Y-42782236D01*
X67440149Y-42782242D01*
X67431554Y-42800675D01*
X67384638Y-42853960D01*
X67316361Y-42873422D01*
X67256660Y-42857842D01*
X67224760Y-42840305D01*
X67205137Y-42835267D01*
X67186434Y-42828863D01*
X67175120Y-42823967D01*
X67175119Y-42823967D01*
X67167845Y-42820819D01*
X67160022Y-42819580D01*
X67160012Y-42819577D01*
X67124176Y-42813901D01*
X67112556Y-42811495D01*
X67077411Y-42802472D01*
X67077410Y-42802472D01*
X67069730Y-42800500D01*
X67049476Y-42800500D01*
X67029765Y-42798949D01*
X67017586Y-42797020D01*
X67009757Y-42795780D01*
X67001865Y-42796526D01*
X66965739Y-42799941D01*
X66953881Y-42800500D01*
X65538805Y-42800500D01*
X65470684Y-42780498D01*
X65433013Y-42742940D01*
X65344822Y-42606617D01*
X65344820Y-42606614D01*
X65342014Y-42602277D01*
X65191670Y-42437051D01*
X65187619Y-42433852D01*
X65187615Y-42433848D01*
X65020414Y-42301800D01*
X65020410Y-42301798D01*
X65016359Y-42298598D01*
X64975053Y-42275796D01*
X64925084Y-42225364D01*
X64910312Y-42155921D01*
X64935428Y-42089516D01*
X64962780Y-42062909D01*
X65027110Y-42017023D01*
X65141860Y-41935173D01*
X65300096Y-41777489D01*
X65359594Y-41694689D01*
X65427435Y-41600277D01*
X65430453Y-41596077D01*
X65432874Y-41591180D01*
X65527136Y-41400453D01*
X65527137Y-41400451D01*
X65529430Y-41395811D01*
X65594370Y-41182069D01*
X65623529Y-40960590D01*
X65625156Y-40894000D01*
X65606852Y-40671361D01*
X65552431Y-40454702D01*
X65463354Y-40249840D01*
X65342014Y-40062277D01*
X65191670Y-39897051D01*
X65187619Y-39893852D01*
X65187615Y-39893848D01*
X65020414Y-39761800D01*
X65020410Y-39761798D01*
X65016359Y-39758598D01*
X64820789Y-39650638D01*
X64815920Y-39648914D01*
X64815916Y-39648912D01*
X64615087Y-39577795D01*
X64615083Y-39577794D01*
X64610212Y-39576069D01*
X64605119Y-39575162D01*
X64605116Y-39575161D01*
X64395373Y-39537800D01*
X64395367Y-39537799D01*
X64390284Y-39536894D01*
X64316452Y-39535992D01*
X64172081Y-39534228D01*
X64172079Y-39534228D01*
X64166911Y-39534165D01*
X63946091Y-39567955D01*
X63733756Y-39637357D01*
X63535607Y-39740507D01*
X63531474Y-39743610D01*
X63531471Y-39743612D01*
X63383076Y-39855030D01*
X63356965Y-39874635D01*
X63353393Y-39878373D01*
X63254709Y-39981640D01*
X63202629Y-40036138D01*
X63076743Y-40220680D01*
X63053165Y-40271474D01*
X62995705Y-40395263D01*
X62982688Y-40423305D01*
X62922989Y-40638570D01*
X62899251Y-40860695D01*
X62899548Y-40865848D01*
X62899548Y-40865851D01*
X62905011Y-40960590D01*
X62912110Y-41083715D01*
X62913247Y-41088761D01*
X62913248Y-41088767D01*
X62933119Y-41176939D01*
X62961222Y-41301639D01*
X63045266Y-41508616D01*
X63047965Y-41513020D01*
X63130981Y-41648490D01*
X63161987Y-41699088D01*
X63308250Y-41867938D01*
X63480126Y-42010632D01*
X63491063Y-42017023D01*
X63553445Y-42053476D01*
X63602169Y-42105114D01*
X63615240Y-42174897D01*
X63588509Y-42240669D01*
X63548055Y-42274027D01*
X63535607Y-42280507D01*
X63531474Y-42283610D01*
X63531471Y-42283612D01*
X63442270Y-42350586D01*
X63356965Y-42414635D01*
X63202629Y-42576138D01*
X63199715Y-42580410D01*
X63199714Y-42580411D01*
X63124666Y-42690427D01*
X63076743Y-42760680D01*
X62982688Y-42963305D01*
X62922989Y-43178570D01*
X62899251Y-43400695D01*
X62899548Y-43405848D01*
X62899548Y-43405851D01*
X62905011Y-43500590D01*
X62912110Y-43623715D01*
X62913247Y-43628761D01*
X62913248Y-43628767D01*
X62921955Y-43667402D01*
X62961222Y-43841639D01*
X63045266Y-44048616D01*
X63161987Y-44239088D01*
X63308250Y-44407938D01*
X63480126Y-44550632D01*
X63539305Y-44585213D01*
X63553445Y-44593476D01*
X63602169Y-44645114D01*
X63615240Y-44714897D01*
X63588509Y-44780669D01*
X63548055Y-44814027D01*
X63535607Y-44820507D01*
X63531474Y-44823610D01*
X63531471Y-44823612D01*
X63507247Y-44841800D01*
X63356965Y-44954635D01*
X63202629Y-45116138D01*
X63076743Y-45300680D01*
X63061003Y-45334590D01*
X62987739Y-45492424D01*
X62982688Y-45503305D01*
X62922989Y-45718570D01*
X62899251Y-45940695D01*
X62899548Y-45945848D01*
X62899548Y-45945851D01*
X62907537Y-46084408D01*
X62912110Y-46163715D01*
X62913247Y-46168761D01*
X62913248Y-46168767D01*
X62928806Y-46237802D01*
X62961222Y-46381639D01*
X63007434Y-46495447D01*
X63042813Y-46582574D01*
X63045266Y-46588616D01*
X63161987Y-46779088D01*
X63308250Y-46947938D01*
X63480126Y-47090632D01*
X63498774Y-47101529D01*
X63553955Y-47133774D01*
X63602679Y-47185412D01*
X63615750Y-47255195D01*
X63589019Y-47320967D01*
X63548562Y-47354327D01*
X63540460Y-47358544D01*
X63531734Y-47364039D01*
X63511677Y-47379099D01*
X63503223Y-47390427D01*
X63509968Y-47402758D01*
X64249188Y-48141978D01*
X64263132Y-48149592D01*
X64264965Y-48149461D01*
X64271580Y-48145210D01*
X65015389Y-47401401D01*
X65022410Y-47388544D01*
X65015611Y-47379213D01*
X65011559Y-47376521D01*
X64974602Y-47356120D01*
X64924631Y-47305687D01*
X64909859Y-47236245D01*
X64934975Y-47169839D01*
X64962327Y-47143232D01*
X64991952Y-47122101D01*
X65141860Y-47015173D01*
X65153718Y-47003357D01*
X65254532Y-46902894D01*
X65300096Y-46857489D01*
X65359594Y-46774689D01*
X65427435Y-46680277D01*
X65430453Y-46676077D01*
X65463268Y-46609682D01*
X65527136Y-46480453D01*
X65527137Y-46480451D01*
X65529430Y-46475811D01*
X65594370Y-46262069D01*
X65623529Y-46040590D01*
X65624227Y-46012039D01*
X65625074Y-45977365D01*
X65625074Y-45977361D01*
X65625156Y-45974000D01*
X65606852Y-45751361D01*
X65552431Y-45534702D01*
X65463354Y-45329840D01*
X65342014Y-45142277D01*
X65191670Y-44977051D01*
X65187619Y-44973852D01*
X65187615Y-44973848D01*
X65020414Y-44841800D01*
X65020410Y-44841798D01*
X65016359Y-44838598D01*
X64975053Y-44815796D01*
X64925084Y-44765364D01*
X64910312Y-44695921D01*
X64935428Y-44629516D01*
X64962780Y-44602909D01*
X65016571Y-44564540D01*
X65141860Y-44475173D01*
X65150856Y-44466209D01*
X65253120Y-44364301D01*
X65300096Y-44317489D01*
X65331498Y-44273789D01*
X65427435Y-44140277D01*
X65430453Y-44136077D01*
X65432746Y-44131437D01*
X65434446Y-44128608D01*
X65486674Y-44080518D01*
X65542451Y-44067500D01*
X66675106Y-44067500D01*
X66743227Y-44087502D01*
X66764201Y-44104405D01*
X68401342Y-45741546D01*
X68435368Y-45803858D01*
X68430303Y-45874673D01*
X68387756Y-45931509D01*
X68344861Y-45952347D01*
X68183854Y-45995489D01*
X68136067Y-46008293D01*
X68136065Y-46008294D01*
X68130757Y-46009716D01*
X68125776Y-46012039D01*
X68125775Y-46012039D01*
X67928238Y-46104151D01*
X67928233Y-46104154D01*
X67923251Y-46106477D01*
X67886408Y-46132275D01*
X67740211Y-46234643D01*
X67740208Y-46234645D01*
X67735700Y-46237802D01*
X67573802Y-46399700D01*
X67570645Y-46404208D01*
X67570643Y-46404211D01*
X67536343Y-46453197D01*
X67442477Y-46587251D01*
X67440154Y-46592233D01*
X67440151Y-46592238D01*
X67352954Y-46779235D01*
X67345716Y-46794757D01*
X67344294Y-46800065D01*
X67344293Y-46800067D01*
X67305718Y-46944031D01*
X67286457Y-47015913D01*
X67266502Y-47244000D01*
X67286457Y-47472087D01*
X67287881Y-47477400D01*
X67287881Y-47477402D01*
X67343941Y-47686617D01*
X67345716Y-47693243D01*
X67348039Y-47698224D01*
X67348039Y-47698225D01*
X67440151Y-47895762D01*
X67440154Y-47895767D01*
X67442477Y-47900749D01*
X67445634Y-47905257D01*
X67567903Y-48079875D01*
X67573802Y-48088300D01*
X67735700Y-48250198D01*
X67740208Y-48253355D01*
X67740211Y-48253357D01*
X67787319Y-48286342D01*
X67923251Y-48381523D01*
X67928233Y-48383846D01*
X67928238Y-48383849D01*
X68124945Y-48475574D01*
X68130757Y-48478284D01*
X68136065Y-48479706D01*
X68136067Y-48479707D01*
X68346598Y-48536119D01*
X68346600Y-48536119D01*
X68351913Y-48537543D01*
X68580000Y-48557498D01*
X68808087Y-48537543D01*
X68813400Y-48536119D01*
X68813402Y-48536119D01*
X69023933Y-48479707D01*
X69023935Y-48479706D01*
X69029243Y-48478284D01*
X69035055Y-48475574D01*
X69231762Y-48383849D01*
X69231767Y-48383846D01*
X69236749Y-48381523D01*
X69372681Y-48286342D01*
X69419789Y-48253357D01*
X69419792Y-48253355D01*
X69424300Y-48250198D01*
X69586198Y-48088300D01*
X69592098Y-48079875D01*
X69714366Y-47905257D01*
X69717523Y-47900749D01*
X69719846Y-47895767D01*
X69719849Y-47895762D01*
X69811961Y-47698225D01*
X69811961Y-47698224D01*
X69814284Y-47693243D01*
X69816060Y-47686617D01*
X69836189Y-47611492D01*
X69871653Y-47479142D01*
X69908604Y-47418520D01*
X69972464Y-47387499D01*
X70042959Y-47395927D01*
X70082454Y-47422659D01*
X74390395Y-51730600D01*
X74424421Y-51792912D01*
X74427300Y-51819695D01*
X74427300Y-51878605D01*
X74407298Y-51946726D01*
X74390395Y-51967700D01*
X68993247Y-57364848D01*
X68930935Y-57398874D01*
X68871542Y-57397460D01*
X68808087Y-57380457D01*
X68580000Y-57360502D01*
X68351913Y-57380457D01*
X68346600Y-57381881D01*
X68346598Y-57381881D01*
X68136067Y-57438293D01*
X68136065Y-57438294D01*
X68130757Y-57439716D01*
X68125776Y-57442039D01*
X68125775Y-57442039D01*
X67928238Y-57534151D01*
X67928233Y-57534154D01*
X67923251Y-57536477D01*
X67840386Y-57594500D01*
X67740211Y-57664643D01*
X67740208Y-57664645D01*
X67735700Y-57667802D01*
X67573802Y-57829700D01*
X67570645Y-57834208D01*
X67570643Y-57834211D01*
X67515902Y-57912389D01*
X67442477Y-58017251D01*
X67440152Y-58022238D01*
X67440151Y-58022240D01*
X67431286Y-58041249D01*
X67384368Y-58094533D01*
X67316090Y-58113993D01*
X67248131Y-58093450D01*
X67227997Y-58077092D01*
X66834500Y-57683595D01*
X66800474Y-57621283D01*
X66805539Y-57550468D01*
X66834500Y-57505405D01*
X68166752Y-56173152D01*
X68229064Y-56139127D01*
X68288459Y-56140541D01*
X68346591Y-56156118D01*
X68346602Y-56156120D01*
X68351913Y-56157543D01*
X68580000Y-56177498D01*
X68808087Y-56157543D01*
X68813400Y-56156119D01*
X68813402Y-56156119D01*
X69023933Y-56099707D01*
X69023935Y-56099706D01*
X69029243Y-56098284D01*
X69034225Y-56095961D01*
X69231762Y-56003849D01*
X69231767Y-56003846D01*
X69236749Y-56001523D01*
X69372681Y-55906342D01*
X69419789Y-55873357D01*
X69419792Y-55873355D01*
X69424300Y-55870198D01*
X69586198Y-55708300D01*
X69595720Y-55694702D01*
X69714366Y-55525257D01*
X69717523Y-55520749D01*
X69719846Y-55515767D01*
X69719849Y-55515762D01*
X69811961Y-55318225D01*
X69811961Y-55318224D01*
X69814284Y-55313243D01*
X69816060Y-55306617D01*
X69872119Y-55097402D01*
X69872119Y-55097400D01*
X69873543Y-55092087D01*
X69893498Y-54864000D01*
X69873543Y-54635913D01*
X69870179Y-54623357D01*
X69815707Y-54420067D01*
X69815706Y-54420065D01*
X69814284Y-54414757D01*
X69808797Y-54402990D01*
X69719849Y-54212238D01*
X69719846Y-54212233D01*
X69717523Y-54207251D01*
X69623686Y-54073238D01*
X69589357Y-54024211D01*
X69589355Y-54024208D01*
X69586198Y-54019700D01*
X69424300Y-53857802D01*
X69419792Y-53854645D01*
X69419789Y-53854643D01*
X69259769Y-53742596D01*
X69236749Y-53726477D01*
X69231767Y-53724154D01*
X69231762Y-53724151D01*
X69034225Y-53632039D01*
X69034224Y-53632039D01*
X69029243Y-53629716D01*
X69023935Y-53628294D01*
X69023933Y-53628293D01*
X68813402Y-53571881D01*
X68813400Y-53571881D01*
X68808087Y-53570457D01*
X68580000Y-53550502D01*
X68351913Y-53570457D01*
X68346600Y-53571881D01*
X68346598Y-53571881D01*
X68136067Y-53628293D01*
X68136065Y-53628294D01*
X68130757Y-53629716D01*
X68125776Y-53632039D01*
X68125775Y-53632039D01*
X67928238Y-53724151D01*
X67928233Y-53724154D01*
X67923251Y-53726477D01*
X67900231Y-53742596D01*
X67740211Y-53854643D01*
X67740208Y-53854645D01*
X67735700Y-53857802D01*
X67573802Y-54019700D01*
X67570645Y-54024208D01*
X67570643Y-54024211D01*
X67536314Y-54073238D01*
X67442477Y-54207251D01*
X67440154Y-54212233D01*
X67440151Y-54212238D01*
X67351203Y-54402990D01*
X67345716Y-54414757D01*
X67344294Y-54420065D01*
X67344293Y-54420067D01*
X67289821Y-54623357D01*
X67286457Y-54635913D01*
X67266502Y-54864000D01*
X67286457Y-55092087D01*
X67287880Y-55097398D01*
X67287882Y-55097409D01*
X67303459Y-55155541D01*
X67301770Y-55226517D01*
X67270848Y-55277248D01*
X65696421Y-56851674D01*
X65634109Y-56885700D01*
X65563293Y-56880635D01*
X65506458Y-56838088D01*
X65481647Y-56771568D01*
X65494369Y-56706752D01*
X65527136Y-56640453D01*
X65527137Y-56640451D01*
X65529430Y-56635811D01*
X65570990Y-56499020D01*
X65592865Y-56427023D01*
X65592865Y-56427021D01*
X65594370Y-56422069D01*
X65623529Y-56200590D01*
X65624105Y-56177019D01*
X65625074Y-56137365D01*
X65625074Y-56137361D01*
X65625156Y-56134000D01*
X65606852Y-55911361D01*
X65552431Y-55694702D01*
X65463354Y-55489840D01*
X65408216Y-55404610D01*
X65344822Y-55306617D01*
X65344820Y-55306614D01*
X65342014Y-55302277D01*
X65191670Y-55137051D01*
X65187619Y-55133852D01*
X65187615Y-55133848D01*
X65020414Y-55001800D01*
X65020410Y-55001798D01*
X65016359Y-54998598D01*
X64975053Y-54975796D01*
X64925084Y-54925364D01*
X64910312Y-54855921D01*
X64935428Y-54789516D01*
X64962780Y-54762909D01*
X65022898Y-54720027D01*
X65141860Y-54635173D01*
X65153718Y-54623357D01*
X65296435Y-54481137D01*
X65300096Y-54477489D01*
X65344632Y-54415511D01*
X65427435Y-54300277D01*
X65430453Y-54296077D01*
X65450763Y-54254984D01*
X65527136Y-54100453D01*
X65527137Y-54100451D01*
X65529430Y-54095811D01*
X65570990Y-53959020D01*
X65592865Y-53887023D01*
X65592865Y-53887021D01*
X65594370Y-53882069D01*
X65623529Y-53660590D01*
X65624227Y-53632039D01*
X65625074Y-53597365D01*
X65625074Y-53597361D01*
X65625156Y-53594000D01*
X65606852Y-53371361D01*
X65552431Y-53154702D01*
X65463354Y-52949840D01*
X65385618Y-52829679D01*
X65344822Y-52766617D01*
X65344820Y-52766614D01*
X65342014Y-52762277D01*
X65191670Y-52597051D01*
X65187619Y-52593852D01*
X65187615Y-52593848D01*
X65020414Y-52461800D01*
X65020410Y-52461798D01*
X65016359Y-52458598D01*
X64975053Y-52435796D01*
X64925084Y-52385364D01*
X64910312Y-52315921D01*
X64935428Y-52249516D01*
X64962780Y-52222909D01*
X65027110Y-52177023D01*
X65141860Y-52095173D01*
X65173788Y-52063357D01*
X65269779Y-51967700D01*
X65300096Y-51937489D01*
X65331498Y-51893789D01*
X65427435Y-51760277D01*
X65430453Y-51756077D01*
X65432874Y-51751180D01*
X65527136Y-51560453D01*
X65527137Y-51560451D01*
X65529430Y-51555811D01*
X65594370Y-51342069D01*
X65623529Y-51120590D01*
X65625156Y-51054000D01*
X67266502Y-51054000D01*
X67286457Y-51282087D01*
X67287881Y-51287400D01*
X67287881Y-51287402D01*
X67344161Y-51497438D01*
X67345716Y-51503243D01*
X67348039Y-51508224D01*
X67348039Y-51508225D01*
X67440151Y-51705762D01*
X67440154Y-51705767D01*
X67442477Y-51710749D01*
X67477157Y-51760277D01*
X67549078Y-51862990D01*
X67573802Y-51898300D01*
X67735700Y-52060198D01*
X67740208Y-52063355D01*
X67740211Y-52063357D01*
X67789931Y-52098171D01*
X67923251Y-52191523D01*
X67928233Y-52193846D01*
X67928238Y-52193849D01*
X68120150Y-52283338D01*
X68130757Y-52288284D01*
X68136065Y-52289706D01*
X68136067Y-52289707D01*
X68346598Y-52346119D01*
X68346600Y-52346119D01*
X68351913Y-52347543D01*
X68580000Y-52367498D01*
X68808087Y-52347543D01*
X68813400Y-52346119D01*
X68813402Y-52346119D01*
X69023933Y-52289707D01*
X69023935Y-52289706D01*
X69029243Y-52288284D01*
X69039850Y-52283338D01*
X69231762Y-52193849D01*
X69231767Y-52193846D01*
X69236749Y-52191523D01*
X69370069Y-52098171D01*
X69419789Y-52063357D01*
X69419792Y-52063355D01*
X69424300Y-52060198D01*
X69586198Y-51898300D01*
X69610923Y-51862990D01*
X69682843Y-51760277D01*
X69717523Y-51710749D01*
X69719846Y-51705767D01*
X69719849Y-51705762D01*
X69811961Y-51508225D01*
X69811961Y-51508224D01*
X69814284Y-51503243D01*
X69815840Y-51497438D01*
X69872119Y-51287402D01*
X69872119Y-51287400D01*
X69873543Y-51282087D01*
X69893498Y-51054000D01*
X69873543Y-50825913D01*
X69866600Y-50800000D01*
X69815707Y-50610067D01*
X69815706Y-50610065D01*
X69814284Y-50604757D01*
X69785458Y-50542938D01*
X69719849Y-50402238D01*
X69719846Y-50402233D01*
X69717523Y-50397251D01*
X69644098Y-50292389D01*
X69589357Y-50214211D01*
X69589355Y-50214208D01*
X69586198Y-50209700D01*
X69424300Y-50047802D01*
X69419792Y-50044645D01*
X69419789Y-50044643D01*
X69305271Y-49964457D01*
X69236749Y-49916477D01*
X69231767Y-49914154D01*
X69231762Y-49914151D01*
X69034225Y-49822039D01*
X69034224Y-49822039D01*
X69029243Y-49819716D01*
X69023935Y-49818294D01*
X69023933Y-49818293D01*
X68813402Y-49761881D01*
X68813400Y-49761881D01*
X68808087Y-49760457D01*
X68580000Y-49740502D01*
X68351913Y-49760457D01*
X68346600Y-49761881D01*
X68346598Y-49761881D01*
X68136067Y-49818293D01*
X68136065Y-49818294D01*
X68130757Y-49819716D01*
X68125776Y-49822039D01*
X68125775Y-49822039D01*
X67928238Y-49914151D01*
X67928233Y-49914154D01*
X67923251Y-49916477D01*
X67854729Y-49964457D01*
X67740211Y-50044643D01*
X67740208Y-50044645D01*
X67735700Y-50047802D01*
X67573802Y-50209700D01*
X67570645Y-50214208D01*
X67570643Y-50214211D01*
X67515902Y-50292389D01*
X67442477Y-50397251D01*
X67440154Y-50402233D01*
X67440151Y-50402238D01*
X67374542Y-50542938D01*
X67345716Y-50604757D01*
X67344294Y-50610065D01*
X67344293Y-50610067D01*
X67293400Y-50800000D01*
X67286457Y-50825913D01*
X67266502Y-51054000D01*
X65625156Y-51054000D01*
X65606852Y-50831361D01*
X65552431Y-50614702D01*
X65463354Y-50409840D01*
X65342014Y-50222277D01*
X65191670Y-50057051D01*
X65187619Y-50053852D01*
X65187615Y-50053848D01*
X65020414Y-49921800D01*
X65020410Y-49921798D01*
X65016359Y-49918598D01*
X64974569Y-49895529D01*
X64924598Y-49845097D01*
X64909826Y-49775654D01*
X64934942Y-49709248D01*
X64962293Y-49682642D01*
X65011247Y-49647723D01*
X65019648Y-49637023D01*
X65012660Y-49623870D01*
X64274812Y-48886022D01*
X64260868Y-48878408D01*
X64259035Y-48878539D01*
X64252420Y-48882790D01*
X63508737Y-49626473D01*
X63501977Y-49638853D01*
X63507258Y-49645907D01*
X63553969Y-49673203D01*
X63602693Y-49724841D01*
X63615764Y-49794624D01*
X63589033Y-49860396D01*
X63548584Y-49893752D01*
X63535607Y-49900507D01*
X63531474Y-49903610D01*
X63531471Y-49903612D01*
X63365891Y-50027933D01*
X63356965Y-50034635D01*
X63202629Y-50196138D01*
X63199715Y-50200410D01*
X63199714Y-50200411D01*
X63190300Y-50214211D01*
X63076743Y-50380680D01*
X63061003Y-50414590D01*
X62998284Y-50549707D01*
X62982688Y-50583305D01*
X62922989Y-50798570D01*
X62899251Y-51020695D01*
X62899548Y-51025848D01*
X62899548Y-51025851D01*
X62905011Y-51120590D01*
X62912110Y-51243715D01*
X62913247Y-51248761D01*
X62913248Y-51248767D01*
X62933119Y-51336939D01*
X62961222Y-51461639D01*
X63045266Y-51668616D01*
X63047965Y-51673020D01*
X63151009Y-51841173D01*
X63161987Y-51859088D01*
X63308250Y-52027938D01*
X63480126Y-52170632D01*
X63533984Y-52202104D01*
X63553445Y-52213476D01*
X63602169Y-52265114D01*
X63615240Y-52334897D01*
X63588509Y-52400669D01*
X63548055Y-52434027D01*
X63535607Y-52440507D01*
X63531474Y-52443610D01*
X63531471Y-52443612D01*
X63439565Y-52512617D01*
X63356965Y-52574635D01*
X63202629Y-52736138D01*
X63076743Y-52920680D01*
X63061003Y-52954590D01*
X62998284Y-53089707D01*
X62982688Y-53123305D01*
X62922989Y-53338570D01*
X62899251Y-53560695D01*
X62899548Y-53565848D01*
X62899548Y-53565851D01*
X62905011Y-53660590D01*
X62912110Y-53783715D01*
X62913247Y-53788761D01*
X62913248Y-53788767D01*
X62928806Y-53857802D01*
X62961222Y-54001639D01*
X63045266Y-54208616D01*
X63161987Y-54399088D01*
X63308250Y-54567938D01*
X63480126Y-54710632D01*
X63496204Y-54720027D01*
X63553445Y-54753476D01*
X63602169Y-54805114D01*
X63615240Y-54874897D01*
X63588509Y-54940669D01*
X63548055Y-54974027D01*
X63535607Y-54980507D01*
X63531474Y-54983610D01*
X63531471Y-54983612D01*
X63361100Y-55111530D01*
X63356965Y-55114635D01*
X63353393Y-55118373D01*
X63250726Y-55225808D01*
X63202629Y-55276138D01*
X63076743Y-55460680D01*
X63029716Y-55561992D01*
X62998284Y-55629707D01*
X62982688Y-55663305D01*
X62922989Y-55878570D01*
X62899251Y-56100695D01*
X62899548Y-56105848D01*
X62899548Y-56105851D01*
X62905011Y-56200590D01*
X62912110Y-56323715D01*
X62913247Y-56328761D01*
X62913248Y-56328767D01*
X62933119Y-56416939D01*
X62961222Y-56541639D01*
X63045266Y-56748616D01*
X63161987Y-56939088D01*
X63308250Y-57107938D01*
X63480126Y-57250632D01*
X63496204Y-57260027D01*
X63553445Y-57293476D01*
X63602169Y-57345114D01*
X63615240Y-57414897D01*
X63588509Y-57480669D01*
X63548055Y-57514027D01*
X63535607Y-57520507D01*
X63531474Y-57523610D01*
X63531471Y-57523612D01*
X63365891Y-57647933D01*
X63356965Y-57654635D01*
X63202629Y-57816138D01*
X63199715Y-57820410D01*
X63199714Y-57820411D01*
X63190300Y-57834211D01*
X63076743Y-58000680D01*
X63061003Y-58034590D01*
X62998284Y-58169707D01*
X62982688Y-58203305D01*
X62922989Y-58418570D01*
X62899251Y-58640695D01*
X62899548Y-58645848D01*
X62899548Y-58645851D01*
X62905011Y-58740590D01*
X62912110Y-58863715D01*
X62913247Y-58868761D01*
X62913248Y-58868767D01*
X62921955Y-58907402D01*
X62961222Y-59081639D01*
X63045266Y-59288616D01*
X63161987Y-59479088D01*
X63308250Y-59647938D01*
X63480126Y-59790632D01*
X63535026Y-59822713D01*
X63553445Y-59833476D01*
X63602169Y-59885114D01*
X63615240Y-59954897D01*
X63588509Y-60020669D01*
X63548055Y-60054027D01*
X63535607Y-60060507D01*
X63531474Y-60063610D01*
X63531471Y-60063612D01*
X63361100Y-60191530D01*
X63356965Y-60194635D01*
X63202629Y-60356138D01*
X63076743Y-60540680D01*
X62982688Y-60743305D01*
X62922989Y-60958570D01*
X62899251Y-61180695D01*
X62899548Y-61185848D01*
X62899548Y-61185851D01*
X62905011Y-61280590D01*
X62912110Y-61403715D01*
X62913247Y-61408761D01*
X62913248Y-61408767D01*
X62920795Y-61442255D01*
X62961222Y-61621639D01*
X63045266Y-61828616D01*
X63073762Y-61875117D01*
X63149444Y-61998619D01*
X63161987Y-62019088D01*
X63308250Y-62187938D01*
X63480126Y-62330632D01*
X63487892Y-62335170D01*
X63553445Y-62373476D01*
X63602169Y-62425114D01*
X63615240Y-62494897D01*
X63588509Y-62560669D01*
X63548055Y-62594027D01*
X63535607Y-62600507D01*
X63531474Y-62603610D01*
X63531471Y-62603612D01*
X63421232Y-62686382D01*
X63356965Y-62734635D01*
X63202629Y-62896138D01*
X63199715Y-62900410D01*
X63199714Y-62900411D01*
X63156881Y-62963202D01*
X63076743Y-63080680D01*
X63061003Y-63114590D01*
X62998284Y-63249707D01*
X62982688Y-63283305D01*
X62922989Y-63498570D01*
X62899251Y-63720695D01*
X62899548Y-63725848D01*
X62899548Y-63725851D01*
X62905011Y-63820590D01*
X62912110Y-63943715D01*
X62913247Y-63948761D01*
X62913248Y-63948767D01*
X62924444Y-63998444D01*
X62961222Y-64161639D01*
X63045266Y-64368616D01*
X63161987Y-64559088D01*
X63308250Y-64727938D01*
X63480126Y-64870632D01*
X63525862Y-64897358D01*
X63553445Y-64913476D01*
X63602169Y-64965114D01*
X63615240Y-65034897D01*
X63588509Y-65100669D01*
X63548055Y-65134027D01*
X63535607Y-65140507D01*
X63531474Y-65143610D01*
X63531471Y-65143612D01*
X63363042Y-65270072D01*
X63356965Y-65274635D01*
X63202629Y-65436138D01*
X63076743Y-65620680D01*
X62982688Y-65823305D01*
X62922989Y-66038570D01*
X62899251Y-66260695D01*
X62899548Y-66265848D01*
X62899548Y-66265851D01*
X62903421Y-66333023D01*
X62912110Y-66483715D01*
X62913247Y-66488761D01*
X62913248Y-66488767D01*
X62926249Y-66546453D01*
X62961222Y-66701639D01*
X63017684Y-66840689D01*
X63038662Y-66892351D01*
X63045266Y-66908616D01*
X63064816Y-66940518D01*
X63155110Y-67087865D01*
X63161987Y-67099088D01*
X63308250Y-67267938D01*
X63480126Y-67410632D01*
X63496204Y-67420027D01*
X63553955Y-67453774D01*
X63602679Y-67505412D01*
X63615750Y-67575195D01*
X63589019Y-67640967D01*
X63548562Y-67674327D01*
X63540460Y-67678544D01*
X63531734Y-67684039D01*
X63511677Y-67699099D01*
X63503223Y-67710427D01*
X63509968Y-67722758D01*
X64249188Y-68461978D01*
X64263132Y-68469592D01*
X64264965Y-68469461D01*
X64271580Y-68465210D01*
X65015389Y-67721401D01*
X65022410Y-67708544D01*
X65015611Y-67699213D01*
X65011559Y-67696521D01*
X64974602Y-67676120D01*
X64924631Y-67625687D01*
X64909859Y-67556245D01*
X64934975Y-67489839D01*
X64962327Y-67463232D01*
X64991947Y-67442104D01*
X65141860Y-67335173D01*
X65153718Y-67323357D01*
X65285226Y-67192307D01*
X65300096Y-67177489D01*
X65308710Y-67165502D01*
X65427435Y-67000277D01*
X65430453Y-66996077D01*
X65432746Y-66991437D01*
X65434446Y-66988608D01*
X65486674Y-66940518D01*
X65542451Y-66927500D01*
X77507233Y-66927500D01*
X77518416Y-66928027D01*
X77525909Y-66929702D01*
X77533835Y-66929453D01*
X77533836Y-66929453D01*
X77593986Y-66927562D01*
X77597945Y-66927500D01*
X77625856Y-66927500D01*
X77629791Y-66927003D01*
X77629856Y-66926995D01*
X77641693Y-66926062D01*
X77673951Y-66925048D01*
X77677970Y-66924922D01*
X77685889Y-66924673D01*
X77705343Y-66919021D01*
X77724700Y-66915013D01*
X77736930Y-66913468D01*
X77736931Y-66913468D01*
X77744797Y-66912474D01*
X77752168Y-66909555D01*
X77752170Y-66909555D01*
X77785912Y-66896196D01*
X77797142Y-66892351D01*
X77831983Y-66882229D01*
X77831984Y-66882229D01*
X77839593Y-66880018D01*
X77846412Y-66875985D01*
X77846417Y-66875983D01*
X77857028Y-66869707D01*
X77874776Y-66861012D01*
X77893617Y-66853552D01*
X77929387Y-66827564D01*
X77939307Y-66821048D01*
X77970535Y-66802580D01*
X77970538Y-66802578D01*
X77977362Y-66798542D01*
X77991683Y-66784221D01*
X78006717Y-66771380D01*
X78016694Y-66764131D01*
X78023107Y-66759472D01*
X78051298Y-66725395D01*
X78059288Y-66716616D01*
X78805019Y-65970885D01*
X78867331Y-65936859D01*
X78938146Y-65941924D01*
X78994982Y-65984471D01*
X79019905Y-66052727D01*
X79030110Y-66229715D01*
X79031247Y-66234761D01*
X79031248Y-66234767D01*
X79044597Y-66294000D01*
X79079222Y-66447639D01*
X79163266Y-66654616D01*
X79201260Y-66716616D01*
X79255397Y-66804960D01*
X79279987Y-66845088D01*
X79426250Y-67013938D01*
X79598126Y-67156632D01*
X79648202Y-67185894D01*
X79671445Y-67199476D01*
X79720169Y-67251114D01*
X79733240Y-67320897D01*
X79706509Y-67386669D01*
X79666055Y-67420027D01*
X79653607Y-67426507D01*
X79649474Y-67429610D01*
X79649471Y-67429612D01*
X79479100Y-67557530D01*
X79474965Y-67560635D01*
X79471393Y-67564373D01*
X79342646Y-67699099D01*
X79320629Y-67722138D01*
X79194743Y-67906680D01*
X79164981Y-67970798D01*
X79111879Y-68085197D01*
X79100688Y-68109305D01*
X79040989Y-68324570D01*
X79017251Y-68546695D01*
X79017548Y-68551848D01*
X79017548Y-68551851D01*
X79023011Y-68646590D01*
X79030110Y-68769715D01*
X79031247Y-68774761D01*
X79031248Y-68774767D01*
X79051119Y-68862939D01*
X79079222Y-68987639D01*
X79163266Y-69194616D01*
X79279987Y-69385088D01*
X79426250Y-69553938D01*
X79598126Y-69696632D01*
X79656315Y-69730635D01*
X79671445Y-69739476D01*
X79720169Y-69791114D01*
X79733240Y-69860897D01*
X79706509Y-69926669D01*
X79666055Y-69960027D01*
X79653607Y-69966507D01*
X79649474Y-69969610D01*
X79649471Y-69969612D01*
X79528112Y-70060731D01*
X79474965Y-70100635D01*
X79320629Y-70262138D01*
X79194743Y-70446680D01*
X79100688Y-70649305D01*
X79040989Y-70864570D01*
X79017251Y-71086695D01*
X79017548Y-71091848D01*
X79017548Y-71091851D01*
X79025330Y-71226821D01*
X79030110Y-71309715D01*
X79031247Y-71314761D01*
X79031248Y-71314767D01*
X79051119Y-71402939D01*
X79079222Y-71527639D01*
X79163266Y-71734616D01*
X79165965Y-71739020D01*
X79275093Y-71917101D01*
X79279987Y-71925088D01*
X79426250Y-72093938D01*
X79598126Y-72236632D01*
X79668595Y-72277811D01*
X79671445Y-72279476D01*
X79720169Y-72331114D01*
X79733240Y-72400897D01*
X79706509Y-72466669D01*
X79666055Y-72500027D01*
X79653607Y-72506507D01*
X79649474Y-72509610D01*
X79649471Y-72509612D01*
X79625247Y-72527800D01*
X79474965Y-72640635D01*
X79320629Y-72802138D01*
X79317715Y-72806410D01*
X79317714Y-72806411D01*
X79247529Y-72909299D01*
X79194743Y-72986680D01*
X79158698Y-73064333D01*
X79128272Y-73129881D01*
X79100688Y-73189305D01*
X79040989Y-73404570D01*
X79017251Y-73626695D01*
X79017548Y-73631848D01*
X79017548Y-73631851D01*
X79023011Y-73726590D01*
X79030110Y-73849715D01*
X79031247Y-73854761D01*
X79031248Y-73854767D01*
X79032052Y-73858334D01*
X79079222Y-74067639D01*
X79163266Y-74274616D01*
X79214019Y-74357438D01*
X79250228Y-74416525D01*
X79279987Y-74465088D01*
X79426250Y-74633938D01*
X79598126Y-74776632D01*
X79668595Y-74817811D01*
X79671445Y-74819476D01*
X79720169Y-74871114D01*
X79733240Y-74940897D01*
X79706509Y-75006669D01*
X79666055Y-75040027D01*
X79653607Y-75046507D01*
X79649474Y-75049610D01*
X79649471Y-75049612D01*
X79479100Y-75177530D01*
X79474965Y-75180635D01*
X79320629Y-75342138D01*
X79194743Y-75526680D01*
X79179498Y-75559523D01*
X79106854Y-75716022D01*
X79100688Y-75729305D01*
X79040989Y-75944570D01*
X79017251Y-76166695D01*
X79017548Y-76171848D01*
X79017548Y-76171851D01*
X79023011Y-76266590D01*
X79030110Y-76389715D01*
X79031247Y-76394761D01*
X79031248Y-76394767D01*
X79051119Y-76482939D01*
X79079222Y-76607639D01*
X79163266Y-76814616D01*
X79279987Y-77005088D01*
X79426250Y-77173938D01*
X79598126Y-77316632D01*
X79668595Y-77357811D01*
X79671445Y-77359476D01*
X79720169Y-77411114D01*
X79733240Y-77480897D01*
X79706509Y-77546669D01*
X79666055Y-77580027D01*
X79653607Y-77586507D01*
X79649474Y-77589610D01*
X79649471Y-77589612D01*
X79625247Y-77607800D01*
X79474965Y-77720635D01*
X79320629Y-77882138D01*
X79194743Y-78066680D01*
X79158017Y-78145800D01*
X79106441Y-78256912D01*
X79100688Y-78269305D01*
X79040989Y-78484570D01*
X79040440Y-78489706D01*
X79040438Y-78489717D01*
X79038773Y-78505296D01*
X79011645Y-78570905D01*
X78953352Y-78611432D01*
X78882402Y-78614010D01*
X78824392Y-78581000D01*
X70137634Y-69894242D01*
X70136706Y-69893305D01*
X70078557Y-69833925D01*
X70078556Y-69833924D01*
X70073629Y-69828893D01*
X70037179Y-69805402D01*
X70026854Y-69797983D01*
X69992957Y-69770924D01*
X69962762Y-69756327D01*
X69949345Y-69748798D01*
X69934880Y-69739476D01*
X69921162Y-69730635D01*
X69914545Y-69728227D01*
X69914540Y-69728224D01*
X69880427Y-69715808D01*
X69868684Y-69710847D01*
X69835997Y-69695046D01*
X69835992Y-69695044D01*
X69829651Y-69691979D01*
X69822793Y-69690396D01*
X69822791Y-69690395D01*
X69796974Y-69684435D01*
X69782231Y-69680068D01*
X69750715Y-69668597D01*
X69743725Y-69667714D01*
X69743717Y-69667712D01*
X69707699Y-69663162D01*
X69695147Y-69660926D01*
X69659786Y-69652762D01*
X69659783Y-69652762D01*
X69652915Y-69651176D01*
X69645869Y-69651151D01*
X69645866Y-69651151D01*
X69612344Y-69651034D01*
X69611462Y-69651005D01*
X69610631Y-69650900D01*
X69573981Y-69650900D01*
X69573541Y-69650899D01*
X69475057Y-69650555D01*
X69475052Y-69650555D01*
X69471530Y-69650543D01*
X69470330Y-69650811D01*
X69468693Y-69650900D01*
X65575967Y-69650900D01*
X65507846Y-69630898D01*
X65461353Y-69577242D01*
X65451249Y-69506968D01*
X65463010Y-69469073D01*
X65526670Y-69340267D01*
X65530469Y-69330672D01*
X65592376Y-69126915D01*
X65594555Y-69116834D01*
X65622590Y-68903887D01*
X65623109Y-68897212D01*
X65624572Y-68837364D01*
X65624378Y-68830646D01*
X65606781Y-68616604D01*
X65605096Y-68606424D01*
X65553214Y-68399875D01*
X65549894Y-68390124D01*
X65464972Y-68194814D01*
X65460105Y-68185739D01*
X65395063Y-68085197D01*
X65384377Y-68075995D01*
X65374812Y-68080398D01*
X64351095Y-69104115D01*
X64288783Y-69138141D01*
X64217968Y-69133076D01*
X64172905Y-69104115D01*
X63151849Y-68083059D01*
X63140313Y-68076759D01*
X63128031Y-68086382D01*
X63080089Y-68156662D01*
X63075004Y-68165613D01*
X62985338Y-68358783D01*
X62981775Y-68368470D01*
X62924864Y-68573681D01*
X62922933Y-68583800D01*
X62900302Y-68795574D01*
X62900050Y-68805863D01*
X62912309Y-69018477D01*
X62913745Y-69028697D01*
X62960565Y-69236446D01*
X62963645Y-69246275D01*
X63043770Y-69443603D01*
X63048416Y-69452800D01*
X63052254Y-69459063D01*
X63070794Y-69527596D01*
X63049339Y-69595273D01*
X62994701Y-69640607D01*
X62944823Y-69650900D01*
X53574482Y-69650900D01*
X53506361Y-69630898D01*
X53485387Y-69613995D01*
X47869836Y-63998444D01*
X47835810Y-63936132D01*
X47834009Y-63892903D01*
X47843092Y-63823911D01*
X47843092Y-63823907D01*
X47843529Y-63820590D01*
X47845156Y-63754000D01*
X47826852Y-63531361D01*
X47772431Y-63314702D01*
X47683354Y-63109840D01*
X47562014Y-62922277D01*
X47411670Y-62757051D01*
X47407619Y-62753852D01*
X47407615Y-62753848D01*
X47240414Y-62621800D01*
X47240410Y-62621798D01*
X47236359Y-62618598D01*
X47195053Y-62595796D01*
X47145084Y-62545364D01*
X47130312Y-62475921D01*
X47155428Y-62409516D01*
X47182780Y-62382909D01*
X47226603Y-62351650D01*
X47361860Y-62255173D01*
X47380042Y-62237055D01*
X47476033Y-62141398D01*
X47520096Y-62097489D01*
X47529862Y-62083899D01*
X47647435Y-61920277D01*
X47650453Y-61916077D01*
X47655858Y-61905142D01*
X47747136Y-61720453D01*
X47747137Y-61720451D01*
X47749430Y-61715811D01*
X47790381Y-61581027D01*
X47812865Y-61507023D01*
X47812865Y-61507021D01*
X47814370Y-61502069D01*
X47843529Y-61280590D01*
X47845156Y-61214000D01*
X47826852Y-60991361D01*
X47772431Y-60774702D01*
X47683354Y-60569840D01*
X47562014Y-60382277D01*
X47411670Y-60217051D01*
X47407619Y-60213852D01*
X47407615Y-60213848D01*
X47240414Y-60081800D01*
X47240410Y-60081798D01*
X47236359Y-60078598D01*
X47195053Y-60055796D01*
X47145084Y-60005364D01*
X47130312Y-59935921D01*
X47155428Y-59869516D01*
X47182780Y-59842909D01*
X47242898Y-59800027D01*
X47361860Y-59715173D01*
X47373718Y-59703357D01*
X47516435Y-59561137D01*
X47520096Y-59557489D01*
X47551498Y-59513789D01*
X47647435Y-59380277D01*
X47650453Y-59376077D01*
X47670628Y-59335257D01*
X47747136Y-59180453D01*
X47747137Y-59180451D01*
X47749430Y-59175811D01*
X47790990Y-59039020D01*
X47812865Y-58967023D01*
X47812865Y-58967021D01*
X47814370Y-58962069D01*
X47843529Y-58740590D01*
X47843611Y-58737240D01*
X47845074Y-58677365D01*
X47845074Y-58677361D01*
X47845156Y-58674000D01*
X47826852Y-58451361D01*
X47772431Y-58234702D01*
X47683354Y-58029840D01*
X47562014Y-57842277D01*
X47411670Y-57677051D01*
X47407619Y-57673852D01*
X47407615Y-57673848D01*
X47240414Y-57541800D01*
X47240410Y-57541798D01*
X47236359Y-57538598D01*
X47195053Y-57515796D01*
X47145084Y-57465364D01*
X47130312Y-57395921D01*
X47155428Y-57329516D01*
X47182780Y-57302909D01*
X47242898Y-57260027D01*
X47361860Y-57175173D01*
X47373718Y-57163357D01*
X47516435Y-57021137D01*
X47520096Y-57017489D01*
X47579594Y-56934689D01*
X47647435Y-56840277D01*
X47650453Y-56836077D01*
X47723148Y-56688990D01*
X47747136Y-56640453D01*
X47747137Y-56640451D01*
X47749430Y-56635811D01*
X47790990Y-56499020D01*
X47812865Y-56427023D01*
X47812865Y-56427021D01*
X47814370Y-56422069D01*
X47843529Y-56200590D01*
X47844105Y-56177019D01*
X47845074Y-56137365D01*
X47845074Y-56137361D01*
X47845156Y-56134000D01*
X47826852Y-55911361D01*
X47772431Y-55694702D01*
X47683354Y-55489840D01*
X47628216Y-55404610D01*
X47564822Y-55306617D01*
X47564820Y-55306614D01*
X47562014Y-55302277D01*
X47411670Y-55137051D01*
X47407619Y-55133852D01*
X47407615Y-55133848D01*
X47240414Y-55001800D01*
X47240410Y-55001798D01*
X47236359Y-54998598D01*
X47195053Y-54975796D01*
X47145084Y-54925364D01*
X47130312Y-54855921D01*
X47155428Y-54789516D01*
X47182780Y-54762909D01*
X47242898Y-54720027D01*
X47361860Y-54635173D01*
X47373718Y-54623357D01*
X47516435Y-54481137D01*
X47520096Y-54477489D01*
X47564632Y-54415511D01*
X47647435Y-54300277D01*
X47650453Y-54296077D01*
X47670763Y-54254984D01*
X47747136Y-54100453D01*
X47747137Y-54100451D01*
X47749430Y-54095811D01*
X47790990Y-53959020D01*
X47812865Y-53887023D01*
X47812865Y-53887021D01*
X47814370Y-53882069D01*
X47843529Y-53660590D01*
X47844227Y-53632039D01*
X47845074Y-53597365D01*
X47845074Y-53597361D01*
X47845156Y-53594000D01*
X47826852Y-53371361D01*
X47772431Y-53154702D01*
X47683354Y-52949840D01*
X47605618Y-52829679D01*
X47564822Y-52766617D01*
X47564820Y-52766614D01*
X47562014Y-52762277D01*
X47411670Y-52597051D01*
X47407619Y-52593852D01*
X47407615Y-52593848D01*
X47240414Y-52461800D01*
X47240410Y-52461798D01*
X47236359Y-52458598D01*
X47194569Y-52435529D01*
X47144598Y-52385097D01*
X47129826Y-52315654D01*
X47154942Y-52249248D01*
X47182293Y-52222642D01*
X47231247Y-52187723D01*
X47239648Y-52177023D01*
X47232660Y-52163870D01*
X46494812Y-51426022D01*
X46480868Y-51418408D01*
X46479035Y-51418539D01*
X46472420Y-51422790D01*
X45728737Y-52166473D01*
X45721977Y-52178853D01*
X45727258Y-52185907D01*
X45773969Y-52213203D01*
X45822693Y-52264841D01*
X45835764Y-52334624D01*
X45809033Y-52400396D01*
X45768584Y-52433752D01*
X45755607Y-52440507D01*
X45751474Y-52443610D01*
X45751471Y-52443612D01*
X45659565Y-52512617D01*
X45576965Y-52574635D01*
X45422629Y-52736138D01*
X45296743Y-52920680D01*
X45281003Y-52954590D01*
X45218284Y-53089707D01*
X45202688Y-53123305D01*
X45142989Y-53338570D01*
X45119251Y-53560695D01*
X45119548Y-53565848D01*
X45119548Y-53565851D01*
X45125011Y-53660590D01*
X45132110Y-53783715D01*
X45133247Y-53788761D01*
X45133248Y-53788767D01*
X45148806Y-53857802D01*
X45181222Y-54001639D01*
X45265266Y-54208616D01*
X45381987Y-54399088D01*
X45528250Y-54567938D01*
X45700126Y-54710632D01*
X45716204Y-54720027D01*
X45773445Y-54753476D01*
X45822169Y-54805114D01*
X45835240Y-54874897D01*
X45808509Y-54940669D01*
X45768055Y-54974027D01*
X45755607Y-54980507D01*
X45751474Y-54983610D01*
X45751471Y-54983612D01*
X45581100Y-55111530D01*
X45576965Y-55114635D01*
X45573393Y-55118373D01*
X45470726Y-55225808D01*
X45422629Y-55276138D01*
X45296743Y-55460680D01*
X45249716Y-55561992D01*
X45218284Y-55629707D01*
X45202688Y-55663305D01*
X45142989Y-55878570D01*
X45119251Y-56100695D01*
X45119548Y-56105848D01*
X45119548Y-56105851D01*
X45125011Y-56200590D01*
X45132110Y-56323715D01*
X45133247Y-56328761D01*
X45133248Y-56328767D01*
X45153119Y-56416939D01*
X45181222Y-56541639D01*
X45265266Y-56748616D01*
X45381987Y-56939088D01*
X45528250Y-57107938D01*
X45700126Y-57250632D01*
X45716204Y-57260027D01*
X45773445Y-57293476D01*
X45822169Y-57345114D01*
X45835240Y-57414897D01*
X45808509Y-57480669D01*
X45768055Y-57514027D01*
X45755607Y-57520507D01*
X45751474Y-57523610D01*
X45751471Y-57523612D01*
X45585891Y-57647933D01*
X45576965Y-57654635D01*
X45422629Y-57816138D01*
X45419715Y-57820410D01*
X45419714Y-57820411D01*
X45410300Y-57834211D01*
X45296743Y-58000680D01*
X45281003Y-58034590D01*
X45218284Y-58169707D01*
X45202688Y-58203305D01*
X45142989Y-58418570D01*
X45119251Y-58640695D01*
X45119548Y-58645848D01*
X45119548Y-58645851D01*
X45125011Y-58740590D01*
X45132110Y-58863715D01*
X45133247Y-58868761D01*
X45133248Y-58868767D01*
X45141955Y-58907402D01*
X45181222Y-59081639D01*
X45265266Y-59288616D01*
X45381987Y-59479088D01*
X45528250Y-59647938D01*
X45700126Y-59790632D01*
X45755026Y-59822713D01*
X45773445Y-59833476D01*
X45822169Y-59885114D01*
X45835240Y-59954897D01*
X45808509Y-60020669D01*
X45768055Y-60054027D01*
X45755607Y-60060507D01*
X45751474Y-60063610D01*
X45751471Y-60063612D01*
X45581100Y-60191530D01*
X45576965Y-60194635D01*
X45422629Y-60356138D01*
X45296743Y-60540680D01*
X45202688Y-60743305D01*
X45142989Y-60958570D01*
X45119251Y-61180695D01*
X45119548Y-61185848D01*
X45119548Y-61185851D01*
X45125011Y-61280590D01*
X45132110Y-61403715D01*
X45133247Y-61408761D01*
X45133248Y-61408767D01*
X45165453Y-61551668D01*
X45160917Y-61622520D01*
X45131631Y-61668464D01*
X44888547Y-61911548D01*
X44880261Y-61919088D01*
X44873782Y-61923200D01*
X44868357Y-61928977D01*
X44827157Y-61972851D01*
X44824402Y-61975693D01*
X44804665Y-61995430D01*
X44802185Y-61998627D01*
X44794482Y-62007647D01*
X44764214Y-62039879D01*
X44760395Y-62046825D01*
X44760393Y-62046828D01*
X44754452Y-62057634D01*
X44743601Y-62074153D01*
X44731186Y-62090159D01*
X44728041Y-62097428D01*
X44728038Y-62097432D01*
X44713626Y-62130737D01*
X44708409Y-62141387D01*
X44687105Y-62180140D01*
X44685134Y-62187815D01*
X44685134Y-62187816D01*
X44682067Y-62199762D01*
X44675663Y-62218466D01*
X44667619Y-62237055D01*
X44666380Y-62244878D01*
X44666377Y-62244888D01*
X44660701Y-62280724D01*
X44658295Y-62292344D01*
X44647300Y-62335170D01*
X44647300Y-62355424D01*
X44645749Y-62375134D01*
X44642580Y-62395143D01*
X44643326Y-62403035D01*
X44646741Y-62439161D01*
X44647300Y-62451019D01*
X44647300Y-66676433D01*
X44646773Y-66687616D01*
X44645098Y-66695109D01*
X44645347Y-66703035D01*
X44645347Y-66703036D01*
X44647238Y-66763186D01*
X44647300Y-66767145D01*
X44647300Y-66795056D01*
X44647797Y-66798990D01*
X44647797Y-66798991D01*
X44647805Y-66799056D01*
X44648738Y-66810893D01*
X44650127Y-66855089D01*
X44654374Y-66869707D01*
X44655778Y-66874539D01*
X44659787Y-66893900D01*
X44662326Y-66913997D01*
X44665245Y-66921368D01*
X44665245Y-66921370D01*
X44678604Y-66955112D01*
X44682449Y-66966342D01*
X44692308Y-67000277D01*
X44694782Y-67008793D01*
X44698815Y-67015612D01*
X44698817Y-67015617D01*
X44705093Y-67026228D01*
X44713788Y-67043976D01*
X44721248Y-67062817D01*
X44725910Y-67069233D01*
X44725910Y-67069234D01*
X44747236Y-67098587D01*
X44753752Y-67108507D01*
X44776258Y-67146562D01*
X44790579Y-67160883D01*
X44803419Y-67175916D01*
X44815328Y-67192307D01*
X44821433Y-67197358D01*
X44821438Y-67197363D01*
X44849404Y-67220499D01*
X44858182Y-67228487D01*
X45425056Y-67795361D01*
X45459082Y-67857673D01*
X45454017Y-67928488D01*
X45429163Y-67968141D01*
X45429457Y-67968379D01*
X45427498Y-67970798D01*
X45427052Y-67971509D01*
X45422629Y-67976138D01*
X45296743Y-68160680D01*
X45285111Y-68185739D01*
X45218284Y-68329707D01*
X45202688Y-68363305D01*
X45142989Y-68578570D01*
X45119251Y-68800695D01*
X45119548Y-68805848D01*
X45119548Y-68805851D01*
X45123421Y-68873023D01*
X45132110Y-69023715D01*
X45133247Y-69028761D01*
X45133248Y-69028767D01*
X45154275Y-69122069D01*
X45181222Y-69241639D01*
X45265266Y-69448616D01*
X45267965Y-69453020D01*
X45371009Y-69621173D01*
X45381987Y-69639088D01*
X45528250Y-69807938D01*
X45700126Y-69950632D01*
X45893000Y-70063338D01*
X46101692Y-70143030D01*
X46106760Y-70144061D01*
X46106763Y-70144062D01*
X46214017Y-70165883D01*
X46320597Y-70187567D01*
X46325772Y-70187757D01*
X46325774Y-70187757D01*
X46538673Y-70195564D01*
X46538677Y-70195564D01*
X46543837Y-70195753D01*
X46548957Y-70195097D01*
X46548959Y-70195097D01*
X46760288Y-70168025D01*
X46760289Y-70168025D01*
X46765416Y-70167368D01*
X46770366Y-70165883D01*
X46974429Y-70104661D01*
X46974434Y-70104659D01*
X46979384Y-70103174D01*
X47179994Y-70004896D01*
X47361860Y-69875173D01*
X47373718Y-69863357D01*
X47498032Y-69739476D01*
X47520096Y-69717489D01*
X47560741Y-69660926D01*
X47647435Y-69540277D01*
X47650453Y-69536077D01*
X47664840Y-69506968D01*
X47747136Y-69340453D01*
X47747137Y-69340451D01*
X47749430Y-69335811D01*
X47764148Y-69287369D01*
X47803087Y-69228007D01*
X47867940Y-69199119D01*
X47938117Y-69209880D01*
X47973800Y-69234904D01*
X51585443Y-72846547D01*
X51592987Y-72854837D01*
X51597100Y-72861318D01*
X51602877Y-72866743D01*
X51646767Y-72907958D01*
X51649609Y-72910713D01*
X51669331Y-72930435D01*
X51672455Y-72932858D01*
X51672459Y-72932862D01*
X51672524Y-72932912D01*
X51681545Y-72940617D01*
X51713779Y-72970886D01*
X51720727Y-72974705D01*
X51720729Y-72974707D01*
X51731532Y-72980646D01*
X51748059Y-72991502D01*
X51757798Y-72999057D01*
X51757800Y-72999058D01*
X51764060Y-73003914D01*
X51804640Y-73021474D01*
X51815288Y-73026691D01*
X51854040Y-73047995D01*
X51861716Y-73049966D01*
X51861719Y-73049967D01*
X51873662Y-73053033D01*
X51892367Y-73059437D01*
X51910955Y-73067481D01*
X51918778Y-73068720D01*
X51918788Y-73068723D01*
X51954624Y-73074399D01*
X51966244Y-73076805D01*
X52001389Y-73085828D01*
X52009070Y-73087800D01*
X52029324Y-73087800D01*
X52049034Y-73089351D01*
X52069043Y-73092520D01*
X52076935Y-73091774D01*
X52113061Y-73088359D01*
X52124919Y-73087800D01*
X53327386Y-73087800D01*
X53395507Y-73107802D01*
X53442000Y-73161458D01*
X53452104Y-73231732D01*
X53422610Y-73296312D01*
X53399657Y-73317013D01*
X53262533Y-73413028D01*
X53254125Y-73420084D01*
X53100084Y-73574125D01*
X53093028Y-73582533D01*
X52968069Y-73760993D01*
X52962586Y-73770489D01*
X52870510Y-73967947D01*
X52866764Y-73978239D01*
X52820606Y-74150503D01*
X52820942Y-74164599D01*
X52828884Y-74168000D01*
X54230000Y-74168000D01*
X54298121Y-74188002D01*
X54344614Y-74241658D01*
X54356000Y-74294000D01*
X54356000Y-75689967D01*
X54359973Y-75703498D01*
X54368522Y-75704727D01*
X54545761Y-75657236D01*
X54556053Y-75653490D01*
X54753511Y-75561414D01*
X54763007Y-75555931D01*
X54941467Y-75430972D01*
X54949875Y-75423916D01*
X55103916Y-75269875D01*
X55110972Y-75261467D01*
X55235931Y-75083007D01*
X55241414Y-75073511D01*
X55257529Y-75038951D01*
X55304446Y-74985666D01*
X55372723Y-74966205D01*
X55440683Y-74986747D01*
X55485919Y-75038951D01*
X55502151Y-75073762D01*
X55502154Y-75073767D01*
X55504477Y-75078749D01*
X55507634Y-75083257D01*
X55594189Y-75206870D01*
X55635802Y-75266300D01*
X55797700Y-75428198D01*
X55802208Y-75431355D01*
X55802211Y-75431357D01*
X55880389Y-75486098D01*
X55985251Y-75559523D01*
X55990233Y-75561846D01*
X55990238Y-75561849D01*
X56186765Y-75653490D01*
X56192757Y-75656284D01*
X56198065Y-75657706D01*
X56198067Y-75657707D01*
X56408598Y-75714119D01*
X56408600Y-75714119D01*
X56413913Y-75715543D01*
X56642000Y-75735498D01*
X56870087Y-75715543D01*
X56875400Y-75714119D01*
X56875402Y-75714119D01*
X57085933Y-75657707D01*
X57085935Y-75657706D01*
X57091243Y-75656284D01*
X57097235Y-75653490D01*
X57293762Y-75561849D01*
X57293767Y-75561846D01*
X57298749Y-75559523D01*
X57403611Y-75486098D01*
X57481789Y-75431357D01*
X57481792Y-75431355D01*
X57486300Y-75428198D01*
X57648198Y-75266300D01*
X57689812Y-75206870D01*
X57776366Y-75083257D01*
X57779523Y-75078749D01*
X57781846Y-75073767D01*
X57781849Y-75073762D01*
X57873961Y-74876225D01*
X57873961Y-74876224D01*
X57876284Y-74871243D01*
X57887628Y-74828909D01*
X57925245Y-74688522D01*
X62979273Y-74688522D01*
X63026764Y-74865761D01*
X63030510Y-74876053D01*
X63122586Y-75073511D01*
X63128069Y-75083007D01*
X63253028Y-75261467D01*
X63260084Y-75269875D01*
X63414125Y-75423916D01*
X63422533Y-75430972D01*
X63600993Y-75555931D01*
X63610489Y-75561414D01*
X63807947Y-75653490D01*
X63818239Y-75657236D01*
X63990503Y-75703394D01*
X64004599Y-75703058D01*
X64008000Y-75695116D01*
X64008000Y-75689967D01*
X64516000Y-75689967D01*
X64519973Y-75703498D01*
X64528522Y-75704727D01*
X64705761Y-75657236D01*
X64716053Y-75653490D01*
X64913511Y-75561414D01*
X64923007Y-75555931D01*
X65101467Y-75430972D01*
X65109875Y-75423916D01*
X65263916Y-75269875D01*
X65270972Y-75261467D01*
X65395931Y-75083007D01*
X65401414Y-75073511D01*
X65493490Y-74876053D01*
X65497236Y-74865761D01*
X65543394Y-74693497D01*
X65543058Y-74679401D01*
X65535116Y-74676000D01*
X64534115Y-74676000D01*
X64518876Y-74680475D01*
X64517671Y-74681865D01*
X64516000Y-74689548D01*
X64516000Y-75689967D01*
X64008000Y-75689967D01*
X64008000Y-74694115D01*
X64003525Y-74678876D01*
X64002135Y-74677671D01*
X63994452Y-74676000D01*
X62994033Y-74676000D01*
X62980502Y-74679973D01*
X62979273Y-74688522D01*
X57925245Y-74688522D01*
X57934119Y-74655402D01*
X57934119Y-74655400D01*
X57935543Y-74650087D01*
X57955498Y-74422000D01*
X57935543Y-74193913D01*
X57901708Y-74067639D01*
X57877707Y-73978067D01*
X57877706Y-73978065D01*
X57876284Y-73972757D01*
X57781966Y-73770489D01*
X57781849Y-73770238D01*
X57781846Y-73770233D01*
X57779523Y-73765251D01*
X57648198Y-73577700D01*
X57486300Y-73415802D01*
X57481792Y-73412645D01*
X57481789Y-73412643D01*
X57345215Y-73317013D01*
X57300887Y-73261556D01*
X57293578Y-73190936D01*
X57325609Y-73127576D01*
X57386810Y-73091591D01*
X57417486Y-73087800D01*
X63487386Y-73087800D01*
X63555507Y-73107802D01*
X63602000Y-73161458D01*
X63612104Y-73231732D01*
X63582610Y-73296312D01*
X63559657Y-73317013D01*
X63422533Y-73413028D01*
X63414125Y-73420084D01*
X63260084Y-73574125D01*
X63253028Y-73582533D01*
X63128069Y-73760993D01*
X63122586Y-73770489D01*
X63030510Y-73967947D01*
X63026764Y-73978239D01*
X62980606Y-74150503D01*
X62980942Y-74164599D01*
X62988884Y-74168000D01*
X65529967Y-74168000D01*
X65543498Y-74164027D01*
X65544727Y-74155478D01*
X65497236Y-73978239D01*
X65493490Y-73967947D01*
X65401414Y-73770489D01*
X65395931Y-73760993D01*
X65270972Y-73582533D01*
X65263916Y-73574125D01*
X65109875Y-73420084D01*
X65101467Y-73413028D01*
X64964343Y-73317013D01*
X64920015Y-73261556D01*
X64912706Y-73190937D01*
X64944737Y-73127576D01*
X65005938Y-73091591D01*
X65036614Y-73087800D01*
X65419806Y-73087800D01*
X65487927Y-73107802D01*
X65508901Y-73124705D01*
X70312601Y-77928405D01*
X70346627Y-77990717D01*
X70341562Y-78061532D01*
X70299015Y-78118368D01*
X70232495Y-78143179D01*
X70223506Y-78143500D01*
X69708866Y-78143500D01*
X69646684Y-78150255D01*
X69510295Y-78201385D01*
X69393739Y-78288739D01*
X69306385Y-78405295D01*
X69255255Y-78541684D01*
X69248500Y-78603866D01*
X69248500Y-78803835D01*
X69228498Y-78871956D01*
X69177621Y-78915157D01*
X69178108Y-78915980D01*
X69173310Y-78918817D01*
X69173307Y-78918820D01*
X69169497Y-78921073D01*
X69160666Y-78926295D01*
X69142913Y-78934992D01*
X69135268Y-78938019D01*
X69124083Y-78942448D01*
X69117668Y-78947109D01*
X69088312Y-78968437D01*
X69078395Y-78974951D01*
X69040338Y-78997458D01*
X69026014Y-79011782D01*
X69010987Y-79024617D01*
X68994593Y-79036528D01*
X68989540Y-79042636D01*
X68989538Y-79042638D01*
X68971192Y-79064815D01*
X68912358Y-79104554D01*
X68874107Y-79110500D01*
X64114500Y-79110500D01*
X64046379Y-79090498D01*
X63999886Y-79036842D01*
X63988500Y-78984500D01*
X63988500Y-78933866D01*
X63981745Y-78871684D01*
X63930615Y-78735295D01*
X63843261Y-78618739D01*
X63726705Y-78531385D01*
X63590316Y-78480255D01*
X63528134Y-78473500D01*
X61907866Y-78473500D01*
X61845684Y-78480255D01*
X61709295Y-78531385D01*
X61592739Y-78618739D01*
X61505385Y-78735295D01*
X61454255Y-78871684D01*
X61447500Y-78933866D01*
X61447500Y-78942364D01*
X61427498Y-79010485D01*
X61373842Y-79056978D01*
X61303568Y-79067082D01*
X61238988Y-79037588D01*
X61218287Y-79014635D01*
X61158136Y-78928730D01*
X61158134Y-78928727D01*
X61154977Y-78924219D01*
X60997781Y-78767023D01*
X60993273Y-78763866D01*
X60993270Y-78763864D01*
X60911624Y-78706695D01*
X60815677Y-78639512D01*
X60810695Y-78637189D01*
X60810690Y-78637186D01*
X60619178Y-78547883D01*
X60619177Y-78547882D01*
X60614196Y-78545560D01*
X60608888Y-78544138D01*
X60608886Y-78544137D01*
X60528218Y-78522522D01*
X60399463Y-78488022D01*
X60178000Y-78468647D01*
X59956537Y-78488022D01*
X59827782Y-78522522D01*
X59747114Y-78544137D01*
X59747112Y-78544138D01*
X59741804Y-78545560D01*
X59736823Y-78547882D01*
X59736822Y-78547883D01*
X59545311Y-78637186D01*
X59545306Y-78637189D01*
X59540324Y-78639512D01*
X59535817Y-78642668D01*
X59535815Y-78642669D01*
X59362730Y-78763864D01*
X59362727Y-78763866D01*
X59358219Y-78767023D01*
X59201023Y-78924219D01*
X59197866Y-78928727D01*
X59197864Y-78928730D01*
X59104056Y-79062702D01*
X59073512Y-79106324D01*
X59071189Y-79111306D01*
X59071186Y-79111311D01*
X59022195Y-79216373D01*
X58975277Y-79269658D01*
X58907000Y-79289119D01*
X58839040Y-79268577D01*
X58793805Y-79216373D01*
X58744814Y-79111311D01*
X58744811Y-79111306D01*
X58742488Y-79106324D01*
X58711944Y-79062702D01*
X58618136Y-78928730D01*
X58618134Y-78928727D01*
X58614977Y-78924219D01*
X58457781Y-78767023D01*
X58453273Y-78763866D01*
X58453270Y-78763864D01*
X58371624Y-78706695D01*
X58275677Y-78639512D01*
X58270695Y-78637189D01*
X58270690Y-78637186D01*
X58079178Y-78547883D01*
X58079177Y-78547882D01*
X58074196Y-78545560D01*
X58068888Y-78544138D01*
X58068886Y-78544137D01*
X57988218Y-78522522D01*
X57859463Y-78488022D01*
X57638000Y-78468647D01*
X57416537Y-78488022D01*
X57287782Y-78522522D01*
X57207114Y-78544137D01*
X57207112Y-78544138D01*
X57201804Y-78545560D01*
X57196823Y-78547882D01*
X57196822Y-78547883D01*
X57005311Y-78637186D01*
X57005306Y-78637189D01*
X57000324Y-78639512D01*
X56995817Y-78642668D01*
X56995815Y-78642669D01*
X56822730Y-78763864D01*
X56822727Y-78763866D01*
X56818219Y-78767023D01*
X56661023Y-78924219D01*
X56657866Y-78928727D01*
X56657864Y-78928730D01*
X56564056Y-79062702D01*
X56533512Y-79106324D01*
X56531189Y-79111306D01*
X56531186Y-79111311D01*
X56481919Y-79216965D01*
X56435001Y-79270250D01*
X56366724Y-79289711D01*
X56298764Y-79269169D01*
X56253529Y-79216965D01*
X56204377Y-79111559D01*
X56198897Y-79102068D01*
X56168206Y-79058235D01*
X56157729Y-79049860D01*
X56144282Y-79056928D01*
X55470022Y-79731188D01*
X55462408Y-79745132D01*
X55462539Y-79746965D01*
X55466790Y-79753580D01*
X56145003Y-80431793D01*
X56156777Y-80438223D01*
X56168793Y-80428926D01*
X56198897Y-80385932D01*
X56204377Y-80376441D01*
X56253529Y-80271035D01*
X56300447Y-80217750D01*
X56368724Y-80198289D01*
X56436684Y-80218831D01*
X56481919Y-80271035D01*
X56531186Y-80376689D01*
X56531189Y-80376694D01*
X56533512Y-80381676D01*
X56536668Y-80386183D01*
X56536669Y-80386185D01*
X56656647Y-80557531D01*
X56661023Y-80563781D01*
X56818219Y-80720977D01*
X56822727Y-80724134D01*
X56822730Y-80724136D01*
X56891260Y-80772121D01*
X57000323Y-80848488D01*
X57005305Y-80850811D01*
X57005310Y-80850814D01*
X57195810Y-80939645D01*
X57201804Y-80942440D01*
X57207112Y-80943862D01*
X57207114Y-80943863D01*
X57254705Y-80956615D01*
X57416537Y-80999978D01*
X57638000Y-81019353D01*
X57859463Y-80999978D01*
X57875642Y-80995643D01*
X57898516Y-80989514D01*
X57969493Y-80991204D01*
X58020222Y-81022126D01*
X62877309Y-85879213D01*
X62911335Y-85941525D01*
X62906270Y-86012340D01*
X62863723Y-86069176D01*
X62797203Y-86093987D01*
X62777233Y-86093829D01*
X62723475Y-86089126D01*
X62718000Y-86088647D01*
X62496537Y-86108022D01*
X62352949Y-86146497D01*
X62287114Y-86164137D01*
X62287112Y-86164138D01*
X62281804Y-86165560D01*
X62276823Y-86167882D01*
X62276822Y-86167883D01*
X62085311Y-86257186D01*
X62085306Y-86257189D01*
X62080324Y-86259512D01*
X62075817Y-86262668D01*
X62075815Y-86262669D01*
X61902730Y-86383864D01*
X61902727Y-86383866D01*
X61898219Y-86387023D01*
X61741023Y-86544219D01*
X61737866Y-86548727D01*
X61737864Y-86548730D01*
X61616669Y-86721815D01*
X61613512Y-86726324D01*
X61611189Y-86731306D01*
X61611186Y-86731311D01*
X61547587Y-86867700D01*
X61519560Y-86927804D01*
X61462022Y-87142537D01*
X61442647Y-87364000D01*
X61462022Y-87585463D01*
X61519560Y-87800196D01*
X61521882Y-87805177D01*
X61521883Y-87805178D01*
X61611186Y-87996689D01*
X61611189Y-87996694D01*
X61613512Y-88001676D01*
X61616668Y-88006183D01*
X61616669Y-88006185D01*
X61736647Y-88177531D01*
X61741023Y-88183781D01*
X61898219Y-88340977D01*
X61902727Y-88344134D01*
X61902730Y-88344136D01*
X61931523Y-88364297D01*
X62080323Y-88468488D01*
X62085305Y-88470811D01*
X62085310Y-88470814D01*
X62190373Y-88519805D01*
X62243658Y-88566722D01*
X62263119Y-88634999D01*
X62242577Y-88702959D01*
X62190373Y-88748195D01*
X62085311Y-88797186D01*
X62085306Y-88797189D01*
X62080324Y-88799512D01*
X62075817Y-88802668D01*
X62075815Y-88802669D01*
X61902730Y-88923864D01*
X61902727Y-88923866D01*
X61898219Y-88927023D01*
X61741023Y-89084219D01*
X61737866Y-89088727D01*
X61737864Y-89088730D01*
X61616669Y-89261815D01*
X61613512Y-89266324D01*
X61611189Y-89271306D01*
X61611186Y-89271311D01*
X61538398Y-89427406D01*
X61519560Y-89467804D01*
X61462022Y-89682537D01*
X61442647Y-89904000D01*
X61462022Y-90125463D01*
X61470905Y-90158614D01*
X61515124Y-90323639D01*
X61519560Y-90340196D01*
X61521882Y-90345177D01*
X61521883Y-90345178D01*
X61611186Y-90536689D01*
X61611189Y-90536694D01*
X61613512Y-90541676D01*
X61616668Y-90546183D01*
X61616669Y-90546185D01*
X61736647Y-90717531D01*
X61741023Y-90723781D01*
X61898219Y-90880977D01*
X61902727Y-90884134D01*
X61902730Y-90884136D01*
X61922460Y-90897951D01*
X62080323Y-91008488D01*
X62085305Y-91010811D01*
X62085310Y-91010814D01*
X62276822Y-91100117D01*
X62281804Y-91102440D01*
X62287112Y-91103862D01*
X62287114Y-91103863D01*
X62334705Y-91116615D01*
X62496537Y-91159978D01*
X62718000Y-91179353D01*
X62939463Y-91159978D01*
X63101295Y-91116615D01*
X63148886Y-91103863D01*
X63148888Y-91103862D01*
X63154196Y-91102440D01*
X63159178Y-91100117D01*
X63350690Y-91010814D01*
X63350695Y-91010811D01*
X63355677Y-91008488D01*
X63513540Y-90897951D01*
X63533270Y-90884136D01*
X63533273Y-90884134D01*
X63537781Y-90880977D01*
X63694977Y-90723781D01*
X63699354Y-90717531D01*
X63819331Y-90546185D01*
X63819332Y-90546183D01*
X63822488Y-90541676D01*
X63824811Y-90536694D01*
X63824814Y-90536689D01*
X63914117Y-90345178D01*
X63914118Y-90345177D01*
X63916440Y-90340196D01*
X63920877Y-90323639D01*
X63965095Y-90158614D01*
X63973978Y-90125463D01*
X63993353Y-89904000D01*
X63973978Y-89682537D01*
X63916440Y-89467804D01*
X63897602Y-89427406D01*
X63824814Y-89271311D01*
X63824811Y-89271306D01*
X63822488Y-89266324D01*
X63819331Y-89261815D01*
X63698136Y-89088730D01*
X63698134Y-89088727D01*
X63694977Y-89084219D01*
X63537781Y-88927023D01*
X63533273Y-88923866D01*
X63533270Y-88923864D01*
X63434965Y-88855030D01*
X63355677Y-88799512D01*
X63350695Y-88797189D01*
X63350690Y-88797186D01*
X63245627Y-88748195D01*
X63192342Y-88701278D01*
X63172881Y-88633001D01*
X63193423Y-88565041D01*
X63245627Y-88519805D01*
X63350690Y-88470814D01*
X63350695Y-88470811D01*
X63355677Y-88468488D01*
X63504477Y-88364297D01*
X63533270Y-88344136D01*
X63533273Y-88344134D01*
X63537781Y-88340977D01*
X63694977Y-88183781D01*
X63699354Y-88177531D01*
X63819331Y-88006185D01*
X63819332Y-88006183D01*
X63822488Y-88001676D01*
X63824811Y-87996694D01*
X63824814Y-87996689D01*
X63914117Y-87805178D01*
X63914118Y-87805177D01*
X63916440Y-87800196D01*
X63973978Y-87585463D01*
X63993353Y-87364000D01*
X63988171Y-87304767D01*
X64002161Y-87235162D01*
X64051560Y-87184170D01*
X64120686Y-87167980D01*
X64187591Y-87191733D01*
X64202787Y-87204691D01*
X65441143Y-88443047D01*
X65448687Y-88451337D01*
X65452800Y-88457818D01*
X65458577Y-88463243D01*
X65502467Y-88504458D01*
X65505309Y-88507213D01*
X65525030Y-88526934D01*
X65528225Y-88529412D01*
X65537247Y-88537118D01*
X65569479Y-88567386D01*
X65576428Y-88571206D01*
X65587232Y-88577146D01*
X65603756Y-88587999D01*
X65619759Y-88600413D01*
X65660343Y-88617976D01*
X65670973Y-88623183D01*
X65709740Y-88644495D01*
X65717417Y-88646466D01*
X65717422Y-88646468D01*
X65729358Y-88649532D01*
X65748066Y-88655937D01*
X65766655Y-88663981D01*
X65774483Y-88665221D01*
X65774490Y-88665223D01*
X65810324Y-88670899D01*
X65821944Y-88673305D01*
X65857089Y-88682328D01*
X65864770Y-88684300D01*
X65885024Y-88684300D01*
X65904734Y-88685851D01*
X65924743Y-88689020D01*
X65932635Y-88688274D01*
X65968761Y-88684859D01*
X65980619Y-88684300D01*
X67416874Y-88684300D01*
X67484995Y-88704302D01*
X67531488Y-88757958D01*
X67541592Y-88828232D01*
X67524306Y-88876136D01*
X67485760Y-88939037D01*
X67483867Y-88943607D01*
X67483865Y-88943611D01*
X67423674Y-89088926D01*
X67394895Y-89158406D01*
X67393740Y-89163218D01*
X67361686Y-89296733D01*
X67339465Y-89389289D01*
X67320835Y-89626000D01*
X67339465Y-89862711D01*
X67340619Y-89867518D01*
X67340620Y-89867524D01*
X67368245Y-89982590D01*
X67394895Y-90093594D01*
X67396788Y-90098165D01*
X67396789Y-90098167D01*
X67468807Y-90272034D01*
X67485760Y-90312963D01*
X67488346Y-90317183D01*
X67607241Y-90511202D01*
X67607245Y-90511208D01*
X67609824Y-90515416D01*
X67764031Y-90695969D01*
X67944584Y-90850176D01*
X67948792Y-90852755D01*
X67948798Y-90852759D01*
X68111135Y-90952239D01*
X68147037Y-90974240D01*
X68151607Y-90976133D01*
X68151611Y-90976135D01*
X68292861Y-91034642D01*
X68366406Y-91065105D01*
X68446609Y-91084360D01*
X68592476Y-91119380D01*
X68592482Y-91119381D01*
X68597289Y-91120535D01*
X68834000Y-91139165D01*
X69070711Y-91120535D01*
X69075518Y-91119381D01*
X69075524Y-91119380D01*
X69221391Y-91084360D01*
X69301594Y-91065105D01*
X69375139Y-91034642D01*
X69516389Y-90976135D01*
X69516393Y-90976133D01*
X69520963Y-90974240D01*
X69556865Y-90952239D01*
X69719202Y-90852759D01*
X69719208Y-90852755D01*
X69723416Y-90850176D01*
X69903969Y-90695969D01*
X70058176Y-90515416D01*
X70060755Y-90511208D01*
X70060759Y-90511202D01*
X70178133Y-90319665D01*
X70230781Y-90272034D01*
X70285566Y-90259500D01*
X73882434Y-90259500D01*
X73950555Y-90279502D01*
X73989867Y-90319665D01*
X74107241Y-90511202D01*
X74107245Y-90511208D01*
X74109824Y-90515416D01*
X74264031Y-90695969D01*
X74444584Y-90850176D01*
X74448792Y-90852755D01*
X74448798Y-90852759D01*
X74611135Y-90952239D01*
X74647037Y-90974240D01*
X74651607Y-90976133D01*
X74651611Y-90976135D01*
X74792861Y-91034642D01*
X74866406Y-91065105D01*
X74946609Y-91084360D01*
X75092476Y-91119380D01*
X75092482Y-91119381D01*
X75097289Y-91120535D01*
X75334000Y-91139165D01*
X75570711Y-91120535D01*
X75575518Y-91119381D01*
X75575524Y-91119380D01*
X75721391Y-91084360D01*
X75801594Y-91065105D01*
X75875139Y-91034642D01*
X76016389Y-90976135D01*
X76016393Y-90976133D01*
X76020963Y-90974240D01*
X76056865Y-90952239D01*
X76219202Y-90852759D01*
X76219208Y-90852755D01*
X76223416Y-90850176D01*
X76403969Y-90695969D01*
X76558176Y-90515416D01*
X76560755Y-90511208D01*
X76560759Y-90511202D01*
X76679654Y-90317183D01*
X76682240Y-90312963D01*
X76699194Y-90272034D01*
X76771211Y-90098167D01*
X76771212Y-90098165D01*
X76773105Y-90093594D01*
X76799755Y-89982590D01*
X76827380Y-89867524D01*
X76827381Y-89867518D01*
X76828535Y-89862711D01*
X76847165Y-89626000D01*
X76828535Y-89389289D01*
X76806315Y-89296733D01*
X76774260Y-89163218D01*
X76773105Y-89158406D01*
X76744326Y-89088926D01*
X76684135Y-88943611D01*
X76684133Y-88943607D01*
X76682240Y-88939037D01*
X76643694Y-88876136D01*
X76625155Y-88807602D01*
X76646611Y-88739925D01*
X76701250Y-88694592D01*
X76751126Y-88684300D01*
X82137306Y-88684300D01*
X82205427Y-88704302D01*
X82226401Y-88721205D01*
X85456843Y-91951647D01*
X85464387Y-91959937D01*
X85468500Y-91966418D01*
X85474277Y-91971843D01*
X85487382Y-91984149D01*
X85523348Y-92045362D01*
X85520511Y-92116301D01*
X85479771Y-92174446D01*
X85414063Y-92201334D01*
X85401130Y-92202000D01*
X44319727Y-92202000D01*
X44251606Y-92181998D01*
X44205113Y-92128342D01*
X44195009Y-92058068D01*
X44224503Y-91993488D01*
X44249725Y-91971235D01*
X44377838Y-91885633D01*
X44380932Y-91882919D01*
X44380938Y-91882915D01*
X44597338Y-91693136D01*
X44600427Y-91690427D01*
X44668253Y-91613087D01*
X44792915Y-91470938D01*
X44792919Y-91470932D01*
X44795633Y-91467838D01*
X44817095Y-91435719D01*
X44957821Y-91225106D01*
X44960115Y-91221673D01*
X44962610Y-91216615D01*
X45051771Y-91035813D01*
X45091059Y-90956145D01*
X45127031Y-90850176D01*
X45173211Y-90714134D01*
X46207500Y-90714134D01*
X46214255Y-90776316D01*
X46265385Y-90912705D01*
X46352739Y-91029261D01*
X46469295Y-91116615D01*
X46605684Y-91167745D01*
X46667866Y-91174500D01*
X48288134Y-91174500D01*
X48350316Y-91167745D01*
X48486705Y-91116615D01*
X48603261Y-91029261D01*
X48690615Y-90912705D01*
X48741745Y-90776316D01*
X48748500Y-90714134D01*
X48748500Y-89093866D01*
X48741745Y-89031684D01*
X48690615Y-88895295D01*
X48603261Y-88778739D01*
X48544668Y-88734826D01*
X48502153Y-88677967D01*
X48497127Y-88607148D01*
X48531187Y-88544855D01*
X48544668Y-88533174D01*
X48596081Y-88494642D01*
X48603261Y-88489261D01*
X48690615Y-88372705D01*
X48741745Y-88236316D01*
X48748500Y-88174134D01*
X48748500Y-86553866D01*
X48741745Y-86491684D01*
X48690615Y-86355295D01*
X48603261Y-86238739D01*
X48486705Y-86151385D01*
X48350316Y-86100255D01*
X48288134Y-86093500D01*
X46667866Y-86093500D01*
X46605684Y-86100255D01*
X46469295Y-86151385D01*
X46352739Y-86238739D01*
X46265385Y-86355295D01*
X46214255Y-86491684D01*
X46207500Y-86553866D01*
X46207500Y-88174134D01*
X46214255Y-88236316D01*
X46265385Y-88372705D01*
X46352739Y-88489261D01*
X46359919Y-88494642D01*
X46411332Y-88533174D01*
X46453847Y-88590033D01*
X46458873Y-88660852D01*
X46424813Y-88723145D01*
X46411333Y-88734825D01*
X46352739Y-88778739D01*
X46265385Y-88895295D01*
X46214255Y-89031684D01*
X46207500Y-89093866D01*
X46207500Y-90714134D01*
X45173211Y-90714134D01*
X45184896Y-90679710D01*
X45184897Y-90679706D01*
X45186224Y-90675797D01*
X45187030Y-90671747D01*
X45243180Y-90389465D01*
X45243181Y-90389459D01*
X45243983Y-90385426D01*
X45246948Y-90340196D01*
X45263076Y-90094119D01*
X45263346Y-90090000D01*
X45251155Y-89904000D01*
X45244253Y-89798686D01*
X45244252Y-89798679D01*
X45243983Y-89794574D01*
X45228077Y-89714606D01*
X45187030Y-89508253D01*
X45187028Y-89508247D01*
X45186224Y-89504203D01*
X45173869Y-89467804D01*
X45092385Y-89227761D01*
X45092384Y-89227760D01*
X45091059Y-89223855D01*
X45007649Y-89054717D01*
X44961942Y-88962031D01*
X44961939Y-88962026D01*
X44960115Y-88958327D01*
X44875235Y-88831295D01*
X44797926Y-88715593D01*
X44797922Y-88715588D01*
X44795633Y-88712162D01*
X44792919Y-88709068D01*
X44792915Y-88709062D01*
X44603136Y-88492662D01*
X44600427Y-88489573D01*
X44572784Y-88465331D01*
X44380938Y-88297085D01*
X44380932Y-88297081D01*
X44377838Y-88294367D01*
X44374412Y-88292078D01*
X44374407Y-88292074D01*
X44135106Y-88132179D01*
X44131673Y-88129885D01*
X44127974Y-88128061D01*
X44127969Y-88128058D01*
X43880834Y-88006185D01*
X43866145Y-87998941D01*
X43859511Y-87996689D01*
X43589710Y-87905104D01*
X43589706Y-87905103D01*
X43585797Y-87903776D01*
X43581753Y-87902972D01*
X43581747Y-87902970D01*
X43299465Y-87846820D01*
X43299459Y-87846819D01*
X43295426Y-87846017D01*
X43291321Y-87845748D01*
X43291314Y-87845747D01*
X43004119Y-87826924D01*
X43000000Y-87826654D01*
X42995881Y-87826924D01*
X42708686Y-87845747D01*
X42708679Y-87845748D01*
X42704574Y-87846017D01*
X42700541Y-87846819D01*
X42700535Y-87846820D01*
X42418253Y-87902970D01*
X42418247Y-87902972D01*
X42414203Y-87903776D01*
X42410294Y-87905103D01*
X42410290Y-87905104D01*
X42140489Y-87996689D01*
X42133855Y-87998941D01*
X42119166Y-88006185D01*
X41872031Y-88128058D01*
X41872026Y-88128061D01*
X41868327Y-88129885D01*
X41864894Y-88132179D01*
X41625593Y-88292074D01*
X41625588Y-88292078D01*
X41622162Y-88294367D01*
X41619068Y-88297081D01*
X41619062Y-88297085D01*
X41427216Y-88465331D01*
X41399573Y-88489573D01*
X41396864Y-88492662D01*
X41207085Y-88709062D01*
X41207081Y-88709068D01*
X41204367Y-88712162D01*
X41202078Y-88715588D01*
X41202074Y-88715593D01*
X41124765Y-88831295D01*
X41070288Y-88876823D01*
X40999845Y-88885671D01*
X40935801Y-88855030D01*
X40898490Y-88794628D01*
X40894000Y-88761293D01*
X40894000Y-80802777D01*
X46783777Y-80802777D01*
X46793074Y-80814793D01*
X46836069Y-80844898D01*
X46845555Y-80850376D01*
X47036993Y-80939645D01*
X47047285Y-80943391D01*
X47251309Y-80998059D01*
X47262104Y-80999962D01*
X47472525Y-81018372D01*
X47483475Y-81018372D01*
X47693896Y-80999962D01*
X47704691Y-80998059D01*
X47908715Y-80943391D01*
X47919007Y-80939645D01*
X48110445Y-80850376D01*
X48119931Y-80844898D01*
X48163764Y-80814207D01*
X48172139Y-80803729D01*
X48165071Y-80790281D01*
X47490812Y-80116022D01*
X47476868Y-80108408D01*
X47475035Y-80108539D01*
X47468420Y-80112790D01*
X46790207Y-80791003D01*
X46783777Y-80802777D01*
X40894000Y-80802777D01*
X40894000Y-79749475D01*
X46203628Y-79749475D01*
X46222038Y-79959896D01*
X46223941Y-79970691D01*
X46278609Y-80174715D01*
X46282355Y-80185007D01*
X46371623Y-80376441D01*
X46377103Y-80385932D01*
X46407794Y-80429765D01*
X46418271Y-80438140D01*
X46431718Y-80431072D01*
X47105978Y-79756812D01*
X47112356Y-79745132D01*
X47842408Y-79745132D01*
X47842539Y-79746965D01*
X47846790Y-79753580D01*
X48525003Y-80431793D01*
X48536777Y-80438223D01*
X48548793Y-80428926D01*
X48578897Y-80385932D01*
X48584377Y-80376441D01*
X48633529Y-80271035D01*
X48680447Y-80217750D01*
X48748724Y-80198289D01*
X48816684Y-80218831D01*
X48861919Y-80271035D01*
X48911186Y-80376689D01*
X48911189Y-80376694D01*
X48913512Y-80381676D01*
X48916668Y-80386183D01*
X48916669Y-80386185D01*
X49036647Y-80557531D01*
X49041023Y-80563781D01*
X49198219Y-80720977D01*
X49202727Y-80724134D01*
X49202730Y-80724136D01*
X49271260Y-80772121D01*
X49380323Y-80848488D01*
X49385305Y-80850811D01*
X49385310Y-80850814D01*
X49575810Y-80939645D01*
X49581804Y-80942440D01*
X49587112Y-80943862D01*
X49587114Y-80943863D01*
X49634705Y-80956615D01*
X49796537Y-80999978D01*
X50018000Y-81019353D01*
X50239463Y-80999978D01*
X50401295Y-80956615D01*
X50448886Y-80943863D01*
X50448888Y-80943862D01*
X50454196Y-80942440D01*
X50460190Y-80939645D01*
X50650690Y-80850814D01*
X50650695Y-80850811D01*
X50655677Y-80848488D01*
X50764740Y-80772121D01*
X50833270Y-80724136D01*
X50833273Y-80724134D01*
X50837781Y-80720977D01*
X50994977Y-80563781D01*
X50999354Y-80557531D01*
X51119331Y-80386185D01*
X51119332Y-80386183D01*
X51122488Y-80381676D01*
X51124811Y-80376694D01*
X51124814Y-80376689D01*
X51173805Y-80271627D01*
X51220723Y-80218342D01*
X51289000Y-80198881D01*
X51356960Y-80219423D01*
X51402195Y-80271627D01*
X51451186Y-80376689D01*
X51451189Y-80376694D01*
X51453512Y-80381676D01*
X51456668Y-80386183D01*
X51456669Y-80386185D01*
X51576647Y-80557531D01*
X51581023Y-80563781D01*
X51738219Y-80720977D01*
X51742727Y-80724134D01*
X51742730Y-80724136D01*
X51811260Y-80772121D01*
X51920323Y-80848488D01*
X51925305Y-80850811D01*
X51925310Y-80850814D01*
X52115810Y-80939645D01*
X52121804Y-80942440D01*
X52127112Y-80943862D01*
X52127114Y-80943863D01*
X52174705Y-80956615D01*
X52336537Y-80999978D01*
X52558000Y-81019353D01*
X52779463Y-80999978D01*
X52941295Y-80956615D01*
X52988886Y-80943863D01*
X52988888Y-80943862D01*
X52994196Y-80942440D01*
X53000190Y-80939645D01*
X53190690Y-80850814D01*
X53190695Y-80850811D01*
X53195677Y-80848488D01*
X53260959Y-80802777D01*
X54403777Y-80802777D01*
X54413074Y-80814793D01*
X54456069Y-80844898D01*
X54465555Y-80850376D01*
X54656993Y-80939645D01*
X54667285Y-80943391D01*
X54871309Y-80998059D01*
X54882104Y-80999962D01*
X55092525Y-81018372D01*
X55103475Y-81018372D01*
X55313896Y-80999962D01*
X55324691Y-80998059D01*
X55528715Y-80943391D01*
X55539007Y-80939645D01*
X55730445Y-80850376D01*
X55739931Y-80844898D01*
X55783764Y-80814207D01*
X55792139Y-80803729D01*
X55785071Y-80790281D01*
X55110812Y-80116022D01*
X55096868Y-80108408D01*
X55095035Y-80108539D01*
X55088420Y-80112790D01*
X54410207Y-80791003D01*
X54403777Y-80802777D01*
X53260959Y-80802777D01*
X53304740Y-80772121D01*
X53373270Y-80724136D01*
X53373273Y-80724134D01*
X53377781Y-80720977D01*
X53534977Y-80563781D01*
X53539354Y-80557531D01*
X53659331Y-80386185D01*
X53659332Y-80386183D01*
X53662488Y-80381676D01*
X53664811Y-80376694D01*
X53664814Y-80376689D01*
X53714081Y-80271035D01*
X53760999Y-80217750D01*
X53829276Y-80198289D01*
X53897236Y-80218831D01*
X53942471Y-80271035D01*
X53991623Y-80376441D01*
X53997103Y-80385932D01*
X54027794Y-80429765D01*
X54038271Y-80438140D01*
X54051718Y-80431072D01*
X54725978Y-79756812D01*
X54733592Y-79742868D01*
X54733461Y-79741035D01*
X54729210Y-79734420D01*
X54050997Y-79056207D01*
X54039223Y-79049777D01*
X54027207Y-79059074D01*
X53997103Y-79102068D01*
X53991623Y-79111559D01*
X53942471Y-79216965D01*
X53895553Y-79270250D01*
X53827276Y-79289711D01*
X53759316Y-79269169D01*
X53714081Y-79216965D01*
X53664814Y-79111311D01*
X53664811Y-79111306D01*
X53662488Y-79106324D01*
X53631944Y-79062702D01*
X53538136Y-78928730D01*
X53538134Y-78928727D01*
X53534977Y-78924219D01*
X53377781Y-78767023D01*
X53373273Y-78763866D01*
X53373270Y-78763864D01*
X53291624Y-78706695D01*
X53259599Y-78684271D01*
X54403860Y-78684271D01*
X54410928Y-78697718D01*
X55085188Y-79371978D01*
X55099132Y-79379592D01*
X55100965Y-79379461D01*
X55107580Y-79375210D01*
X55785793Y-78696997D01*
X55792223Y-78685223D01*
X55782926Y-78673207D01*
X55739931Y-78643102D01*
X55730445Y-78637624D01*
X55539007Y-78548355D01*
X55528715Y-78544609D01*
X55324691Y-78489941D01*
X55313896Y-78488038D01*
X55103475Y-78469628D01*
X55092525Y-78469628D01*
X54882104Y-78488038D01*
X54871309Y-78489941D01*
X54667285Y-78544609D01*
X54656993Y-78548355D01*
X54465559Y-78637623D01*
X54456068Y-78643103D01*
X54412235Y-78673794D01*
X54403860Y-78684271D01*
X53259599Y-78684271D01*
X53195677Y-78639512D01*
X53190695Y-78637189D01*
X53190690Y-78637186D01*
X52999178Y-78547883D01*
X52999177Y-78547882D01*
X52994196Y-78545560D01*
X52988888Y-78544138D01*
X52988886Y-78544137D01*
X52908218Y-78522522D01*
X52779463Y-78488022D01*
X52558000Y-78468647D01*
X52336537Y-78488022D01*
X52207782Y-78522522D01*
X52127114Y-78544137D01*
X52127112Y-78544138D01*
X52121804Y-78545560D01*
X52116823Y-78547882D01*
X52116822Y-78547883D01*
X51925311Y-78637186D01*
X51925306Y-78637189D01*
X51920324Y-78639512D01*
X51915817Y-78642668D01*
X51915815Y-78642669D01*
X51742730Y-78763864D01*
X51742727Y-78763866D01*
X51738219Y-78767023D01*
X51581023Y-78924219D01*
X51577866Y-78928727D01*
X51577864Y-78928730D01*
X51484056Y-79062702D01*
X51453512Y-79106324D01*
X51451189Y-79111306D01*
X51451186Y-79111311D01*
X51402195Y-79216373D01*
X51355277Y-79269658D01*
X51287000Y-79289119D01*
X51219040Y-79268577D01*
X51173805Y-79216373D01*
X51124814Y-79111311D01*
X51124811Y-79111306D01*
X51122488Y-79106324D01*
X51091944Y-79062702D01*
X50998136Y-78928730D01*
X50998134Y-78928727D01*
X50994977Y-78924219D01*
X50837781Y-78767023D01*
X50833273Y-78763866D01*
X50833270Y-78763864D01*
X50751624Y-78706695D01*
X50655677Y-78639512D01*
X50650695Y-78637189D01*
X50650690Y-78637186D01*
X50459178Y-78547883D01*
X50459177Y-78547882D01*
X50454196Y-78545560D01*
X50448888Y-78544138D01*
X50448886Y-78544137D01*
X50368218Y-78522522D01*
X50239463Y-78488022D01*
X50018000Y-78468647D01*
X49796537Y-78488022D01*
X49667782Y-78522522D01*
X49587114Y-78544137D01*
X49587112Y-78544138D01*
X49581804Y-78545560D01*
X49576823Y-78547882D01*
X49576822Y-78547883D01*
X49385311Y-78637186D01*
X49385306Y-78637189D01*
X49380324Y-78639512D01*
X49375817Y-78642668D01*
X49375815Y-78642669D01*
X49202730Y-78763864D01*
X49202727Y-78763866D01*
X49198219Y-78767023D01*
X49041023Y-78924219D01*
X49037866Y-78928727D01*
X49037864Y-78928730D01*
X48944056Y-79062702D01*
X48913512Y-79106324D01*
X48911189Y-79111306D01*
X48911186Y-79111311D01*
X48861919Y-79216965D01*
X48815001Y-79270250D01*
X48746724Y-79289711D01*
X48678764Y-79269169D01*
X48633529Y-79216965D01*
X48584377Y-79111559D01*
X48578897Y-79102068D01*
X48548206Y-79058235D01*
X48537729Y-79049860D01*
X48524282Y-79056928D01*
X47850022Y-79731188D01*
X47842408Y-79745132D01*
X47112356Y-79745132D01*
X47113592Y-79742868D01*
X47113461Y-79741035D01*
X47109210Y-79734420D01*
X46430997Y-79056207D01*
X46419223Y-79049777D01*
X46407207Y-79059074D01*
X46377103Y-79102068D01*
X46371623Y-79111559D01*
X46282355Y-79302993D01*
X46278609Y-79313285D01*
X46223941Y-79517309D01*
X46222038Y-79528104D01*
X46203628Y-79738525D01*
X46203628Y-79749475D01*
X40894000Y-79749475D01*
X40894000Y-78684271D01*
X46783860Y-78684271D01*
X46790928Y-78697718D01*
X47465188Y-79371978D01*
X47479132Y-79379592D01*
X47480965Y-79379461D01*
X47487580Y-79375210D01*
X48165793Y-78696997D01*
X48172223Y-78685223D01*
X48162926Y-78673207D01*
X48119931Y-78643102D01*
X48110445Y-78637624D01*
X47919007Y-78548355D01*
X47908715Y-78544609D01*
X47704691Y-78489941D01*
X47693896Y-78488038D01*
X47483475Y-78469628D01*
X47472525Y-78469628D01*
X47262104Y-78488038D01*
X47251309Y-78489941D01*
X47047285Y-78544609D01*
X47036993Y-78548355D01*
X46845559Y-78637623D01*
X46836068Y-78643103D01*
X46792235Y-78673794D01*
X46783860Y-78684271D01*
X40894000Y-78684271D01*
X40894000Y-74422000D01*
X45168502Y-74422000D01*
X45188457Y-74650087D01*
X45189881Y-74655400D01*
X45189881Y-74655402D01*
X45236373Y-74828909D01*
X45247716Y-74871243D01*
X45250039Y-74876224D01*
X45250039Y-74876225D01*
X45342151Y-75073762D01*
X45342154Y-75073767D01*
X45344477Y-75078749D01*
X45347634Y-75083257D01*
X45434189Y-75206870D01*
X45475802Y-75266300D01*
X45637700Y-75428198D01*
X45642208Y-75431355D01*
X45642211Y-75431357D01*
X45720389Y-75486098D01*
X45825251Y-75559523D01*
X45830233Y-75561846D01*
X45830238Y-75561849D01*
X46026765Y-75653490D01*
X46032757Y-75656284D01*
X46038065Y-75657706D01*
X46038067Y-75657707D01*
X46248598Y-75714119D01*
X46248600Y-75714119D01*
X46253913Y-75715543D01*
X46482000Y-75735498D01*
X46710087Y-75715543D01*
X46715400Y-75714119D01*
X46715402Y-75714119D01*
X46925933Y-75657707D01*
X46925935Y-75657706D01*
X46931243Y-75656284D01*
X46937235Y-75653490D01*
X47133762Y-75561849D01*
X47133767Y-75561846D01*
X47138749Y-75559523D01*
X47243611Y-75486098D01*
X47321789Y-75431357D01*
X47321792Y-75431355D01*
X47326300Y-75428198D01*
X47488198Y-75266300D01*
X47529812Y-75206870D01*
X47616366Y-75083257D01*
X47619523Y-75078749D01*
X47621846Y-75073767D01*
X47621849Y-75073762D01*
X47713961Y-74876225D01*
X47713961Y-74876224D01*
X47716284Y-74871243D01*
X47727628Y-74828909D01*
X47765245Y-74688522D01*
X52819273Y-74688522D01*
X52866764Y-74865761D01*
X52870510Y-74876053D01*
X52962586Y-75073511D01*
X52968069Y-75083007D01*
X53093028Y-75261467D01*
X53100084Y-75269875D01*
X53254125Y-75423916D01*
X53262533Y-75430972D01*
X53440993Y-75555931D01*
X53450489Y-75561414D01*
X53647947Y-75653490D01*
X53658239Y-75657236D01*
X53830503Y-75703394D01*
X53844599Y-75703058D01*
X53848000Y-75695116D01*
X53848000Y-74694115D01*
X53843525Y-74678876D01*
X53842135Y-74677671D01*
X53834452Y-74676000D01*
X52834033Y-74676000D01*
X52820502Y-74679973D01*
X52819273Y-74688522D01*
X47765245Y-74688522D01*
X47774119Y-74655402D01*
X47774119Y-74655400D01*
X47775543Y-74650087D01*
X47795498Y-74422000D01*
X47775543Y-74193913D01*
X47741708Y-74067639D01*
X47717707Y-73978067D01*
X47717706Y-73978065D01*
X47716284Y-73972757D01*
X47621966Y-73770489D01*
X47621849Y-73770238D01*
X47621846Y-73770233D01*
X47619523Y-73765251D01*
X47488198Y-73577700D01*
X47326300Y-73415802D01*
X47321792Y-73412645D01*
X47321789Y-73412643D01*
X47155651Y-73296312D01*
X47138749Y-73284477D01*
X47133767Y-73282154D01*
X47133762Y-73282151D01*
X46936225Y-73190039D01*
X46936224Y-73190039D01*
X46931243Y-73187716D01*
X46925935Y-73186294D01*
X46925933Y-73186293D01*
X46715402Y-73129881D01*
X46715400Y-73129881D01*
X46710087Y-73128457D01*
X46482000Y-73108502D01*
X46253913Y-73128457D01*
X46248600Y-73129881D01*
X46248598Y-73129881D01*
X46038067Y-73186293D01*
X46038065Y-73186294D01*
X46032757Y-73187716D01*
X46027776Y-73190039D01*
X46027775Y-73190039D01*
X45830238Y-73282151D01*
X45830233Y-73282154D01*
X45825251Y-73284477D01*
X45808349Y-73296312D01*
X45642211Y-73412643D01*
X45642208Y-73412645D01*
X45637700Y-73415802D01*
X45475802Y-73577700D01*
X45344477Y-73765251D01*
X45342154Y-73770233D01*
X45342151Y-73770238D01*
X45342034Y-73770489D01*
X45247716Y-73972757D01*
X45246294Y-73978065D01*
X45246293Y-73978067D01*
X45222292Y-74067639D01*
X45188457Y-74193913D01*
X45168502Y-74422000D01*
X40894000Y-74422000D01*
X40894000Y-51025863D01*
X45120050Y-51025863D01*
X45132309Y-51238477D01*
X45133745Y-51248697D01*
X45180565Y-51456446D01*
X45183645Y-51466275D01*
X45263770Y-51663603D01*
X45268413Y-51672794D01*
X45348460Y-51803420D01*
X45358916Y-51812880D01*
X45367694Y-51809096D01*
X46109978Y-51066812D01*
X46116356Y-51055132D01*
X46846408Y-51055132D01*
X46846539Y-51056965D01*
X46850790Y-51063580D01*
X47592474Y-51805264D01*
X47604484Y-51811823D01*
X47616223Y-51802855D01*
X47647004Y-51760019D01*
X47652315Y-51751180D01*
X47746670Y-51560267D01*
X47750469Y-51550672D01*
X47812376Y-51346915D01*
X47814555Y-51336834D01*
X47842590Y-51123887D01*
X47843109Y-51117212D01*
X47844572Y-51057364D01*
X47844378Y-51050646D01*
X47826781Y-50836604D01*
X47825096Y-50826424D01*
X47773214Y-50619875D01*
X47769894Y-50610124D01*
X47684972Y-50414814D01*
X47680105Y-50405739D01*
X47615063Y-50305197D01*
X47604377Y-50295995D01*
X47594812Y-50300398D01*
X46854022Y-51041188D01*
X46846408Y-51055132D01*
X46116356Y-51055132D01*
X46117592Y-51052868D01*
X46117461Y-51051035D01*
X46113210Y-51044420D01*
X45371849Y-50303059D01*
X45360313Y-50296759D01*
X45348031Y-50306382D01*
X45300089Y-50376662D01*
X45295004Y-50385613D01*
X45205338Y-50578783D01*
X45201775Y-50588470D01*
X45144864Y-50793681D01*
X45142933Y-50803800D01*
X45120302Y-51015574D01*
X45120050Y-51025863D01*
X40894000Y-51025863D01*
X40894000Y-48480695D01*
X45119251Y-48480695D01*
X45119548Y-48485848D01*
X45119548Y-48485851D01*
X45125011Y-48580590D01*
X45132110Y-48703715D01*
X45133247Y-48708761D01*
X45133248Y-48708767D01*
X45153119Y-48796939D01*
X45181222Y-48921639D01*
X45226546Y-49033260D01*
X45248978Y-49088502D01*
X45265266Y-49128616D01*
X45267965Y-49133020D01*
X45371009Y-49301173D01*
X45381987Y-49319088D01*
X45385367Y-49322990D01*
X45396352Y-49335671D01*
X45528250Y-49487938D01*
X45700126Y-49630632D01*
X45711063Y-49637023D01*
X45773955Y-49673774D01*
X45822679Y-49725412D01*
X45835750Y-49795195D01*
X45809019Y-49860967D01*
X45768562Y-49894327D01*
X45760460Y-49898544D01*
X45751734Y-49904039D01*
X45731677Y-49919099D01*
X45723223Y-49930427D01*
X45729968Y-49942758D01*
X46469188Y-50681978D01*
X46483132Y-50689592D01*
X46484965Y-50689461D01*
X46491580Y-50685210D01*
X47235389Y-49941401D01*
X47242410Y-49928544D01*
X47235611Y-49919213D01*
X47231559Y-49916521D01*
X47194602Y-49896120D01*
X47144631Y-49845687D01*
X47129859Y-49776245D01*
X47154975Y-49709839D01*
X47182327Y-49683232D01*
X47214638Y-49660185D01*
X47361860Y-49555173D01*
X47373718Y-49543357D01*
X47516435Y-49401137D01*
X47520096Y-49397489D01*
X47575675Y-49320143D01*
X47647435Y-49220277D01*
X47650453Y-49216077D01*
X47652874Y-49211180D01*
X47747136Y-49020453D01*
X47747137Y-49020451D01*
X47749430Y-49015811D01*
X47814370Y-48802069D01*
X47843529Y-48580590D01*
X47845156Y-48514000D01*
X47842843Y-48485863D01*
X62900050Y-48485863D01*
X62912309Y-48698477D01*
X62913745Y-48708697D01*
X62960565Y-48916446D01*
X62963645Y-48926275D01*
X63043770Y-49123603D01*
X63048413Y-49132794D01*
X63128460Y-49263420D01*
X63138916Y-49272880D01*
X63147694Y-49269096D01*
X63889978Y-48526812D01*
X63896356Y-48515132D01*
X64626408Y-48515132D01*
X64626539Y-48516965D01*
X64630790Y-48523580D01*
X65372474Y-49265264D01*
X65384484Y-49271823D01*
X65396223Y-49262855D01*
X65427004Y-49220019D01*
X65432315Y-49211180D01*
X65526670Y-49020267D01*
X65530469Y-49010672D01*
X65592376Y-48806915D01*
X65594555Y-48796834D01*
X65622590Y-48583887D01*
X65623109Y-48577212D01*
X65624572Y-48517364D01*
X65624378Y-48510646D01*
X65606781Y-48296604D01*
X65605096Y-48286424D01*
X65553214Y-48079875D01*
X65549894Y-48070124D01*
X65464972Y-47874814D01*
X65460105Y-47865739D01*
X65395063Y-47765197D01*
X65384377Y-47755995D01*
X65374812Y-47760398D01*
X64634022Y-48501188D01*
X64626408Y-48515132D01*
X63896356Y-48515132D01*
X63897592Y-48512868D01*
X63897461Y-48511035D01*
X63893210Y-48504420D01*
X63151849Y-47763059D01*
X63140313Y-47756759D01*
X63128031Y-47766382D01*
X63080089Y-47836662D01*
X63075004Y-47845613D01*
X62985338Y-48038783D01*
X62981775Y-48048470D01*
X62924864Y-48253681D01*
X62922933Y-48263800D01*
X62900302Y-48475574D01*
X62900050Y-48485863D01*
X47842843Y-48485863D01*
X47826852Y-48291361D01*
X47772431Y-48074702D01*
X47683354Y-47869840D01*
X47609704Y-47755995D01*
X47564822Y-47686617D01*
X47564820Y-47686614D01*
X47562014Y-47682277D01*
X47411670Y-47517051D01*
X47407619Y-47513852D01*
X47407615Y-47513848D01*
X47240414Y-47381800D01*
X47240410Y-47381798D01*
X47236359Y-47378598D01*
X47195053Y-47355796D01*
X47145084Y-47305364D01*
X47130312Y-47235921D01*
X47155428Y-47169516D01*
X47182780Y-47142909D01*
X47233814Y-47106507D01*
X47361860Y-47015173D01*
X47373718Y-47003357D01*
X47474532Y-46902894D01*
X47520096Y-46857489D01*
X47579594Y-46774689D01*
X47647435Y-46680277D01*
X47650453Y-46676077D01*
X47683268Y-46609682D01*
X47747136Y-46480453D01*
X47747137Y-46480451D01*
X47749430Y-46475811D01*
X47814370Y-46262069D01*
X47843529Y-46040590D01*
X47844227Y-46012039D01*
X47845074Y-45977365D01*
X47845074Y-45977361D01*
X47845156Y-45974000D01*
X47826852Y-45751361D01*
X47772431Y-45534702D01*
X47683354Y-45329840D01*
X47562014Y-45142277D01*
X47411670Y-44977051D01*
X47407619Y-44973852D01*
X47407615Y-44973848D01*
X47240414Y-44841800D01*
X47240410Y-44841798D01*
X47236359Y-44838598D01*
X47195053Y-44815796D01*
X47145084Y-44765364D01*
X47130312Y-44695921D01*
X47155428Y-44629516D01*
X47182780Y-44602909D01*
X47236571Y-44564540D01*
X47361860Y-44475173D01*
X47370856Y-44466209D01*
X47473120Y-44364301D01*
X47520096Y-44317489D01*
X47551498Y-44273789D01*
X47647435Y-44140277D01*
X47650453Y-44136077D01*
X47654145Y-44128608D01*
X47747136Y-43940453D01*
X47747137Y-43940451D01*
X47749430Y-43935811D01*
X47783445Y-43823855D01*
X47812865Y-43727023D01*
X47812865Y-43727021D01*
X47814370Y-43722069D01*
X47843529Y-43500590D01*
X47845156Y-43434000D01*
X47826852Y-43211361D01*
X47772431Y-42994702D01*
X47683354Y-42789840D01*
X47619041Y-42690427D01*
X47564822Y-42606617D01*
X47564820Y-42606614D01*
X47562014Y-42602277D01*
X47411670Y-42437051D01*
X47407619Y-42433852D01*
X47407615Y-42433848D01*
X47240414Y-42301800D01*
X47240410Y-42301798D01*
X47236359Y-42298598D01*
X47194569Y-42275529D01*
X47144598Y-42225097D01*
X47129826Y-42155654D01*
X47154942Y-42089248D01*
X47182293Y-42062642D01*
X47231247Y-42027723D01*
X47239648Y-42017023D01*
X47232660Y-42003870D01*
X46494812Y-41266022D01*
X46480868Y-41258408D01*
X46479035Y-41258539D01*
X46472420Y-41262790D01*
X45728737Y-42006473D01*
X45721977Y-42018853D01*
X45727258Y-42025907D01*
X45773969Y-42053203D01*
X45822693Y-42104841D01*
X45835764Y-42174624D01*
X45809033Y-42240396D01*
X45768584Y-42273752D01*
X45755607Y-42280507D01*
X45751474Y-42283610D01*
X45751471Y-42283612D01*
X45662270Y-42350586D01*
X45576965Y-42414635D01*
X45422629Y-42576138D01*
X45419715Y-42580410D01*
X45419714Y-42580411D01*
X45344666Y-42690427D01*
X45296743Y-42760680D01*
X45202688Y-42963305D01*
X45142989Y-43178570D01*
X45119251Y-43400695D01*
X45119548Y-43405848D01*
X45119548Y-43405851D01*
X45125011Y-43500590D01*
X45132110Y-43623715D01*
X45133247Y-43628761D01*
X45133248Y-43628767D01*
X45141955Y-43667402D01*
X45181222Y-43841639D01*
X45265266Y-44048616D01*
X45381987Y-44239088D01*
X45528250Y-44407938D01*
X45700126Y-44550632D01*
X45759305Y-44585213D01*
X45773445Y-44593476D01*
X45822169Y-44645114D01*
X45835240Y-44714897D01*
X45808509Y-44780669D01*
X45768055Y-44814027D01*
X45755607Y-44820507D01*
X45751474Y-44823610D01*
X45751471Y-44823612D01*
X45727247Y-44841800D01*
X45576965Y-44954635D01*
X45422629Y-45116138D01*
X45296743Y-45300680D01*
X45281003Y-45334590D01*
X45207739Y-45492424D01*
X45202688Y-45503305D01*
X45142989Y-45718570D01*
X45119251Y-45940695D01*
X45119548Y-45945848D01*
X45119548Y-45945851D01*
X45127537Y-46084408D01*
X45132110Y-46163715D01*
X45133247Y-46168761D01*
X45133248Y-46168767D01*
X45148806Y-46237802D01*
X45181222Y-46381639D01*
X45227434Y-46495447D01*
X45262813Y-46582574D01*
X45265266Y-46588616D01*
X45381987Y-46779088D01*
X45528250Y-46947938D01*
X45700126Y-47090632D01*
X45718774Y-47101529D01*
X45773445Y-47133476D01*
X45822169Y-47185114D01*
X45835240Y-47254897D01*
X45808509Y-47320669D01*
X45768055Y-47354027D01*
X45755607Y-47360507D01*
X45751474Y-47363610D01*
X45751471Y-47363612D01*
X45606996Y-47472087D01*
X45576965Y-47494635D01*
X45422629Y-47656138D01*
X45296743Y-47840680D01*
X45202688Y-48043305D01*
X45142989Y-48258570D01*
X45119251Y-48480695D01*
X40894000Y-48480695D01*
X40894000Y-42418707D01*
X40914002Y-42350586D01*
X40967658Y-42304093D01*
X41037932Y-42293989D01*
X41102512Y-42323483D01*
X41124765Y-42348705D01*
X41189787Y-42446017D01*
X41204367Y-42467838D01*
X41207081Y-42470932D01*
X41207085Y-42470938D01*
X41320941Y-42600765D01*
X41399573Y-42690427D01*
X41402662Y-42693136D01*
X41619062Y-42882915D01*
X41619068Y-42882919D01*
X41622162Y-42885633D01*
X41625588Y-42887922D01*
X41625593Y-42887926D01*
X41778459Y-42990067D01*
X41868327Y-43050115D01*
X41872026Y-43051939D01*
X41872031Y-43051942D01*
X42008313Y-43119148D01*
X42133855Y-43181059D01*
X42137760Y-43182384D01*
X42137761Y-43182385D01*
X42410290Y-43274896D01*
X42410294Y-43274897D01*
X42414203Y-43276224D01*
X42418247Y-43277028D01*
X42418253Y-43277030D01*
X42700535Y-43333180D01*
X42700541Y-43333181D01*
X42704574Y-43333983D01*
X42708679Y-43334252D01*
X42708686Y-43334253D01*
X42995881Y-43353076D01*
X43000000Y-43353346D01*
X43004119Y-43353076D01*
X43291314Y-43334253D01*
X43291321Y-43334252D01*
X43295426Y-43333983D01*
X43299459Y-43333181D01*
X43299465Y-43333180D01*
X43581747Y-43277030D01*
X43581753Y-43277028D01*
X43585797Y-43276224D01*
X43589706Y-43274897D01*
X43589710Y-43274896D01*
X43862239Y-43182385D01*
X43862240Y-43182384D01*
X43866145Y-43181059D01*
X43991687Y-43119148D01*
X44127969Y-43051942D01*
X44127974Y-43051939D01*
X44131673Y-43050115D01*
X44221541Y-42990067D01*
X44374407Y-42887926D01*
X44374412Y-42887922D01*
X44377838Y-42885633D01*
X44380932Y-42882919D01*
X44380938Y-42882915D01*
X44597338Y-42693136D01*
X44600427Y-42690427D01*
X44679059Y-42600765D01*
X44792915Y-42470938D01*
X44792919Y-42470932D01*
X44795633Y-42467838D01*
X44810214Y-42446017D01*
X44957821Y-42225106D01*
X44960115Y-42221673D01*
X44969798Y-42202039D01*
X45043195Y-42053203D01*
X45091059Y-41956145D01*
X45171109Y-41720324D01*
X45211946Y-41662248D01*
X45277699Y-41635469D01*
X45347491Y-41648490D01*
X45354137Y-41653063D01*
X45357281Y-41653584D01*
X45367694Y-41649096D01*
X46109978Y-40906812D01*
X46116356Y-40895132D01*
X46846408Y-40895132D01*
X46846539Y-40896965D01*
X46850790Y-40903580D01*
X47592474Y-41645264D01*
X47604484Y-41651823D01*
X47616223Y-41642855D01*
X47647004Y-41600019D01*
X47652315Y-41591180D01*
X47746670Y-41400267D01*
X47750469Y-41390672D01*
X47812376Y-41186915D01*
X47814555Y-41176834D01*
X47842590Y-40963887D01*
X47843109Y-40957212D01*
X47844572Y-40897364D01*
X47844378Y-40890646D01*
X47826781Y-40676604D01*
X47825096Y-40666424D01*
X47773214Y-40459875D01*
X47769894Y-40450124D01*
X47684972Y-40254814D01*
X47680105Y-40245739D01*
X47615063Y-40145197D01*
X47604377Y-40135995D01*
X47594812Y-40140398D01*
X46854022Y-40881188D01*
X46846408Y-40895132D01*
X46116356Y-40895132D01*
X46117592Y-40892868D01*
X46117461Y-40891035D01*
X46113210Y-40884420D01*
X45371849Y-40143059D01*
X45360313Y-40136759D01*
X45348031Y-40146382D01*
X45298339Y-40219228D01*
X45243428Y-40264231D01*
X45172903Y-40272402D01*
X45109156Y-40241148D01*
X45081244Y-40203952D01*
X44961942Y-39962031D01*
X44961939Y-39962026D01*
X44960115Y-39958327D01*
X44841467Y-39780757D01*
X44834565Y-39770427D01*
X45723223Y-39770427D01*
X45729968Y-39782758D01*
X46469188Y-40521978D01*
X46483132Y-40529592D01*
X46484965Y-40529461D01*
X46491580Y-40525210D01*
X47235389Y-39781401D01*
X47242410Y-39768544D01*
X47235611Y-39759213D01*
X47231554Y-39756518D01*
X47045117Y-39653599D01*
X47035705Y-39649369D01*
X46834959Y-39578280D01*
X46824989Y-39575646D01*
X46615327Y-39538301D01*
X46605073Y-39537331D01*
X46392116Y-39534728D01*
X46381832Y-39535448D01*
X46171321Y-39567661D01*
X46161293Y-39570050D01*
X45958868Y-39636212D01*
X45949359Y-39640209D01*
X45760466Y-39738540D01*
X45751734Y-39744039D01*
X45731677Y-39759099D01*
X45723223Y-39770427D01*
X44834565Y-39770427D01*
X44797926Y-39715593D01*
X44797922Y-39715588D01*
X44795633Y-39712162D01*
X44792919Y-39709068D01*
X44792915Y-39709062D01*
X44603136Y-39492662D01*
X44600427Y-39489573D01*
X44426146Y-39336732D01*
X44388119Y-39276778D01*
X44388541Y-39205783D01*
X44427280Y-39146286D01*
X44492035Y-39117178D01*
X44509224Y-39116000D01*
X128906000Y-39116000D01*
X128974121Y-39136002D01*
G37*
G04 #@! TD.AperFunction*
G04 #@! TA.AperFunction,Conductor*
G36*
X93616327Y-87704302D02*
G01*
X93637301Y-87721205D01*
X94417073Y-88500977D01*
X94451099Y-88563289D01*
X94446034Y-88634104D01*
X94403487Y-88690940D01*
X94386174Y-88701826D01*
X94269607Y-88762507D01*
X94265474Y-88765610D01*
X94265471Y-88765612D01*
X94095100Y-88893530D01*
X94090965Y-88896635D01*
X94056848Y-88932336D01*
X93997280Y-88994671D01*
X93936629Y-89058138D01*
X93933720Y-89062403D01*
X93933714Y-89062411D01*
X93915627Y-89088926D01*
X93829204Y-89215618D01*
X93828898Y-89216066D01*
X93773987Y-89261069D01*
X93703462Y-89269240D01*
X93639715Y-89237986D01*
X93619018Y-89213502D01*
X93538426Y-89088926D01*
X93532136Y-89080757D01*
X93388806Y-88923240D01*
X93381273Y-88916215D01*
X93214139Y-88784222D01*
X93205552Y-88778517D01*
X93019117Y-88675599D01*
X93009705Y-88671369D01*
X92808959Y-88600280D01*
X92798988Y-88597646D01*
X92727837Y-88584972D01*
X92714540Y-88586432D01*
X92710000Y-88600989D01*
X92710000Y-90044000D01*
X92689998Y-90112121D01*
X92636342Y-90158614D01*
X92584000Y-90170000D01*
X92328000Y-90170000D01*
X92259879Y-90149998D01*
X92213386Y-90096342D01*
X92202000Y-90044000D01*
X92202000Y-88599102D01*
X92198082Y-88585758D01*
X92183806Y-88583771D01*
X92145324Y-88589660D01*
X92135288Y-88592051D01*
X91932868Y-88658212D01*
X91923359Y-88662209D01*
X91734463Y-88760542D01*
X91725738Y-88766036D01*
X91555433Y-88893905D01*
X91547726Y-88900748D01*
X91400590Y-89054717D01*
X91394109Y-89062722D01*
X91289498Y-89216074D01*
X91234587Y-89261076D01*
X91164062Y-89269247D01*
X91100315Y-89237993D01*
X91079618Y-89213509D01*
X90998822Y-89088617D01*
X90998820Y-89088614D01*
X90996014Y-89084277D01*
X90845670Y-88919051D01*
X90841619Y-88915852D01*
X90841615Y-88915848D01*
X90674414Y-88783800D01*
X90674410Y-88783798D01*
X90670359Y-88780598D01*
X90642390Y-88765158D01*
X90587443Y-88734826D01*
X90474789Y-88672638D01*
X90469920Y-88670914D01*
X90469916Y-88670912D01*
X90269087Y-88599795D01*
X90269083Y-88599794D01*
X90264212Y-88598069D01*
X90259119Y-88597162D01*
X90259116Y-88597161D01*
X90049373Y-88559800D01*
X90049367Y-88559799D01*
X90044284Y-88558894D01*
X89970452Y-88557992D01*
X89826081Y-88556228D01*
X89826079Y-88556228D01*
X89820911Y-88556165D01*
X89600091Y-88589955D01*
X89387756Y-88659357D01*
X89352007Y-88677967D01*
X89198346Y-88757958D01*
X89189607Y-88762507D01*
X89185474Y-88765610D01*
X89185471Y-88765612D01*
X89015100Y-88893530D01*
X89010965Y-88896635D01*
X88976848Y-88932336D01*
X88917280Y-88994671D01*
X88856629Y-89058138D01*
X88853720Y-89062403D01*
X88853714Y-89062411D01*
X88835627Y-89088926D01*
X88730743Y-89242680D01*
X88712259Y-89282500D01*
X88662690Y-89389289D01*
X88636688Y-89445305D01*
X88576989Y-89660570D01*
X88553251Y-89882695D01*
X88553548Y-89887848D01*
X88553548Y-89887851D01*
X88554479Y-89904000D01*
X88566110Y-90105715D01*
X88567247Y-90110761D01*
X88567248Y-90110767D01*
X88610818Y-90304099D01*
X88606282Y-90374951D01*
X88564160Y-90432102D01*
X88497827Y-90457408D01*
X88487901Y-90457800D01*
X87868494Y-90457800D01*
X87800373Y-90437798D01*
X87779399Y-90420895D01*
X85257900Y-87899395D01*
X85223874Y-87837083D01*
X85228939Y-87766267D01*
X85271486Y-87709432D01*
X85338006Y-87684621D01*
X85346995Y-87684300D01*
X93548206Y-87684300D01*
X93616327Y-87704302D01*
G37*
G04 #@! TD.AperFunction*
G04 #@! TA.AperFunction,Conductor*
G36*
X69122116Y-80378027D02*
G01*
X69129609Y-80379702D01*
X69137536Y-80379453D01*
X69145428Y-80380199D01*
X69145188Y-80382741D01*
X69201785Y-80397443D01*
X69249943Y-80449610D01*
X69254617Y-80462555D01*
X69255255Y-80462316D01*
X69306385Y-80598705D01*
X69393739Y-80715261D01*
X69510295Y-80802615D01*
X69646684Y-80853745D01*
X69708866Y-80860500D01*
X71505134Y-80860500D01*
X71567316Y-80853745D01*
X71703705Y-80802615D01*
X71717010Y-80792643D01*
X71783514Y-80767795D01*
X71852896Y-80782847D01*
X71881670Y-80804374D01*
X74663364Y-83586068D01*
X74697390Y-83648380D01*
X74692325Y-83719195D01*
X74649778Y-83776031D01*
X74640104Y-83782595D01*
X74475555Y-83883432D01*
X74466093Y-83893890D01*
X74469876Y-83902666D01*
X76554290Y-85987080D01*
X76566670Y-85993840D01*
X76574320Y-85988113D01*
X76679205Y-85816958D01*
X76683687Y-85808163D01*
X76712241Y-85739226D01*
X76756789Y-85683945D01*
X76824152Y-85661524D01*
X76892943Y-85679082D01*
X76917745Y-85698349D01*
X77872001Y-86652605D01*
X77906027Y-86714917D01*
X77900962Y-86785732D01*
X77858415Y-86842568D01*
X77791895Y-86867379D01*
X77782906Y-86867700D01*
X75603625Y-86867700D01*
X75535504Y-86847698D01*
X75489011Y-86794042D01*
X75478907Y-86723768D01*
X75508401Y-86659188D01*
X75574211Y-86619181D01*
X75796627Y-86565783D01*
X75806012Y-86562734D01*
X76016163Y-86475687D01*
X76024958Y-86471205D01*
X76192445Y-86368568D01*
X76201907Y-86358110D01*
X76198124Y-86349334D01*
X75346812Y-85498022D01*
X75332868Y-85490408D01*
X75331035Y-85490539D01*
X75324420Y-85494790D01*
X74472920Y-86346290D01*
X74466160Y-86358670D01*
X74471887Y-86366320D01*
X74643042Y-86471205D01*
X74651837Y-86475687D01*
X74861988Y-86562734D01*
X74871373Y-86565783D01*
X75093789Y-86619181D01*
X75155358Y-86654533D01*
X75188041Y-86717560D01*
X75181460Y-86788251D01*
X75137706Y-86844162D01*
X75064375Y-86867700D01*
X69103625Y-86867700D01*
X69035504Y-86847698D01*
X68989011Y-86794042D01*
X68978907Y-86723768D01*
X69008401Y-86659188D01*
X69074211Y-86619181D01*
X69296627Y-86565783D01*
X69306012Y-86562734D01*
X69516163Y-86475687D01*
X69524958Y-86471205D01*
X69692445Y-86368568D01*
X69701907Y-86358110D01*
X69698124Y-86349334D01*
X68475922Y-85127132D01*
X69198408Y-85127132D01*
X69198539Y-85128965D01*
X69202790Y-85135580D01*
X70054290Y-85987080D01*
X70066670Y-85993840D01*
X70074320Y-85988113D01*
X70179205Y-85816958D01*
X70183687Y-85808163D01*
X70270734Y-85598012D01*
X70273783Y-85588627D01*
X70326885Y-85367446D01*
X70328428Y-85357699D01*
X70346275Y-85130930D01*
X73821725Y-85130930D01*
X73839572Y-85357699D01*
X73841115Y-85367446D01*
X73894217Y-85588627D01*
X73897266Y-85598012D01*
X73984313Y-85808163D01*
X73988795Y-85816958D01*
X74091432Y-85984445D01*
X74101890Y-85993907D01*
X74110666Y-85990124D01*
X74961978Y-85138812D01*
X74969592Y-85124868D01*
X74969461Y-85123035D01*
X74965210Y-85116420D01*
X74113710Y-84264920D01*
X74101330Y-84258160D01*
X74093680Y-84263887D01*
X73988795Y-84435042D01*
X73984313Y-84443837D01*
X73897266Y-84653988D01*
X73894217Y-84663373D01*
X73841115Y-84884554D01*
X73839572Y-84894301D01*
X73821725Y-85121070D01*
X73821725Y-85130930D01*
X70346275Y-85130930D01*
X70346275Y-85121070D01*
X70328428Y-84894301D01*
X70326885Y-84884554D01*
X70273783Y-84663373D01*
X70270734Y-84653988D01*
X70183687Y-84443837D01*
X70179205Y-84435042D01*
X70076568Y-84267555D01*
X70066110Y-84258093D01*
X70057334Y-84261876D01*
X69206022Y-85113188D01*
X69198408Y-85127132D01*
X68475922Y-85127132D01*
X67613710Y-84264920D01*
X67601330Y-84258160D01*
X67593680Y-84263887D01*
X67488795Y-84435042D01*
X67484313Y-84443837D01*
X67397266Y-84653988D01*
X67394217Y-84663373D01*
X67341115Y-84884554D01*
X67339572Y-84894301D01*
X67321725Y-85121070D01*
X67321725Y-85130930D01*
X67339572Y-85357699D01*
X67341115Y-85367446D01*
X67394217Y-85588627D01*
X67397266Y-85598012D01*
X67486207Y-85812735D01*
X67484387Y-85813489D01*
X67495948Y-85875060D01*
X67469245Y-85940844D01*
X67411216Y-85981748D01*
X67340285Y-85984786D01*
X67281482Y-85951577D01*
X65223795Y-83893890D01*
X67966093Y-83893890D01*
X67969876Y-83902666D01*
X68821188Y-84753978D01*
X68835132Y-84761592D01*
X68836965Y-84761461D01*
X68843580Y-84757210D01*
X69695080Y-83905710D01*
X69701840Y-83893330D01*
X69696113Y-83885680D01*
X69524958Y-83780795D01*
X69516163Y-83776313D01*
X69306012Y-83689266D01*
X69296627Y-83686217D01*
X69075446Y-83633115D01*
X69065699Y-83631572D01*
X68838930Y-83613725D01*
X68829070Y-83613725D01*
X68602301Y-83631572D01*
X68592554Y-83633115D01*
X68371373Y-83686217D01*
X68361988Y-83689266D01*
X68151837Y-83776313D01*
X68143042Y-83780795D01*
X67975555Y-83883432D01*
X67966093Y-83893890D01*
X65223795Y-83893890D01*
X62559500Y-81229595D01*
X62525474Y-81167283D01*
X62530539Y-81096468D01*
X62573086Y-81039632D01*
X62639606Y-81014821D01*
X62648595Y-81014500D01*
X63528134Y-81014500D01*
X63590316Y-81007745D01*
X63726705Y-80956615D01*
X63843261Y-80869261D01*
X63930615Y-80752705D01*
X63981745Y-80616316D01*
X63988500Y-80554134D01*
X63988500Y-80503500D01*
X64008502Y-80435379D01*
X64062158Y-80388886D01*
X64114500Y-80377500D01*
X69110933Y-80377500D01*
X69122116Y-80378027D01*
G37*
G04 #@! TD.AperFunction*
G04 #@! TD*
M02*
